%TF.GenerationSoftware,KiCad,Pcbnew,7.0.6*%
%TF.CreationDate,2024-03-10T16:24:53+08:00*%
%TF.ProjectId,Digital Clock,44696769-7461-46c2-9043-6c6f636b2e6b,_____*%
%TF.SameCoordinates,Original*%
%TF.FileFunction,Copper,L4,Bot*%
%TF.FilePolarity,Positive*%
%FSLAX46Y46*%
G04 Gerber Fmt 4.6, Leading zero omitted, Abs format (unit mm)*
G04 Created by KiCad (PCBNEW 7.0.6) date 2024-03-10 16:24:53*
%MOMM*%
%LPD*%
G01*
G04 APERTURE LIST*
%TA.AperFunction,ComponentPad*%
%ADD10C,0.650000*%
%TD*%
%TA.AperFunction,ComponentPad*%
%ADD11O,2.090000X0.930000*%
%TD*%
%TA.AperFunction,SMDPad,CuDef*%
%ADD12R,0.600000X1.200000*%
%TD*%
%TA.AperFunction,SMDPad,CuDef*%
%ADD13R,0.650000X1.300000*%
%TD*%
%TA.AperFunction,SMDPad,CuDef*%
%ADD14R,0.400000X0.650000*%
%TD*%
%TA.AperFunction,ComponentPad*%
%ADD15C,1.000000*%
%TD*%
%TA.AperFunction,SMDPad,CuDef*%
%ADD16R,2.200000X2.450000*%
%TD*%
%TA.AperFunction,ViaPad*%
%ADD17C,0.800000*%
%TD*%
%TA.AperFunction,ViaPad*%
%ADD18C,2.000000*%
%TD*%
%TA.AperFunction,ViaPad*%
%ADD19C,1.200000*%
%TD*%
%TA.AperFunction,ViaPad*%
%ADD20C,1.000000*%
%TD*%
%TA.AperFunction,ViaPad*%
%ADD21C,0.700000*%
%TD*%
%TA.AperFunction,ViaPad*%
%ADD22C,0.600000*%
%TD*%
%TA.AperFunction,Conductor*%
%ADD23C,0.500000*%
%TD*%
%TA.AperFunction,Conductor*%
%ADD24C,0.400000*%
%TD*%
%TA.AperFunction,Conductor*%
%ADD25C,0.300000*%
%TD*%
%TA.AperFunction,Profile*%
%ADD26C,0.100000*%
%TD*%
G04 APERTURE END LIST*
D10*
%TO.P,J1,6,Shield*%
%TO.N,GND*%
X84237500Y-38760000D03*
X84237500Y-34760000D03*
D11*
%TO.P,J1,7*%
%TO.N,N/C*%
X86337500Y-39590000D03*
X86337500Y-33910000D03*
%TD*%
D12*
%TO.P,SW2,1,1*%
%TO.N,/P3.2*%
X55206000Y-45720000D03*
%TO.P,SW2,2,2*%
%TO.N,/P1.4*%
X51756000Y-45720000D03*
D13*
%TO.P,SW2,3*%
%TO.N,N/C*%
X51116000Y-47560000D03*
D14*
X51636000Y-47880000D03*
X55316000Y-47890000D03*
D13*
X55836000Y-47570000D03*
D15*
%TO.P,SW2,4*%
X52656000Y-46920000D03*
X54356000Y-46920000D03*
%TD*%
D12*
%TO.P,SW5,1,1*%
%TO.N,/P3.2*%
X73790000Y-45540000D03*
%TO.P,SW5,2,2*%
%TO.N,/P5.4*%
X77240000Y-45540000D03*
D13*
%TO.P,SW5,3*%
%TO.N,N/C*%
X73150000Y-47380000D03*
D14*
X73670000Y-47700000D03*
X77350000Y-47710000D03*
D13*
X77870000Y-47390000D03*
D15*
%TO.P,SW5,4*%
X74690000Y-46740000D03*
X76390000Y-46740000D03*
%TD*%
D16*
%TO.P,D1,1,DIG1*%
%TO.N,/DIG1*%
X72110000Y-25700000D03*
%TO.P,D1,2,DIG2*%
%TO.N,/DIG4*%
X64490000Y-25695000D03*
%TO.P,D1,3,DIG3*%
%TO.N,/DIG2*%
X61950000Y-25700000D03*
%TO.P,D1,4,DIG4*%
%TO.N,/DIG3*%
X59410000Y-40175000D03*
%TO.P,D1,5,A*%
%TO.N,/A*%
X69570000Y-25705000D03*
%TO.P,D1,6,B*%
%TO.N,/B*%
X59410000Y-25690000D03*
%TO.P,D1,7,C*%
%TO.N,/C*%
X64490000Y-40180000D03*
%TO.P,D1,8,D*%
%TO.N,/D*%
X69570000Y-40190000D03*
%TO.P,D1,9,E*%
%TO.N,/E*%
X72110000Y-40185000D03*
%TO.P,D1,10,F*%
%TO.N,/F*%
X67030000Y-25695000D03*
%TO.P,D1,11,G*%
%TO.N,/G*%
X61950000Y-40185000D03*
%TO.P,D1,12,H*%
%TO.N,/DP*%
X67030000Y-40180000D03*
%TD*%
D12*
%TO.P,SW1,1,1*%
%TO.N,/P5.5*%
X80450000Y-45540000D03*
%TO.P,SW1,2,2*%
%TO.N,/P3.2*%
X83900000Y-45540000D03*
D13*
%TO.P,SW1,3*%
%TO.N,N/C*%
X79810000Y-47380000D03*
D14*
X80330000Y-47700000D03*
X84010000Y-47710000D03*
D13*
X84530000Y-47390000D03*
D15*
%TO.P,SW1,4*%
X81350000Y-46740000D03*
X83050000Y-46740000D03*
%TD*%
D12*
%TO.P,SW3,1,1*%
%TO.N,/P3.2*%
X64900000Y-45540000D03*
%TO.P,SW3,2,2*%
%TO.N,/P1.5*%
X68350000Y-45540000D03*
D13*
%TO.P,SW3,3*%
%TO.N,N/C*%
X64260000Y-47380000D03*
D14*
X64780000Y-47700000D03*
X68460000Y-47710000D03*
D13*
X68980000Y-47390000D03*
D15*
%TO.P,SW3,4*%
X65800000Y-46740000D03*
X67500000Y-46740000D03*
%TD*%
D17*
%TO.N,/P1.1*%
X45550000Y-30410000D03*
%TO.N,GND*%
X72110000Y-30460000D03*
X85400000Y-22650000D03*
X70200000Y-38100000D03*
D18*
X86900000Y-21199999D03*
D19*
X79000000Y-33100000D03*
D20*
X64058800Y-38227000D03*
X81900000Y-35400000D03*
D17*
X68808600Y-38023800D03*
X48600000Y-45300000D03*
D19*
X86350000Y-32000000D03*
D17*
X68961000Y-42697400D03*
D19*
X86337907Y-41700667D03*
D18*
X45100000Y-46700000D03*
D17*
X59450000Y-35890000D03*
X73130000Y-29320000D03*
D18*
X86900000Y-46700000D03*
X45100000Y-21200000D03*
D17*
X53810000Y-34000000D03*
X85400000Y-30850000D03*
X77250000Y-20850000D03*
D20*
%TO.N,VCC*%
X64109600Y-42037000D03*
X48610000Y-44100000D03*
D17*
X72110000Y-34360000D03*
X74500000Y-27200000D03*
X59330000Y-34600000D03*
X71970000Y-31690000D03*
X70760000Y-22260000D03*
X74600000Y-24500000D03*
D20*
X74300000Y-40100000D03*
D17*
X61370000Y-23740000D03*
%TO.N,/DIG1*%
X59290000Y-33420000D03*
%TO.N,/DIG4*%
X55900000Y-31200000D03*
%TO.N,/DIG2*%
X53600000Y-31900000D03*
%TO.N,/DIG3*%
X51290000Y-34370000D03*
%TO.N,/A*%
X58050000Y-30350000D03*
%TO.N,/B*%
X55000000Y-29400000D03*
%TO.N,/C*%
X65455800Y-38074600D03*
%TO.N,/D*%
X61710000Y-45460000D03*
%TO.N,/E*%
X72410000Y-42860000D03*
%TO.N,/F*%
X66000000Y-28300000D03*
X66000000Y-31600000D03*
X55110000Y-38860000D03*
X55110000Y-40660000D03*
X66000000Y-35900000D03*
%TO.N,/G*%
X60410000Y-43760000D03*
%TO.N,/DP*%
X65010000Y-42860000D03*
D21*
%TO.N,/UD+*%
X82110000Y-36760000D03*
X80840000Y-38010000D03*
%TO.N,/P3.7*%
X70660000Y-29280000D03*
X70660000Y-27680000D03*
D17*
%TO.N,/P3.2*%
X77851000Y-42799000D03*
D22*
X70510000Y-33560000D03*
D17*
X75692000Y-44958000D03*
%TO.N,/P1.4*%
X59210000Y-42160000D03*
X60310000Y-33560000D03*
X59910000Y-38260000D03*
%TO.N,/P1.5*%
X61470000Y-38270000D03*
X66548000Y-45466000D03*
X60510000Y-42160000D03*
X60706000Y-46482000D03*
X61110000Y-32760000D03*
%TO.N,/P5.4*%
X62500000Y-38100000D03*
X62130000Y-33000000D03*
X68453000Y-43561000D03*
X63400000Y-43800000D03*
X62700000Y-42100000D03*
D22*
%TO.N,/TX*%
X71710000Y-35360000D03*
X72100000Y-36900000D03*
%TO.N,/P1.3*%
X59980000Y-30730000D03*
D17*
X56780000Y-31810000D03*
%TO.N,/P5.5*%
X67110000Y-35460000D03*
%TD*%
D23*
%TO.N,GND*%
X74050000Y-47380000D02*
X74690000Y-46740000D01*
X64260000Y-47380000D02*
X65160000Y-47380000D01*
D24*
X51116000Y-47560000D02*
X52016000Y-47560000D01*
D23*
X55836000Y-47570000D02*
X55006000Y-47570000D01*
X68980000Y-47390000D02*
X68150000Y-47390000D01*
X77040000Y-47390000D02*
X76390000Y-46740000D01*
D24*
X52016000Y-47560000D02*
X52656000Y-46920000D01*
D23*
X65160000Y-47380000D02*
X65800000Y-46740000D01*
D24*
X52610000Y-46680000D02*
X52670000Y-46680000D01*
D23*
X68150000Y-47390000D02*
X67500000Y-46740000D01*
X55006000Y-47570000D02*
X54356000Y-46920000D01*
X73150000Y-47380000D02*
X74050000Y-47380000D01*
X79810000Y-47380000D02*
X80710000Y-47380000D01*
X84530000Y-47390000D02*
X83700000Y-47390000D01*
X77870000Y-47390000D02*
X77040000Y-47390000D01*
X80710000Y-47380000D02*
X81350000Y-46740000D01*
X83700000Y-47390000D02*
X83050000Y-46740000D01*
D24*
%TO.N,/DIG1*%
X62190000Y-30480000D02*
X70800000Y-30480000D01*
X72250000Y-29030000D02*
X72250000Y-25730000D01*
X70800000Y-30480000D02*
X72250000Y-29030000D01*
X59290000Y-33420000D02*
X59290000Y-33380000D01*
X59290000Y-33380000D02*
X62190000Y-30480000D01*
%TO.N,/DIG4*%
X55970000Y-31200000D02*
X58110000Y-29060000D01*
X55900000Y-31200000D02*
X55970000Y-31200000D01*
X64630000Y-26320000D02*
X64630000Y-25725000D01*
X61890000Y-29060000D02*
X64630000Y-26320000D01*
X58110000Y-29060000D02*
X61890000Y-29060000D01*
%TO.N,/DIG2*%
X53600000Y-31900000D02*
X53870000Y-31900000D01*
X53870000Y-31900000D02*
X57320000Y-28450000D01*
X62090000Y-27355000D02*
X62090000Y-25730000D01*
X60995000Y-28450000D02*
X62090000Y-27355000D01*
X57320000Y-28450000D02*
X60995000Y-28450000D01*
%TO.N,/DIG3*%
X58600000Y-39255000D02*
X59550000Y-40205000D01*
X52660000Y-33000000D02*
X56550000Y-33000000D01*
X58600000Y-35050000D02*
X58600000Y-39255000D01*
X51290000Y-34370000D02*
X52660000Y-33000000D01*
X56550000Y-33000000D02*
X58600000Y-35050000D01*
%TO.N,/A*%
X68510000Y-29760000D02*
X69570000Y-28700000D01*
X69570000Y-28700000D02*
X69570000Y-25705000D01*
X58050000Y-30350000D02*
X58640000Y-29760000D01*
X58640000Y-29760000D02*
X68510000Y-29760000D01*
%TO.N,/B*%
X58680000Y-25690000D02*
X59410000Y-25690000D01*
X55000000Y-29370000D02*
X58680000Y-25690000D01*
X55000000Y-29400000D02*
X55000000Y-29370000D01*
D25*
%TO.N,/C*%
X65455800Y-38074600D02*
X64490000Y-39040400D01*
X64490000Y-39040400D02*
X64490000Y-40180000D01*
D24*
%TO.N,/D*%
X61710000Y-45460000D02*
X63140000Y-45460000D01*
X66340000Y-43860000D02*
X69570000Y-40630000D01*
X63140000Y-45460000D02*
X64740000Y-43860000D01*
X64740000Y-43860000D02*
X66340000Y-43860000D01*
%TO.N,/E*%
X72410000Y-42860000D02*
X72410000Y-40485000D01*
X72410000Y-40485000D02*
X72110000Y-40185000D01*
D25*
%TO.N,/F*%
X55110000Y-40660000D02*
X55110000Y-38860000D01*
X67030000Y-26470000D02*
X67030000Y-25695000D01*
X66000000Y-27500000D02*
X67030000Y-26470000D01*
X66000000Y-28300000D02*
X66000000Y-27500000D01*
X66000000Y-35900000D02*
X66000000Y-31600000D01*
%TO.N,/G*%
X60410000Y-43760000D02*
X61410000Y-43760000D01*
X61950000Y-43220000D02*
X61950000Y-40185000D01*
X61410000Y-43760000D02*
X61950000Y-43220000D01*
%TO.N,/DP*%
X65010000Y-42860000D02*
X67030000Y-40840000D01*
X67030000Y-40840000D02*
X67030000Y-40180000D01*
%TO.N,/UD+*%
X82090000Y-36760000D02*
X82110000Y-36760000D01*
X80840000Y-38010000D02*
X82090000Y-36760000D01*
%TO.N,/P3.7*%
X70660000Y-27680000D02*
X70660000Y-29280000D01*
D24*
%TO.N,/P3.2*%
X62458000Y-47282000D02*
X58458000Y-47282000D01*
X64900000Y-45540000D02*
X64200000Y-45540000D01*
X76200000Y-37700000D02*
X71800000Y-37700000D01*
X71800000Y-37700000D02*
X70810000Y-36710000D01*
X77250000Y-38750000D02*
X76200000Y-37700000D01*
X80392000Y-43942000D02*
X82550000Y-43942000D01*
X75110000Y-45540000D02*
X73790000Y-45540000D01*
X70810000Y-33860000D02*
X70510000Y-33560000D01*
X77250000Y-40800000D02*
X77250000Y-38750000D01*
X70050000Y-45540000D02*
X69050000Y-44540000D01*
X77250000Y-40800000D02*
X78550000Y-42100000D01*
X78550000Y-42100000D02*
X80392000Y-43942000D01*
X73790000Y-45540000D02*
X70050000Y-45540000D01*
X69050000Y-44540000D02*
X65900000Y-44540000D01*
X65900000Y-44540000D02*
X64900000Y-45540000D01*
X75692000Y-44958000D02*
X75110000Y-45540000D01*
X82550000Y-43942000D02*
X83900000Y-45292000D01*
X56896000Y-45720000D02*
X55206000Y-45720000D01*
X83900000Y-45292000D02*
X83900000Y-45540000D01*
X58458000Y-47282000D02*
X56896000Y-45720000D01*
X64200000Y-45540000D02*
X62458000Y-47282000D01*
X77851000Y-42799000D02*
X78550000Y-42100000D01*
X70810000Y-36710000D02*
X70810000Y-33860000D01*
%TO.N,/P1.4*%
X57150000Y-44196000D02*
X57404000Y-43942000D01*
X57458000Y-43942000D02*
X59210000Y-42190000D01*
X51756000Y-45720000D02*
X53280000Y-44196000D01*
X59210000Y-42190000D02*
X59210000Y-42160000D01*
X60500000Y-37670000D02*
X60500000Y-33750000D01*
X57404000Y-43942000D02*
X57458000Y-43942000D01*
X59910000Y-38260000D02*
X60500000Y-37670000D01*
X53280000Y-44196000D02*
X57150000Y-44196000D01*
X60500000Y-33750000D02*
X60310000Y-33560000D01*
%TO.N,/P1.5*%
X61300000Y-32950000D02*
X61300000Y-38100000D01*
X59210000Y-43460000D02*
X59210000Y-46260000D01*
X59432000Y-46482000D02*
X60706000Y-46482000D01*
X61110000Y-32760000D02*
X61300000Y-32950000D01*
X68276000Y-45466000D02*
X68350000Y-45540000D01*
X59210000Y-46260000D02*
X59432000Y-46482000D01*
X66548000Y-45466000D02*
X68276000Y-45466000D01*
X60510000Y-42160000D02*
X59210000Y-43460000D01*
X61300000Y-38100000D02*
X61470000Y-38270000D01*
%TO.N,/P5.4*%
X69342000Y-43561000D02*
X69781000Y-44000000D01*
X62500000Y-38100000D02*
X62500000Y-38030000D01*
X77240000Y-44982000D02*
X77240000Y-45540000D01*
X63400000Y-43800000D02*
X62700000Y-43100000D01*
X68453000Y-43561000D02*
X69342000Y-43561000D01*
X62500000Y-38030000D02*
X62130000Y-37660000D01*
X69781000Y-44000000D02*
X76258000Y-44000000D01*
X76258000Y-44000000D02*
X77240000Y-44982000D01*
X62700000Y-43100000D02*
X62700000Y-42100000D01*
X62130000Y-37660000D02*
X62130000Y-33000000D01*
D25*
%TO.N,/TX*%
X72100000Y-35750000D02*
X71710000Y-35360000D01*
X72100000Y-36900000D02*
X72100000Y-35750000D01*
%TO.N,/P1.3*%
X56780000Y-31810000D02*
X58900000Y-31810000D01*
X58900000Y-31810000D02*
X59980000Y-30730000D01*
%TO.N,/P5.5*%
X76400000Y-42872000D02*
X79068000Y-45540000D01*
X75800000Y-38300000D02*
X76400000Y-38900000D01*
X71600000Y-38300000D02*
X75800000Y-38300000D01*
X79068000Y-45540000D02*
X80450000Y-45540000D01*
X67110000Y-35460000D02*
X68760000Y-35460000D01*
X76400000Y-38900000D02*
X76400000Y-42872000D01*
X68760000Y-35460000D02*
X71600000Y-38300000D01*
%TD*%
%TA.AperFunction,Conductor*%
%TO.N,GND*%
G36*
X88193691Y-19978907D02*
G01*
X88229655Y-20028407D01*
X88234500Y-20059000D01*
X88234500Y-48301000D01*
X88215593Y-48359191D01*
X88166093Y-48395155D01*
X88135500Y-48400000D01*
X85282615Y-48400000D01*
X85224424Y-48381093D01*
X85188460Y-48331593D01*
X85188460Y-48270407D01*
X85194406Y-48256054D01*
X85240646Y-48165304D01*
X85255500Y-48071519D01*
X85255499Y-46708482D01*
X85255499Y-46708481D01*
X85255499Y-46708478D01*
X85255498Y-46708476D01*
X85240647Y-46614700D01*
X85240646Y-46614698D01*
X85240646Y-46614696D01*
X85183050Y-46501658D01*
X85093342Y-46411950D01*
X84980304Y-46354354D01*
X84980305Y-46354354D01*
X84886522Y-46339500D01*
X84886519Y-46339500D01*
X84689809Y-46339500D01*
X84631618Y-46320593D01*
X84595654Y-46271093D01*
X84592028Y-46225013D01*
X84600104Y-46174017D01*
X84600500Y-46171519D01*
X84600499Y-44908482D01*
X84600499Y-44908481D01*
X84600499Y-44908478D01*
X84600498Y-44908476D01*
X84600310Y-44907292D01*
X84596251Y-44881658D01*
X84585647Y-44814700D01*
X84585646Y-44814697D01*
X84585646Y-44814696D01*
X84528050Y-44701658D01*
X84438342Y-44611950D01*
X84325304Y-44554354D01*
X84325305Y-44554354D01*
X84231522Y-44539500D01*
X84231519Y-44539500D01*
X84037743Y-44539500D01*
X83979552Y-44520593D01*
X83967739Y-44510504D01*
X83004746Y-43547510D01*
X83000472Y-43542637D01*
X82978285Y-43513722D01*
X82978282Y-43513718D01*
X82978277Y-43513714D01*
X82978276Y-43513713D01*
X82867294Y-43428554D01*
X82852841Y-43417464D01*
X82852840Y-43417463D01*
X82852838Y-43417462D01*
X82706766Y-43356957D01*
X82706758Y-43356955D01*
X82589361Y-43341500D01*
X82550000Y-43336318D01*
X82549999Y-43336318D01*
X82513859Y-43341076D01*
X82507391Y-43341500D01*
X80681743Y-43341500D01*
X80623552Y-43322593D01*
X80611739Y-43312504D01*
X79004746Y-41705510D01*
X79000472Y-41700637D01*
X78978285Y-41671722D01*
X78978282Y-41671718D01*
X78978277Y-41671714D01*
X78978276Y-41671713D01*
X78949365Y-41649529D01*
X78944491Y-41645255D01*
X77879496Y-40580260D01*
X77851719Y-40525743D01*
X77850500Y-40510256D01*
X77850500Y-39542866D01*
X84888173Y-39542866D01*
X84898365Y-39730848D01*
X84898367Y-39730855D01*
X84948588Y-39911738D01*
X84948729Y-39912244D01*
X85036911Y-40078572D01*
X85036913Y-40078575D01*
X85158784Y-40222053D01*
X85158789Y-40222058D01*
X85308653Y-40335981D01*
X85308655Y-40335982D01*
X85308656Y-40335982D01*
X85308657Y-40335983D01*
X85479515Y-40415031D01*
X85663371Y-40455500D01*
X85663374Y-40455500D01*
X86964431Y-40455500D01*
X87104654Y-40440250D01*
X87283057Y-40380139D01*
X87444367Y-40283082D01*
X87581041Y-40153617D01*
X87686689Y-39997798D01*
X87756370Y-39822911D01*
X87786827Y-39637134D01*
X87776635Y-39449152D01*
X87726271Y-39267756D01*
X87638089Y-39101428D01*
X87574346Y-39026384D01*
X87516215Y-38957946D01*
X87516210Y-38957941D01*
X87366346Y-38844018D01*
X87366344Y-38844017D01*
X87195488Y-38764970D01*
X87195484Y-38764968D01*
X87095924Y-38743054D01*
X87011629Y-38724500D01*
X85710569Y-38724500D01*
X85570343Y-38739750D01*
X85391944Y-38799860D01*
X85391942Y-38799861D01*
X85230632Y-38896918D01*
X85230631Y-38896919D01*
X85093960Y-39026381D01*
X85093957Y-39026384D01*
X84988311Y-39182201D01*
X84918630Y-39357088D01*
X84904779Y-39441578D01*
X84888173Y-39542866D01*
X77850500Y-39542866D01*
X77850500Y-38792608D01*
X77850924Y-38786140D01*
X77855682Y-38750000D01*
X77855682Y-38749999D01*
X77849720Y-38704717D01*
X77835044Y-38593238D01*
X77832169Y-38586297D01*
X77774537Y-38447161D01*
X77774537Y-38447160D01*
X77770423Y-38441800D01*
X77756859Y-38424122D01*
X77678282Y-38321718D01*
X77678277Y-38321714D01*
X77678276Y-38321713D01*
X77649365Y-38299529D01*
X77644491Y-38295255D01*
X77359240Y-38010004D01*
X80084751Y-38010004D01*
X80103685Y-38178053D01*
X80103688Y-38178065D01*
X80159544Y-38337690D01*
X80159544Y-38337691D01*
X80229813Y-38449522D01*
X80249523Y-38480890D01*
X80369110Y-38600477D01*
X80512310Y-38690456D01*
X80550528Y-38703829D01*
X80671934Y-38746311D01*
X80671938Y-38746312D01*
X80671941Y-38746313D01*
X80671942Y-38746313D01*
X80671946Y-38746314D01*
X80839996Y-38765249D01*
X80840000Y-38765249D01*
X80840004Y-38765249D01*
X81008053Y-38746314D01*
X81008055Y-38746313D01*
X81008059Y-38746313D01*
X81167690Y-38690456D01*
X81310890Y-38600477D01*
X81430477Y-38480890D01*
X81520456Y-38337690D01*
X81576313Y-38178059D01*
X81588414Y-38070653D01*
X81613718Y-38014947D01*
X81616766Y-38011757D01*
X82089198Y-37539325D01*
X82143713Y-37511550D01*
X82148063Y-37510960D01*
X82278059Y-37496313D01*
X82437690Y-37440456D01*
X82580890Y-37350477D01*
X82700477Y-37230890D01*
X82790456Y-37087690D01*
X82846313Y-36928059D01*
X82846314Y-36928053D01*
X82865249Y-36760004D01*
X82865249Y-36759995D01*
X82846314Y-36591946D01*
X82846311Y-36591934D01*
X82823480Y-36526690D01*
X82790456Y-36432310D01*
X82771575Y-36402262D01*
X82700479Y-36289113D01*
X82700478Y-36289112D01*
X82700477Y-36289110D01*
X82580890Y-36169523D01*
X82580887Y-36169521D01*
X82580886Y-36169520D01*
X82437691Y-36079544D01*
X82278065Y-36023688D01*
X82278053Y-36023685D01*
X82110004Y-36004751D01*
X82109996Y-36004751D01*
X81941946Y-36023685D01*
X81941934Y-36023688D01*
X81782309Y-36079544D01*
X81782308Y-36079544D01*
X81639113Y-36169520D01*
X81519520Y-36289113D01*
X81429544Y-36432308D01*
X81429544Y-36432309D01*
X81373686Y-36591939D01*
X81373686Y-36591941D01*
X81364124Y-36676803D01*
X81338820Y-36732511D01*
X81335751Y-36735722D01*
X80838262Y-37233211D01*
X80783745Y-37260988D01*
X80779344Y-37261584D01*
X80671941Y-37273686D01*
X80671939Y-37273686D01*
X80512309Y-37329544D01*
X80512308Y-37329544D01*
X80369113Y-37419520D01*
X80249520Y-37539113D01*
X80159544Y-37682308D01*
X80159544Y-37682309D01*
X80103688Y-37841934D01*
X80103685Y-37841946D01*
X80084751Y-38009995D01*
X80084751Y-38010004D01*
X77359240Y-38010004D01*
X76654746Y-37305510D01*
X76650472Y-37300637D01*
X76628285Y-37271722D01*
X76628282Y-37271718D01*
X76628277Y-37271714D01*
X76628276Y-37271713D01*
X76502838Y-37175462D01*
X76356766Y-37114957D01*
X76356758Y-37114955D01*
X76239361Y-37099500D01*
X76200000Y-37094318D01*
X76199999Y-37094318D01*
X76163859Y-37099076D01*
X76157391Y-37099500D01*
X72893169Y-37099500D01*
X72834978Y-37080593D01*
X72799014Y-37031093D01*
X72794891Y-36988567D01*
X72805645Y-36900001D01*
X72805645Y-36899998D01*
X72801994Y-36869938D01*
X72785140Y-36731128D01*
X72724818Y-36572070D01*
X72668024Y-36489790D01*
X72650500Y-36433553D01*
X72650500Y-35759397D01*
X72651820Y-35720738D01*
X72652762Y-35693174D01*
X72642127Y-35649537D01*
X72641185Y-35644578D01*
X72635070Y-35600080D01*
X72627066Y-35581654D01*
X72621687Y-35565660D01*
X72616933Y-35546148D01*
X72594923Y-35507004D01*
X72592676Y-35502480D01*
X72584752Y-35484238D01*
X72574783Y-35461285D01*
X72574777Y-35461276D01*
X72562109Y-35445706D01*
X72552606Y-35431744D01*
X72542766Y-35414243D01*
X72542765Y-35414241D01*
X72511011Y-35382487D01*
X72507614Y-35378722D01*
X72497829Y-35366695D01*
X72479278Y-35343892D01*
X72479276Y-35343891D01*
X72479275Y-35343889D01*
X72462869Y-35332308D01*
X72449957Y-35321433D01*
X72429728Y-35301204D01*
X72401951Y-35246687D01*
X72401454Y-35243133D01*
X72399837Y-35229816D01*
X72395140Y-35191128D01*
X72395139Y-35191125D01*
X72395095Y-35190762D01*
X72406850Y-35130717D01*
X72451654Y-35089048D01*
X72458663Y-35086202D01*
X72459518Y-35085790D01*
X72459522Y-35085789D01*
X72612262Y-34989816D01*
X72739816Y-34862262D01*
X72835789Y-34709522D01*
X72895368Y-34539255D01*
X72915565Y-34360000D01*
X72895368Y-34180745D01*
X72888370Y-34160747D01*
X72864803Y-34093395D01*
X72835789Y-34010478D01*
X72765969Y-33899361D01*
X72743038Y-33862866D01*
X84888173Y-33862866D01*
X84898365Y-34050848D01*
X84898367Y-34050855D01*
X84934429Y-34180742D01*
X84948729Y-34232244D01*
X85036911Y-34398572D01*
X85036913Y-34398575D01*
X85158784Y-34542053D01*
X85158789Y-34542058D01*
X85308653Y-34655981D01*
X85308655Y-34655982D01*
X85308656Y-34655982D01*
X85308657Y-34655983D01*
X85479515Y-34735031D01*
X85663371Y-34775500D01*
X85663374Y-34775500D01*
X86964431Y-34775500D01*
X87104654Y-34760250D01*
X87283057Y-34700139D01*
X87444367Y-34603082D01*
X87581041Y-34473617D01*
X87686689Y-34317798D01*
X87756370Y-34142911D01*
X87786827Y-33957134D01*
X87776635Y-33769152D01*
X87726271Y-33587756D01*
X87638089Y-33421428D01*
X87626299Y-33407548D01*
X87516215Y-33277946D01*
X87516210Y-33277941D01*
X87366346Y-33164018D01*
X87366344Y-33164017D01*
X87195488Y-33084970D01*
X87195484Y-33084968D01*
X87095924Y-33063054D01*
X87011629Y-33044500D01*
X85710569Y-33044500D01*
X85570343Y-33059750D01*
X85391944Y-33119860D01*
X85391942Y-33119861D01*
X85230632Y-33216918D01*
X85230631Y-33216919D01*
X85093960Y-33346381D01*
X85093957Y-33346384D01*
X84988311Y-33502201D01*
X84918630Y-33677088D01*
X84898345Y-33800823D01*
X84888173Y-33862866D01*
X72743038Y-33862866D01*
X72739818Y-33857741D01*
X72739817Y-33857740D01*
X72739816Y-33857738D01*
X72612262Y-33730184D01*
X72612259Y-33730182D01*
X72612258Y-33730181D01*
X72459523Y-33634211D01*
X72289261Y-33574633D01*
X72289257Y-33574632D01*
X72110000Y-33554435D01*
X71930742Y-33574632D01*
X71930738Y-33574633D01*
X71760477Y-33634211D01*
X71760476Y-33634211D01*
X71607741Y-33730181D01*
X71607736Y-33730185D01*
X71564875Y-33773046D01*
X71510358Y-33800823D01*
X71449926Y-33791251D01*
X71406662Y-33747986D01*
X71396719Y-33715962D01*
X71395044Y-33703238D01*
X71334536Y-33557159D01*
X71317567Y-33535044D01*
X71238282Y-33431718D01*
X71238277Y-33431714D01*
X71238275Y-33431712D01*
X71221465Y-33418813D01*
X71189167Y-33375378D01*
X71134818Y-33232070D01*
X71038183Y-33092071D01*
X71030166Y-33084969D01*
X70910853Y-32979267D01*
X70910852Y-32979266D01*
X70760225Y-32900210D01*
X70760224Y-32900209D01*
X70760223Y-32900209D01*
X70595058Y-32859500D01*
X70595056Y-32859500D01*
X70424944Y-32859500D01*
X70424941Y-32859500D01*
X70259776Y-32900209D01*
X70109146Y-32979267D01*
X69981818Y-33092069D01*
X69981816Y-33092072D01*
X69962635Y-33119861D01*
X69885182Y-33232070D01*
X69830834Y-33375377D01*
X69824860Y-33391129D01*
X69805031Y-33554435D01*
X69804355Y-33560000D01*
X69824860Y-33728872D01*
X69885182Y-33887930D01*
X69976674Y-34020478D01*
X69981816Y-34027927D01*
X69981818Y-34027930D01*
X70109147Y-34140734D01*
X70156507Y-34165590D01*
X70199246Y-34209374D01*
X70209500Y-34253250D01*
X70209500Y-35891967D01*
X70190593Y-35950158D01*
X70141093Y-35986122D01*
X70079907Y-35986122D01*
X70040496Y-35961971D01*
X69155906Y-35077381D01*
X69110682Y-35028957D01*
X69110680Y-35028956D01*
X69072319Y-35005628D01*
X69068126Y-35002774D01*
X69032345Y-34975641D01*
X69032340Y-34975638D01*
X69013654Y-34968269D01*
X68998543Y-34960763D01*
X68981382Y-34950328D01*
X68981379Y-34950327D01*
X68981380Y-34950327D01*
X68957224Y-34943558D01*
X68938137Y-34938210D01*
X68933338Y-34936596D01*
X68891567Y-34920124D01*
X68879674Y-34918901D01*
X68871576Y-34918068D01*
X68855000Y-34914917D01*
X68835667Y-34909500D01*
X68835665Y-34909500D01*
X68790763Y-34909500D01*
X68785698Y-34909240D01*
X68763169Y-34906924D01*
X68741028Y-34904648D01*
X68741026Y-34904648D01*
X68741025Y-34904648D01*
X68721239Y-34908060D01*
X68704417Y-34909500D01*
X67732586Y-34909500D01*
X67674395Y-34890593D01*
X67662583Y-34880504D01*
X67612263Y-34830185D01*
X67612258Y-34830181D01*
X67459523Y-34734211D01*
X67289261Y-34674633D01*
X67289257Y-34674632D01*
X67110000Y-34654435D01*
X66930742Y-34674632D01*
X66930738Y-34674633D01*
X66760477Y-34734211D01*
X66760476Y-34734211D01*
X66702171Y-34770847D01*
X66642840Y-34785797D01*
X66586053Y-34763018D01*
X66553501Y-34711210D01*
X66550500Y-34687021D01*
X66550500Y-32222585D01*
X66569407Y-32164394D01*
X66579490Y-32152587D01*
X66629816Y-32102262D01*
X66725789Y-31949522D01*
X66785368Y-31779255D01*
X66795425Y-31690000D01*
X71164435Y-31690000D01*
X71184632Y-31869257D01*
X71184633Y-31869261D01*
X71244211Y-32039522D01*
X71244211Y-32039523D01*
X71338307Y-32189275D01*
X71340184Y-32192262D01*
X71467738Y-32319816D01*
X71467740Y-32319817D01*
X71467741Y-32319818D01*
X71619150Y-32414955D01*
X71620478Y-32415789D01*
X71643344Y-32423790D01*
X71790738Y-32475366D01*
X71790742Y-32475367D01*
X71790745Y-32475368D01*
X71970000Y-32495565D01*
X72149255Y-32475368D01*
X72319522Y-32415789D01*
X72472262Y-32319816D01*
X72599816Y-32192262D01*
X72695789Y-32039522D01*
X72755368Y-31869255D01*
X72775565Y-31690000D01*
X72755368Y-31510745D01*
X72741849Y-31472111D01*
X72723876Y-31420745D01*
X72695789Y-31340478D01*
X72651618Y-31270181D01*
X72599818Y-31187741D01*
X72599817Y-31187740D01*
X72599816Y-31187738D01*
X72472262Y-31060184D01*
X72472259Y-31060182D01*
X72472258Y-31060181D01*
X72319523Y-30964211D01*
X72149261Y-30904633D01*
X72149257Y-30904632D01*
X71970000Y-30884435D01*
X71790742Y-30904632D01*
X71790738Y-30904633D01*
X71620477Y-30964211D01*
X71620476Y-30964211D01*
X71467741Y-31060181D01*
X71340181Y-31187741D01*
X71244211Y-31340476D01*
X71244211Y-31340477D01*
X71184633Y-31510738D01*
X71184632Y-31510742D01*
X71164435Y-31690000D01*
X66795425Y-31690000D01*
X66805565Y-31600000D01*
X66785368Y-31420745D01*
X66782848Y-31413544D01*
X66732683Y-31270181D01*
X66725789Y-31250478D01*
X66725787Y-31250475D01*
X66725787Y-31250474D01*
X66714287Y-31232172D01*
X66699336Y-31172841D01*
X66722114Y-31116054D01*
X66773921Y-31083501D01*
X66798112Y-31080500D01*
X70757391Y-31080500D01*
X70763859Y-31080924D01*
X70799999Y-31085682D01*
X70800000Y-31085682D01*
X70800001Y-31085682D01*
X70840068Y-31080407D01*
X70956762Y-31065044D01*
X71102841Y-31004536D01*
X71135057Y-30979816D01*
X71155394Y-30964211D01*
X71228280Y-30908284D01*
X71228280Y-30908283D01*
X71228282Y-30908282D01*
X71250475Y-30879357D01*
X71254744Y-30874490D01*
X72644490Y-29484744D01*
X72649357Y-29480475D01*
X72678282Y-29458282D01*
X72686127Y-29448059D01*
X72770037Y-29338704D01*
X72774536Y-29332841D01*
X72835044Y-29186762D01*
X72850500Y-29069361D01*
X72855682Y-29030000D01*
X72850924Y-28993858D01*
X72850500Y-28987390D01*
X72850500Y-27424499D01*
X72869407Y-27366308D01*
X72918907Y-27330344D01*
X72949500Y-27325499D01*
X73241521Y-27325499D01*
X73241522Y-27325498D01*
X73303739Y-27315645D01*
X73335299Y-27310647D01*
X73335299Y-27310646D01*
X73335304Y-27310646D01*
X73448342Y-27253050D01*
X73529524Y-27171867D01*
X73584038Y-27144091D01*
X73644471Y-27153662D01*
X73687735Y-27196926D01*
X73697903Y-27230787D01*
X73714630Y-27379249D01*
X73714633Y-27379261D01*
X73774211Y-27549522D01*
X73774211Y-27549523D01*
X73856198Y-27680004D01*
X73870184Y-27702262D01*
X73997738Y-27829816D01*
X73997740Y-27829817D01*
X73997741Y-27829818D01*
X74026771Y-27848059D01*
X74150478Y-27925789D01*
X74218657Y-27949646D01*
X74320738Y-27985366D01*
X74320742Y-27985367D01*
X74320745Y-27985368D01*
X74500000Y-28005565D01*
X74679255Y-27985368D01*
X74849522Y-27925789D01*
X75002262Y-27829816D01*
X75129816Y-27702262D01*
X75225789Y-27549522D01*
X75285368Y-27379255D01*
X75305565Y-27200000D01*
X75285368Y-27020745D01*
X75225789Y-26850478D01*
X75129816Y-26697738D01*
X75002262Y-26570184D01*
X75002259Y-26570182D01*
X75002258Y-26570181D01*
X74849523Y-26474211D01*
X74679261Y-26414633D01*
X74679257Y-26414632D01*
X74500000Y-26394435D01*
X74320742Y-26414632D01*
X74320738Y-26414633D01*
X74150477Y-26474211D01*
X74150476Y-26474211D01*
X73997741Y-26570181D01*
X73870179Y-26697743D01*
X73793324Y-26820057D01*
X73746355Y-26859269D01*
X73685309Y-26863384D01*
X73633502Y-26830831D01*
X73610723Y-26774044D01*
X73610499Y-26767412D01*
X73610499Y-24630381D01*
X73629406Y-24572191D01*
X73678906Y-24536227D01*
X73740092Y-24536227D01*
X73789592Y-24572191D01*
X73807876Y-24619296D01*
X73812438Y-24659787D01*
X73814632Y-24679257D01*
X73814633Y-24679261D01*
X73874211Y-24849522D01*
X73874211Y-24849523D01*
X73970181Y-25002258D01*
X73970184Y-25002262D01*
X74097738Y-25129816D01*
X74250478Y-25225789D01*
X74318657Y-25249646D01*
X74420738Y-25285366D01*
X74420742Y-25285367D01*
X74420745Y-25285368D01*
X74600000Y-25305565D01*
X74779255Y-25285368D01*
X74949522Y-25225789D01*
X75102262Y-25129816D01*
X75229816Y-25002262D01*
X75325789Y-24849522D01*
X75385368Y-24679255D01*
X75405565Y-24500000D01*
X75385368Y-24320745D01*
X75325789Y-24150478D01*
X75303262Y-24114627D01*
X75229818Y-23997741D01*
X75229817Y-23997740D01*
X75229816Y-23997738D01*
X75102262Y-23870184D01*
X75102259Y-23870182D01*
X75102258Y-23870181D01*
X74949523Y-23774211D01*
X74779261Y-23714633D01*
X74779257Y-23714632D01*
X74600000Y-23694435D01*
X74420742Y-23714632D01*
X74420738Y-23714633D01*
X74250477Y-23774211D01*
X74250476Y-23774211D01*
X74097741Y-23870181D01*
X73970181Y-23997741D01*
X73874211Y-24150476D01*
X73874211Y-24150477D01*
X73814633Y-24320738D01*
X73814630Y-24320750D01*
X73803526Y-24419308D01*
X73778223Y-24475016D01*
X73725007Y-24505211D01*
X73664207Y-24498360D01*
X73619045Y-24457080D01*
X73607368Y-24423708D01*
X73595647Y-24349700D01*
X73595646Y-24349698D01*
X73595646Y-24349696D01*
X73538050Y-24236658D01*
X73448342Y-24146950D01*
X73335304Y-24089354D01*
X73335305Y-24089354D01*
X73241521Y-24074500D01*
X70978478Y-24074500D01*
X70884699Y-24089352D01*
X70884694Y-24089354D01*
X70880029Y-24091731D01*
X70819596Y-24101297D01*
X70802993Y-24095903D01*
X70802715Y-24096762D01*
X70795305Y-24094354D01*
X70701520Y-24079500D01*
X68438478Y-24079500D01*
X68344692Y-24094353D01*
X68341084Y-24095526D01*
X68337294Y-24095525D01*
X68337001Y-24095572D01*
X68336993Y-24095525D01*
X68279899Y-24095519D01*
X68265560Y-24089579D01*
X68255305Y-24084354D01*
X68161520Y-24069500D01*
X65898478Y-24069500D01*
X65804700Y-24084352D01*
X65797289Y-24086761D01*
X65796881Y-24085506D01*
X65744504Y-24093797D01*
X65722728Y-24086721D01*
X65722715Y-24086762D01*
X65715305Y-24084354D01*
X65621520Y-24069500D01*
X63358478Y-24069500D01*
X63264699Y-24084352D01*
X63264694Y-24084354D01*
X63260029Y-24086731D01*
X63199596Y-24096297D01*
X63182993Y-24090903D01*
X63182715Y-24091762D01*
X63175305Y-24089354D01*
X63081521Y-24074500D01*
X63081519Y-24074500D01*
X62240573Y-24074500D01*
X62182382Y-24055593D01*
X62146418Y-24006093D01*
X62146418Y-23944907D01*
X62147129Y-23942802D01*
X62155366Y-23919261D01*
X62155367Y-23919257D01*
X62155368Y-23919255D01*
X62175565Y-23740000D01*
X62155368Y-23560745D01*
X62095789Y-23390478D01*
X61999816Y-23237738D01*
X61872262Y-23110184D01*
X61872259Y-23110182D01*
X61872258Y-23110181D01*
X61719523Y-23014211D01*
X61549261Y-22954633D01*
X61549257Y-22954632D01*
X61370000Y-22934435D01*
X61190742Y-22954632D01*
X61190738Y-22954633D01*
X61020477Y-23014211D01*
X61020476Y-23014211D01*
X60867741Y-23110181D01*
X60740181Y-23237741D01*
X60644211Y-23390476D01*
X60644211Y-23390477D01*
X60584633Y-23560738D01*
X60584632Y-23560742D01*
X60564435Y-23740000D01*
X60584632Y-23919257D01*
X60584634Y-23919263D01*
X60589372Y-23932805D01*
X60590743Y-23993975D01*
X60555898Y-24044269D01*
X60498145Y-24064475D01*
X60495927Y-24064500D01*
X58278478Y-24064500D01*
X58278476Y-24064501D01*
X58184700Y-24079352D01*
X58184695Y-24079354D01*
X58071659Y-24136949D01*
X57981949Y-24226659D01*
X57924354Y-24339695D01*
X57909499Y-24433478D01*
X57909499Y-25570256D01*
X57890592Y-25628447D01*
X57880503Y-25640260D01*
X54941469Y-28579294D01*
X54886952Y-28607071D01*
X54882551Y-28607667D01*
X54820745Y-28614631D01*
X54820743Y-28614631D01*
X54650477Y-28674211D01*
X54650476Y-28674211D01*
X54497741Y-28770181D01*
X54370181Y-28897741D01*
X54274211Y-29050476D01*
X54274211Y-29050477D01*
X54214633Y-29220738D01*
X54214632Y-29220742D01*
X54194435Y-29400000D01*
X54214632Y-29579257D01*
X54214633Y-29579261D01*
X54274211Y-29749522D01*
X54274211Y-29749523D01*
X54370181Y-29902258D01*
X54370184Y-29902262D01*
X54497738Y-30029816D01*
X54497740Y-30029817D01*
X54497741Y-30029818D01*
X54634101Y-30115499D01*
X54673313Y-30162468D01*
X54677429Y-30223515D01*
X54651434Y-30269329D01*
X53837121Y-31083642D01*
X53782604Y-31111419D01*
X53756036Y-31112015D01*
X53600000Y-31094435D01*
X53420742Y-31114632D01*
X53420738Y-31114633D01*
X53250477Y-31174211D01*
X53250476Y-31174211D01*
X53097741Y-31270181D01*
X52970181Y-31397741D01*
X52874211Y-31550476D01*
X52874211Y-31550477D01*
X52814633Y-31720738D01*
X52814632Y-31720742D01*
X52794435Y-31900000D01*
X52814632Y-32079257D01*
X52814633Y-32079261D01*
X52874211Y-32249522D01*
X52876626Y-32254538D01*
X52875029Y-32255306D01*
X52888097Y-32307155D01*
X52865321Y-32363943D01*
X52813515Y-32396498D01*
X52789321Y-32399500D01*
X52702616Y-32399500D01*
X52696148Y-32399076D01*
X52660000Y-32394317D01*
X52659999Y-32394317D01*
X52492214Y-32416405D01*
X52481910Y-32423790D01*
X52357160Y-32475463D01*
X52231723Y-32571713D01*
X52231717Y-32571719D01*
X52209525Y-32600638D01*
X52205253Y-32605510D01*
X51265278Y-33545485D01*
X51210761Y-33573262D01*
X51206359Y-33573858D01*
X51110750Y-33584630D01*
X51110738Y-33584633D01*
X50940477Y-33644211D01*
X50940476Y-33644211D01*
X50787741Y-33740181D01*
X50660181Y-33867741D01*
X50564211Y-34020476D01*
X50564211Y-34020477D01*
X50504633Y-34190738D01*
X50504632Y-34190742D01*
X50484435Y-34370000D01*
X50504632Y-34549257D01*
X50504633Y-34549261D01*
X50564211Y-34719522D01*
X50564211Y-34719523D01*
X50660181Y-34872258D01*
X50660184Y-34872262D01*
X50787738Y-34999816D01*
X50787740Y-34999817D01*
X50787741Y-34999818D01*
X50929749Y-35089048D01*
X50940478Y-35095789D01*
X51004008Y-35118019D01*
X51110738Y-35155366D01*
X51110742Y-35155367D01*
X51110745Y-35155368D01*
X51290000Y-35175565D01*
X51469255Y-35155368D01*
X51639522Y-35095789D01*
X51792262Y-34999816D01*
X51919816Y-34872262D01*
X52015789Y-34719522D01*
X52075368Y-34549255D01*
X52086140Y-34453637D01*
X52111444Y-34397931D01*
X52114515Y-34394719D01*
X52879740Y-33629496D01*
X52934256Y-33601719D01*
X52949743Y-33600500D01*
X56260257Y-33600500D01*
X56318448Y-33619407D01*
X56330261Y-33629496D01*
X57970504Y-35269739D01*
X57998281Y-35324256D01*
X57999500Y-35339743D01*
X57999500Y-38655336D01*
X57983744Y-38703829D01*
X57985487Y-38704717D01*
X57924354Y-38824695D01*
X57909500Y-38918478D01*
X57909500Y-41431521D01*
X57909501Y-41431523D01*
X57924352Y-41525299D01*
X57924354Y-41525304D01*
X57981950Y-41638342D01*
X58071658Y-41728050D01*
X58184696Y-41785646D01*
X58278481Y-41800500D01*
X58348175Y-41800499D01*
X58406364Y-41819406D01*
X58442328Y-41868905D01*
X58442329Y-41930090D01*
X58441619Y-41932195D01*
X58424631Y-41980745D01*
X58410048Y-42110169D01*
X58384744Y-42165877D01*
X58381675Y-42169088D01*
X57169951Y-43380812D01*
X57137834Y-43402271D01*
X57101163Y-43417461D01*
X57101157Y-43417464D01*
X56975723Y-43513713D01*
X56975714Y-43513722D01*
X56953526Y-43542637D01*
X56949254Y-43547509D01*
X56930263Y-43566501D01*
X56875747Y-43594281D01*
X56860257Y-43595500D01*
X53322609Y-43595500D01*
X53316141Y-43595076D01*
X53280001Y-43590318D01*
X53279999Y-43590318D01*
X53123241Y-43610955D01*
X53123233Y-43610957D01*
X52977161Y-43671462D01*
X52887509Y-43740255D01*
X52851719Y-43767717D01*
X52851713Y-43767723D01*
X52829528Y-43796634D01*
X52825256Y-43801506D01*
X51936259Y-44690504D01*
X51881742Y-44718281D01*
X51866255Y-44719500D01*
X51424479Y-44719500D01*
X51424476Y-44719501D01*
X51330700Y-44734352D01*
X51330695Y-44734354D01*
X51217659Y-44791949D01*
X51127949Y-44881659D01*
X51070354Y-44994695D01*
X51055500Y-45088478D01*
X51055500Y-46351517D01*
X51062389Y-46395016D01*
X51052815Y-46455448D01*
X51009549Y-46498711D01*
X50964607Y-46509500D01*
X50759479Y-46509500D01*
X50759476Y-46509501D01*
X50665700Y-46524352D01*
X50665695Y-46524354D01*
X50552659Y-46581949D01*
X50462949Y-46671659D01*
X50405354Y-46784695D01*
X50390500Y-46878478D01*
X50390500Y-48241521D01*
X50390501Y-48241523D01*
X50397468Y-48285515D01*
X50387896Y-48345946D01*
X50344631Y-48389210D01*
X50299687Y-48400000D01*
X44099035Y-48400000D01*
X44040844Y-48381093D01*
X44004880Y-48331593D01*
X44000035Y-48300965D01*
X44001512Y-44100000D01*
X47704540Y-44100000D01*
X47724201Y-44287071D01*
X47724327Y-44288261D01*
X47782819Y-44468279D01*
X47782825Y-44468293D01*
X47854700Y-44592783D01*
X47877467Y-44632216D01*
X47877469Y-44632218D01*
X47978518Y-44744445D01*
X48004129Y-44772888D01*
X48157270Y-44884151D01*
X48330197Y-44961144D01*
X48515354Y-45000500D01*
X48515357Y-45000500D01*
X48704643Y-45000500D01*
X48704646Y-45000500D01*
X48889803Y-44961144D01*
X49062730Y-44884151D01*
X49215871Y-44772888D01*
X49342533Y-44632216D01*
X49437179Y-44468284D01*
X49495674Y-44288256D01*
X49515460Y-44100000D01*
X49495674Y-43911744D01*
X49437179Y-43731716D01*
X49437176Y-43731711D01*
X49437174Y-43731706D01*
X49373952Y-43622203D01*
X49342533Y-43567784D01*
X49279371Y-43497636D01*
X49215875Y-43427116D01*
X49215870Y-43427111D01*
X49126612Y-43362262D01*
X49062730Y-43315849D01*
X49062725Y-43315847D01*
X49062722Y-43315845D01*
X48889805Y-43238857D01*
X48889803Y-43238856D01*
X48889800Y-43238855D01*
X48889799Y-43238855D01*
X48850481Y-43230498D01*
X48704646Y-43199500D01*
X48515354Y-43199500D01*
X48397289Y-43224595D01*
X48330200Y-43238855D01*
X48330194Y-43238857D01*
X48157277Y-43315845D01*
X48157268Y-43315850D01*
X48004129Y-43427111D01*
X48004124Y-43427116D01*
X47877469Y-43567781D01*
X47877465Y-43567787D01*
X47782825Y-43731706D01*
X47782819Y-43731720D01*
X47724327Y-43911738D01*
X47724326Y-43911742D01*
X47724326Y-43911744D01*
X47704540Y-44100000D01*
X44001512Y-44100000D01*
X44002721Y-40660000D01*
X54304435Y-40660000D01*
X54324632Y-40839257D01*
X54324633Y-40839261D01*
X54384211Y-41009522D01*
X54384211Y-41009523D01*
X54480181Y-41162258D01*
X54480184Y-41162262D01*
X54607738Y-41289816D01*
X54760478Y-41385789D01*
X54828657Y-41409646D01*
X54930738Y-41445366D01*
X54930742Y-41445367D01*
X54930745Y-41445368D01*
X55110000Y-41465565D01*
X55289255Y-41445368D01*
X55459522Y-41385789D01*
X55612262Y-41289816D01*
X55739816Y-41162262D01*
X55835789Y-41009522D01*
X55895368Y-40839255D01*
X55915565Y-40660000D01*
X55895368Y-40480745D01*
X55886534Y-40455500D01*
X55860164Y-40380138D01*
X55835789Y-40310478D01*
X55818574Y-40283081D01*
X55739818Y-40157741D01*
X55739817Y-40157740D01*
X55739816Y-40157738D01*
X55689493Y-40107415D01*
X55661718Y-40052901D01*
X55660500Y-40037426D01*
X55660500Y-39482581D01*
X55679406Y-39424394D01*
X55689490Y-39412587D01*
X55739816Y-39362262D01*
X55835789Y-39209522D01*
X55895368Y-39039255D01*
X55915565Y-38860000D01*
X55895368Y-38680745D01*
X55835789Y-38510478D01*
X55780698Y-38422802D01*
X55739818Y-38357741D01*
X55739817Y-38357740D01*
X55739816Y-38357738D01*
X55612262Y-38230184D01*
X55612259Y-38230182D01*
X55612258Y-38230181D01*
X55459523Y-38134211D01*
X55289261Y-38074633D01*
X55289257Y-38074632D01*
X55110000Y-38054435D01*
X54930742Y-38074632D01*
X54930738Y-38074633D01*
X54760477Y-38134211D01*
X54760476Y-38134211D01*
X54607741Y-38230181D01*
X54480181Y-38357741D01*
X54384211Y-38510476D01*
X54384211Y-38510477D01*
X54324633Y-38680738D01*
X54324632Y-38680742D01*
X54304435Y-38860000D01*
X54324632Y-39039257D01*
X54324633Y-39039261D01*
X54384211Y-39209522D01*
X54384211Y-39209523D01*
X54480184Y-39362263D01*
X54530502Y-39412579D01*
X54558281Y-39467095D01*
X54559500Y-39482584D01*
X54559500Y-40037414D01*
X54540593Y-40095605D01*
X54530504Y-40107417D01*
X54480185Y-40157736D01*
X54480181Y-40157741D01*
X54384211Y-40310476D01*
X54384211Y-40310477D01*
X54324633Y-40480738D01*
X54324632Y-40480742D01*
X54304435Y-40660000D01*
X44002721Y-40660000D01*
X44004923Y-34397931D01*
X44006325Y-30410000D01*
X44744435Y-30410000D01*
X44764632Y-30589257D01*
X44764633Y-30589261D01*
X44824211Y-30759522D01*
X44824211Y-30759523D01*
X44917683Y-30908282D01*
X44920184Y-30912262D01*
X45047738Y-31039816D01*
X45047740Y-31039817D01*
X45047741Y-31039818D01*
X45191116Y-31129907D01*
X45200478Y-31135789D01*
X45237967Y-31148907D01*
X45370738Y-31195366D01*
X45370742Y-31195367D01*
X45370745Y-31195368D01*
X45550000Y-31215565D01*
X45729255Y-31195368D01*
X45899522Y-31135789D01*
X46052262Y-31039816D01*
X46179816Y-30912262D01*
X46275789Y-30759522D01*
X46335368Y-30589255D01*
X46355565Y-30410000D01*
X46335368Y-30230745D01*
X46332838Y-30223515D01*
X46298642Y-30125789D01*
X46275789Y-30060478D01*
X46179816Y-29907738D01*
X46052262Y-29780184D01*
X46052259Y-29780182D01*
X46052258Y-29780181D01*
X45899523Y-29684211D01*
X45729261Y-29624633D01*
X45729257Y-29624632D01*
X45550000Y-29604435D01*
X45370742Y-29624632D01*
X45370738Y-29624633D01*
X45200477Y-29684211D01*
X45200476Y-29684211D01*
X45047741Y-29780181D01*
X44920181Y-29907741D01*
X44824211Y-30060476D01*
X44824211Y-30060477D01*
X44764633Y-30230738D01*
X44764632Y-30230742D01*
X44744435Y-30410000D01*
X44006325Y-30410000D01*
X44009191Y-22260000D01*
X69954435Y-22260000D01*
X69974632Y-22439257D01*
X69974633Y-22439261D01*
X70034211Y-22609522D01*
X70034211Y-22609523D01*
X70130181Y-22762258D01*
X70130184Y-22762262D01*
X70257738Y-22889816D01*
X70257740Y-22889817D01*
X70257741Y-22889818D01*
X70360893Y-22954633D01*
X70410478Y-22985789D01*
X70478657Y-23009646D01*
X70580738Y-23045366D01*
X70580742Y-23045367D01*
X70580745Y-23045368D01*
X70760000Y-23065565D01*
X70939255Y-23045368D01*
X71109522Y-22985789D01*
X71262262Y-22889816D01*
X71389816Y-22762262D01*
X71485789Y-22609522D01*
X71545368Y-22439255D01*
X71565565Y-22260000D01*
X71545368Y-22080745D01*
X71485789Y-21910478D01*
X71389816Y-21757738D01*
X71262262Y-21630184D01*
X71262259Y-21630182D01*
X71262258Y-21630181D01*
X71109523Y-21534211D01*
X70939261Y-21474633D01*
X70939257Y-21474632D01*
X70760000Y-21454435D01*
X70580742Y-21474632D01*
X70580738Y-21474633D01*
X70410477Y-21534211D01*
X70410476Y-21534211D01*
X70257741Y-21630181D01*
X70130181Y-21757741D01*
X70034211Y-21910476D01*
X70034211Y-21910477D01*
X69974633Y-22080738D01*
X69974632Y-22080742D01*
X69954435Y-22260000D01*
X44009191Y-22260000D01*
X44009965Y-20058964D01*
X44028893Y-20000781D01*
X44078405Y-19964835D01*
X44108965Y-19960000D01*
X88135500Y-19960000D01*
X88193691Y-19978907D01*
G37*
%TD.AperFunction*%
%TA.AperFunction,Conductor*%
G36*
X70877001Y-41794099D02*
G01*
X70877282Y-41793237D01*
X70884690Y-41795643D01*
X70884696Y-41795646D01*
X70978481Y-41810500D01*
X71710500Y-41810499D01*
X71768691Y-41829406D01*
X71804655Y-41878906D01*
X71809500Y-41909499D01*
X71809500Y-42287414D01*
X71790593Y-42345605D01*
X71780512Y-42357409D01*
X71780189Y-42357731D01*
X71780181Y-42357741D01*
X71684211Y-42510476D01*
X71684211Y-42510477D01*
X71624633Y-42680738D01*
X71624632Y-42680742D01*
X71604435Y-42860000D01*
X71624632Y-43039257D01*
X71624633Y-43039261D01*
X71684211Y-43209522D01*
X71684212Y-43209525D01*
X71708280Y-43247828D01*
X71723231Y-43307159D01*
X71700452Y-43363946D01*
X71648646Y-43396499D01*
X71624455Y-43399500D01*
X70070743Y-43399500D01*
X70012552Y-43380593D01*
X70000739Y-43370504D01*
X69796744Y-43166508D01*
X69792470Y-43161634D01*
X69770286Y-43132723D01*
X69770285Y-43132722D01*
X69770282Y-43132718D01*
X69770277Y-43132714D01*
X69770276Y-43132713D01*
X69660021Y-43048112D01*
X69644841Y-43036464D01*
X69644840Y-43036463D01*
X69644838Y-43036462D01*
X69498766Y-42975957D01*
X69498758Y-42975955D01*
X69381361Y-42960500D01*
X69342000Y-42955318D01*
X69341999Y-42955318D01*
X69305859Y-42960076D01*
X69299391Y-42960500D01*
X69025585Y-42960500D01*
X68967394Y-42941593D01*
X68955587Y-42931509D01*
X68955262Y-42931184D01*
X68955259Y-42931182D01*
X68955258Y-42931181D01*
X68802523Y-42835211D01*
X68632261Y-42775633D01*
X68632249Y-42775630D01*
X68514203Y-42762330D01*
X68458495Y-42737027D01*
X68428300Y-42683811D01*
X68435151Y-42623010D01*
X68455281Y-42593952D01*
X69204739Y-41844494D01*
X69259256Y-41816718D01*
X69274743Y-41815499D01*
X70701521Y-41815499D01*
X70701522Y-41815498D01*
X70764661Y-41805499D01*
X70795299Y-41800647D01*
X70795299Y-41800646D01*
X70795304Y-41800646D01*
X70799958Y-41798274D01*
X70860386Y-41788700D01*
X70877001Y-41794099D01*
G37*
%TD.AperFunction*%
%TA.AperFunction,Conductor*%
G36*
X65260079Y-31099407D02*
G01*
X65296043Y-31148907D01*
X65296043Y-31210093D01*
X65285713Y-31232172D01*
X65274212Y-31250474D01*
X65274211Y-31250477D01*
X65214633Y-31420738D01*
X65214632Y-31420742D01*
X65194435Y-31600000D01*
X65214632Y-31779257D01*
X65214633Y-31779261D01*
X65274211Y-31949522D01*
X65274211Y-31949523D01*
X65355731Y-32079261D01*
X65370184Y-32102262D01*
X65420505Y-32152583D01*
X65448281Y-32207098D01*
X65449500Y-32222585D01*
X65449500Y-35277414D01*
X65430593Y-35335605D01*
X65420504Y-35347417D01*
X65370185Y-35397736D01*
X65370181Y-35397741D01*
X65274211Y-35550476D01*
X65274211Y-35550477D01*
X65214633Y-35720738D01*
X65214632Y-35720742D01*
X65194435Y-35900000D01*
X65214632Y-36079257D01*
X65214633Y-36079261D01*
X65274211Y-36249522D01*
X65274211Y-36249523D01*
X65370181Y-36402258D01*
X65370184Y-36402262D01*
X65497738Y-36529816D01*
X65650478Y-36625789D01*
X65718657Y-36649646D01*
X65820738Y-36685366D01*
X65820742Y-36685367D01*
X65820745Y-36685368D01*
X66000000Y-36705565D01*
X66179255Y-36685368D01*
X66349522Y-36625789D01*
X66502262Y-36529816D01*
X66629816Y-36402262D01*
X66722867Y-36254172D01*
X66769833Y-36214962D01*
X66830880Y-36210846D01*
X66839389Y-36213401D01*
X66930738Y-36245366D01*
X66930742Y-36245367D01*
X66930745Y-36245368D01*
X67110000Y-36265565D01*
X67289255Y-36245368D01*
X67459522Y-36185789D01*
X67612262Y-36089816D01*
X67637422Y-36064655D01*
X67662583Y-36039496D01*
X67717100Y-36011719D01*
X67732586Y-36010500D01*
X68490967Y-36010500D01*
X68549158Y-36029407D01*
X68560971Y-36039496D01*
X70929815Y-38408340D01*
X70957592Y-38462857D01*
X70948021Y-38523289D01*
X70904756Y-38566554D01*
X70890412Y-38572496D01*
X70884695Y-38574354D01*
X70880029Y-38576731D01*
X70819596Y-38586297D01*
X70802993Y-38580903D01*
X70802715Y-38581762D01*
X70795305Y-38579354D01*
X70701520Y-38564500D01*
X68438478Y-38564500D01*
X68344692Y-38579353D01*
X68341084Y-38580526D01*
X68337294Y-38580525D01*
X68337001Y-38580572D01*
X68336993Y-38580525D01*
X68279899Y-38580519D01*
X68265560Y-38574579D01*
X68255305Y-38569354D01*
X68161521Y-38554500D01*
X68161519Y-38554500D01*
X66275495Y-38554500D01*
X66217304Y-38535593D01*
X66181340Y-38486093D01*
X66181340Y-38424907D01*
X66182051Y-38422802D01*
X66241166Y-38253861D01*
X66241167Y-38253857D01*
X66241168Y-38253855D01*
X66261365Y-38074600D01*
X66241168Y-37895345D01*
X66181589Y-37725078D01*
X66157427Y-37686625D01*
X66085618Y-37572341D01*
X66085617Y-37572340D01*
X66085616Y-37572338D01*
X65958062Y-37444784D01*
X65958059Y-37444782D01*
X65958058Y-37444781D01*
X65805323Y-37348811D01*
X65635061Y-37289233D01*
X65635057Y-37289232D01*
X65455800Y-37269035D01*
X65276542Y-37289232D01*
X65276538Y-37289233D01*
X65106277Y-37348811D01*
X65106276Y-37348811D01*
X64953541Y-37444781D01*
X64825981Y-37572341D01*
X64730011Y-37725076D01*
X64730011Y-37725077D01*
X64670433Y-37895338D01*
X64670430Y-37895350D01*
X64650679Y-38070650D01*
X64625376Y-38126358D01*
X64622307Y-38129567D01*
X64226369Y-38525504D01*
X64171854Y-38553281D01*
X64156367Y-38554500D01*
X63358481Y-38554500D01*
X63342768Y-38556989D01*
X63282336Y-38547415D01*
X63239073Y-38504148D01*
X63229505Y-38443716D01*
X63233839Y-38426515D01*
X63285368Y-38279255D01*
X63305565Y-38100000D01*
X63285368Y-37920745D01*
X63225789Y-37750478D01*
X63209828Y-37725077D01*
X63129818Y-37597741D01*
X63129817Y-37597740D01*
X63129816Y-37597738D01*
X63002262Y-37470184D01*
X63002259Y-37470182D01*
X63002258Y-37470181D01*
X62849524Y-37374212D01*
X62849523Y-37374211D01*
X62849522Y-37374211D01*
X62796800Y-37355762D01*
X62748121Y-37318698D01*
X62730499Y-37262322D01*
X62730499Y-33572584D01*
X62749406Y-33514394D01*
X62759498Y-33502579D01*
X62759816Y-33502262D01*
X62855789Y-33349522D01*
X62915368Y-33179255D01*
X62935565Y-33000000D01*
X62915368Y-32820745D01*
X62855789Y-32650478D01*
X62845832Y-32634632D01*
X62759818Y-32497741D01*
X62759817Y-32497740D01*
X62759816Y-32497738D01*
X62632262Y-32370184D01*
X62632259Y-32370182D01*
X62632258Y-32370181D01*
X62479523Y-32274211D01*
X62309261Y-32214633D01*
X62309257Y-32214632D01*
X62130000Y-32194435D01*
X61950742Y-32214632D01*
X61950735Y-32214634D01*
X61821273Y-32259935D01*
X61760104Y-32261308D01*
X61718574Y-32236496D01*
X61612262Y-32130184D01*
X61612259Y-32130182D01*
X61612258Y-32130181D01*
X61612259Y-32130181D01*
X61580297Y-32110099D01*
X61541085Y-32063130D01*
X61536969Y-32002084D01*
X61562965Y-31956269D01*
X62409740Y-31109496D01*
X62464256Y-31081719D01*
X62479743Y-31080500D01*
X65201888Y-31080500D01*
X65260079Y-31099407D01*
G37*
%TD.AperFunction*%
%TA.AperFunction,Conductor*%
G36*
X59863945Y-35290698D02*
G01*
X59896498Y-35342504D01*
X59899499Y-35366695D01*
X59899499Y-37367146D01*
X59880592Y-37425337D01*
X59831092Y-37461301D01*
X59811584Y-37465523D01*
X59730750Y-37474630D01*
X59730738Y-37474633D01*
X59560477Y-37534211D01*
X59560476Y-37534211D01*
X59407741Y-37630181D01*
X59407738Y-37630183D01*
X59407738Y-37630184D01*
X59369501Y-37668420D01*
X59314987Y-37696196D01*
X59254555Y-37686625D01*
X59211290Y-37643360D01*
X59200500Y-37598415D01*
X59200500Y-35501754D01*
X59219407Y-35443563D01*
X59268907Y-35407599D01*
X59310584Y-35403377D01*
X59330000Y-35405565D01*
X59509255Y-35385368D01*
X59517489Y-35382487D01*
X59562619Y-35366695D01*
X59679522Y-35325789D01*
X59747827Y-35282869D01*
X59807158Y-35267919D01*
X59863945Y-35290698D01*
G37*
%TD.AperFunction*%
%TD*%
D26*
X43410000Y-19400000D02*
X88800000Y-19400000D01*
X88800000Y-48900000D01*
X43410000Y-48900000D01*
X43410000Y-19400000D01*
M02*
