%TF.GenerationSoftware,KiCad,Pcbnew,7.0.6*%
%TF.CreationDate,2024-03-03T22:58:41+08:00*%
%TF.ProjectId,Digital Clock,44696769-7461-46c2-9043-6c6f636b2e6b,_____*%
%TF.SameCoordinates,Original*%
%TF.FileFunction,Drillmap*%
%TF.FilePolarity,Positive*%
%FSLAX45Y45*%
G04 Gerber Fmt 4.5, Leading zero omitted, Abs format (unit mm)*
G04 Created by KiCad (PCBNEW 7.0.6) date 2024-03-03 22:58:41*
%MOMM*%
%LPD*%
G01*
G04 APERTURE LIST*
%ADD10C,0.100000*%
%ADD11C,0.200000*%
%ADD12C,0.030000*%
%ADD13C,0.040000*%
%ADD14C,0.045000*%
%ADD15C,0.050000*%
%ADD16C,0.060000*%
%ADD17C,0.070000*%
%ADD18C,0.075000*%
%ADD19C,0.110000*%
G04 APERTURE END LIST*
D10*
X4341000Y-1940000D02*
X8880000Y-1940000D01*
X8880000Y-4890000D01*
X4341000Y-4890000D01*
X4341000Y-1940000D01*
D11*
D12*
X5983000Y-3058000D02*
X6013000Y-3088000D01*
X6013000Y-3058000D02*
X5983000Y-3088000D01*
X7036000Y-3341000D02*
X7066000Y-3371000D01*
X7066000Y-3341000D02*
X7036000Y-3371000D01*
X7051000Y-2753000D02*
X7081000Y-2783000D01*
X7081000Y-2753000D02*
X7051000Y-2783000D01*
X7051000Y-2913000D02*
X7081000Y-2943000D01*
X7081000Y-2913000D02*
X7051000Y-2943000D01*
X7156000Y-3521000D02*
X7186000Y-3551000D01*
X7186000Y-3521000D02*
X7156000Y-3551000D01*
X7195000Y-3675000D02*
X7225000Y-3705000D01*
X7225000Y-3675000D02*
X7195000Y-3705000D01*
D13*
X4575000Y-3041000D02*
G75*
G03*
X4575000Y-3041000I-20000J0D01*
G01*
X4880000Y-4530000D02*
G75*
G03*
X4880000Y-4530000I-20000J0D01*
G01*
X5149000Y-3437000D02*
G75*
G03*
X5149000Y-3437000I-20000J0D01*
G01*
X5380000Y-3190000D02*
G75*
G03*
X5380000Y-3190000I-20000J0D01*
G01*
X5401000Y-3400000D02*
G75*
G03*
X5401000Y-3400000I-20000J0D01*
G01*
X5520000Y-2940000D02*
G75*
G03*
X5520000Y-2940000I-20000J0D01*
G01*
X5531000Y-3886000D02*
G75*
G03*
X5531000Y-3886000I-20000J0D01*
G01*
X5531000Y-4066000D02*
G75*
G03*
X5531000Y-4066000I-20000J0D01*
G01*
X5610000Y-3120000D02*
G75*
G03*
X5610000Y-3120000I-20000J0D01*
G01*
X5698000Y-3181000D02*
G75*
G03*
X5698000Y-3181000I-20000J0D01*
G01*
X5825000Y-3035000D02*
G75*
G03*
X5825000Y-3035000I-20000J0D01*
G01*
X5941000Y-4216000D02*
G75*
G03*
X5941000Y-4216000I-20000J0D01*
G01*
X5949000Y-3342000D02*
G75*
G03*
X5949000Y-3342000I-20000J0D01*
G01*
X6011000Y-3826000D02*
G75*
G03*
X6011000Y-3826000I-20000J0D01*
G01*
X6051000Y-3356000D02*
G75*
G03*
X6051000Y-3356000I-20000J0D01*
G01*
X6061000Y-4376000D02*
G75*
G03*
X6061000Y-4376000I-20000J0D01*
G01*
X6071000Y-4216000D02*
G75*
G03*
X6071000Y-4216000I-20000J0D01*
G01*
X6090600Y-4648200D02*
G75*
G03*
X6090600Y-4648200I-20000J0D01*
G01*
X6131000Y-3276000D02*
G75*
G03*
X6131000Y-3276000I-20000J0D01*
G01*
X6157000Y-2374000D02*
G75*
G03*
X6157000Y-2374000I-20000J0D01*
G01*
X6167000Y-3827000D02*
G75*
G03*
X6167000Y-3827000I-20000J0D01*
G01*
X6191000Y-4546000D02*
G75*
G03*
X6191000Y-4546000I-20000J0D01*
G01*
X6233000Y-3300000D02*
G75*
G03*
X6233000Y-3300000I-20000J0D01*
G01*
X6270000Y-3810000D02*
G75*
G03*
X6270000Y-3810000I-20000J0D01*
G01*
X6290000Y-4210000D02*
G75*
G03*
X6290000Y-4210000I-20000J0D01*
G01*
X6360000Y-4380000D02*
G75*
G03*
X6360000Y-4380000I-20000J0D01*
G01*
X6521000Y-4286000D02*
G75*
G03*
X6521000Y-4286000I-20000J0D01*
G01*
X6565580Y-3807460D02*
G75*
G03*
X6565580Y-3807460I-20000J0D01*
G01*
X6620000Y-2830000D02*
G75*
G03*
X6620000Y-2830000I-20000J0D01*
G01*
X6620000Y-3160000D02*
G75*
G03*
X6620000Y-3160000I-20000J0D01*
G01*
X6620000Y-3590000D02*
G75*
G03*
X6620000Y-3590000I-20000J0D01*
G01*
X6674800Y-4546600D02*
G75*
G03*
X6674800Y-4546600I-20000J0D01*
G01*
X6731000Y-3546000D02*
G75*
G03*
X6731000Y-3546000I-20000J0D01*
G01*
X6865300Y-4356100D02*
G75*
G03*
X6865300Y-4356100I-20000J0D01*
G01*
X6900860Y-3802380D02*
G75*
G03*
X6900860Y-3802380I-20000J0D01*
G01*
X6916100Y-4269740D02*
G75*
G03*
X6916100Y-4269740I-20000J0D01*
G01*
X7096000Y-2226000D02*
G75*
G03*
X7096000Y-2226000I-20000J0D01*
G01*
X7231000Y-3436000D02*
G75*
G03*
X7231000Y-3436000I-20000J0D01*
G01*
X7261000Y-4286000D02*
G75*
G03*
X7261000Y-4286000I-20000J0D01*
G01*
X7470000Y-2720000D02*
G75*
G03*
X7470000Y-2720000I-20000J0D01*
G01*
X7480000Y-2450000D02*
G75*
G03*
X7480000Y-2450000I-20000J0D01*
G01*
X7589200Y-4495800D02*
G75*
G03*
X7589200Y-4495800I-20000J0D01*
G01*
X7745000Y-2085000D02*
G75*
G03*
X7745000Y-2085000I-20000J0D01*
G01*
X7805100Y-4279900D02*
G75*
G03*
X7805100Y-4279900I-20000J0D01*
G01*
X8104000Y-3801000D02*
G75*
G03*
X8104000Y-3801000I-20000J0D01*
G01*
X8231000Y-3676000D02*
G75*
G03*
X8231000Y-3676000I-20000J0D01*
G01*
X8560000Y-2265000D02*
G75*
G03*
X8560000Y-2265000I-20000J0D01*
G01*
X8560000Y-3085000D02*
G75*
G03*
X8560000Y-3085000I-20000J0D01*
G01*
X8423750Y-3456000D02*
X8423750Y-3496000D01*
X8403750Y-3476000D02*
X8443750Y-3476000D01*
X8423750Y-3856000D02*
X8423750Y-3896000D01*
X8403750Y-3876000D02*
X8443750Y-3876000D01*
D14*
X8649660Y-3406910D02*
X8649660Y-3375090D01*
X8617840Y-3375090D01*
X8617840Y-3406910D01*
X8649660Y-3406910D01*
D11*
X8578750Y-3413500D02*
X8688750Y-3413500D01*
X8688750Y-3413500D02*
G75*
G03*
X8688750Y-3368500I0J22500D01*
G01*
X8688750Y-3368500D02*
X8578750Y-3368500D01*
X8578750Y-3368500D02*
G75*
G03*
X8578750Y-3413500I0J-22500D01*
G01*
D14*
X8649660Y-3974910D02*
X8649660Y-3943090D01*
X8617840Y-3943090D01*
X8617840Y-3974910D01*
X8649660Y-3974910D01*
D11*
X8578750Y-3981500D02*
X8688750Y-3981500D01*
X8688750Y-3981500D02*
G75*
G03*
X8688750Y-3936500I0J22500D01*
G01*
X8688750Y-3936500D02*
X8578750Y-3936500D01*
X8578750Y-3936500D02*
G75*
G03*
X8578750Y-3981500I0J-22500D01*
G01*
D15*
X5933000Y-3485000D02*
X5958000Y-3460000D01*
X5933000Y-3435000D01*
X5908000Y-3460000D01*
X5933000Y-3485000D01*
X5945000Y-3614000D02*
X5970000Y-3589000D01*
X5945000Y-3564000D01*
X5920000Y-3589000D01*
X5945000Y-3614000D01*
X7020000Y-3835000D02*
X7045000Y-3810000D01*
X7020000Y-3785000D01*
X6995000Y-3810000D01*
X7020000Y-3835000D01*
X7197000Y-3194000D02*
X7222000Y-3169000D01*
X7197000Y-3144000D01*
X7172000Y-3169000D01*
X7197000Y-3194000D01*
X7211000Y-3071000D02*
X7236000Y-3046000D01*
X7211000Y-3021000D01*
X7186000Y-3046000D01*
X7211000Y-3071000D01*
X7313000Y-2957000D02*
X7338000Y-2932000D01*
X7313000Y-2907000D01*
X7288000Y-2932000D01*
X7313000Y-2957000D01*
D16*
X4831000Y-4380000D02*
X4891000Y-4440000D01*
X4891000Y-4380000D02*
X4831000Y-4440000D01*
X4891000Y-4410000D02*
G75*
G03*
X4891000Y-4410000I-30000J0D01*
G01*
X6375880Y-3792700D02*
X6435880Y-3852700D01*
X6435880Y-3792700D02*
X6375880Y-3852700D01*
X6435880Y-3822700D02*
G75*
G03*
X6435880Y-3822700I-30000J0D01*
G01*
X6380960Y-4173700D02*
X6440960Y-4233700D01*
X6440960Y-4173700D02*
X6380960Y-4233700D01*
X6440960Y-4203700D02*
G75*
G03*
X6440960Y-4203700I-30000J0D01*
G01*
X7400000Y-3980000D02*
X7460000Y-4040000D01*
X7460000Y-3980000D02*
X7400000Y-4040000D01*
X7460000Y-4010000D02*
G75*
G03*
X7460000Y-4010000I-30000J0D01*
G01*
X8160000Y-3510000D02*
X8220000Y-3570000D01*
X8220000Y-3510000D02*
X8160000Y-3570000D01*
X8220000Y-3540000D02*
G75*
G03*
X8220000Y-3540000I-30000J0D01*
G01*
D17*
X7865000Y-3275000D02*
X7935000Y-3345000D01*
X7935000Y-3275000D02*
X7865000Y-3345000D01*
X7900000Y-3275000D02*
X7900000Y-3345000D01*
X7865000Y-3310000D02*
X7935000Y-3310000D01*
X8598791Y-4135067D02*
X8668791Y-4205067D01*
X8668791Y-4135067D02*
X8598791Y-4205067D01*
X8633791Y-4135067D02*
X8633791Y-4205067D01*
X8598791Y-4170067D02*
X8668791Y-4170067D01*
X8600000Y-3165000D02*
X8670000Y-3235000D01*
X8670000Y-3165000D02*
X8600000Y-3235000D01*
X8635000Y-3165000D02*
X8635000Y-3235000D01*
X8600000Y-3200000D02*
X8670000Y-3200000D01*
D18*
X5228100Y-4654500D02*
X5303100Y-4729500D01*
X5303100Y-4654500D02*
X5228100Y-4729500D01*
X5292117Y-4718517D02*
X5292117Y-4665483D01*
X5239083Y-4665483D01*
X5239083Y-4718517D01*
X5292117Y-4718517D01*
X5398100Y-4654500D02*
X5473100Y-4729500D01*
X5473100Y-4654500D02*
X5398100Y-4729500D01*
X5462117Y-4718517D02*
X5462117Y-4665483D01*
X5409083Y-4665483D01*
X5409083Y-4718517D01*
X5462117Y-4718517D01*
X6542500Y-4636500D02*
X6617500Y-4711500D01*
X6617500Y-4636500D02*
X6542500Y-4711500D01*
X6606517Y-4700517D02*
X6606517Y-4647483D01*
X6553483Y-4647483D01*
X6553483Y-4700517D01*
X6606517Y-4700517D01*
X6712500Y-4636500D02*
X6787500Y-4711500D01*
X6787500Y-4636500D02*
X6712500Y-4711500D01*
X6776517Y-4700517D02*
X6776517Y-4647483D01*
X6723483Y-4647483D01*
X6723483Y-4700517D01*
X6776517Y-4700517D01*
X7431500Y-4636500D02*
X7506500Y-4711500D01*
X7506500Y-4636500D02*
X7431500Y-4711500D01*
X7495517Y-4700517D02*
X7495517Y-4647483D01*
X7442483Y-4647483D01*
X7442483Y-4700517D01*
X7495517Y-4700517D01*
X7601500Y-4636500D02*
X7676500Y-4711500D01*
X7676500Y-4636500D02*
X7601500Y-4711500D01*
X7665517Y-4700517D02*
X7665517Y-4647483D01*
X7612483Y-4647483D01*
X7612483Y-4700517D01*
X7665517Y-4700517D01*
X8097500Y-4636500D02*
X8172500Y-4711500D01*
X8172500Y-4636500D02*
X8097500Y-4711500D01*
X8161517Y-4700517D02*
X8161517Y-4647483D01*
X8108483Y-4647483D01*
X8108483Y-4700517D01*
X8161517Y-4700517D01*
X8267500Y-4636500D02*
X8342500Y-4711500D01*
X8342500Y-4636500D02*
X8267500Y-4711500D01*
X8331517Y-4700517D02*
X8331517Y-4647483D01*
X8278483Y-4647483D01*
X8278483Y-4700517D01*
X8331517Y-4700517D01*
D19*
X4455000Y-2065000D02*
X4565000Y-2175000D01*
X4565000Y-2065000D02*
X4455000Y-2175000D01*
X4510000Y-2175000D02*
X4565000Y-2120000D01*
X4510000Y-2065000D01*
X4455000Y-2120000D01*
X4510000Y-2175000D01*
X4455000Y-4615000D02*
X4565000Y-4725000D01*
X4565000Y-4615000D02*
X4455000Y-4725000D01*
X4510000Y-4725000D02*
X4565000Y-4670000D01*
X4510000Y-4615000D01*
X4455000Y-4670000D01*
X4510000Y-4725000D01*
X8635000Y-2065000D02*
X8745000Y-2175000D01*
X8745000Y-2065000D02*
X8635000Y-2175000D01*
X8690000Y-2175000D02*
X8745000Y-2120000D01*
X8690000Y-2065000D01*
X8635000Y-2120000D01*
X8690000Y-2175000D01*
X8635000Y-4615000D02*
X8745000Y-4725000D01*
X8745000Y-4615000D02*
X8635000Y-4725000D01*
X8690000Y-4725000D02*
X8745000Y-4670000D01*
X8690000Y-4615000D01*
X8635000Y-4670000D01*
X8690000Y-4725000D01*
D11*
X4596777Y-5206484D02*
X4596777Y-5006484D01*
X4596777Y-5006484D02*
X4644396Y-5006484D01*
X4644396Y-5006484D02*
X4672967Y-5016008D01*
X4672967Y-5016008D02*
X4692015Y-5035055D01*
X4692015Y-5035055D02*
X4701539Y-5054103D01*
X4701539Y-5054103D02*
X4711063Y-5092198D01*
X4711063Y-5092198D02*
X4711063Y-5120770D01*
X4711063Y-5120770D02*
X4701539Y-5158865D01*
X4701539Y-5158865D02*
X4692015Y-5177912D01*
X4692015Y-5177912D02*
X4672967Y-5196960D01*
X4672967Y-5196960D02*
X4644396Y-5206484D01*
X4644396Y-5206484D02*
X4596777Y-5206484D01*
X4796777Y-5206484D02*
X4796777Y-5073150D01*
X4796777Y-5111246D02*
X4806301Y-5092198D01*
X4806301Y-5092198D02*
X4815824Y-5082674D01*
X4815824Y-5082674D02*
X4834872Y-5073150D01*
X4834872Y-5073150D02*
X4853920Y-5073150D01*
X4920586Y-5206484D02*
X4920586Y-5073150D01*
X4920586Y-5006484D02*
X4911063Y-5016008D01*
X4911063Y-5016008D02*
X4920586Y-5025531D01*
X4920586Y-5025531D02*
X4930110Y-5016008D01*
X4930110Y-5016008D02*
X4920586Y-5006484D01*
X4920586Y-5006484D02*
X4920586Y-5025531D01*
X5044396Y-5206484D02*
X5025348Y-5196960D01*
X5025348Y-5196960D02*
X5015824Y-5177912D01*
X5015824Y-5177912D02*
X5015824Y-5006484D01*
X5149158Y-5206484D02*
X5130110Y-5196960D01*
X5130110Y-5196960D02*
X5120586Y-5177912D01*
X5120586Y-5177912D02*
X5120586Y-5006484D01*
X5377729Y-5206484D02*
X5377729Y-5006484D01*
X5377729Y-5006484D02*
X5444396Y-5149341D01*
X5444396Y-5149341D02*
X5511063Y-5006484D01*
X5511063Y-5006484D02*
X5511063Y-5206484D01*
X5692015Y-5206484D02*
X5692015Y-5101722D01*
X5692015Y-5101722D02*
X5682491Y-5082674D01*
X5682491Y-5082674D02*
X5663443Y-5073150D01*
X5663443Y-5073150D02*
X5625348Y-5073150D01*
X5625348Y-5073150D02*
X5606301Y-5082674D01*
X5692015Y-5196960D02*
X5672967Y-5206484D01*
X5672967Y-5206484D02*
X5625348Y-5206484D01*
X5625348Y-5206484D02*
X5606301Y-5196960D01*
X5606301Y-5196960D02*
X5596777Y-5177912D01*
X5596777Y-5177912D02*
X5596777Y-5158865D01*
X5596777Y-5158865D02*
X5606301Y-5139817D01*
X5606301Y-5139817D02*
X5625348Y-5130293D01*
X5625348Y-5130293D02*
X5672967Y-5130293D01*
X5672967Y-5130293D02*
X5692015Y-5120770D01*
X5787253Y-5073150D02*
X5787253Y-5273150D01*
X5787253Y-5082674D02*
X5806301Y-5073150D01*
X5806301Y-5073150D02*
X5844396Y-5073150D01*
X5844396Y-5073150D02*
X5863443Y-5082674D01*
X5863443Y-5082674D02*
X5872967Y-5092198D01*
X5872967Y-5092198D02*
X5882491Y-5111246D01*
X5882491Y-5111246D02*
X5882491Y-5168389D01*
X5882491Y-5168389D02*
X5872967Y-5187436D01*
X5872967Y-5187436D02*
X5863443Y-5196960D01*
X5863443Y-5196960D02*
X5844396Y-5206484D01*
X5844396Y-5206484D02*
X5806301Y-5206484D01*
X5806301Y-5206484D02*
X5787253Y-5196960D01*
X5968205Y-5187436D02*
X5977729Y-5196960D01*
X5977729Y-5196960D02*
X5968205Y-5206484D01*
X5968205Y-5206484D02*
X5958682Y-5196960D01*
X5958682Y-5196960D02*
X5968205Y-5187436D01*
X5968205Y-5187436D02*
X5968205Y-5206484D01*
X5968205Y-5082674D02*
X5977729Y-5092198D01*
X5977729Y-5092198D02*
X5968205Y-5101722D01*
X5968205Y-5101722D02*
X5958682Y-5092198D01*
X5958682Y-5092198D02*
X5968205Y-5082674D01*
X5968205Y-5082674D02*
X5968205Y-5101722D01*
D12*
X4306000Y-5520000D02*
X4336000Y-5550000D01*
X4336000Y-5520000D02*
X4306000Y-5550000D01*
D11*
X4634872Y-5426484D02*
X4653920Y-5426484D01*
X4653920Y-5426484D02*
X4672967Y-5436008D01*
X4672967Y-5436008D02*
X4682491Y-5445531D01*
X4682491Y-5445531D02*
X4692015Y-5464579D01*
X4692015Y-5464579D02*
X4701539Y-5502674D01*
X4701539Y-5502674D02*
X4701539Y-5550293D01*
X4701539Y-5550293D02*
X4692015Y-5588389D01*
X4692015Y-5588389D02*
X4682491Y-5607436D01*
X4682491Y-5607436D02*
X4672967Y-5616960D01*
X4672967Y-5616960D02*
X4653920Y-5626484D01*
X4653920Y-5626484D02*
X4634872Y-5626484D01*
X4634872Y-5626484D02*
X4615824Y-5616960D01*
X4615824Y-5616960D02*
X4606301Y-5607436D01*
X4606301Y-5607436D02*
X4596777Y-5588389D01*
X4596777Y-5588389D02*
X4587253Y-5550293D01*
X4587253Y-5550293D02*
X4587253Y-5502674D01*
X4587253Y-5502674D02*
X4596777Y-5464579D01*
X4596777Y-5464579D02*
X4606301Y-5445531D01*
X4606301Y-5445531D02*
X4615824Y-5436008D01*
X4615824Y-5436008D02*
X4634872Y-5426484D01*
X4787253Y-5607436D02*
X4796777Y-5616960D01*
X4796777Y-5616960D02*
X4787253Y-5626484D01*
X4787253Y-5626484D02*
X4777729Y-5616960D01*
X4777729Y-5616960D02*
X4787253Y-5607436D01*
X4787253Y-5607436D02*
X4787253Y-5626484D01*
X4863444Y-5426484D02*
X4987253Y-5426484D01*
X4987253Y-5426484D02*
X4920586Y-5502674D01*
X4920586Y-5502674D02*
X4949158Y-5502674D01*
X4949158Y-5502674D02*
X4968205Y-5512198D01*
X4968205Y-5512198D02*
X4977729Y-5521722D01*
X4977729Y-5521722D02*
X4987253Y-5540770D01*
X4987253Y-5540770D02*
X4987253Y-5588389D01*
X4987253Y-5588389D02*
X4977729Y-5607436D01*
X4977729Y-5607436D02*
X4968205Y-5616960D01*
X4968205Y-5616960D02*
X4949158Y-5626484D01*
X4949158Y-5626484D02*
X4892015Y-5626484D01*
X4892015Y-5626484D02*
X4872967Y-5616960D01*
X4872967Y-5616960D02*
X4863444Y-5607436D01*
X5111063Y-5426484D02*
X5130110Y-5426484D01*
X5130110Y-5426484D02*
X5149158Y-5436008D01*
X5149158Y-5436008D02*
X5158682Y-5445531D01*
X5158682Y-5445531D02*
X5168205Y-5464579D01*
X5168205Y-5464579D02*
X5177729Y-5502674D01*
X5177729Y-5502674D02*
X5177729Y-5550293D01*
X5177729Y-5550293D02*
X5168205Y-5588389D01*
X5168205Y-5588389D02*
X5158682Y-5607436D01*
X5158682Y-5607436D02*
X5149158Y-5616960D01*
X5149158Y-5616960D02*
X5130110Y-5626484D01*
X5130110Y-5626484D02*
X5111063Y-5626484D01*
X5111063Y-5626484D02*
X5092015Y-5616960D01*
X5092015Y-5616960D02*
X5082491Y-5607436D01*
X5082491Y-5607436D02*
X5072967Y-5588389D01*
X5072967Y-5588389D02*
X5063444Y-5550293D01*
X5063444Y-5550293D02*
X5063444Y-5502674D01*
X5063444Y-5502674D02*
X5072967Y-5464579D01*
X5072967Y-5464579D02*
X5082491Y-5445531D01*
X5082491Y-5445531D02*
X5092015Y-5436008D01*
X5092015Y-5436008D02*
X5111063Y-5426484D01*
X5301539Y-5426484D02*
X5320586Y-5426484D01*
X5320586Y-5426484D02*
X5339634Y-5436008D01*
X5339634Y-5436008D02*
X5349158Y-5445531D01*
X5349158Y-5445531D02*
X5358682Y-5464579D01*
X5358682Y-5464579D02*
X5368205Y-5502674D01*
X5368205Y-5502674D02*
X5368205Y-5550293D01*
X5368205Y-5550293D02*
X5358682Y-5588389D01*
X5358682Y-5588389D02*
X5349158Y-5607436D01*
X5349158Y-5607436D02*
X5339634Y-5616960D01*
X5339634Y-5616960D02*
X5320586Y-5626484D01*
X5320586Y-5626484D02*
X5301539Y-5626484D01*
X5301539Y-5626484D02*
X5282491Y-5616960D01*
X5282491Y-5616960D02*
X5272967Y-5607436D01*
X5272967Y-5607436D02*
X5263444Y-5588389D01*
X5263444Y-5588389D02*
X5253920Y-5550293D01*
X5253920Y-5550293D02*
X5253920Y-5502674D01*
X5253920Y-5502674D02*
X5263444Y-5464579D01*
X5263444Y-5464579D02*
X5272967Y-5445531D01*
X5272967Y-5445531D02*
X5282491Y-5436008D01*
X5282491Y-5436008D02*
X5301539Y-5426484D01*
X5453920Y-5626484D02*
X5453920Y-5493150D01*
X5453920Y-5512198D02*
X5463444Y-5502674D01*
X5463444Y-5502674D02*
X5482491Y-5493150D01*
X5482491Y-5493150D02*
X5511063Y-5493150D01*
X5511063Y-5493150D02*
X5530110Y-5502674D01*
X5530110Y-5502674D02*
X5539634Y-5521722D01*
X5539634Y-5521722D02*
X5539634Y-5626484D01*
X5539634Y-5521722D02*
X5549158Y-5502674D01*
X5549158Y-5502674D02*
X5568205Y-5493150D01*
X5568205Y-5493150D02*
X5596777Y-5493150D01*
X5596777Y-5493150D02*
X5615824Y-5502674D01*
X5615824Y-5502674D02*
X5625348Y-5521722D01*
X5625348Y-5521722D02*
X5625348Y-5626484D01*
X5720586Y-5626484D02*
X5720586Y-5493150D01*
X5720586Y-5512198D02*
X5730110Y-5502674D01*
X5730110Y-5502674D02*
X5749158Y-5493150D01*
X5749158Y-5493150D02*
X5777729Y-5493150D01*
X5777729Y-5493150D02*
X5796777Y-5502674D01*
X5796777Y-5502674D02*
X5806301Y-5521722D01*
X5806301Y-5521722D02*
X5806301Y-5626484D01*
X5806301Y-5521722D02*
X5815824Y-5502674D01*
X5815824Y-5502674D02*
X5834872Y-5493150D01*
X5834872Y-5493150D02*
X5863443Y-5493150D01*
X5863443Y-5493150D02*
X5882491Y-5502674D01*
X5882491Y-5502674D02*
X5892015Y-5521722D01*
X5892015Y-5521722D02*
X5892015Y-5626484D01*
X6282491Y-5416960D02*
X6111063Y-5674103D01*
X6539634Y-5426484D02*
X6558682Y-5426484D01*
X6558682Y-5426484D02*
X6577729Y-5436008D01*
X6577729Y-5436008D02*
X6587253Y-5445531D01*
X6587253Y-5445531D02*
X6596777Y-5464579D01*
X6596777Y-5464579D02*
X6606301Y-5502674D01*
X6606301Y-5502674D02*
X6606301Y-5550293D01*
X6606301Y-5550293D02*
X6596777Y-5588389D01*
X6596777Y-5588389D02*
X6587253Y-5607436D01*
X6587253Y-5607436D02*
X6577729Y-5616960D01*
X6577729Y-5616960D02*
X6558682Y-5626484D01*
X6558682Y-5626484D02*
X6539634Y-5626484D01*
X6539634Y-5626484D02*
X6520586Y-5616960D01*
X6520586Y-5616960D02*
X6511063Y-5607436D01*
X6511063Y-5607436D02*
X6501539Y-5588389D01*
X6501539Y-5588389D02*
X6492015Y-5550293D01*
X6492015Y-5550293D02*
X6492015Y-5502674D01*
X6492015Y-5502674D02*
X6501539Y-5464579D01*
X6501539Y-5464579D02*
X6511063Y-5445531D01*
X6511063Y-5445531D02*
X6520586Y-5436008D01*
X6520586Y-5436008D02*
X6539634Y-5426484D01*
X6692015Y-5607436D02*
X6701539Y-5616960D01*
X6701539Y-5616960D02*
X6692015Y-5626484D01*
X6692015Y-5626484D02*
X6682491Y-5616960D01*
X6682491Y-5616960D02*
X6692015Y-5607436D01*
X6692015Y-5607436D02*
X6692015Y-5626484D01*
X6825348Y-5426484D02*
X6844396Y-5426484D01*
X6844396Y-5426484D02*
X6863444Y-5436008D01*
X6863444Y-5436008D02*
X6872967Y-5445531D01*
X6872967Y-5445531D02*
X6882491Y-5464579D01*
X6882491Y-5464579D02*
X6892015Y-5502674D01*
X6892015Y-5502674D02*
X6892015Y-5550293D01*
X6892015Y-5550293D02*
X6882491Y-5588389D01*
X6882491Y-5588389D02*
X6872967Y-5607436D01*
X6872967Y-5607436D02*
X6863444Y-5616960D01*
X6863444Y-5616960D02*
X6844396Y-5626484D01*
X6844396Y-5626484D02*
X6825348Y-5626484D01*
X6825348Y-5626484D02*
X6806301Y-5616960D01*
X6806301Y-5616960D02*
X6796777Y-5607436D01*
X6796777Y-5607436D02*
X6787253Y-5588389D01*
X6787253Y-5588389D02*
X6777729Y-5550293D01*
X6777729Y-5550293D02*
X6777729Y-5502674D01*
X6777729Y-5502674D02*
X6787253Y-5464579D01*
X6787253Y-5464579D02*
X6796777Y-5445531D01*
X6796777Y-5445531D02*
X6806301Y-5436008D01*
X6806301Y-5436008D02*
X6825348Y-5426484D01*
X7082491Y-5626484D02*
X6968206Y-5626484D01*
X7025348Y-5626484D02*
X7025348Y-5426484D01*
X7025348Y-5426484D02*
X7006301Y-5455055D01*
X7006301Y-5455055D02*
X6987253Y-5474103D01*
X6987253Y-5474103D02*
X6968206Y-5483627D01*
X7272967Y-5626484D02*
X7158682Y-5626484D01*
X7215825Y-5626484D02*
X7215825Y-5426484D01*
X7215825Y-5426484D02*
X7196777Y-5455055D01*
X7196777Y-5455055D02*
X7177729Y-5474103D01*
X7177729Y-5474103D02*
X7158682Y-5483627D01*
X7387253Y-5512198D02*
X7368206Y-5502674D01*
X7368206Y-5502674D02*
X7358682Y-5493150D01*
X7358682Y-5493150D02*
X7349158Y-5474103D01*
X7349158Y-5474103D02*
X7349158Y-5464579D01*
X7349158Y-5464579D02*
X7358682Y-5445531D01*
X7358682Y-5445531D02*
X7368206Y-5436008D01*
X7368206Y-5436008D02*
X7387253Y-5426484D01*
X7387253Y-5426484D02*
X7425348Y-5426484D01*
X7425348Y-5426484D02*
X7444396Y-5436008D01*
X7444396Y-5436008D02*
X7453920Y-5445531D01*
X7453920Y-5445531D02*
X7463444Y-5464579D01*
X7463444Y-5464579D02*
X7463444Y-5474103D01*
X7463444Y-5474103D02*
X7453920Y-5493150D01*
X7453920Y-5493150D02*
X7444396Y-5502674D01*
X7444396Y-5502674D02*
X7425348Y-5512198D01*
X7425348Y-5512198D02*
X7387253Y-5512198D01*
X7387253Y-5512198D02*
X7368206Y-5521722D01*
X7368206Y-5521722D02*
X7358682Y-5531246D01*
X7358682Y-5531246D02*
X7349158Y-5550293D01*
X7349158Y-5550293D02*
X7349158Y-5588389D01*
X7349158Y-5588389D02*
X7358682Y-5607436D01*
X7358682Y-5607436D02*
X7368206Y-5616960D01*
X7368206Y-5616960D02*
X7387253Y-5626484D01*
X7387253Y-5626484D02*
X7425348Y-5626484D01*
X7425348Y-5626484D02*
X7444396Y-5616960D01*
X7444396Y-5616960D02*
X7453920Y-5607436D01*
X7453920Y-5607436D02*
X7463444Y-5588389D01*
X7463444Y-5588389D02*
X7463444Y-5550293D01*
X7463444Y-5550293D02*
X7453920Y-5531246D01*
X7453920Y-5531246D02*
X7444396Y-5521722D01*
X7444396Y-5521722D02*
X7425348Y-5512198D01*
X7539634Y-5426484D02*
X7539634Y-5464579D01*
X7615825Y-5426484D02*
X7615825Y-5464579D01*
X7911063Y-5702674D02*
X7901539Y-5693150D01*
X7901539Y-5693150D02*
X7882491Y-5664579D01*
X7882491Y-5664579D02*
X7872968Y-5645531D01*
X7872968Y-5645531D02*
X7863444Y-5616960D01*
X7863444Y-5616960D02*
X7853920Y-5569341D01*
X7853920Y-5569341D02*
X7853920Y-5531246D01*
X7853920Y-5531246D02*
X7863444Y-5483627D01*
X7863444Y-5483627D02*
X7872968Y-5455055D01*
X7872968Y-5455055D02*
X7882491Y-5436008D01*
X7882491Y-5436008D02*
X7901539Y-5407436D01*
X7901539Y-5407436D02*
X7911063Y-5397912D01*
X8072968Y-5426484D02*
X8034872Y-5426484D01*
X8034872Y-5426484D02*
X8015825Y-5436008D01*
X8015825Y-5436008D02*
X8006301Y-5445531D01*
X8006301Y-5445531D02*
X7987253Y-5474103D01*
X7987253Y-5474103D02*
X7977729Y-5512198D01*
X7977729Y-5512198D02*
X7977729Y-5588389D01*
X7977729Y-5588389D02*
X7987253Y-5607436D01*
X7987253Y-5607436D02*
X7996777Y-5616960D01*
X7996777Y-5616960D02*
X8015825Y-5626484D01*
X8015825Y-5626484D02*
X8053920Y-5626484D01*
X8053920Y-5626484D02*
X8072968Y-5616960D01*
X8072968Y-5616960D02*
X8082491Y-5607436D01*
X8082491Y-5607436D02*
X8092015Y-5588389D01*
X8092015Y-5588389D02*
X8092015Y-5540770D01*
X8092015Y-5540770D02*
X8082491Y-5521722D01*
X8082491Y-5521722D02*
X8072968Y-5512198D01*
X8072968Y-5512198D02*
X8053920Y-5502674D01*
X8053920Y-5502674D02*
X8015825Y-5502674D01*
X8015825Y-5502674D02*
X7996777Y-5512198D01*
X7996777Y-5512198D02*
X7987253Y-5521722D01*
X7987253Y-5521722D02*
X7977729Y-5540770D01*
X8330110Y-5626484D02*
X8330110Y-5426484D01*
X8415825Y-5626484D02*
X8415825Y-5521722D01*
X8415825Y-5521722D02*
X8406301Y-5502674D01*
X8406301Y-5502674D02*
X8387253Y-5493150D01*
X8387253Y-5493150D02*
X8358682Y-5493150D01*
X8358682Y-5493150D02*
X8339634Y-5502674D01*
X8339634Y-5502674D02*
X8330110Y-5512198D01*
X8539634Y-5626484D02*
X8520587Y-5616960D01*
X8520587Y-5616960D02*
X8511063Y-5607436D01*
X8511063Y-5607436D02*
X8501539Y-5588389D01*
X8501539Y-5588389D02*
X8501539Y-5531246D01*
X8501539Y-5531246D02*
X8511063Y-5512198D01*
X8511063Y-5512198D02*
X8520587Y-5502674D01*
X8520587Y-5502674D02*
X8539634Y-5493150D01*
X8539634Y-5493150D02*
X8568206Y-5493150D01*
X8568206Y-5493150D02*
X8587253Y-5502674D01*
X8587253Y-5502674D02*
X8596777Y-5512198D01*
X8596777Y-5512198D02*
X8606301Y-5531246D01*
X8606301Y-5531246D02*
X8606301Y-5588389D01*
X8606301Y-5588389D02*
X8596777Y-5607436D01*
X8596777Y-5607436D02*
X8587253Y-5616960D01*
X8587253Y-5616960D02*
X8568206Y-5626484D01*
X8568206Y-5626484D02*
X8539634Y-5626484D01*
X8720587Y-5626484D02*
X8701539Y-5616960D01*
X8701539Y-5616960D02*
X8692015Y-5597912D01*
X8692015Y-5597912D02*
X8692015Y-5426484D01*
X8872968Y-5616960D02*
X8853920Y-5626484D01*
X8853920Y-5626484D02*
X8815825Y-5626484D01*
X8815825Y-5626484D02*
X8796777Y-5616960D01*
X8796777Y-5616960D02*
X8787253Y-5597912D01*
X8787253Y-5597912D02*
X8787253Y-5521722D01*
X8787253Y-5521722D02*
X8796777Y-5502674D01*
X8796777Y-5502674D02*
X8815825Y-5493150D01*
X8815825Y-5493150D02*
X8853920Y-5493150D01*
X8853920Y-5493150D02*
X8872968Y-5502674D01*
X8872968Y-5502674D02*
X8882492Y-5521722D01*
X8882492Y-5521722D02*
X8882492Y-5540770D01*
X8882492Y-5540770D02*
X8787253Y-5559817D01*
X8958682Y-5616960D02*
X8977730Y-5626484D01*
X8977730Y-5626484D02*
X9015825Y-5626484D01*
X9015825Y-5626484D02*
X9034873Y-5616960D01*
X9034873Y-5616960D02*
X9044396Y-5597912D01*
X9044396Y-5597912D02*
X9044396Y-5588389D01*
X9044396Y-5588389D02*
X9034873Y-5569341D01*
X9034873Y-5569341D02*
X9015825Y-5559817D01*
X9015825Y-5559817D02*
X8987253Y-5559817D01*
X8987253Y-5559817D02*
X8968206Y-5550293D01*
X8968206Y-5550293D02*
X8958682Y-5531246D01*
X8958682Y-5531246D02*
X8958682Y-5521722D01*
X8958682Y-5521722D02*
X8968206Y-5502674D01*
X8968206Y-5502674D02*
X8987253Y-5493150D01*
X8987253Y-5493150D02*
X9015825Y-5493150D01*
X9015825Y-5493150D02*
X9034873Y-5502674D01*
X9111063Y-5702674D02*
X9120587Y-5693150D01*
X9120587Y-5693150D02*
X9139634Y-5664579D01*
X9139634Y-5664579D02*
X9149158Y-5645531D01*
X9149158Y-5645531D02*
X9158682Y-5616960D01*
X9158682Y-5616960D02*
X9168206Y-5569341D01*
X9168206Y-5569341D02*
X9168206Y-5531246D01*
X9168206Y-5531246D02*
X9158682Y-5483627D01*
X9158682Y-5483627D02*
X9149158Y-5455055D01*
X9149158Y-5455055D02*
X9139634Y-5436008D01*
X9139634Y-5436008D02*
X9120587Y-5407436D01*
X9120587Y-5407436D02*
X9111063Y-5397912D01*
D13*
X4336000Y-5799000D02*
G75*
G03*
X4336000Y-5799000I-20000J0D01*
G01*
D11*
X4634872Y-5690484D02*
X4653920Y-5690484D01*
X4653920Y-5690484D02*
X4672967Y-5700008D01*
X4672967Y-5700008D02*
X4682491Y-5709531D01*
X4682491Y-5709531D02*
X4692015Y-5728579D01*
X4692015Y-5728579D02*
X4701539Y-5766674D01*
X4701539Y-5766674D02*
X4701539Y-5814293D01*
X4701539Y-5814293D02*
X4692015Y-5852388D01*
X4692015Y-5852388D02*
X4682491Y-5871436D01*
X4682491Y-5871436D02*
X4672967Y-5880960D01*
X4672967Y-5880960D02*
X4653920Y-5890484D01*
X4653920Y-5890484D02*
X4634872Y-5890484D01*
X4634872Y-5890484D02*
X4615824Y-5880960D01*
X4615824Y-5880960D02*
X4606301Y-5871436D01*
X4606301Y-5871436D02*
X4596777Y-5852388D01*
X4596777Y-5852388D02*
X4587253Y-5814293D01*
X4587253Y-5814293D02*
X4587253Y-5766674D01*
X4587253Y-5766674D02*
X4596777Y-5728579D01*
X4596777Y-5728579D02*
X4606301Y-5709531D01*
X4606301Y-5709531D02*
X4615824Y-5700008D01*
X4615824Y-5700008D02*
X4634872Y-5690484D01*
X4787253Y-5871436D02*
X4796777Y-5880960D01*
X4796777Y-5880960D02*
X4787253Y-5890484D01*
X4787253Y-5890484D02*
X4777729Y-5880960D01*
X4777729Y-5880960D02*
X4787253Y-5871436D01*
X4787253Y-5871436D02*
X4787253Y-5890484D01*
X4968205Y-5757150D02*
X4968205Y-5890484D01*
X4920586Y-5680960D02*
X4872967Y-5823817D01*
X4872967Y-5823817D02*
X4996777Y-5823817D01*
X5111063Y-5690484D02*
X5130110Y-5690484D01*
X5130110Y-5690484D02*
X5149158Y-5700008D01*
X5149158Y-5700008D02*
X5158682Y-5709531D01*
X5158682Y-5709531D02*
X5168205Y-5728579D01*
X5168205Y-5728579D02*
X5177729Y-5766674D01*
X5177729Y-5766674D02*
X5177729Y-5814293D01*
X5177729Y-5814293D02*
X5168205Y-5852388D01*
X5168205Y-5852388D02*
X5158682Y-5871436D01*
X5158682Y-5871436D02*
X5149158Y-5880960D01*
X5149158Y-5880960D02*
X5130110Y-5890484D01*
X5130110Y-5890484D02*
X5111063Y-5890484D01*
X5111063Y-5890484D02*
X5092015Y-5880960D01*
X5092015Y-5880960D02*
X5082491Y-5871436D01*
X5082491Y-5871436D02*
X5072967Y-5852388D01*
X5072967Y-5852388D02*
X5063444Y-5814293D01*
X5063444Y-5814293D02*
X5063444Y-5766674D01*
X5063444Y-5766674D02*
X5072967Y-5728579D01*
X5072967Y-5728579D02*
X5082491Y-5709531D01*
X5082491Y-5709531D02*
X5092015Y-5700008D01*
X5092015Y-5700008D02*
X5111063Y-5690484D01*
X5301539Y-5690484D02*
X5320586Y-5690484D01*
X5320586Y-5690484D02*
X5339634Y-5700008D01*
X5339634Y-5700008D02*
X5349158Y-5709531D01*
X5349158Y-5709531D02*
X5358682Y-5728579D01*
X5358682Y-5728579D02*
X5368205Y-5766674D01*
X5368205Y-5766674D02*
X5368205Y-5814293D01*
X5368205Y-5814293D02*
X5358682Y-5852388D01*
X5358682Y-5852388D02*
X5349158Y-5871436D01*
X5349158Y-5871436D02*
X5339634Y-5880960D01*
X5339634Y-5880960D02*
X5320586Y-5890484D01*
X5320586Y-5890484D02*
X5301539Y-5890484D01*
X5301539Y-5890484D02*
X5282491Y-5880960D01*
X5282491Y-5880960D02*
X5272967Y-5871436D01*
X5272967Y-5871436D02*
X5263444Y-5852388D01*
X5263444Y-5852388D02*
X5253920Y-5814293D01*
X5253920Y-5814293D02*
X5253920Y-5766674D01*
X5253920Y-5766674D02*
X5263444Y-5728579D01*
X5263444Y-5728579D02*
X5272967Y-5709531D01*
X5272967Y-5709531D02*
X5282491Y-5700008D01*
X5282491Y-5700008D02*
X5301539Y-5690484D01*
X5453920Y-5890484D02*
X5453920Y-5757150D01*
X5453920Y-5776198D02*
X5463444Y-5766674D01*
X5463444Y-5766674D02*
X5482491Y-5757150D01*
X5482491Y-5757150D02*
X5511063Y-5757150D01*
X5511063Y-5757150D02*
X5530110Y-5766674D01*
X5530110Y-5766674D02*
X5539634Y-5785722D01*
X5539634Y-5785722D02*
X5539634Y-5890484D01*
X5539634Y-5785722D02*
X5549158Y-5766674D01*
X5549158Y-5766674D02*
X5568205Y-5757150D01*
X5568205Y-5757150D02*
X5596777Y-5757150D01*
X5596777Y-5757150D02*
X5615824Y-5766674D01*
X5615824Y-5766674D02*
X5625348Y-5785722D01*
X5625348Y-5785722D02*
X5625348Y-5890484D01*
X5720586Y-5890484D02*
X5720586Y-5757150D01*
X5720586Y-5776198D02*
X5730110Y-5766674D01*
X5730110Y-5766674D02*
X5749158Y-5757150D01*
X5749158Y-5757150D02*
X5777729Y-5757150D01*
X5777729Y-5757150D02*
X5796777Y-5766674D01*
X5796777Y-5766674D02*
X5806301Y-5785722D01*
X5806301Y-5785722D02*
X5806301Y-5890484D01*
X5806301Y-5785722D02*
X5815824Y-5766674D01*
X5815824Y-5766674D02*
X5834872Y-5757150D01*
X5834872Y-5757150D02*
X5863443Y-5757150D01*
X5863443Y-5757150D02*
X5882491Y-5766674D01*
X5882491Y-5766674D02*
X5892015Y-5785722D01*
X5892015Y-5785722D02*
X5892015Y-5890484D01*
X6282491Y-5680960D02*
X6111063Y-5938103D01*
X6539634Y-5690484D02*
X6558682Y-5690484D01*
X6558682Y-5690484D02*
X6577729Y-5700008D01*
X6577729Y-5700008D02*
X6587253Y-5709531D01*
X6587253Y-5709531D02*
X6596777Y-5728579D01*
X6596777Y-5728579D02*
X6606301Y-5766674D01*
X6606301Y-5766674D02*
X6606301Y-5814293D01*
X6606301Y-5814293D02*
X6596777Y-5852388D01*
X6596777Y-5852388D02*
X6587253Y-5871436D01*
X6587253Y-5871436D02*
X6577729Y-5880960D01*
X6577729Y-5880960D02*
X6558682Y-5890484D01*
X6558682Y-5890484D02*
X6539634Y-5890484D01*
X6539634Y-5890484D02*
X6520586Y-5880960D01*
X6520586Y-5880960D02*
X6511063Y-5871436D01*
X6511063Y-5871436D02*
X6501539Y-5852388D01*
X6501539Y-5852388D02*
X6492015Y-5814293D01*
X6492015Y-5814293D02*
X6492015Y-5766674D01*
X6492015Y-5766674D02*
X6501539Y-5728579D01*
X6501539Y-5728579D02*
X6511063Y-5709531D01*
X6511063Y-5709531D02*
X6520586Y-5700008D01*
X6520586Y-5700008D02*
X6539634Y-5690484D01*
X6692015Y-5871436D02*
X6701539Y-5880960D01*
X6701539Y-5880960D02*
X6692015Y-5890484D01*
X6692015Y-5890484D02*
X6682491Y-5880960D01*
X6682491Y-5880960D02*
X6692015Y-5871436D01*
X6692015Y-5871436D02*
X6692015Y-5890484D01*
X6825348Y-5690484D02*
X6844396Y-5690484D01*
X6844396Y-5690484D02*
X6863444Y-5700008D01*
X6863444Y-5700008D02*
X6872967Y-5709531D01*
X6872967Y-5709531D02*
X6882491Y-5728579D01*
X6882491Y-5728579D02*
X6892015Y-5766674D01*
X6892015Y-5766674D02*
X6892015Y-5814293D01*
X6892015Y-5814293D02*
X6882491Y-5852388D01*
X6882491Y-5852388D02*
X6872967Y-5871436D01*
X6872967Y-5871436D02*
X6863444Y-5880960D01*
X6863444Y-5880960D02*
X6844396Y-5890484D01*
X6844396Y-5890484D02*
X6825348Y-5890484D01*
X6825348Y-5890484D02*
X6806301Y-5880960D01*
X6806301Y-5880960D02*
X6796777Y-5871436D01*
X6796777Y-5871436D02*
X6787253Y-5852388D01*
X6787253Y-5852388D02*
X6777729Y-5814293D01*
X6777729Y-5814293D02*
X6777729Y-5766674D01*
X6777729Y-5766674D02*
X6787253Y-5728579D01*
X6787253Y-5728579D02*
X6796777Y-5709531D01*
X6796777Y-5709531D02*
X6806301Y-5700008D01*
X6806301Y-5700008D02*
X6825348Y-5690484D01*
X7082491Y-5890484D02*
X6968206Y-5890484D01*
X7025348Y-5890484D02*
X7025348Y-5690484D01*
X7025348Y-5690484D02*
X7006301Y-5719055D01*
X7006301Y-5719055D02*
X6987253Y-5738103D01*
X6987253Y-5738103D02*
X6968206Y-5747627D01*
X7263444Y-5690484D02*
X7168206Y-5690484D01*
X7168206Y-5690484D02*
X7158682Y-5785722D01*
X7158682Y-5785722D02*
X7168206Y-5776198D01*
X7168206Y-5776198D02*
X7187253Y-5766674D01*
X7187253Y-5766674D02*
X7234872Y-5766674D01*
X7234872Y-5766674D02*
X7253920Y-5776198D01*
X7253920Y-5776198D02*
X7263444Y-5785722D01*
X7263444Y-5785722D02*
X7272967Y-5804769D01*
X7272967Y-5804769D02*
X7272967Y-5852388D01*
X7272967Y-5852388D02*
X7263444Y-5871436D01*
X7263444Y-5871436D02*
X7253920Y-5880960D01*
X7253920Y-5880960D02*
X7234872Y-5890484D01*
X7234872Y-5890484D02*
X7187253Y-5890484D01*
X7187253Y-5890484D02*
X7168206Y-5880960D01*
X7168206Y-5880960D02*
X7158682Y-5871436D01*
X7339634Y-5690484D02*
X7472967Y-5690484D01*
X7472967Y-5690484D02*
X7387253Y-5890484D01*
X7539634Y-5690484D02*
X7539634Y-5728579D01*
X7615825Y-5690484D02*
X7615825Y-5728579D01*
X7911063Y-5966674D02*
X7901539Y-5957150D01*
X7901539Y-5957150D02*
X7882491Y-5928579D01*
X7882491Y-5928579D02*
X7872968Y-5909531D01*
X7872968Y-5909531D02*
X7863444Y-5880960D01*
X7863444Y-5880960D02*
X7853920Y-5833341D01*
X7853920Y-5833341D02*
X7853920Y-5795246D01*
X7853920Y-5795246D02*
X7863444Y-5747627D01*
X7863444Y-5747627D02*
X7872968Y-5719055D01*
X7872968Y-5719055D02*
X7882491Y-5700008D01*
X7882491Y-5700008D02*
X7901539Y-5671436D01*
X7901539Y-5671436D02*
X7911063Y-5661912D01*
X8072968Y-5757150D02*
X8072968Y-5890484D01*
X8025348Y-5680960D02*
X7977729Y-5823817D01*
X7977729Y-5823817D02*
X8101539Y-5823817D01*
X8206301Y-5776198D02*
X8187253Y-5766674D01*
X8187253Y-5766674D02*
X8177729Y-5757150D01*
X8177729Y-5757150D02*
X8168206Y-5738103D01*
X8168206Y-5738103D02*
X8168206Y-5728579D01*
X8168206Y-5728579D02*
X8177729Y-5709531D01*
X8177729Y-5709531D02*
X8187253Y-5700008D01*
X8187253Y-5700008D02*
X8206301Y-5690484D01*
X8206301Y-5690484D02*
X8244396Y-5690484D01*
X8244396Y-5690484D02*
X8263444Y-5700008D01*
X8263444Y-5700008D02*
X8272968Y-5709531D01*
X8272968Y-5709531D02*
X8282491Y-5728579D01*
X8282491Y-5728579D02*
X8282491Y-5738103D01*
X8282491Y-5738103D02*
X8272968Y-5757150D01*
X8272968Y-5757150D02*
X8263444Y-5766674D01*
X8263444Y-5766674D02*
X8244396Y-5776198D01*
X8244396Y-5776198D02*
X8206301Y-5776198D01*
X8206301Y-5776198D02*
X8187253Y-5785722D01*
X8187253Y-5785722D02*
X8177729Y-5795246D01*
X8177729Y-5795246D02*
X8168206Y-5814293D01*
X8168206Y-5814293D02*
X8168206Y-5852388D01*
X8168206Y-5852388D02*
X8177729Y-5871436D01*
X8177729Y-5871436D02*
X8187253Y-5880960D01*
X8187253Y-5880960D02*
X8206301Y-5890484D01*
X8206301Y-5890484D02*
X8244396Y-5890484D01*
X8244396Y-5890484D02*
X8263444Y-5880960D01*
X8263444Y-5880960D02*
X8272968Y-5871436D01*
X8272968Y-5871436D02*
X8282491Y-5852388D01*
X8282491Y-5852388D02*
X8282491Y-5814293D01*
X8282491Y-5814293D02*
X8272968Y-5795246D01*
X8272968Y-5795246D02*
X8263444Y-5785722D01*
X8263444Y-5785722D02*
X8244396Y-5776198D01*
X8520587Y-5890484D02*
X8520587Y-5690484D01*
X8606301Y-5890484D02*
X8606301Y-5785722D01*
X8606301Y-5785722D02*
X8596777Y-5766674D01*
X8596777Y-5766674D02*
X8577730Y-5757150D01*
X8577730Y-5757150D02*
X8549158Y-5757150D01*
X8549158Y-5757150D02*
X8530111Y-5766674D01*
X8530111Y-5766674D02*
X8520587Y-5776198D01*
X8730111Y-5890484D02*
X8711063Y-5880960D01*
X8711063Y-5880960D02*
X8701539Y-5871436D01*
X8701539Y-5871436D02*
X8692015Y-5852388D01*
X8692015Y-5852388D02*
X8692015Y-5795246D01*
X8692015Y-5795246D02*
X8701539Y-5776198D01*
X8701539Y-5776198D02*
X8711063Y-5766674D01*
X8711063Y-5766674D02*
X8730111Y-5757150D01*
X8730111Y-5757150D02*
X8758682Y-5757150D01*
X8758682Y-5757150D02*
X8777730Y-5766674D01*
X8777730Y-5766674D02*
X8787253Y-5776198D01*
X8787253Y-5776198D02*
X8796777Y-5795246D01*
X8796777Y-5795246D02*
X8796777Y-5852388D01*
X8796777Y-5852388D02*
X8787253Y-5871436D01*
X8787253Y-5871436D02*
X8777730Y-5880960D01*
X8777730Y-5880960D02*
X8758682Y-5890484D01*
X8758682Y-5890484D02*
X8730111Y-5890484D01*
X8911063Y-5890484D02*
X8892015Y-5880960D01*
X8892015Y-5880960D02*
X8882492Y-5861912D01*
X8882492Y-5861912D02*
X8882492Y-5690484D01*
X9063444Y-5880960D02*
X9044396Y-5890484D01*
X9044396Y-5890484D02*
X9006301Y-5890484D01*
X9006301Y-5890484D02*
X8987253Y-5880960D01*
X8987253Y-5880960D02*
X8977730Y-5861912D01*
X8977730Y-5861912D02*
X8977730Y-5785722D01*
X8977730Y-5785722D02*
X8987253Y-5766674D01*
X8987253Y-5766674D02*
X9006301Y-5757150D01*
X9006301Y-5757150D02*
X9044396Y-5757150D01*
X9044396Y-5757150D02*
X9063444Y-5766674D01*
X9063444Y-5766674D02*
X9072968Y-5785722D01*
X9072968Y-5785722D02*
X9072968Y-5804769D01*
X9072968Y-5804769D02*
X8977730Y-5823817D01*
X9149158Y-5880960D02*
X9168206Y-5890484D01*
X9168206Y-5890484D02*
X9206301Y-5890484D01*
X9206301Y-5890484D02*
X9225349Y-5880960D01*
X9225349Y-5880960D02*
X9234873Y-5861912D01*
X9234873Y-5861912D02*
X9234873Y-5852388D01*
X9234873Y-5852388D02*
X9225349Y-5833341D01*
X9225349Y-5833341D02*
X9206301Y-5823817D01*
X9206301Y-5823817D02*
X9177730Y-5823817D01*
X9177730Y-5823817D02*
X9158682Y-5814293D01*
X9158682Y-5814293D02*
X9149158Y-5795246D01*
X9149158Y-5795246D02*
X9149158Y-5785722D01*
X9149158Y-5785722D02*
X9158682Y-5766674D01*
X9158682Y-5766674D02*
X9177730Y-5757150D01*
X9177730Y-5757150D02*
X9206301Y-5757150D01*
X9206301Y-5757150D02*
X9225349Y-5766674D01*
X9301539Y-5966674D02*
X9311063Y-5957150D01*
X9311063Y-5957150D02*
X9330111Y-5928579D01*
X9330111Y-5928579D02*
X9339634Y-5909531D01*
X9339634Y-5909531D02*
X9349158Y-5880960D01*
X9349158Y-5880960D02*
X9358682Y-5833341D01*
X9358682Y-5833341D02*
X9358682Y-5795246D01*
X9358682Y-5795246D02*
X9349158Y-5747627D01*
X9349158Y-5747627D02*
X9339634Y-5719055D01*
X9339634Y-5719055D02*
X9330111Y-5700008D01*
X9330111Y-5700008D02*
X9311063Y-5671436D01*
X9311063Y-5671436D02*
X9301539Y-5661912D01*
D13*
X4316000Y-6043000D02*
X4316000Y-6083000D01*
X4296000Y-6063000D02*
X4336000Y-6063000D01*
D11*
X4634872Y-5954484D02*
X4653920Y-5954484D01*
X4653920Y-5954484D02*
X4672967Y-5964008D01*
X4672967Y-5964008D02*
X4682491Y-5973531D01*
X4682491Y-5973531D02*
X4692015Y-5992579D01*
X4692015Y-5992579D02*
X4701539Y-6030674D01*
X4701539Y-6030674D02*
X4701539Y-6078293D01*
X4701539Y-6078293D02*
X4692015Y-6116388D01*
X4692015Y-6116388D02*
X4682491Y-6135436D01*
X4682491Y-6135436D02*
X4672967Y-6144960D01*
X4672967Y-6144960D02*
X4653920Y-6154484D01*
X4653920Y-6154484D02*
X4634872Y-6154484D01*
X4634872Y-6154484D02*
X4615824Y-6144960D01*
X4615824Y-6144960D02*
X4606301Y-6135436D01*
X4606301Y-6135436D02*
X4596777Y-6116388D01*
X4596777Y-6116388D02*
X4587253Y-6078293D01*
X4587253Y-6078293D02*
X4587253Y-6030674D01*
X4587253Y-6030674D02*
X4596777Y-5992579D01*
X4596777Y-5992579D02*
X4606301Y-5973531D01*
X4606301Y-5973531D02*
X4615824Y-5964008D01*
X4615824Y-5964008D02*
X4634872Y-5954484D01*
X4787253Y-6135436D02*
X4796777Y-6144960D01*
X4796777Y-6144960D02*
X4787253Y-6154484D01*
X4787253Y-6154484D02*
X4777729Y-6144960D01*
X4777729Y-6144960D02*
X4787253Y-6135436D01*
X4787253Y-6135436D02*
X4787253Y-6154484D01*
X4968205Y-6021150D02*
X4968205Y-6154484D01*
X4920586Y-5944960D02*
X4872967Y-6087817D01*
X4872967Y-6087817D02*
X4996777Y-6087817D01*
X5111063Y-5954484D02*
X5130110Y-5954484D01*
X5130110Y-5954484D02*
X5149158Y-5964008D01*
X5149158Y-5964008D02*
X5158682Y-5973531D01*
X5158682Y-5973531D02*
X5168205Y-5992579D01*
X5168205Y-5992579D02*
X5177729Y-6030674D01*
X5177729Y-6030674D02*
X5177729Y-6078293D01*
X5177729Y-6078293D02*
X5168205Y-6116388D01*
X5168205Y-6116388D02*
X5158682Y-6135436D01*
X5158682Y-6135436D02*
X5149158Y-6144960D01*
X5149158Y-6144960D02*
X5130110Y-6154484D01*
X5130110Y-6154484D02*
X5111063Y-6154484D01*
X5111063Y-6154484D02*
X5092015Y-6144960D01*
X5092015Y-6144960D02*
X5082491Y-6135436D01*
X5082491Y-6135436D02*
X5072967Y-6116388D01*
X5072967Y-6116388D02*
X5063444Y-6078293D01*
X5063444Y-6078293D02*
X5063444Y-6030674D01*
X5063444Y-6030674D02*
X5072967Y-5992579D01*
X5072967Y-5992579D02*
X5082491Y-5973531D01*
X5082491Y-5973531D02*
X5092015Y-5964008D01*
X5092015Y-5964008D02*
X5111063Y-5954484D01*
X5301539Y-5954484D02*
X5320586Y-5954484D01*
X5320586Y-5954484D02*
X5339634Y-5964008D01*
X5339634Y-5964008D02*
X5349158Y-5973531D01*
X5349158Y-5973531D02*
X5358682Y-5992579D01*
X5358682Y-5992579D02*
X5368205Y-6030674D01*
X5368205Y-6030674D02*
X5368205Y-6078293D01*
X5368205Y-6078293D02*
X5358682Y-6116388D01*
X5358682Y-6116388D02*
X5349158Y-6135436D01*
X5349158Y-6135436D02*
X5339634Y-6144960D01*
X5339634Y-6144960D02*
X5320586Y-6154484D01*
X5320586Y-6154484D02*
X5301539Y-6154484D01*
X5301539Y-6154484D02*
X5282491Y-6144960D01*
X5282491Y-6144960D02*
X5272967Y-6135436D01*
X5272967Y-6135436D02*
X5263444Y-6116388D01*
X5263444Y-6116388D02*
X5253920Y-6078293D01*
X5253920Y-6078293D02*
X5253920Y-6030674D01*
X5253920Y-6030674D02*
X5263444Y-5992579D01*
X5263444Y-5992579D02*
X5272967Y-5973531D01*
X5272967Y-5973531D02*
X5282491Y-5964008D01*
X5282491Y-5964008D02*
X5301539Y-5954484D01*
X5453920Y-6154484D02*
X5453920Y-6021150D01*
X5453920Y-6040198D02*
X5463444Y-6030674D01*
X5463444Y-6030674D02*
X5482491Y-6021150D01*
X5482491Y-6021150D02*
X5511063Y-6021150D01*
X5511063Y-6021150D02*
X5530110Y-6030674D01*
X5530110Y-6030674D02*
X5539634Y-6049722D01*
X5539634Y-6049722D02*
X5539634Y-6154484D01*
X5539634Y-6049722D02*
X5549158Y-6030674D01*
X5549158Y-6030674D02*
X5568205Y-6021150D01*
X5568205Y-6021150D02*
X5596777Y-6021150D01*
X5596777Y-6021150D02*
X5615824Y-6030674D01*
X5615824Y-6030674D02*
X5625348Y-6049722D01*
X5625348Y-6049722D02*
X5625348Y-6154484D01*
X5720586Y-6154484D02*
X5720586Y-6021150D01*
X5720586Y-6040198D02*
X5730110Y-6030674D01*
X5730110Y-6030674D02*
X5749158Y-6021150D01*
X5749158Y-6021150D02*
X5777729Y-6021150D01*
X5777729Y-6021150D02*
X5796777Y-6030674D01*
X5796777Y-6030674D02*
X5806301Y-6049722D01*
X5806301Y-6049722D02*
X5806301Y-6154484D01*
X5806301Y-6049722D02*
X5815824Y-6030674D01*
X5815824Y-6030674D02*
X5834872Y-6021150D01*
X5834872Y-6021150D02*
X5863443Y-6021150D01*
X5863443Y-6021150D02*
X5882491Y-6030674D01*
X5882491Y-6030674D02*
X5892015Y-6049722D01*
X5892015Y-6049722D02*
X5892015Y-6154484D01*
X6282491Y-5944960D02*
X6111063Y-6202103D01*
X6539634Y-5954484D02*
X6558682Y-5954484D01*
X6558682Y-5954484D02*
X6577729Y-5964008D01*
X6577729Y-5964008D02*
X6587253Y-5973531D01*
X6587253Y-5973531D02*
X6596777Y-5992579D01*
X6596777Y-5992579D02*
X6606301Y-6030674D01*
X6606301Y-6030674D02*
X6606301Y-6078293D01*
X6606301Y-6078293D02*
X6596777Y-6116388D01*
X6596777Y-6116388D02*
X6587253Y-6135436D01*
X6587253Y-6135436D02*
X6577729Y-6144960D01*
X6577729Y-6144960D02*
X6558682Y-6154484D01*
X6558682Y-6154484D02*
X6539634Y-6154484D01*
X6539634Y-6154484D02*
X6520586Y-6144960D01*
X6520586Y-6144960D02*
X6511063Y-6135436D01*
X6511063Y-6135436D02*
X6501539Y-6116388D01*
X6501539Y-6116388D02*
X6492015Y-6078293D01*
X6492015Y-6078293D02*
X6492015Y-6030674D01*
X6492015Y-6030674D02*
X6501539Y-5992579D01*
X6501539Y-5992579D02*
X6511063Y-5973531D01*
X6511063Y-5973531D02*
X6520586Y-5964008D01*
X6520586Y-5964008D02*
X6539634Y-5954484D01*
X6692015Y-6135436D02*
X6701539Y-6144960D01*
X6701539Y-6144960D02*
X6692015Y-6154484D01*
X6692015Y-6154484D02*
X6682491Y-6144960D01*
X6682491Y-6144960D02*
X6692015Y-6135436D01*
X6692015Y-6135436D02*
X6692015Y-6154484D01*
X6825348Y-5954484D02*
X6844396Y-5954484D01*
X6844396Y-5954484D02*
X6863444Y-5964008D01*
X6863444Y-5964008D02*
X6872967Y-5973531D01*
X6872967Y-5973531D02*
X6882491Y-5992579D01*
X6882491Y-5992579D02*
X6892015Y-6030674D01*
X6892015Y-6030674D02*
X6892015Y-6078293D01*
X6892015Y-6078293D02*
X6882491Y-6116388D01*
X6882491Y-6116388D02*
X6872967Y-6135436D01*
X6872967Y-6135436D02*
X6863444Y-6144960D01*
X6863444Y-6144960D02*
X6844396Y-6154484D01*
X6844396Y-6154484D02*
X6825348Y-6154484D01*
X6825348Y-6154484D02*
X6806301Y-6144960D01*
X6806301Y-6144960D02*
X6796777Y-6135436D01*
X6796777Y-6135436D02*
X6787253Y-6116388D01*
X6787253Y-6116388D02*
X6777729Y-6078293D01*
X6777729Y-6078293D02*
X6777729Y-6030674D01*
X6777729Y-6030674D02*
X6787253Y-5992579D01*
X6787253Y-5992579D02*
X6796777Y-5973531D01*
X6796777Y-5973531D02*
X6806301Y-5964008D01*
X6806301Y-5964008D02*
X6825348Y-5954484D01*
X7082491Y-6154484D02*
X6968206Y-6154484D01*
X7025348Y-6154484D02*
X7025348Y-5954484D01*
X7025348Y-5954484D02*
X7006301Y-5983055D01*
X7006301Y-5983055D02*
X6987253Y-6002103D01*
X6987253Y-6002103D02*
X6968206Y-6011627D01*
X7263444Y-5954484D02*
X7168206Y-5954484D01*
X7168206Y-5954484D02*
X7158682Y-6049722D01*
X7158682Y-6049722D02*
X7168206Y-6040198D01*
X7168206Y-6040198D02*
X7187253Y-6030674D01*
X7187253Y-6030674D02*
X7234872Y-6030674D01*
X7234872Y-6030674D02*
X7253920Y-6040198D01*
X7253920Y-6040198D02*
X7263444Y-6049722D01*
X7263444Y-6049722D02*
X7272967Y-6068769D01*
X7272967Y-6068769D02*
X7272967Y-6116388D01*
X7272967Y-6116388D02*
X7263444Y-6135436D01*
X7263444Y-6135436D02*
X7253920Y-6144960D01*
X7253920Y-6144960D02*
X7234872Y-6154484D01*
X7234872Y-6154484D02*
X7187253Y-6154484D01*
X7187253Y-6154484D02*
X7168206Y-6144960D01*
X7168206Y-6144960D02*
X7158682Y-6135436D01*
X7339634Y-5954484D02*
X7472967Y-5954484D01*
X7472967Y-5954484D02*
X7387253Y-6154484D01*
X7539634Y-5954484D02*
X7539634Y-5992579D01*
X7615825Y-5954484D02*
X7615825Y-5992579D01*
X7911063Y-6230674D02*
X7901539Y-6221150D01*
X7901539Y-6221150D02*
X7882491Y-6192579D01*
X7882491Y-6192579D02*
X7872968Y-6173531D01*
X7872968Y-6173531D02*
X7863444Y-6144960D01*
X7863444Y-6144960D02*
X7853920Y-6097341D01*
X7853920Y-6097341D02*
X7853920Y-6059246D01*
X7853920Y-6059246D02*
X7863444Y-6011627D01*
X7863444Y-6011627D02*
X7872968Y-5983055D01*
X7872968Y-5983055D02*
X7882491Y-5964008D01*
X7882491Y-5964008D02*
X7901539Y-5935436D01*
X7901539Y-5935436D02*
X7911063Y-5925912D01*
X7977729Y-5973531D02*
X7987253Y-5964008D01*
X7987253Y-5964008D02*
X8006301Y-5954484D01*
X8006301Y-5954484D02*
X8053920Y-5954484D01*
X8053920Y-5954484D02*
X8072968Y-5964008D01*
X8072968Y-5964008D02*
X8082491Y-5973531D01*
X8082491Y-5973531D02*
X8092015Y-5992579D01*
X8092015Y-5992579D02*
X8092015Y-6011627D01*
X8092015Y-6011627D02*
X8082491Y-6040198D01*
X8082491Y-6040198D02*
X7968206Y-6154484D01*
X7968206Y-6154484D02*
X8092015Y-6154484D01*
X8330110Y-6154484D02*
X8330110Y-5954484D01*
X8415825Y-6154484D02*
X8415825Y-6049722D01*
X8415825Y-6049722D02*
X8406301Y-6030674D01*
X8406301Y-6030674D02*
X8387253Y-6021150D01*
X8387253Y-6021150D02*
X8358682Y-6021150D01*
X8358682Y-6021150D02*
X8339634Y-6030674D01*
X8339634Y-6030674D02*
X8330110Y-6040198D01*
X8539634Y-6154484D02*
X8520587Y-6144960D01*
X8520587Y-6144960D02*
X8511063Y-6135436D01*
X8511063Y-6135436D02*
X8501539Y-6116388D01*
X8501539Y-6116388D02*
X8501539Y-6059246D01*
X8501539Y-6059246D02*
X8511063Y-6040198D01*
X8511063Y-6040198D02*
X8520587Y-6030674D01*
X8520587Y-6030674D02*
X8539634Y-6021150D01*
X8539634Y-6021150D02*
X8568206Y-6021150D01*
X8568206Y-6021150D02*
X8587253Y-6030674D01*
X8587253Y-6030674D02*
X8596777Y-6040198D01*
X8596777Y-6040198D02*
X8606301Y-6059246D01*
X8606301Y-6059246D02*
X8606301Y-6116388D01*
X8606301Y-6116388D02*
X8596777Y-6135436D01*
X8596777Y-6135436D02*
X8587253Y-6144960D01*
X8587253Y-6144960D02*
X8568206Y-6154484D01*
X8568206Y-6154484D02*
X8539634Y-6154484D01*
X8720587Y-6154484D02*
X8701539Y-6144960D01*
X8701539Y-6144960D02*
X8692015Y-6125912D01*
X8692015Y-6125912D02*
X8692015Y-5954484D01*
X8872968Y-6144960D02*
X8853920Y-6154484D01*
X8853920Y-6154484D02*
X8815825Y-6154484D01*
X8815825Y-6154484D02*
X8796777Y-6144960D01*
X8796777Y-6144960D02*
X8787253Y-6125912D01*
X8787253Y-6125912D02*
X8787253Y-6049722D01*
X8787253Y-6049722D02*
X8796777Y-6030674D01*
X8796777Y-6030674D02*
X8815825Y-6021150D01*
X8815825Y-6021150D02*
X8853920Y-6021150D01*
X8853920Y-6021150D02*
X8872968Y-6030674D01*
X8872968Y-6030674D02*
X8882492Y-6049722D01*
X8882492Y-6049722D02*
X8882492Y-6068769D01*
X8882492Y-6068769D02*
X8787253Y-6087817D01*
X8958682Y-6144960D02*
X8977730Y-6154484D01*
X8977730Y-6154484D02*
X9015825Y-6154484D01*
X9015825Y-6154484D02*
X9034873Y-6144960D01*
X9034873Y-6144960D02*
X9044396Y-6125912D01*
X9044396Y-6125912D02*
X9044396Y-6116388D01*
X9044396Y-6116388D02*
X9034873Y-6097341D01*
X9034873Y-6097341D02*
X9015825Y-6087817D01*
X9015825Y-6087817D02*
X8987253Y-6087817D01*
X8987253Y-6087817D02*
X8968206Y-6078293D01*
X8968206Y-6078293D02*
X8958682Y-6059246D01*
X8958682Y-6059246D02*
X8958682Y-6049722D01*
X8958682Y-6049722D02*
X8968206Y-6030674D01*
X8968206Y-6030674D02*
X8987253Y-6021150D01*
X8987253Y-6021150D02*
X9015825Y-6021150D01*
X9015825Y-6021150D02*
X9034873Y-6030674D01*
X9111063Y-6230674D02*
X9120587Y-6221150D01*
X9120587Y-6221150D02*
X9139634Y-6192579D01*
X9139634Y-6192579D02*
X9149158Y-6173531D01*
X9149158Y-6173531D02*
X9158682Y-6144960D01*
X9158682Y-6144960D02*
X9168206Y-6097341D01*
X9168206Y-6097341D02*
X9168206Y-6059246D01*
X9168206Y-6059246D02*
X9158682Y-6011627D01*
X9158682Y-6011627D02*
X9149158Y-5983055D01*
X9149158Y-5983055D02*
X9139634Y-5964008D01*
X9139634Y-5964008D02*
X9120587Y-5935436D01*
X9120587Y-5935436D02*
X9111063Y-5925912D01*
D14*
X4329410Y-6342910D02*
X4329410Y-6311090D01*
X4297590Y-6311090D01*
X4297590Y-6342910D01*
X4329410Y-6342910D01*
D11*
X4634872Y-6218484D02*
X4653920Y-6218484D01*
X4653920Y-6218484D02*
X4672967Y-6228008D01*
X4672967Y-6228008D02*
X4682491Y-6237531D01*
X4682491Y-6237531D02*
X4692015Y-6256579D01*
X4692015Y-6256579D02*
X4701539Y-6294674D01*
X4701539Y-6294674D02*
X4701539Y-6342293D01*
X4701539Y-6342293D02*
X4692015Y-6380388D01*
X4692015Y-6380388D02*
X4682491Y-6399436D01*
X4682491Y-6399436D02*
X4672967Y-6408960D01*
X4672967Y-6408960D02*
X4653920Y-6418484D01*
X4653920Y-6418484D02*
X4634872Y-6418484D01*
X4634872Y-6418484D02*
X4615824Y-6408960D01*
X4615824Y-6408960D02*
X4606301Y-6399436D01*
X4606301Y-6399436D02*
X4596777Y-6380388D01*
X4596777Y-6380388D02*
X4587253Y-6342293D01*
X4587253Y-6342293D02*
X4587253Y-6294674D01*
X4587253Y-6294674D02*
X4596777Y-6256579D01*
X4596777Y-6256579D02*
X4606301Y-6237531D01*
X4606301Y-6237531D02*
X4615824Y-6228008D01*
X4615824Y-6228008D02*
X4634872Y-6218484D01*
X4787253Y-6399436D02*
X4796777Y-6408960D01*
X4796777Y-6408960D02*
X4787253Y-6418484D01*
X4787253Y-6418484D02*
X4777729Y-6408960D01*
X4777729Y-6408960D02*
X4787253Y-6399436D01*
X4787253Y-6399436D02*
X4787253Y-6418484D01*
X4968205Y-6285150D02*
X4968205Y-6418484D01*
X4920586Y-6208960D02*
X4872967Y-6351817D01*
X4872967Y-6351817D02*
X4996777Y-6351817D01*
X5168205Y-6218484D02*
X5072967Y-6218484D01*
X5072967Y-6218484D02*
X5063444Y-6313722D01*
X5063444Y-6313722D02*
X5072967Y-6304198D01*
X5072967Y-6304198D02*
X5092015Y-6294674D01*
X5092015Y-6294674D02*
X5139634Y-6294674D01*
X5139634Y-6294674D02*
X5158682Y-6304198D01*
X5158682Y-6304198D02*
X5168205Y-6313722D01*
X5168205Y-6313722D02*
X5177729Y-6332769D01*
X5177729Y-6332769D02*
X5177729Y-6380388D01*
X5177729Y-6380388D02*
X5168205Y-6399436D01*
X5168205Y-6399436D02*
X5158682Y-6408960D01*
X5158682Y-6408960D02*
X5139634Y-6418484D01*
X5139634Y-6418484D02*
X5092015Y-6418484D01*
X5092015Y-6418484D02*
X5072967Y-6408960D01*
X5072967Y-6408960D02*
X5063444Y-6399436D01*
X5301539Y-6218484D02*
X5320586Y-6218484D01*
X5320586Y-6218484D02*
X5339634Y-6228008D01*
X5339634Y-6228008D02*
X5349158Y-6237531D01*
X5349158Y-6237531D02*
X5358682Y-6256579D01*
X5358682Y-6256579D02*
X5368205Y-6294674D01*
X5368205Y-6294674D02*
X5368205Y-6342293D01*
X5368205Y-6342293D02*
X5358682Y-6380388D01*
X5358682Y-6380388D02*
X5349158Y-6399436D01*
X5349158Y-6399436D02*
X5339634Y-6408960D01*
X5339634Y-6408960D02*
X5320586Y-6418484D01*
X5320586Y-6418484D02*
X5301539Y-6418484D01*
X5301539Y-6418484D02*
X5282491Y-6408960D01*
X5282491Y-6408960D02*
X5272967Y-6399436D01*
X5272967Y-6399436D02*
X5263444Y-6380388D01*
X5263444Y-6380388D02*
X5253920Y-6342293D01*
X5253920Y-6342293D02*
X5253920Y-6294674D01*
X5253920Y-6294674D02*
X5263444Y-6256579D01*
X5263444Y-6256579D02*
X5272967Y-6237531D01*
X5272967Y-6237531D02*
X5282491Y-6228008D01*
X5282491Y-6228008D02*
X5301539Y-6218484D01*
X5453920Y-6418484D02*
X5453920Y-6285150D01*
X5453920Y-6304198D02*
X5463444Y-6294674D01*
X5463444Y-6294674D02*
X5482491Y-6285150D01*
X5482491Y-6285150D02*
X5511063Y-6285150D01*
X5511063Y-6285150D02*
X5530110Y-6294674D01*
X5530110Y-6294674D02*
X5539634Y-6313722D01*
X5539634Y-6313722D02*
X5539634Y-6418484D01*
X5539634Y-6313722D02*
X5549158Y-6294674D01*
X5549158Y-6294674D02*
X5568205Y-6285150D01*
X5568205Y-6285150D02*
X5596777Y-6285150D01*
X5596777Y-6285150D02*
X5615824Y-6294674D01*
X5615824Y-6294674D02*
X5625348Y-6313722D01*
X5625348Y-6313722D02*
X5625348Y-6418484D01*
X5720586Y-6418484D02*
X5720586Y-6285150D01*
X5720586Y-6304198D02*
X5730110Y-6294674D01*
X5730110Y-6294674D02*
X5749158Y-6285150D01*
X5749158Y-6285150D02*
X5777729Y-6285150D01*
X5777729Y-6285150D02*
X5796777Y-6294674D01*
X5796777Y-6294674D02*
X5806301Y-6313722D01*
X5806301Y-6313722D02*
X5806301Y-6418484D01*
X5806301Y-6313722D02*
X5815824Y-6294674D01*
X5815824Y-6294674D02*
X5834872Y-6285150D01*
X5834872Y-6285150D02*
X5863443Y-6285150D01*
X5863443Y-6285150D02*
X5882491Y-6294674D01*
X5882491Y-6294674D02*
X5892015Y-6313722D01*
X5892015Y-6313722D02*
X5892015Y-6418484D01*
X6282491Y-6208960D02*
X6111063Y-6466103D01*
X6539634Y-6218484D02*
X6558682Y-6218484D01*
X6558682Y-6218484D02*
X6577729Y-6228008D01*
X6577729Y-6228008D02*
X6587253Y-6237531D01*
X6587253Y-6237531D02*
X6596777Y-6256579D01*
X6596777Y-6256579D02*
X6606301Y-6294674D01*
X6606301Y-6294674D02*
X6606301Y-6342293D01*
X6606301Y-6342293D02*
X6596777Y-6380388D01*
X6596777Y-6380388D02*
X6587253Y-6399436D01*
X6587253Y-6399436D02*
X6577729Y-6408960D01*
X6577729Y-6408960D02*
X6558682Y-6418484D01*
X6558682Y-6418484D02*
X6539634Y-6418484D01*
X6539634Y-6418484D02*
X6520586Y-6408960D01*
X6520586Y-6408960D02*
X6511063Y-6399436D01*
X6511063Y-6399436D02*
X6501539Y-6380388D01*
X6501539Y-6380388D02*
X6492015Y-6342293D01*
X6492015Y-6342293D02*
X6492015Y-6294674D01*
X6492015Y-6294674D02*
X6501539Y-6256579D01*
X6501539Y-6256579D02*
X6511063Y-6237531D01*
X6511063Y-6237531D02*
X6520586Y-6228008D01*
X6520586Y-6228008D02*
X6539634Y-6218484D01*
X6692015Y-6399436D02*
X6701539Y-6408960D01*
X6701539Y-6408960D02*
X6692015Y-6418484D01*
X6692015Y-6418484D02*
X6682491Y-6408960D01*
X6682491Y-6408960D02*
X6692015Y-6399436D01*
X6692015Y-6399436D02*
X6692015Y-6418484D01*
X6825348Y-6218484D02*
X6844396Y-6218484D01*
X6844396Y-6218484D02*
X6863444Y-6228008D01*
X6863444Y-6228008D02*
X6872967Y-6237531D01*
X6872967Y-6237531D02*
X6882491Y-6256579D01*
X6882491Y-6256579D02*
X6892015Y-6294674D01*
X6892015Y-6294674D02*
X6892015Y-6342293D01*
X6892015Y-6342293D02*
X6882491Y-6380388D01*
X6882491Y-6380388D02*
X6872967Y-6399436D01*
X6872967Y-6399436D02*
X6863444Y-6408960D01*
X6863444Y-6408960D02*
X6844396Y-6418484D01*
X6844396Y-6418484D02*
X6825348Y-6418484D01*
X6825348Y-6418484D02*
X6806301Y-6408960D01*
X6806301Y-6408960D02*
X6796777Y-6399436D01*
X6796777Y-6399436D02*
X6787253Y-6380388D01*
X6787253Y-6380388D02*
X6777729Y-6342293D01*
X6777729Y-6342293D02*
X6777729Y-6294674D01*
X6777729Y-6294674D02*
X6787253Y-6256579D01*
X6787253Y-6256579D02*
X6796777Y-6237531D01*
X6796777Y-6237531D02*
X6806301Y-6228008D01*
X6806301Y-6228008D02*
X6825348Y-6218484D01*
X7082491Y-6418484D02*
X6968206Y-6418484D01*
X7025348Y-6418484D02*
X7025348Y-6218484D01*
X7025348Y-6218484D02*
X7006301Y-6247055D01*
X7006301Y-6247055D02*
X6987253Y-6266103D01*
X6987253Y-6266103D02*
X6968206Y-6275627D01*
X7149158Y-6218484D02*
X7282491Y-6218484D01*
X7282491Y-6218484D02*
X7196777Y-6418484D01*
X7339634Y-6218484D02*
X7472967Y-6218484D01*
X7472967Y-6218484D02*
X7387253Y-6418484D01*
X7539634Y-6218484D02*
X7539634Y-6256579D01*
X7615825Y-6218484D02*
X7615825Y-6256579D01*
X7911063Y-6494674D02*
X7901539Y-6485150D01*
X7901539Y-6485150D02*
X7882491Y-6456579D01*
X7882491Y-6456579D02*
X7872968Y-6437531D01*
X7872968Y-6437531D02*
X7863444Y-6408960D01*
X7863444Y-6408960D02*
X7853920Y-6361341D01*
X7853920Y-6361341D02*
X7853920Y-6323246D01*
X7853920Y-6323246D02*
X7863444Y-6275627D01*
X7863444Y-6275627D02*
X7872968Y-6247055D01*
X7872968Y-6247055D02*
X7882491Y-6228008D01*
X7882491Y-6228008D02*
X7901539Y-6199436D01*
X7901539Y-6199436D02*
X7911063Y-6189912D01*
X8025348Y-6218484D02*
X8044396Y-6218484D01*
X8044396Y-6218484D02*
X8063444Y-6228008D01*
X8063444Y-6228008D02*
X8072968Y-6237531D01*
X8072968Y-6237531D02*
X8082491Y-6256579D01*
X8082491Y-6256579D02*
X8092015Y-6294674D01*
X8092015Y-6294674D02*
X8092015Y-6342293D01*
X8092015Y-6342293D02*
X8082491Y-6380388D01*
X8082491Y-6380388D02*
X8072968Y-6399436D01*
X8072968Y-6399436D02*
X8063444Y-6408960D01*
X8063444Y-6408960D02*
X8044396Y-6418484D01*
X8044396Y-6418484D02*
X8025348Y-6418484D01*
X8025348Y-6418484D02*
X8006301Y-6408960D01*
X8006301Y-6408960D02*
X7996777Y-6399436D01*
X7996777Y-6399436D02*
X7987253Y-6380388D01*
X7987253Y-6380388D02*
X7977729Y-6342293D01*
X7977729Y-6342293D02*
X7977729Y-6294674D01*
X7977729Y-6294674D02*
X7987253Y-6256579D01*
X7987253Y-6256579D02*
X7996777Y-6237531D01*
X7996777Y-6237531D02*
X8006301Y-6228008D01*
X8006301Y-6228008D02*
X8025348Y-6218484D01*
X8330110Y-6418484D02*
X8330110Y-6218484D01*
X8415825Y-6418484D02*
X8415825Y-6313722D01*
X8415825Y-6313722D02*
X8406301Y-6294674D01*
X8406301Y-6294674D02*
X8387253Y-6285150D01*
X8387253Y-6285150D02*
X8358682Y-6285150D01*
X8358682Y-6285150D02*
X8339634Y-6294674D01*
X8339634Y-6294674D02*
X8330110Y-6304198D01*
X8539634Y-6418484D02*
X8520587Y-6408960D01*
X8520587Y-6408960D02*
X8511063Y-6399436D01*
X8511063Y-6399436D02*
X8501539Y-6380388D01*
X8501539Y-6380388D02*
X8501539Y-6323246D01*
X8501539Y-6323246D02*
X8511063Y-6304198D01*
X8511063Y-6304198D02*
X8520587Y-6294674D01*
X8520587Y-6294674D02*
X8539634Y-6285150D01*
X8539634Y-6285150D02*
X8568206Y-6285150D01*
X8568206Y-6285150D02*
X8587253Y-6294674D01*
X8587253Y-6294674D02*
X8596777Y-6304198D01*
X8596777Y-6304198D02*
X8606301Y-6323246D01*
X8606301Y-6323246D02*
X8606301Y-6380388D01*
X8606301Y-6380388D02*
X8596777Y-6399436D01*
X8596777Y-6399436D02*
X8587253Y-6408960D01*
X8587253Y-6408960D02*
X8568206Y-6418484D01*
X8568206Y-6418484D02*
X8539634Y-6418484D01*
X8720587Y-6418484D02*
X8701539Y-6408960D01*
X8701539Y-6408960D02*
X8692015Y-6389912D01*
X8692015Y-6389912D02*
X8692015Y-6218484D01*
X8872968Y-6408960D02*
X8853920Y-6418484D01*
X8853920Y-6418484D02*
X8815825Y-6418484D01*
X8815825Y-6418484D02*
X8796777Y-6408960D01*
X8796777Y-6408960D02*
X8787253Y-6389912D01*
X8787253Y-6389912D02*
X8787253Y-6313722D01*
X8787253Y-6313722D02*
X8796777Y-6294674D01*
X8796777Y-6294674D02*
X8815825Y-6285150D01*
X8815825Y-6285150D02*
X8853920Y-6285150D01*
X8853920Y-6285150D02*
X8872968Y-6294674D01*
X8872968Y-6294674D02*
X8882492Y-6313722D01*
X8882492Y-6313722D02*
X8882492Y-6332769D01*
X8882492Y-6332769D02*
X8787253Y-6351817D01*
X8958682Y-6408960D02*
X8977730Y-6418484D01*
X8977730Y-6418484D02*
X9015825Y-6418484D01*
X9015825Y-6418484D02*
X9034873Y-6408960D01*
X9034873Y-6408960D02*
X9044396Y-6389912D01*
X9044396Y-6389912D02*
X9044396Y-6380388D01*
X9044396Y-6380388D02*
X9034873Y-6361341D01*
X9034873Y-6361341D02*
X9015825Y-6351817D01*
X9015825Y-6351817D02*
X8987253Y-6351817D01*
X8987253Y-6351817D02*
X8968206Y-6342293D01*
X8968206Y-6342293D02*
X8958682Y-6323246D01*
X8958682Y-6323246D02*
X8958682Y-6313722D01*
X8958682Y-6313722D02*
X8968206Y-6294674D01*
X8968206Y-6294674D02*
X8987253Y-6285150D01*
X8987253Y-6285150D02*
X9015825Y-6285150D01*
X9015825Y-6285150D02*
X9034873Y-6294674D01*
X9282492Y-6342293D02*
X9434873Y-6342293D01*
X9358682Y-6418484D02*
X9358682Y-6266103D01*
X9672968Y-6237531D02*
X9682492Y-6228008D01*
X9682492Y-6228008D02*
X9701539Y-6218484D01*
X9701539Y-6218484D02*
X9749158Y-6218484D01*
X9749158Y-6218484D02*
X9768206Y-6228008D01*
X9768206Y-6228008D02*
X9777730Y-6237531D01*
X9777730Y-6237531D02*
X9787254Y-6256579D01*
X9787254Y-6256579D02*
X9787254Y-6275627D01*
X9787254Y-6275627D02*
X9777730Y-6304198D01*
X9777730Y-6304198D02*
X9663444Y-6418484D01*
X9663444Y-6418484D02*
X9787254Y-6418484D01*
X10015825Y-6408960D02*
X10034873Y-6418484D01*
X10034873Y-6418484D02*
X10072968Y-6418484D01*
X10072968Y-6418484D02*
X10092016Y-6408960D01*
X10092016Y-6408960D02*
X10101539Y-6389912D01*
X10101539Y-6389912D02*
X10101539Y-6380388D01*
X10101539Y-6380388D02*
X10092016Y-6361341D01*
X10092016Y-6361341D02*
X10072968Y-6351817D01*
X10072968Y-6351817D02*
X10044396Y-6351817D01*
X10044396Y-6351817D02*
X10025349Y-6342293D01*
X10025349Y-6342293D02*
X10015825Y-6323246D01*
X10015825Y-6323246D02*
X10015825Y-6313722D01*
X10015825Y-6313722D02*
X10025349Y-6294674D01*
X10025349Y-6294674D02*
X10044396Y-6285150D01*
X10044396Y-6285150D02*
X10072968Y-6285150D01*
X10072968Y-6285150D02*
X10092016Y-6294674D01*
X10215825Y-6418484D02*
X10196777Y-6408960D01*
X10196777Y-6408960D02*
X10187254Y-6389912D01*
X10187254Y-6389912D02*
X10187254Y-6218484D01*
X10320587Y-6418484D02*
X10301539Y-6408960D01*
X10301539Y-6408960D02*
X10292016Y-6399436D01*
X10292016Y-6399436D02*
X10282492Y-6380388D01*
X10282492Y-6380388D02*
X10282492Y-6323246D01*
X10282492Y-6323246D02*
X10292016Y-6304198D01*
X10292016Y-6304198D02*
X10301539Y-6294674D01*
X10301539Y-6294674D02*
X10320587Y-6285150D01*
X10320587Y-6285150D02*
X10349158Y-6285150D01*
X10349158Y-6285150D02*
X10368206Y-6294674D01*
X10368206Y-6294674D02*
X10377730Y-6304198D01*
X10377730Y-6304198D02*
X10387254Y-6323246D01*
X10387254Y-6323246D02*
X10387254Y-6380388D01*
X10387254Y-6380388D02*
X10377730Y-6399436D01*
X10377730Y-6399436D02*
X10368206Y-6408960D01*
X10368206Y-6408960D02*
X10349158Y-6418484D01*
X10349158Y-6418484D02*
X10320587Y-6418484D01*
X10444397Y-6285150D02*
X10520587Y-6285150D01*
X10472968Y-6218484D02*
X10472968Y-6389912D01*
X10472968Y-6389912D02*
X10482492Y-6408960D01*
X10482492Y-6408960D02*
X10501539Y-6418484D01*
X10501539Y-6418484D02*
X10520587Y-6418484D01*
X10577730Y-6408960D02*
X10596777Y-6418484D01*
X10596777Y-6418484D02*
X10634873Y-6418484D01*
X10634873Y-6418484D02*
X10653920Y-6408960D01*
X10653920Y-6408960D02*
X10663444Y-6389912D01*
X10663444Y-6389912D02*
X10663444Y-6380388D01*
X10663444Y-6380388D02*
X10653920Y-6361341D01*
X10653920Y-6361341D02*
X10634873Y-6351817D01*
X10634873Y-6351817D02*
X10606301Y-6351817D01*
X10606301Y-6351817D02*
X10587254Y-6342293D01*
X10587254Y-6342293D02*
X10577730Y-6323246D01*
X10577730Y-6323246D02*
X10577730Y-6313722D01*
X10577730Y-6313722D02*
X10587254Y-6294674D01*
X10587254Y-6294674D02*
X10606301Y-6285150D01*
X10606301Y-6285150D02*
X10634873Y-6285150D01*
X10634873Y-6285150D02*
X10653920Y-6294674D01*
X10730111Y-6494674D02*
X10739635Y-6485150D01*
X10739635Y-6485150D02*
X10758682Y-6456579D01*
X10758682Y-6456579D02*
X10768206Y-6437531D01*
X10768206Y-6437531D02*
X10777730Y-6408960D01*
X10777730Y-6408960D02*
X10787254Y-6361341D01*
X10787254Y-6361341D02*
X10787254Y-6323246D01*
X10787254Y-6323246D02*
X10777730Y-6275627D01*
X10777730Y-6275627D02*
X10768206Y-6247055D01*
X10768206Y-6247055D02*
X10758682Y-6228008D01*
X10758682Y-6228008D02*
X10739635Y-6199436D01*
X10739635Y-6199436D02*
X10730111Y-6189912D01*
D15*
X4311000Y-6616000D02*
X4336000Y-6591000D01*
X4311000Y-6566000D01*
X4286000Y-6591000D01*
X4311000Y-6616000D01*
D11*
X4634872Y-6482484D02*
X4653920Y-6482484D01*
X4653920Y-6482484D02*
X4672967Y-6492008D01*
X4672967Y-6492008D02*
X4682491Y-6501531D01*
X4682491Y-6501531D02*
X4692015Y-6520579D01*
X4692015Y-6520579D02*
X4701539Y-6558674D01*
X4701539Y-6558674D02*
X4701539Y-6606293D01*
X4701539Y-6606293D02*
X4692015Y-6644388D01*
X4692015Y-6644388D02*
X4682491Y-6663436D01*
X4682491Y-6663436D02*
X4672967Y-6672960D01*
X4672967Y-6672960D02*
X4653920Y-6682484D01*
X4653920Y-6682484D02*
X4634872Y-6682484D01*
X4634872Y-6682484D02*
X4615824Y-6672960D01*
X4615824Y-6672960D02*
X4606301Y-6663436D01*
X4606301Y-6663436D02*
X4596777Y-6644388D01*
X4596777Y-6644388D02*
X4587253Y-6606293D01*
X4587253Y-6606293D02*
X4587253Y-6558674D01*
X4587253Y-6558674D02*
X4596777Y-6520579D01*
X4596777Y-6520579D02*
X4606301Y-6501531D01*
X4606301Y-6501531D02*
X4615824Y-6492008D01*
X4615824Y-6492008D02*
X4634872Y-6482484D01*
X4787253Y-6663436D02*
X4796777Y-6672960D01*
X4796777Y-6672960D02*
X4787253Y-6682484D01*
X4787253Y-6682484D02*
X4777729Y-6672960D01*
X4777729Y-6672960D02*
X4787253Y-6663436D01*
X4787253Y-6663436D02*
X4787253Y-6682484D01*
X4977729Y-6482484D02*
X4882491Y-6482484D01*
X4882491Y-6482484D02*
X4872967Y-6577722D01*
X4872967Y-6577722D02*
X4882491Y-6568198D01*
X4882491Y-6568198D02*
X4901539Y-6558674D01*
X4901539Y-6558674D02*
X4949158Y-6558674D01*
X4949158Y-6558674D02*
X4968205Y-6568198D01*
X4968205Y-6568198D02*
X4977729Y-6577722D01*
X4977729Y-6577722D02*
X4987253Y-6596769D01*
X4987253Y-6596769D02*
X4987253Y-6644388D01*
X4987253Y-6644388D02*
X4977729Y-6663436D01*
X4977729Y-6663436D02*
X4968205Y-6672960D01*
X4968205Y-6672960D02*
X4949158Y-6682484D01*
X4949158Y-6682484D02*
X4901539Y-6682484D01*
X4901539Y-6682484D02*
X4882491Y-6672960D01*
X4882491Y-6672960D02*
X4872967Y-6663436D01*
X5111063Y-6482484D02*
X5130110Y-6482484D01*
X5130110Y-6482484D02*
X5149158Y-6492008D01*
X5149158Y-6492008D02*
X5158682Y-6501531D01*
X5158682Y-6501531D02*
X5168205Y-6520579D01*
X5168205Y-6520579D02*
X5177729Y-6558674D01*
X5177729Y-6558674D02*
X5177729Y-6606293D01*
X5177729Y-6606293D02*
X5168205Y-6644388D01*
X5168205Y-6644388D02*
X5158682Y-6663436D01*
X5158682Y-6663436D02*
X5149158Y-6672960D01*
X5149158Y-6672960D02*
X5130110Y-6682484D01*
X5130110Y-6682484D02*
X5111063Y-6682484D01*
X5111063Y-6682484D02*
X5092015Y-6672960D01*
X5092015Y-6672960D02*
X5082491Y-6663436D01*
X5082491Y-6663436D02*
X5072967Y-6644388D01*
X5072967Y-6644388D02*
X5063444Y-6606293D01*
X5063444Y-6606293D02*
X5063444Y-6558674D01*
X5063444Y-6558674D02*
X5072967Y-6520579D01*
X5072967Y-6520579D02*
X5082491Y-6501531D01*
X5082491Y-6501531D02*
X5092015Y-6492008D01*
X5092015Y-6492008D02*
X5111063Y-6482484D01*
X5301539Y-6482484D02*
X5320586Y-6482484D01*
X5320586Y-6482484D02*
X5339634Y-6492008D01*
X5339634Y-6492008D02*
X5349158Y-6501531D01*
X5349158Y-6501531D02*
X5358682Y-6520579D01*
X5358682Y-6520579D02*
X5368205Y-6558674D01*
X5368205Y-6558674D02*
X5368205Y-6606293D01*
X5368205Y-6606293D02*
X5358682Y-6644388D01*
X5358682Y-6644388D02*
X5349158Y-6663436D01*
X5349158Y-6663436D02*
X5339634Y-6672960D01*
X5339634Y-6672960D02*
X5320586Y-6682484D01*
X5320586Y-6682484D02*
X5301539Y-6682484D01*
X5301539Y-6682484D02*
X5282491Y-6672960D01*
X5282491Y-6672960D02*
X5272967Y-6663436D01*
X5272967Y-6663436D02*
X5263444Y-6644388D01*
X5263444Y-6644388D02*
X5253920Y-6606293D01*
X5253920Y-6606293D02*
X5253920Y-6558674D01*
X5253920Y-6558674D02*
X5263444Y-6520579D01*
X5263444Y-6520579D02*
X5272967Y-6501531D01*
X5272967Y-6501531D02*
X5282491Y-6492008D01*
X5282491Y-6492008D02*
X5301539Y-6482484D01*
X5453920Y-6682484D02*
X5453920Y-6549150D01*
X5453920Y-6568198D02*
X5463444Y-6558674D01*
X5463444Y-6558674D02*
X5482491Y-6549150D01*
X5482491Y-6549150D02*
X5511063Y-6549150D01*
X5511063Y-6549150D02*
X5530110Y-6558674D01*
X5530110Y-6558674D02*
X5539634Y-6577722D01*
X5539634Y-6577722D02*
X5539634Y-6682484D01*
X5539634Y-6577722D02*
X5549158Y-6558674D01*
X5549158Y-6558674D02*
X5568205Y-6549150D01*
X5568205Y-6549150D02*
X5596777Y-6549150D01*
X5596777Y-6549150D02*
X5615824Y-6558674D01*
X5615824Y-6558674D02*
X5625348Y-6577722D01*
X5625348Y-6577722D02*
X5625348Y-6682484D01*
X5720586Y-6682484D02*
X5720586Y-6549150D01*
X5720586Y-6568198D02*
X5730110Y-6558674D01*
X5730110Y-6558674D02*
X5749158Y-6549150D01*
X5749158Y-6549150D02*
X5777729Y-6549150D01*
X5777729Y-6549150D02*
X5796777Y-6558674D01*
X5796777Y-6558674D02*
X5806301Y-6577722D01*
X5806301Y-6577722D02*
X5806301Y-6682484D01*
X5806301Y-6577722D02*
X5815824Y-6558674D01*
X5815824Y-6558674D02*
X5834872Y-6549150D01*
X5834872Y-6549150D02*
X5863443Y-6549150D01*
X5863443Y-6549150D02*
X5882491Y-6558674D01*
X5882491Y-6558674D02*
X5892015Y-6577722D01*
X5892015Y-6577722D02*
X5892015Y-6682484D01*
X6282491Y-6472960D02*
X6111063Y-6730103D01*
X6539634Y-6482484D02*
X6558682Y-6482484D01*
X6558682Y-6482484D02*
X6577729Y-6492008D01*
X6577729Y-6492008D02*
X6587253Y-6501531D01*
X6587253Y-6501531D02*
X6596777Y-6520579D01*
X6596777Y-6520579D02*
X6606301Y-6558674D01*
X6606301Y-6558674D02*
X6606301Y-6606293D01*
X6606301Y-6606293D02*
X6596777Y-6644388D01*
X6596777Y-6644388D02*
X6587253Y-6663436D01*
X6587253Y-6663436D02*
X6577729Y-6672960D01*
X6577729Y-6672960D02*
X6558682Y-6682484D01*
X6558682Y-6682484D02*
X6539634Y-6682484D01*
X6539634Y-6682484D02*
X6520586Y-6672960D01*
X6520586Y-6672960D02*
X6511063Y-6663436D01*
X6511063Y-6663436D02*
X6501539Y-6644388D01*
X6501539Y-6644388D02*
X6492015Y-6606293D01*
X6492015Y-6606293D02*
X6492015Y-6558674D01*
X6492015Y-6558674D02*
X6501539Y-6520579D01*
X6501539Y-6520579D02*
X6511063Y-6501531D01*
X6511063Y-6501531D02*
X6520586Y-6492008D01*
X6520586Y-6492008D02*
X6539634Y-6482484D01*
X6692015Y-6663436D02*
X6701539Y-6672960D01*
X6701539Y-6672960D02*
X6692015Y-6682484D01*
X6692015Y-6682484D02*
X6682491Y-6672960D01*
X6682491Y-6672960D02*
X6692015Y-6663436D01*
X6692015Y-6663436D02*
X6692015Y-6682484D01*
X6825348Y-6482484D02*
X6844396Y-6482484D01*
X6844396Y-6482484D02*
X6863444Y-6492008D01*
X6863444Y-6492008D02*
X6872967Y-6501531D01*
X6872967Y-6501531D02*
X6882491Y-6520579D01*
X6882491Y-6520579D02*
X6892015Y-6558674D01*
X6892015Y-6558674D02*
X6892015Y-6606293D01*
X6892015Y-6606293D02*
X6882491Y-6644388D01*
X6882491Y-6644388D02*
X6872967Y-6663436D01*
X6872967Y-6663436D02*
X6863444Y-6672960D01*
X6863444Y-6672960D02*
X6844396Y-6682484D01*
X6844396Y-6682484D02*
X6825348Y-6682484D01*
X6825348Y-6682484D02*
X6806301Y-6672960D01*
X6806301Y-6672960D02*
X6796777Y-6663436D01*
X6796777Y-6663436D02*
X6787253Y-6644388D01*
X6787253Y-6644388D02*
X6777729Y-6606293D01*
X6777729Y-6606293D02*
X6777729Y-6558674D01*
X6777729Y-6558674D02*
X6787253Y-6520579D01*
X6787253Y-6520579D02*
X6796777Y-6501531D01*
X6796777Y-6501531D02*
X6806301Y-6492008D01*
X6806301Y-6492008D02*
X6825348Y-6482484D01*
X7082491Y-6682484D02*
X6968206Y-6682484D01*
X7025348Y-6682484D02*
X7025348Y-6482484D01*
X7025348Y-6482484D02*
X7006301Y-6511055D01*
X7006301Y-6511055D02*
X6987253Y-6530103D01*
X6987253Y-6530103D02*
X6968206Y-6539627D01*
X7177729Y-6682484D02*
X7215825Y-6682484D01*
X7215825Y-6682484D02*
X7234872Y-6672960D01*
X7234872Y-6672960D02*
X7244396Y-6663436D01*
X7244396Y-6663436D02*
X7263444Y-6634865D01*
X7263444Y-6634865D02*
X7272967Y-6596769D01*
X7272967Y-6596769D02*
X7272967Y-6520579D01*
X7272967Y-6520579D02*
X7263444Y-6501531D01*
X7263444Y-6501531D02*
X7253920Y-6492008D01*
X7253920Y-6492008D02*
X7234872Y-6482484D01*
X7234872Y-6482484D02*
X7196777Y-6482484D01*
X7196777Y-6482484D02*
X7177729Y-6492008D01*
X7177729Y-6492008D02*
X7168206Y-6501531D01*
X7168206Y-6501531D02*
X7158682Y-6520579D01*
X7158682Y-6520579D02*
X7158682Y-6568198D01*
X7158682Y-6568198D02*
X7168206Y-6587246D01*
X7168206Y-6587246D02*
X7177729Y-6596769D01*
X7177729Y-6596769D02*
X7196777Y-6606293D01*
X7196777Y-6606293D02*
X7234872Y-6606293D01*
X7234872Y-6606293D02*
X7253920Y-6596769D01*
X7253920Y-6596769D02*
X7263444Y-6587246D01*
X7263444Y-6587246D02*
X7272967Y-6568198D01*
X7339634Y-6482484D02*
X7472967Y-6482484D01*
X7472967Y-6482484D02*
X7387253Y-6682484D01*
X7539634Y-6482484D02*
X7539634Y-6520579D01*
X7615825Y-6482484D02*
X7615825Y-6520579D01*
X7911063Y-6758674D02*
X7901539Y-6749150D01*
X7901539Y-6749150D02*
X7882491Y-6720579D01*
X7882491Y-6720579D02*
X7872968Y-6701531D01*
X7872968Y-6701531D02*
X7863444Y-6672960D01*
X7863444Y-6672960D02*
X7853920Y-6625341D01*
X7853920Y-6625341D02*
X7853920Y-6587246D01*
X7853920Y-6587246D02*
X7863444Y-6539627D01*
X7863444Y-6539627D02*
X7872968Y-6511055D01*
X7872968Y-6511055D02*
X7882491Y-6492008D01*
X7882491Y-6492008D02*
X7901539Y-6463436D01*
X7901539Y-6463436D02*
X7911063Y-6453912D01*
X8072968Y-6482484D02*
X8034872Y-6482484D01*
X8034872Y-6482484D02*
X8015825Y-6492008D01*
X8015825Y-6492008D02*
X8006301Y-6501531D01*
X8006301Y-6501531D02*
X7987253Y-6530103D01*
X7987253Y-6530103D02*
X7977729Y-6568198D01*
X7977729Y-6568198D02*
X7977729Y-6644388D01*
X7977729Y-6644388D02*
X7987253Y-6663436D01*
X7987253Y-6663436D02*
X7996777Y-6672960D01*
X7996777Y-6672960D02*
X8015825Y-6682484D01*
X8015825Y-6682484D02*
X8053920Y-6682484D01*
X8053920Y-6682484D02*
X8072968Y-6672960D01*
X8072968Y-6672960D02*
X8082491Y-6663436D01*
X8082491Y-6663436D02*
X8092015Y-6644388D01*
X8092015Y-6644388D02*
X8092015Y-6596769D01*
X8092015Y-6596769D02*
X8082491Y-6577722D01*
X8082491Y-6577722D02*
X8072968Y-6568198D01*
X8072968Y-6568198D02*
X8053920Y-6558674D01*
X8053920Y-6558674D02*
X8015825Y-6558674D01*
X8015825Y-6558674D02*
X7996777Y-6568198D01*
X7996777Y-6568198D02*
X7987253Y-6577722D01*
X7987253Y-6577722D02*
X7977729Y-6596769D01*
X8330110Y-6682484D02*
X8330110Y-6482484D01*
X8415825Y-6682484D02*
X8415825Y-6577722D01*
X8415825Y-6577722D02*
X8406301Y-6558674D01*
X8406301Y-6558674D02*
X8387253Y-6549150D01*
X8387253Y-6549150D02*
X8358682Y-6549150D01*
X8358682Y-6549150D02*
X8339634Y-6558674D01*
X8339634Y-6558674D02*
X8330110Y-6568198D01*
X8539634Y-6682484D02*
X8520587Y-6672960D01*
X8520587Y-6672960D02*
X8511063Y-6663436D01*
X8511063Y-6663436D02*
X8501539Y-6644388D01*
X8501539Y-6644388D02*
X8501539Y-6587246D01*
X8501539Y-6587246D02*
X8511063Y-6568198D01*
X8511063Y-6568198D02*
X8520587Y-6558674D01*
X8520587Y-6558674D02*
X8539634Y-6549150D01*
X8539634Y-6549150D02*
X8568206Y-6549150D01*
X8568206Y-6549150D02*
X8587253Y-6558674D01*
X8587253Y-6558674D02*
X8596777Y-6568198D01*
X8596777Y-6568198D02*
X8606301Y-6587246D01*
X8606301Y-6587246D02*
X8606301Y-6644388D01*
X8606301Y-6644388D02*
X8596777Y-6663436D01*
X8596777Y-6663436D02*
X8587253Y-6672960D01*
X8587253Y-6672960D02*
X8568206Y-6682484D01*
X8568206Y-6682484D02*
X8539634Y-6682484D01*
X8720587Y-6682484D02*
X8701539Y-6672960D01*
X8701539Y-6672960D02*
X8692015Y-6653912D01*
X8692015Y-6653912D02*
X8692015Y-6482484D01*
X8872968Y-6672960D02*
X8853920Y-6682484D01*
X8853920Y-6682484D02*
X8815825Y-6682484D01*
X8815825Y-6682484D02*
X8796777Y-6672960D01*
X8796777Y-6672960D02*
X8787253Y-6653912D01*
X8787253Y-6653912D02*
X8787253Y-6577722D01*
X8787253Y-6577722D02*
X8796777Y-6558674D01*
X8796777Y-6558674D02*
X8815825Y-6549150D01*
X8815825Y-6549150D02*
X8853920Y-6549150D01*
X8853920Y-6549150D02*
X8872968Y-6558674D01*
X8872968Y-6558674D02*
X8882492Y-6577722D01*
X8882492Y-6577722D02*
X8882492Y-6596769D01*
X8882492Y-6596769D02*
X8787253Y-6615817D01*
X8958682Y-6672960D02*
X8977730Y-6682484D01*
X8977730Y-6682484D02*
X9015825Y-6682484D01*
X9015825Y-6682484D02*
X9034873Y-6672960D01*
X9034873Y-6672960D02*
X9044396Y-6653912D01*
X9044396Y-6653912D02*
X9044396Y-6644388D01*
X9044396Y-6644388D02*
X9034873Y-6625341D01*
X9034873Y-6625341D02*
X9015825Y-6615817D01*
X9015825Y-6615817D02*
X8987253Y-6615817D01*
X8987253Y-6615817D02*
X8968206Y-6606293D01*
X8968206Y-6606293D02*
X8958682Y-6587246D01*
X8958682Y-6587246D02*
X8958682Y-6577722D01*
X8958682Y-6577722D02*
X8968206Y-6558674D01*
X8968206Y-6558674D02*
X8987253Y-6549150D01*
X8987253Y-6549150D02*
X9015825Y-6549150D01*
X9015825Y-6549150D02*
X9034873Y-6558674D01*
X9111063Y-6758674D02*
X9120587Y-6749150D01*
X9120587Y-6749150D02*
X9139634Y-6720579D01*
X9139634Y-6720579D02*
X9149158Y-6701531D01*
X9149158Y-6701531D02*
X9158682Y-6672960D01*
X9158682Y-6672960D02*
X9168206Y-6625341D01*
X9168206Y-6625341D02*
X9168206Y-6587246D01*
X9168206Y-6587246D02*
X9158682Y-6539627D01*
X9158682Y-6539627D02*
X9149158Y-6511055D01*
X9149158Y-6511055D02*
X9139634Y-6492008D01*
X9139634Y-6492008D02*
X9120587Y-6463436D01*
X9120587Y-6463436D02*
X9111063Y-6453912D01*
D16*
X4276000Y-6825000D02*
X4336000Y-6885000D01*
X4336000Y-6825000D02*
X4276000Y-6885000D01*
X4336000Y-6855000D02*
G75*
G03*
X4336000Y-6855000I-30000J0D01*
G01*
D11*
X4634872Y-6746484D02*
X4653920Y-6746484D01*
X4653920Y-6746484D02*
X4672967Y-6756008D01*
X4672967Y-6756008D02*
X4682491Y-6765531D01*
X4682491Y-6765531D02*
X4692015Y-6784579D01*
X4692015Y-6784579D02*
X4701539Y-6822674D01*
X4701539Y-6822674D02*
X4701539Y-6870293D01*
X4701539Y-6870293D02*
X4692015Y-6908388D01*
X4692015Y-6908388D02*
X4682491Y-6927436D01*
X4682491Y-6927436D02*
X4672967Y-6936960D01*
X4672967Y-6936960D02*
X4653920Y-6946484D01*
X4653920Y-6946484D02*
X4634872Y-6946484D01*
X4634872Y-6946484D02*
X4615824Y-6936960D01*
X4615824Y-6936960D02*
X4606301Y-6927436D01*
X4606301Y-6927436D02*
X4596777Y-6908388D01*
X4596777Y-6908388D02*
X4587253Y-6870293D01*
X4587253Y-6870293D02*
X4587253Y-6822674D01*
X4587253Y-6822674D02*
X4596777Y-6784579D01*
X4596777Y-6784579D02*
X4606301Y-6765531D01*
X4606301Y-6765531D02*
X4615824Y-6756008D01*
X4615824Y-6756008D02*
X4634872Y-6746484D01*
X4787253Y-6927436D02*
X4796777Y-6936960D01*
X4796777Y-6936960D02*
X4787253Y-6946484D01*
X4787253Y-6946484D02*
X4777729Y-6936960D01*
X4777729Y-6936960D02*
X4787253Y-6927436D01*
X4787253Y-6927436D02*
X4787253Y-6946484D01*
X4968205Y-6746484D02*
X4930110Y-6746484D01*
X4930110Y-6746484D02*
X4911063Y-6756008D01*
X4911063Y-6756008D02*
X4901539Y-6765531D01*
X4901539Y-6765531D02*
X4882491Y-6794103D01*
X4882491Y-6794103D02*
X4872967Y-6832198D01*
X4872967Y-6832198D02*
X4872967Y-6908388D01*
X4872967Y-6908388D02*
X4882491Y-6927436D01*
X4882491Y-6927436D02*
X4892015Y-6936960D01*
X4892015Y-6936960D02*
X4911063Y-6946484D01*
X4911063Y-6946484D02*
X4949158Y-6946484D01*
X4949158Y-6946484D02*
X4968205Y-6936960D01*
X4968205Y-6936960D02*
X4977729Y-6927436D01*
X4977729Y-6927436D02*
X4987253Y-6908388D01*
X4987253Y-6908388D02*
X4987253Y-6860769D01*
X4987253Y-6860769D02*
X4977729Y-6841722D01*
X4977729Y-6841722D02*
X4968205Y-6832198D01*
X4968205Y-6832198D02*
X4949158Y-6822674D01*
X4949158Y-6822674D02*
X4911063Y-6822674D01*
X4911063Y-6822674D02*
X4892015Y-6832198D01*
X4892015Y-6832198D02*
X4882491Y-6841722D01*
X4882491Y-6841722D02*
X4872967Y-6860769D01*
X5111063Y-6746484D02*
X5130110Y-6746484D01*
X5130110Y-6746484D02*
X5149158Y-6756008D01*
X5149158Y-6756008D02*
X5158682Y-6765531D01*
X5158682Y-6765531D02*
X5168205Y-6784579D01*
X5168205Y-6784579D02*
X5177729Y-6822674D01*
X5177729Y-6822674D02*
X5177729Y-6870293D01*
X5177729Y-6870293D02*
X5168205Y-6908388D01*
X5168205Y-6908388D02*
X5158682Y-6927436D01*
X5158682Y-6927436D02*
X5149158Y-6936960D01*
X5149158Y-6936960D02*
X5130110Y-6946484D01*
X5130110Y-6946484D02*
X5111063Y-6946484D01*
X5111063Y-6946484D02*
X5092015Y-6936960D01*
X5092015Y-6936960D02*
X5082491Y-6927436D01*
X5082491Y-6927436D02*
X5072967Y-6908388D01*
X5072967Y-6908388D02*
X5063444Y-6870293D01*
X5063444Y-6870293D02*
X5063444Y-6822674D01*
X5063444Y-6822674D02*
X5072967Y-6784579D01*
X5072967Y-6784579D02*
X5082491Y-6765531D01*
X5082491Y-6765531D02*
X5092015Y-6756008D01*
X5092015Y-6756008D02*
X5111063Y-6746484D01*
X5301539Y-6746484D02*
X5320586Y-6746484D01*
X5320586Y-6746484D02*
X5339634Y-6756008D01*
X5339634Y-6756008D02*
X5349158Y-6765531D01*
X5349158Y-6765531D02*
X5358682Y-6784579D01*
X5358682Y-6784579D02*
X5368205Y-6822674D01*
X5368205Y-6822674D02*
X5368205Y-6870293D01*
X5368205Y-6870293D02*
X5358682Y-6908388D01*
X5358682Y-6908388D02*
X5349158Y-6927436D01*
X5349158Y-6927436D02*
X5339634Y-6936960D01*
X5339634Y-6936960D02*
X5320586Y-6946484D01*
X5320586Y-6946484D02*
X5301539Y-6946484D01*
X5301539Y-6946484D02*
X5282491Y-6936960D01*
X5282491Y-6936960D02*
X5272967Y-6927436D01*
X5272967Y-6927436D02*
X5263444Y-6908388D01*
X5263444Y-6908388D02*
X5253920Y-6870293D01*
X5253920Y-6870293D02*
X5253920Y-6822674D01*
X5253920Y-6822674D02*
X5263444Y-6784579D01*
X5263444Y-6784579D02*
X5272967Y-6765531D01*
X5272967Y-6765531D02*
X5282491Y-6756008D01*
X5282491Y-6756008D02*
X5301539Y-6746484D01*
X5453920Y-6946484D02*
X5453920Y-6813150D01*
X5453920Y-6832198D02*
X5463444Y-6822674D01*
X5463444Y-6822674D02*
X5482491Y-6813150D01*
X5482491Y-6813150D02*
X5511063Y-6813150D01*
X5511063Y-6813150D02*
X5530110Y-6822674D01*
X5530110Y-6822674D02*
X5539634Y-6841722D01*
X5539634Y-6841722D02*
X5539634Y-6946484D01*
X5539634Y-6841722D02*
X5549158Y-6822674D01*
X5549158Y-6822674D02*
X5568205Y-6813150D01*
X5568205Y-6813150D02*
X5596777Y-6813150D01*
X5596777Y-6813150D02*
X5615824Y-6822674D01*
X5615824Y-6822674D02*
X5625348Y-6841722D01*
X5625348Y-6841722D02*
X5625348Y-6946484D01*
X5720586Y-6946484D02*
X5720586Y-6813150D01*
X5720586Y-6832198D02*
X5730110Y-6822674D01*
X5730110Y-6822674D02*
X5749158Y-6813150D01*
X5749158Y-6813150D02*
X5777729Y-6813150D01*
X5777729Y-6813150D02*
X5796777Y-6822674D01*
X5796777Y-6822674D02*
X5806301Y-6841722D01*
X5806301Y-6841722D02*
X5806301Y-6946484D01*
X5806301Y-6841722D02*
X5815824Y-6822674D01*
X5815824Y-6822674D02*
X5834872Y-6813150D01*
X5834872Y-6813150D02*
X5863443Y-6813150D01*
X5863443Y-6813150D02*
X5882491Y-6822674D01*
X5882491Y-6822674D02*
X5892015Y-6841722D01*
X5892015Y-6841722D02*
X5892015Y-6946484D01*
X6282491Y-6736960D02*
X6111063Y-6994103D01*
X6539634Y-6746484D02*
X6558682Y-6746484D01*
X6558682Y-6746484D02*
X6577729Y-6756008D01*
X6577729Y-6756008D02*
X6587253Y-6765531D01*
X6587253Y-6765531D02*
X6596777Y-6784579D01*
X6596777Y-6784579D02*
X6606301Y-6822674D01*
X6606301Y-6822674D02*
X6606301Y-6870293D01*
X6606301Y-6870293D02*
X6596777Y-6908388D01*
X6596777Y-6908388D02*
X6587253Y-6927436D01*
X6587253Y-6927436D02*
X6577729Y-6936960D01*
X6577729Y-6936960D02*
X6558682Y-6946484D01*
X6558682Y-6946484D02*
X6539634Y-6946484D01*
X6539634Y-6946484D02*
X6520586Y-6936960D01*
X6520586Y-6936960D02*
X6511063Y-6927436D01*
X6511063Y-6927436D02*
X6501539Y-6908388D01*
X6501539Y-6908388D02*
X6492015Y-6870293D01*
X6492015Y-6870293D02*
X6492015Y-6822674D01*
X6492015Y-6822674D02*
X6501539Y-6784579D01*
X6501539Y-6784579D02*
X6511063Y-6765531D01*
X6511063Y-6765531D02*
X6520586Y-6756008D01*
X6520586Y-6756008D02*
X6539634Y-6746484D01*
X6692015Y-6927436D02*
X6701539Y-6936960D01*
X6701539Y-6936960D02*
X6692015Y-6946484D01*
X6692015Y-6946484D02*
X6682491Y-6936960D01*
X6682491Y-6936960D02*
X6692015Y-6927436D01*
X6692015Y-6927436D02*
X6692015Y-6946484D01*
X6825348Y-6746484D02*
X6844396Y-6746484D01*
X6844396Y-6746484D02*
X6863444Y-6756008D01*
X6863444Y-6756008D02*
X6872967Y-6765531D01*
X6872967Y-6765531D02*
X6882491Y-6784579D01*
X6882491Y-6784579D02*
X6892015Y-6822674D01*
X6892015Y-6822674D02*
X6892015Y-6870293D01*
X6892015Y-6870293D02*
X6882491Y-6908388D01*
X6882491Y-6908388D02*
X6872967Y-6927436D01*
X6872967Y-6927436D02*
X6863444Y-6936960D01*
X6863444Y-6936960D02*
X6844396Y-6946484D01*
X6844396Y-6946484D02*
X6825348Y-6946484D01*
X6825348Y-6946484D02*
X6806301Y-6936960D01*
X6806301Y-6936960D02*
X6796777Y-6927436D01*
X6796777Y-6927436D02*
X6787253Y-6908388D01*
X6787253Y-6908388D02*
X6777729Y-6870293D01*
X6777729Y-6870293D02*
X6777729Y-6822674D01*
X6777729Y-6822674D02*
X6787253Y-6784579D01*
X6787253Y-6784579D02*
X6796777Y-6765531D01*
X6796777Y-6765531D02*
X6806301Y-6756008D01*
X6806301Y-6756008D02*
X6825348Y-6746484D01*
X6968206Y-6765531D02*
X6977729Y-6756008D01*
X6977729Y-6756008D02*
X6996777Y-6746484D01*
X6996777Y-6746484D02*
X7044396Y-6746484D01*
X7044396Y-6746484D02*
X7063444Y-6756008D01*
X7063444Y-6756008D02*
X7072967Y-6765531D01*
X7072967Y-6765531D02*
X7082491Y-6784579D01*
X7082491Y-6784579D02*
X7082491Y-6803627D01*
X7082491Y-6803627D02*
X7072967Y-6832198D01*
X7072967Y-6832198D02*
X6958682Y-6946484D01*
X6958682Y-6946484D02*
X7082491Y-6946484D01*
X7149158Y-6746484D02*
X7272967Y-6746484D01*
X7272967Y-6746484D02*
X7206301Y-6822674D01*
X7206301Y-6822674D02*
X7234872Y-6822674D01*
X7234872Y-6822674D02*
X7253920Y-6832198D01*
X7253920Y-6832198D02*
X7263444Y-6841722D01*
X7263444Y-6841722D02*
X7272967Y-6860769D01*
X7272967Y-6860769D02*
X7272967Y-6908388D01*
X7272967Y-6908388D02*
X7263444Y-6927436D01*
X7263444Y-6927436D02*
X7253920Y-6936960D01*
X7253920Y-6936960D02*
X7234872Y-6946484D01*
X7234872Y-6946484D02*
X7177729Y-6946484D01*
X7177729Y-6946484D02*
X7158682Y-6936960D01*
X7158682Y-6936960D02*
X7149158Y-6927436D01*
X7444396Y-6746484D02*
X7406301Y-6746484D01*
X7406301Y-6746484D02*
X7387253Y-6756008D01*
X7387253Y-6756008D02*
X7377729Y-6765531D01*
X7377729Y-6765531D02*
X7358682Y-6794103D01*
X7358682Y-6794103D02*
X7349158Y-6832198D01*
X7349158Y-6832198D02*
X7349158Y-6908388D01*
X7349158Y-6908388D02*
X7358682Y-6927436D01*
X7358682Y-6927436D02*
X7368206Y-6936960D01*
X7368206Y-6936960D02*
X7387253Y-6946484D01*
X7387253Y-6946484D02*
X7425348Y-6946484D01*
X7425348Y-6946484D02*
X7444396Y-6936960D01*
X7444396Y-6936960D02*
X7453920Y-6927436D01*
X7453920Y-6927436D02*
X7463444Y-6908388D01*
X7463444Y-6908388D02*
X7463444Y-6860769D01*
X7463444Y-6860769D02*
X7453920Y-6841722D01*
X7453920Y-6841722D02*
X7444396Y-6832198D01*
X7444396Y-6832198D02*
X7425348Y-6822674D01*
X7425348Y-6822674D02*
X7387253Y-6822674D01*
X7387253Y-6822674D02*
X7368206Y-6832198D01*
X7368206Y-6832198D02*
X7358682Y-6841722D01*
X7358682Y-6841722D02*
X7349158Y-6860769D01*
X7539634Y-6746484D02*
X7539634Y-6784579D01*
X7615825Y-6746484D02*
X7615825Y-6784579D01*
X7911063Y-7022674D02*
X7901539Y-7013150D01*
X7901539Y-7013150D02*
X7882491Y-6984579D01*
X7882491Y-6984579D02*
X7872968Y-6965531D01*
X7872968Y-6965531D02*
X7863444Y-6936960D01*
X7863444Y-6936960D02*
X7853920Y-6889341D01*
X7853920Y-6889341D02*
X7853920Y-6851246D01*
X7853920Y-6851246D02*
X7863444Y-6803627D01*
X7863444Y-6803627D02*
X7872968Y-6775055D01*
X7872968Y-6775055D02*
X7882491Y-6756008D01*
X7882491Y-6756008D02*
X7901539Y-6727436D01*
X7901539Y-6727436D02*
X7911063Y-6717912D01*
X8082491Y-6746484D02*
X7987253Y-6746484D01*
X7987253Y-6746484D02*
X7977729Y-6841722D01*
X7977729Y-6841722D02*
X7987253Y-6832198D01*
X7987253Y-6832198D02*
X8006301Y-6822674D01*
X8006301Y-6822674D02*
X8053920Y-6822674D01*
X8053920Y-6822674D02*
X8072968Y-6832198D01*
X8072968Y-6832198D02*
X8082491Y-6841722D01*
X8082491Y-6841722D02*
X8092015Y-6860769D01*
X8092015Y-6860769D02*
X8092015Y-6908388D01*
X8092015Y-6908388D02*
X8082491Y-6927436D01*
X8082491Y-6927436D02*
X8072968Y-6936960D01*
X8072968Y-6936960D02*
X8053920Y-6946484D01*
X8053920Y-6946484D02*
X8006301Y-6946484D01*
X8006301Y-6946484D02*
X7987253Y-6936960D01*
X7987253Y-6936960D02*
X7977729Y-6927436D01*
X8330110Y-6946484D02*
X8330110Y-6746484D01*
X8415825Y-6946484D02*
X8415825Y-6841722D01*
X8415825Y-6841722D02*
X8406301Y-6822674D01*
X8406301Y-6822674D02*
X8387253Y-6813150D01*
X8387253Y-6813150D02*
X8358682Y-6813150D01*
X8358682Y-6813150D02*
X8339634Y-6822674D01*
X8339634Y-6822674D02*
X8330110Y-6832198D01*
X8539634Y-6946484D02*
X8520587Y-6936960D01*
X8520587Y-6936960D02*
X8511063Y-6927436D01*
X8511063Y-6927436D02*
X8501539Y-6908388D01*
X8501539Y-6908388D02*
X8501539Y-6851246D01*
X8501539Y-6851246D02*
X8511063Y-6832198D01*
X8511063Y-6832198D02*
X8520587Y-6822674D01*
X8520587Y-6822674D02*
X8539634Y-6813150D01*
X8539634Y-6813150D02*
X8568206Y-6813150D01*
X8568206Y-6813150D02*
X8587253Y-6822674D01*
X8587253Y-6822674D02*
X8596777Y-6832198D01*
X8596777Y-6832198D02*
X8606301Y-6851246D01*
X8606301Y-6851246D02*
X8606301Y-6908388D01*
X8606301Y-6908388D02*
X8596777Y-6927436D01*
X8596777Y-6927436D02*
X8587253Y-6936960D01*
X8587253Y-6936960D02*
X8568206Y-6946484D01*
X8568206Y-6946484D02*
X8539634Y-6946484D01*
X8720587Y-6946484D02*
X8701539Y-6936960D01*
X8701539Y-6936960D02*
X8692015Y-6917912D01*
X8692015Y-6917912D02*
X8692015Y-6746484D01*
X8872968Y-6936960D02*
X8853920Y-6946484D01*
X8853920Y-6946484D02*
X8815825Y-6946484D01*
X8815825Y-6946484D02*
X8796777Y-6936960D01*
X8796777Y-6936960D02*
X8787253Y-6917912D01*
X8787253Y-6917912D02*
X8787253Y-6841722D01*
X8787253Y-6841722D02*
X8796777Y-6822674D01*
X8796777Y-6822674D02*
X8815825Y-6813150D01*
X8815825Y-6813150D02*
X8853920Y-6813150D01*
X8853920Y-6813150D02*
X8872968Y-6822674D01*
X8872968Y-6822674D02*
X8882492Y-6841722D01*
X8882492Y-6841722D02*
X8882492Y-6860769D01*
X8882492Y-6860769D02*
X8787253Y-6879817D01*
X8958682Y-6936960D02*
X8977730Y-6946484D01*
X8977730Y-6946484D02*
X9015825Y-6946484D01*
X9015825Y-6946484D02*
X9034873Y-6936960D01*
X9034873Y-6936960D02*
X9044396Y-6917912D01*
X9044396Y-6917912D02*
X9044396Y-6908388D01*
X9044396Y-6908388D02*
X9034873Y-6889341D01*
X9034873Y-6889341D02*
X9015825Y-6879817D01*
X9015825Y-6879817D02*
X8987253Y-6879817D01*
X8987253Y-6879817D02*
X8968206Y-6870293D01*
X8968206Y-6870293D02*
X8958682Y-6851246D01*
X8958682Y-6851246D02*
X8958682Y-6841722D01*
X8958682Y-6841722D02*
X8968206Y-6822674D01*
X8968206Y-6822674D02*
X8987253Y-6813150D01*
X8987253Y-6813150D02*
X9015825Y-6813150D01*
X9015825Y-6813150D02*
X9034873Y-6822674D01*
X9111063Y-7022674D02*
X9120587Y-7013150D01*
X9120587Y-7013150D02*
X9139634Y-6984579D01*
X9139634Y-6984579D02*
X9149158Y-6965531D01*
X9149158Y-6965531D02*
X9158682Y-6936960D01*
X9158682Y-6936960D02*
X9168206Y-6889341D01*
X9168206Y-6889341D02*
X9168206Y-6851246D01*
X9168206Y-6851246D02*
X9158682Y-6803627D01*
X9158682Y-6803627D02*
X9149158Y-6775055D01*
X9149158Y-6775055D02*
X9139634Y-6756008D01*
X9139634Y-6756008D02*
X9120587Y-6727436D01*
X9120587Y-6727436D02*
X9111063Y-6717912D01*
D17*
X4266000Y-7084000D02*
X4336000Y-7154000D01*
X4336000Y-7084000D02*
X4266000Y-7154000D01*
X4301000Y-7084000D02*
X4301000Y-7154000D01*
X4266000Y-7119000D02*
X4336000Y-7119000D01*
D11*
X4634872Y-7010484D02*
X4653920Y-7010484D01*
X4653920Y-7010484D02*
X4672967Y-7020008D01*
X4672967Y-7020008D02*
X4682491Y-7029531D01*
X4682491Y-7029531D02*
X4692015Y-7048579D01*
X4692015Y-7048579D02*
X4701539Y-7086674D01*
X4701539Y-7086674D02*
X4701539Y-7134293D01*
X4701539Y-7134293D02*
X4692015Y-7172388D01*
X4692015Y-7172388D02*
X4682491Y-7191436D01*
X4682491Y-7191436D02*
X4672967Y-7200960D01*
X4672967Y-7200960D02*
X4653920Y-7210484D01*
X4653920Y-7210484D02*
X4634872Y-7210484D01*
X4634872Y-7210484D02*
X4615824Y-7200960D01*
X4615824Y-7200960D02*
X4606301Y-7191436D01*
X4606301Y-7191436D02*
X4596777Y-7172388D01*
X4596777Y-7172388D02*
X4587253Y-7134293D01*
X4587253Y-7134293D02*
X4587253Y-7086674D01*
X4587253Y-7086674D02*
X4596777Y-7048579D01*
X4596777Y-7048579D02*
X4606301Y-7029531D01*
X4606301Y-7029531D02*
X4615824Y-7020008D01*
X4615824Y-7020008D02*
X4634872Y-7010484D01*
X4787253Y-7191436D02*
X4796777Y-7200960D01*
X4796777Y-7200960D02*
X4787253Y-7210484D01*
X4787253Y-7210484D02*
X4777729Y-7200960D01*
X4777729Y-7200960D02*
X4787253Y-7191436D01*
X4787253Y-7191436D02*
X4787253Y-7210484D01*
X4863444Y-7010484D02*
X4996777Y-7010484D01*
X4996777Y-7010484D02*
X4911063Y-7210484D01*
X5111063Y-7010484D02*
X5130110Y-7010484D01*
X5130110Y-7010484D02*
X5149158Y-7020008D01*
X5149158Y-7020008D02*
X5158682Y-7029531D01*
X5158682Y-7029531D02*
X5168205Y-7048579D01*
X5168205Y-7048579D02*
X5177729Y-7086674D01*
X5177729Y-7086674D02*
X5177729Y-7134293D01*
X5177729Y-7134293D02*
X5168205Y-7172388D01*
X5168205Y-7172388D02*
X5158682Y-7191436D01*
X5158682Y-7191436D02*
X5149158Y-7200960D01*
X5149158Y-7200960D02*
X5130110Y-7210484D01*
X5130110Y-7210484D02*
X5111063Y-7210484D01*
X5111063Y-7210484D02*
X5092015Y-7200960D01*
X5092015Y-7200960D02*
X5082491Y-7191436D01*
X5082491Y-7191436D02*
X5072967Y-7172388D01*
X5072967Y-7172388D02*
X5063444Y-7134293D01*
X5063444Y-7134293D02*
X5063444Y-7086674D01*
X5063444Y-7086674D02*
X5072967Y-7048579D01*
X5072967Y-7048579D02*
X5082491Y-7029531D01*
X5082491Y-7029531D02*
X5092015Y-7020008D01*
X5092015Y-7020008D02*
X5111063Y-7010484D01*
X5301539Y-7010484D02*
X5320586Y-7010484D01*
X5320586Y-7010484D02*
X5339634Y-7020008D01*
X5339634Y-7020008D02*
X5349158Y-7029531D01*
X5349158Y-7029531D02*
X5358682Y-7048579D01*
X5358682Y-7048579D02*
X5368205Y-7086674D01*
X5368205Y-7086674D02*
X5368205Y-7134293D01*
X5368205Y-7134293D02*
X5358682Y-7172388D01*
X5358682Y-7172388D02*
X5349158Y-7191436D01*
X5349158Y-7191436D02*
X5339634Y-7200960D01*
X5339634Y-7200960D02*
X5320586Y-7210484D01*
X5320586Y-7210484D02*
X5301539Y-7210484D01*
X5301539Y-7210484D02*
X5282491Y-7200960D01*
X5282491Y-7200960D02*
X5272967Y-7191436D01*
X5272967Y-7191436D02*
X5263444Y-7172388D01*
X5263444Y-7172388D02*
X5253920Y-7134293D01*
X5253920Y-7134293D02*
X5253920Y-7086674D01*
X5253920Y-7086674D02*
X5263444Y-7048579D01*
X5263444Y-7048579D02*
X5272967Y-7029531D01*
X5272967Y-7029531D02*
X5282491Y-7020008D01*
X5282491Y-7020008D02*
X5301539Y-7010484D01*
X5453920Y-7210484D02*
X5453920Y-7077150D01*
X5453920Y-7096198D02*
X5463444Y-7086674D01*
X5463444Y-7086674D02*
X5482491Y-7077150D01*
X5482491Y-7077150D02*
X5511063Y-7077150D01*
X5511063Y-7077150D02*
X5530110Y-7086674D01*
X5530110Y-7086674D02*
X5539634Y-7105722D01*
X5539634Y-7105722D02*
X5539634Y-7210484D01*
X5539634Y-7105722D02*
X5549158Y-7086674D01*
X5549158Y-7086674D02*
X5568205Y-7077150D01*
X5568205Y-7077150D02*
X5596777Y-7077150D01*
X5596777Y-7077150D02*
X5615824Y-7086674D01*
X5615824Y-7086674D02*
X5625348Y-7105722D01*
X5625348Y-7105722D02*
X5625348Y-7210484D01*
X5720586Y-7210484D02*
X5720586Y-7077150D01*
X5720586Y-7096198D02*
X5730110Y-7086674D01*
X5730110Y-7086674D02*
X5749158Y-7077150D01*
X5749158Y-7077150D02*
X5777729Y-7077150D01*
X5777729Y-7077150D02*
X5796777Y-7086674D01*
X5796777Y-7086674D02*
X5806301Y-7105722D01*
X5806301Y-7105722D02*
X5806301Y-7210484D01*
X5806301Y-7105722D02*
X5815824Y-7086674D01*
X5815824Y-7086674D02*
X5834872Y-7077150D01*
X5834872Y-7077150D02*
X5863443Y-7077150D01*
X5863443Y-7077150D02*
X5882491Y-7086674D01*
X5882491Y-7086674D02*
X5892015Y-7105722D01*
X5892015Y-7105722D02*
X5892015Y-7210484D01*
X6282491Y-7000960D02*
X6111063Y-7258103D01*
X6539634Y-7010484D02*
X6558682Y-7010484D01*
X6558682Y-7010484D02*
X6577729Y-7020008D01*
X6577729Y-7020008D02*
X6587253Y-7029531D01*
X6587253Y-7029531D02*
X6596777Y-7048579D01*
X6596777Y-7048579D02*
X6606301Y-7086674D01*
X6606301Y-7086674D02*
X6606301Y-7134293D01*
X6606301Y-7134293D02*
X6596777Y-7172388D01*
X6596777Y-7172388D02*
X6587253Y-7191436D01*
X6587253Y-7191436D02*
X6577729Y-7200960D01*
X6577729Y-7200960D02*
X6558682Y-7210484D01*
X6558682Y-7210484D02*
X6539634Y-7210484D01*
X6539634Y-7210484D02*
X6520586Y-7200960D01*
X6520586Y-7200960D02*
X6511063Y-7191436D01*
X6511063Y-7191436D02*
X6501539Y-7172388D01*
X6501539Y-7172388D02*
X6492015Y-7134293D01*
X6492015Y-7134293D02*
X6492015Y-7086674D01*
X6492015Y-7086674D02*
X6501539Y-7048579D01*
X6501539Y-7048579D02*
X6511063Y-7029531D01*
X6511063Y-7029531D02*
X6520586Y-7020008D01*
X6520586Y-7020008D02*
X6539634Y-7010484D01*
X6692015Y-7191436D02*
X6701539Y-7200960D01*
X6701539Y-7200960D02*
X6692015Y-7210484D01*
X6692015Y-7210484D02*
X6682491Y-7200960D01*
X6682491Y-7200960D02*
X6692015Y-7191436D01*
X6692015Y-7191436D02*
X6692015Y-7210484D01*
X6825348Y-7010484D02*
X6844396Y-7010484D01*
X6844396Y-7010484D02*
X6863444Y-7020008D01*
X6863444Y-7020008D02*
X6872967Y-7029531D01*
X6872967Y-7029531D02*
X6882491Y-7048579D01*
X6882491Y-7048579D02*
X6892015Y-7086674D01*
X6892015Y-7086674D02*
X6892015Y-7134293D01*
X6892015Y-7134293D02*
X6882491Y-7172388D01*
X6882491Y-7172388D02*
X6872967Y-7191436D01*
X6872967Y-7191436D02*
X6863444Y-7200960D01*
X6863444Y-7200960D02*
X6844396Y-7210484D01*
X6844396Y-7210484D02*
X6825348Y-7210484D01*
X6825348Y-7210484D02*
X6806301Y-7200960D01*
X6806301Y-7200960D02*
X6796777Y-7191436D01*
X6796777Y-7191436D02*
X6787253Y-7172388D01*
X6787253Y-7172388D02*
X6777729Y-7134293D01*
X6777729Y-7134293D02*
X6777729Y-7086674D01*
X6777729Y-7086674D02*
X6787253Y-7048579D01*
X6787253Y-7048579D02*
X6796777Y-7029531D01*
X6796777Y-7029531D02*
X6806301Y-7020008D01*
X6806301Y-7020008D02*
X6825348Y-7010484D01*
X6968206Y-7029531D02*
X6977729Y-7020008D01*
X6977729Y-7020008D02*
X6996777Y-7010484D01*
X6996777Y-7010484D02*
X7044396Y-7010484D01*
X7044396Y-7010484D02*
X7063444Y-7020008D01*
X7063444Y-7020008D02*
X7072967Y-7029531D01*
X7072967Y-7029531D02*
X7082491Y-7048579D01*
X7082491Y-7048579D02*
X7082491Y-7067627D01*
X7082491Y-7067627D02*
X7072967Y-7096198D01*
X7072967Y-7096198D02*
X6958682Y-7210484D01*
X6958682Y-7210484D02*
X7082491Y-7210484D01*
X7149158Y-7010484D02*
X7282491Y-7010484D01*
X7282491Y-7010484D02*
X7196777Y-7210484D01*
X7444396Y-7010484D02*
X7406301Y-7010484D01*
X7406301Y-7010484D02*
X7387253Y-7020008D01*
X7387253Y-7020008D02*
X7377729Y-7029531D01*
X7377729Y-7029531D02*
X7358682Y-7058103D01*
X7358682Y-7058103D02*
X7349158Y-7096198D01*
X7349158Y-7096198D02*
X7349158Y-7172388D01*
X7349158Y-7172388D02*
X7358682Y-7191436D01*
X7358682Y-7191436D02*
X7368206Y-7200960D01*
X7368206Y-7200960D02*
X7387253Y-7210484D01*
X7387253Y-7210484D02*
X7425348Y-7210484D01*
X7425348Y-7210484D02*
X7444396Y-7200960D01*
X7444396Y-7200960D02*
X7453920Y-7191436D01*
X7453920Y-7191436D02*
X7463444Y-7172388D01*
X7463444Y-7172388D02*
X7463444Y-7124769D01*
X7463444Y-7124769D02*
X7453920Y-7105722D01*
X7453920Y-7105722D02*
X7444396Y-7096198D01*
X7444396Y-7096198D02*
X7425348Y-7086674D01*
X7425348Y-7086674D02*
X7387253Y-7086674D01*
X7387253Y-7086674D02*
X7368206Y-7096198D01*
X7368206Y-7096198D02*
X7358682Y-7105722D01*
X7358682Y-7105722D02*
X7349158Y-7124769D01*
X7539634Y-7010484D02*
X7539634Y-7048579D01*
X7615825Y-7010484D02*
X7615825Y-7048579D01*
X7911063Y-7286674D02*
X7901539Y-7277150D01*
X7901539Y-7277150D02*
X7882491Y-7248579D01*
X7882491Y-7248579D02*
X7872968Y-7229531D01*
X7872968Y-7229531D02*
X7863444Y-7200960D01*
X7863444Y-7200960D02*
X7853920Y-7153341D01*
X7853920Y-7153341D02*
X7853920Y-7115246D01*
X7853920Y-7115246D02*
X7863444Y-7067627D01*
X7863444Y-7067627D02*
X7872968Y-7039055D01*
X7872968Y-7039055D02*
X7882491Y-7020008D01*
X7882491Y-7020008D02*
X7901539Y-6991436D01*
X7901539Y-6991436D02*
X7911063Y-6981912D01*
X7968206Y-7010484D02*
X8092015Y-7010484D01*
X8092015Y-7010484D02*
X8025348Y-7086674D01*
X8025348Y-7086674D02*
X8053920Y-7086674D01*
X8053920Y-7086674D02*
X8072968Y-7096198D01*
X8072968Y-7096198D02*
X8082491Y-7105722D01*
X8082491Y-7105722D02*
X8092015Y-7124769D01*
X8092015Y-7124769D02*
X8092015Y-7172388D01*
X8092015Y-7172388D02*
X8082491Y-7191436D01*
X8082491Y-7191436D02*
X8072968Y-7200960D01*
X8072968Y-7200960D02*
X8053920Y-7210484D01*
X8053920Y-7210484D02*
X7996777Y-7210484D01*
X7996777Y-7210484D02*
X7977729Y-7200960D01*
X7977729Y-7200960D02*
X7968206Y-7191436D01*
X8330110Y-7210484D02*
X8330110Y-7010484D01*
X8415825Y-7210484D02*
X8415825Y-7105722D01*
X8415825Y-7105722D02*
X8406301Y-7086674D01*
X8406301Y-7086674D02*
X8387253Y-7077150D01*
X8387253Y-7077150D02*
X8358682Y-7077150D01*
X8358682Y-7077150D02*
X8339634Y-7086674D01*
X8339634Y-7086674D02*
X8330110Y-7096198D01*
X8539634Y-7210484D02*
X8520587Y-7200960D01*
X8520587Y-7200960D02*
X8511063Y-7191436D01*
X8511063Y-7191436D02*
X8501539Y-7172388D01*
X8501539Y-7172388D02*
X8501539Y-7115246D01*
X8501539Y-7115246D02*
X8511063Y-7096198D01*
X8511063Y-7096198D02*
X8520587Y-7086674D01*
X8520587Y-7086674D02*
X8539634Y-7077150D01*
X8539634Y-7077150D02*
X8568206Y-7077150D01*
X8568206Y-7077150D02*
X8587253Y-7086674D01*
X8587253Y-7086674D02*
X8596777Y-7096198D01*
X8596777Y-7096198D02*
X8606301Y-7115246D01*
X8606301Y-7115246D02*
X8606301Y-7172388D01*
X8606301Y-7172388D02*
X8596777Y-7191436D01*
X8596777Y-7191436D02*
X8587253Y-7200960D01*
X8587253Y-7200960D02*
X8568206Y-7210484D01*
X8568206Y-7210484D02*
X8539634Y-7210484D01*
X8720587Y-7210484D02*
X8701539Y-7200960D01*
X8701539Y-7200960D02*
X8692015Y-7181912D01*
X8692015Y-7181912D02*
X8692015Y-7010484D01*
X8872968Y-7200960D02*
X8853920Y-7210484D01*
X8853920Y-7210484D02*
X8815825Y-7210484D01*
X8815825Y-7210484D02*
X8796777Y-7200960D01*
X8796777Y-7200960D02*
X8787253Y-7181912D01*
X8787253Y-7181912D02*
X8787253Y-7105722D01*
X8787253Y-7105722D02*
X8796777Y-7086674D01*
X8796777Y-7086674D02*
X8815825Y-7077150D01*
X8815825Y-7077150D02*
X8853920Y-7077150D01*
X8853920Y-7077150D02*
X8872968Y-7086674D01*
X8872968Y-7086674D02*
X8882492Y-7105722D01*
X8882492Y-7105722D02*
X8882492Y-7124769D01*
X8882492Y-7124769D02*
X8787253Y-7143817D01*
X8958682Y-7200960D02*
X8977730Y-7210484D01*
X8977730Y-7210484D02*
X9015825Y-7210484D01*
X9015825Y-7210484D02*
X9034873Y-7200960D01*
X9034873Y-7200960D02*
X9044396Y-7181912D01*
X9044396Y-7181912D02*
X9044396Y-7172388D01*
X9044396Y-7172388D02*
X9034873Y-7153341D01*
X9034873Y-7153341D02*
X9015825Y-7143817D01*
X9015825Y-7143817D02*
X8987253Y-7143817D01*
X8987253Y-7143817D02*
X8968206Y-7134293D01*
X8968206Y-7134293D02*
X8958682Y-7115246D01*
X8958682Y-7115246D02*
X8958682Y-7105722D01*
X8958682Y-7105722D02*
X8968206Y-7086674D01*
X8968206Y-7086674D02*
X8987253Y-7077150D01*
X8987253Y-7077150D02*
X9015825Y-7077150D01*
X9015825Y-7077150D02*
X9034873Y-7086674D01*
X9111063Y-7286674D02*
X9120587Y-7277150D01*
X9120587Y-7277150D02*
X9139634Y-7248579D01*
X9139634Y-7248579D02*
X9149158Y-7229531D01*
X9149158Y-7229531D02*
X9158682Y-7200960D01*
X9158682Y-7200960D02*
X9168206Y-7153341D01*
X9168206Y-7153341D02*
X9168206Y-7115246D01*
X9168206Y-7115246D02*
X9158682Y-7067627D01*
X9158682Y-7067627D02*
X9149158Y-7039055D01*
X9149158Y-7039055D02*
X9139634Y-7020008D01*
X9139634Y-7020008D02*
X9120587Y-6991436D01*
X9120587Y-6991436D02*
X9111063Y-6981912D01*
D18*
X4261000Y-7345500D02*
X4336000Y-7420500D01*
X4336000Y-7345500D02*
X4261000Y-7420500D01*
X4325017Y-7409517D02*
X4325017Y-7356483D01*
X4271983Y-7356483D01*
X4271983Y-7409517D01*
X4325017Y-7409517D01*
D11*
X4634872Y-7274484D02*
X4653920Y-7274484D01*
X4653920Y-7274484D02*
X4672967Y-7284008D01*
X4672967Y-7284008D02*
X4682491Y-7293531D01*
X4682491Y-7293531D02*
X4692015Y-7312579D01*
X4692015Y-7312579D02*
X4701539Y-7350674D01*
X4701539Y-7350674D02*
X4701539Y-7398293D01*
X4701539Y-7398293D02*
X4692015Y-7436388D01*
X4692015Y-7436388D02*
X4682491Y-7455436D01*
X4682491Y-7455436D02*
X4672967Y-7464960D01*
X4672967Y-7464960D02*
X4653920Y-7474484D01*
X4653920Y-7474484D02*
X4634872Y-7474484D01*
X4634872Y-7474484D02*
X4615824Y-7464960D01*
X4615824Y-7464960D02*
X4606301Y-7455436D01*
X4606301Y-7455436D02*
X4596777Y-7436388D01*
X4596777Y-7436388D02*
X4587253Y-7398293D01*
X4587253Y-7398293D02*
X4587253Y-7350674D01*
X4587253Y-7350674D02*
X4596777Y-7312579D01*
X4596777Y-7312579D02*
X4606301Y-7293531D01*
X4606301Y-7293531D02*
X4615824Y-7284008D01*
X4615824Y-7284008D02*
X4634872Y-7274484D01*
X4787253Y-7455436D02*
X4796777Y-7464960D01*
X4796777Y-7464960D02*
X4787253Y-7474484D01*
X4787253Y-7474484D02*
X4777729Y-7464960D01*
X4777729Y-7464960D02*
X4787253Y-7455436D01*
X4787253Y-7455436D02*
X4787253Y-7474484D01*
X4863444Y-7274484D02*
X4996777Y-7274484D01*
X4996777Y-7274484D02*
X4911063Y-7474484D01*
X5168205Y-7274484D02*
X5072967Y-7274484D01*
X5072967Y-7274484D02*
X5063444Y-7369722D01*
X5063444Y-7369722D02*
X5072967Y-7360198D01*
X5072967Y-7360198D02*
X5092015Y-7350674D01*
X5092015Y-7350674D02*
X5139634Y-7350674D01*
X5139634Y-7350674D02*
X5158682Y-7360198D01*
X5158682Y-7360198D02*
X5168205Y-7369722D01*
X5168205Y-7369722D02*
X5177729Y-7388769D01*
X5177729Y-7388769D02*
X5177729Y-7436388D01*
X5177729Y-7436388D02*
X5168205Y-7455436D01*
X5168205Y-7455436D02*
X5158682Y-7464960D01*
X5158682Y-7464960D02*
X5139634Y-7474484D01*
X5139634Y-7474484D02*
X5092015Y-7474484D01*
X5092015Y-7474484D02*
X5072967Y-7464960D01*
X5072967Y-7464960D02*
X5063444Y-7455436D01*
X5301539Y-7274484D02*
X5320586Y-7274484D01*
X5320586Y-7274484D02*
X5339634Y-7284008D01*
X5339634Y-7284008D02*
X5349158Y-7293531D01*
X5349158Y-7293531D02*
X5358682Y-7312579D01*
X5358682Y-7312579D02*
X5368205Y-7350674D01*
X5368205Y-7350674D02*
X5368205Y-7398293D01*
X5368205Y-7398293D02*
X5358682Y-7436388D01*
X5358682Y-7436388D02*
X5349158Y-7455436D01*
X5349158Y-7455436D02*
X5339634Y-7464960D01*
X5339634Y-7464960D02*
X5320586Y-7474484D01*
X5320586Y-7474484D02*
X5301539Y-7474484D01*
X5301539Y-7474484D02*
X5282491Y-7464960D01*
X5282491Y-7464960D02*
X5272967Y-7455436D01*
X5272967Y-7455436D02*
X5263444Y-7436388D01*
X5263444Y-7436388D02*
X5253920Y-7398293D01*
X5253920Y-7398293D02*
X5253920Y-7350674D01*
X5253920Y-7350674D02*
X5263444Y-7312579D01*
X5263444Y-7312579D02*
X5272967Y-7293531D01*
X5272967Y-7293531D02*
X5282491Y-7284008D01*
X5282491Y-7284008D02*
X5301539Y-7274484D01*
X5453920Y-7474484D02*
X5453920Y-7341150D01*
X5453920Y-7360198D02*
X5463444Y-7350674D01*
X5463444Y-7350674D02*
X5482491Y-7341150D01*
X5482491Y-7341150D02*
X5511063Y-7341150D01*
X5511063Y-7341150D02*
X5530110Y-7350674D01*
X5530110Y-7350674D02*
X5539634Y-7369722D01*
X5539634Y-7369722D02*
X5539634Y-7474484D01*
X5539634Y-7369722D02*
X5549158Y-7350674D01*
X5549158Y-7350674D02*
X5568205Y-7341150D01*
X5568205Y-7341150D02*
X5596777Y-7341150D01*
X5596777Y-7341150D02*
X5615824Y-7350674D01*
X5615824Y-7350674D02*
X5625348Y-7369722D01*
X5625348Y-7369722D02*
X5625348Y-7474484D01*
X5720586Y-7474484D02*
X5720586Y-7341150D01*
X5720586Y-7360198D02*
X5730110Y-7350674D01*
X5730110Y-7350674D02*
X5749158Y-7341150D01*
X5749158Y-7341150D02*
X5777729Y-7341150D01*
X5777729Y-7341150D02*
X5796777Y-7350674D01*
X5796777Y-7350674D02*
X5806301Y-7369722D01*
X5806301Y-7369722D02*
X5806301Y-7474484D01*
X5806301Y-7369722D02*
X5815824Y-7350674D01*
X5815824Y-7350674D02*
X5834872Y-7341150D01*
X5834872Y-7341150D02*
X5863443Y-7341150D01*
X5863443Y-7341150D02*
X5882491Y-7350674D01*
X5882491Y-7350674D02*
X5892015Y-7369722D01*
X5892015Y-7369722D02*
X5892015Y-7474484D01*
X6282491Y-7264960D02*
X6111063Y-7522103D01*
X6539634Y-7274484D02*
X6558682Y-7274484D01*
X6558682Y-7274484D02*
X6577729Y-7284008D01*
X6577729Y-7284008D02*
X6587253Y-7293531D01*
X6587253Y-7293531D02*
X6596777Y-7312579D01*
X6596777Y-7312579D02*
X6606301Y-7350674D01*
X6606301Y-7350674D02*
X6606301Y-7398293D01*
X6606301Y-7398293D02*
X6596777Y-7436388D01*
X6596777Y-7436388D02*
X6587253Y-7455436D01*
X6587253Y-7455436D02*
X6577729Y-7464960D01*
X6577729Y-7464960D02*
X6558682Y-7474484D01*
X6558682Y-7474484D02*
X6539634Y-7474484D01*
X6539634Y-7474484D02*
X6520586Y-7464960D01*
X6520586Y-7464960D02*
X6511063Y-7455436D01*
X6511063Y-7455436D02*
X6501539Y-7436388D01*
X6501539Y-7436388D02*
X6492015Y-7398293D01*
X6492015Y-7398293D02*
X6492015Y-7350674D01*
X6492015Y-7350674D02*
X6501539Y-7312579D01*
X6501539Y-7312579D02*
X6511063Y-7293531D01*
X6511063Y-7293531D02*
X6520586Y-7284008D01*
X6520586Y-7284008D02*
X6539634Y-7274484D01*
X6692015Y-7455436D02*
X6701539Y-7464960D01*
X6701539Y-7464960D02*
X6692015Y-7474484D01*
X6692015Y-7474484D02*
X6682491Y-7464960D01*
X6682491Y-7464960D02*
X6692015Y-7455436D01*
X6692015Y-7455436D02*
X6692015Y-7474484D01*
X6825348Y-7274484D02*
X6844396Y-7274484D01*
X6844396Y-7274484D02*
X6863444Y-7284008D01*
X6863444Y-7284008D02*
X6872967Y-7293531D01*
X6872967Y-7293531D02*
X6882491Y-7312579D01*
X6882491Y-7312579D02*
X6892015Y-7350674D01*
X6892015Y-7350674D02*
X6892015Y-7398293D01*
X6892015Y-7398293D02*
X6882491Y-7436388D01*
X6882491Y-7436388D02*
X6872967Y-7455436D01*
X6872967Y-7455436D02*
X6863444Y-7464960D01*
X6863444Y-7464960D02*
X6844396Y-7474484D01*
X6844396Y-7474484D02*
X6825348Y-7474484D01*
X6825348Y-7474484D02*
X6806301Y-7464960D01*
X6806301Y-7464960D02*
X6796777Y-7455436D01*
X6796777Y-7455436D02*
X6787253Y-7436388D01*
X6787253Y-7436388D02*
X6777729Y-7398293D01*
X6777729Y-7398293D02*
X6777729Y-7350674D01*
X6777729Y-7350674D02*
X6787253Y-7312579D01*
X6787253Y-7312579D02*
X6796777Y-7293531D01*
X6796777Y-7293531D02*
X6806301Y-7284008D01*
X6806301Y-7284008D02*
X6825348Y-7274484D01*
X6968206Y-7293531D02*
X6977729Y-7284008D01*
X6977729Y-7284008D02*
X6996777Y-7274484D01*
X6996777Y-7274484D02*
X7044396Y-7274484D01*
X7044396Y-7274484D02*
X7063444Y-7284008D01*
X7063444Y-7284008D02*
X7072967Y-7293531D01*
X7072967Y-7293531D02*
X7082491Y-7312579D01*
X7082491Y-7312579D02*
X7082491Y-7331627D01*
X7082491Y-7331627D02*
X7072967Y-7360198D01*
X7072967Y-7360198D02*
X6958682Y-7474484D01*
X6958682Y-7474484D02*
X7082491Y-7474484D01*
X7177729Y-7474484D02*
X7215825Y-7474484D01*
X7215825Y-7474484D02*
X7234872Y-7464960D01*
X7234872Y-7464960D02*
X7244396Y-7455436D01*
X7244396Y-7455436D02*
X7263444Y-7426865D01*
X7263444Y-7426865D02*
X7272967Y-7388769D01*
X7272967Y-7388769D02*
X7272967Y-7312579D01*
X7272967Y-7312579D02*
X7263444Y-7293531D01*
X7263444Y-7293531D02*
X7253920Y-7284008D01*
X7253920Y-7284008D02*
X7234872Y-7274484D01*
X7234872Y-7274484D02*
X7196777Y-7274484D01*
X7196777Y-7274484D02*
X7177729Y-7284008D01*
X7177729Y-7284008D02*
X7168206Y-7293531D01*
X7168206Y-7293531D02*
X7158682Y-7312579D01*
X7158682Y-7312579D02*
X7158682Y-7360198D01*
X7158682Y-7360198D02*
X7168206Y-7379246D01*
X7168206Y-7379246D02*
X7177729Y-7388769D01*
X7177729Y-7388769D02*
X7196777Y-7398293D01*
X7196777Y-7398293D02*
X7234872Y-7398293D01*
X7234872Y-7398293D02*
X7253920Y-7388769D01*
X7253920Y-7388769D02*
X7263444Y-7379246D01*
X7263444Y-7379246D02*
X7272967Y-7360198D01*
X7453920Y-7274484D02*
X7358682Y-7274484D01*
X7358682Y-7274484D02*
X7349158Y-7369722D01*
X7349158Y-7369722D02*
X7358682Y-7360198D01*
X7358682Y-7360198D02*
X7377729Y-7350674D01*
X7377729Y-7350674D02*
X7425348Y-7350674D01*
X7425348Y-7350674D02*
X7444396Y-7360198D01*
X7444396Y-7360198D02*
X7453920Y-7369722D01*
X7453920Y-7369722D02*
X7463444Y-7388769D01*
X7463444Y-7388769D02*
X7463444Y-7436388D01*
X7463444Y-7436388D02*
X7453920Y-7455436D01*
X7453920Y-7455436D02*
X7444396Y-7464960D01*
X7444396Y-7464960D02*
X7425348Y-7474484D01*
X7425348Y-7474484D02*
X7377729Y-7474484D01*
X7377729Y-7474484D02*
X7358682Y-7464960D01*
X7358682Y-7464960D02*
X7349158Y-7455436D01*
X7539634Y-7274484D02*
X7539634Y-7312579D01*
X7615825Y-7274484D02*
X7615825Y-7312579D01*
X7911063Y-7550674D02*
X7901539Y-7541150D01*
X7901539Y-7541150D02*
X7882491Y-7512579D01*
X7882491Y-7512579D02*
X7872968Y-7493531D01*
X7872968Y-7493531D02*
X7863444Y-7464960D01*
X7863444Y-7464960D02*
X7853920Y-7417341D01*
X7853920Y-7417341D02*
X7853920Y-7379246D01*
X7853920Y-7379246D02*
X7863444Y-7331627D01*
X7863444Y-7331627D02*
X7872968Y-7303055D01*
X7872968Y-7303055D02*
X7882491Y-7284008D01*
X7882491Y-7284008D02*
X7901539Y-7255436D01*
X7901539Y-7255436D02*
X7911063Y-7245912D01*
X8015825Y-7360198D02*
X7996777Y-7350674D01*
X7996777Y-7350674D02*
X7987253Y-7341150D01*
X7987253Y-7341150D02*
X7977729Y-7322103D01*
X7977729Y-7322103D02*
X7977729Y-7312579D01*
X7977729Y-7312579D02*
X7987253Y-7293531D01*
X7987253Y-7293531D02*
X7996777Y-7284008D01*
X7996777Y-7284008D02*
X8015825Y-7274484D01*
X8015825Y-7274484D02*
X8053920Y-7274484D01*
X8053920Y-7274484D02*
X8072968Y-7284008D01*
X8072968Y-7284008D02*
X8082491Y-7293531D01*
X8082491Y-7293531D02*
X8092015Y-7312579D01*
X8092015Y-7312579D02*
X8092015Y-7322103D01*
X8092015Y-7322103D02*
X8082491Y-7341150D01*
X8082491Y-7341150D02*
X8072968Y-7350674D01*
X8072968Y-7350674D02*
X8053920Y-7360198D01*
X8053920Y-7360198D02*
X8015825Y-7360198D01*
X8015825Y-7360198D02*
X7996777Y-7369722D01*
X7996777Y-7369722D02*
X7987253Y-7379246D01*
X7987253Y-7379246D02*
X7977729Y-7398293D01*
X7977729Y-7398293D02*
X7977729Y-7436388D01*
X7977729Y-7436388D02*
X7987253Y-7455436D01*
X7987253Y-7455436D02*
X7996777Y-7464960D01*
X7996777Y-7464960D02*
X8015825Y-7474484D01*
X8015825Y-7474484D02*
X8053920Y-7474484D01*
X8053920Y-7474484D02*
X8072968Y-7464960D01*
X8072968Y-7464960D02*
X8082491Y-7455436D01*
X8082491Y-7455436D02*
X8092015Y-7436388D01*
X8092015Y-7436388D02*
X8092015Y-7398293D01*
X8092015Y-7398293D02*
X8082491Y-7379246D01*
X8082491Y-7379246D02*
X8072968Y-7369722D01*
X8072968Y-7369722D02*
X8053920Y-7360198D01*
X8330110Y-7474484D02*
X8330110Y-7274484D01*
X8415825Y-7474484D02*
X8415825Y-7369722D01*
X8415825Y-7369722D02*
X8406301Y-7350674D01*
X8406301Y-7350674D02*
X8387253Y-7341150D01*
X8387253Y-7341150D02*
X8358682Y-7341150D01*
X8358682Y-7341150D02*
X8339634Y-7350674D01*
X8339634Y-7350674D02*
X8330110Y-7360198D01*
X8539634Y-7474484D02*
X8520587Y-7464960D01*
X8520587Y-7464960D02*
X8511063Y-7455436D01*
X8511063Y-7455436D02*
X8501539Y-7436388D01*
X8501539Y-7436388D02*
X8501539Y-7379246D01*
X8501539Y-7379246D02*
X8511063Y-7360198D01*
X8511063Y-7360198D02*
X8520587Y-7350674D01*
X8520587Y-7350674D02*
X8539634Y-7341150D01*
X8539634Y-7341150D02*
X8568206Y-7341150D01*
X8568206Y-7341150D02*
X8587253Y-7350674D01*
X8587253Y-7350674D02*
X8596777Y-7360198D01*
X8596777Y-7360198D02*
X8606301Y-7379246D01*
X8606301Y-7379246D02*
X8606301Y-7436388D01*
X8606301Y-7436388D02*
X8596777Y-7455436D01*
X8596777Y-7455436D02*
X8587253Y-7464960D01*
X8587253Y-7464960D02*
X8568206Y-7474484D01*
X8568206Y-7474484D02*
X8539634Y-7474484D01*
X8720587Y-7474484D02*
X8701539Y-7464960D01*
X8701539Y-7464960D02*
X8692015Y-7445912D01*
X8692015Y-7445912D02*
X8692015Y-7274484D01*
X8872968Y-7464960D02*
X8853920Y-7474484D01*
X8853920Y-7474484D02*
X8815825Y-7474484D01*
X8815825Y-7474484D02*
X8796777Y-7464960D01*
X8796777Y-7464960D02*
X8787253Y-7445912D01*
X8787253Y-7445912D02*
X8787253Y-7369722D01*
X8787253Y-7369722D02*
X8796777Y-7350674D01*
X8796777Y-7350674D02*
X8815825Y-7341150D01*
X8815825Y-7341150D02*
X8853920Y-7341150D01*
X8853920Y-7341150D02*
X8872968Y-7350674D01*
X8872968Y-7350674D02*
X8882492Y-7369722D01*
X8882492Y-7369722D02*
X8882492Y-7388769D01*
X8882492Y-7388769D02*
X8787253Y-7407817D01*
X8958682Y-7464960D02*
X8977730Y-7474484D01*
X8977730Y-7474484D02*
X9015825Y-7474484D01*
X9015825Y-7474484D02*
X9034873Y-7464960D01*
X9034873Y-7464960D02*
X9044396Y-7445912D01*
X9044396Y-7445912D02*
X9044396Y-7436388D01*
X9044396Y-7436388D02*
X9034873Y-7417341D01*
X9034873Y-7417341D02*
X9015825Y-7407817D01*
X9015825Y-7407817D02*
X8987253Y-7407817D01*
X8987253Y-7407817D02*
X8968206Y-7398293D01*
X8968206Y-7398293D02*
X8958682Y-7379246D01*
X8958682Y-7379246D02*
X8958682Y-7369722D01*
X8958682Y-7369722D02*
X8968206Y-7350674D01*
X8968206Y-7350674D02*
X8987253Y-7341150D01*
X8987253Y-7341150D02*
X9015825Y-7341150D01*
X9015825Y-7341150D02*
X9034873Y-7350674D01*
X9111063Y-7550674D02*
X9120587Y-7541150D01*
X9120587Y-7541150D02*
X9139634Y-7512579D01*
X9139634Y-7512579D02*
X9149158Y-7493531D01*
X9149158Y-7493531D02*
X9158682Y-7464960D01*
X9158682Y-7464960D02*
X9168206Y-7417341D01*
X9168206Y-7417341D02*
X9168206Y-7379246D01*
X9168206Y-7379246D02*
X9158682Y-7331627D01*
X9158682Y-7331627D02*
X9149158Y-7303055D01*
X9149158Y-7303055D02*
X9139634Y-7284008D01*
X9139634Y-7284008D02*
X9120587Y-7255436D01*
X9120587Y-7255436D02*
X9111063Y-7245912D01*
D19*
X4226000Y-7592000D02*
X4336000Y-7702000D01*
X4336000Y-7592000D02*
X4226000Y-7702000D01*
X4281000Y-7702000D02*
X4336000Y-7647000D01*
X4281000Y-7592000D01*
X4226000Y-7647000D01*
X4281000Y-7702000D01*
D11*
X4701539Y-7738484D02*
X4587253Y-7738484D01*
X4644396Y-7738484D02*
X4644396Y-7538484D01*
X4644396Y-7538484D02*
X4625348Y-7567055D01*
X4625348Y-7567055D02*
X4606301Y-7586103D01*
X4606301Y-7586103D02*
X4587253Y-7595627D01*
X4787253Y-7719436D02*
X4796777Y-7728960D01*
X4796777Y-7728960D02*
X4787253Y-7738484D01*
X4787253Y-7738484D02*
X4777729Y-7728960D01*
X4777729Y-7728960D02*
X4787253Y-7719436D01*
X4787253Y-7719436D02*
X4787253Y-7738484D01*
X4987253Y-7738484D02*
X4872967Y-7738484D01*
X4930110Y-7738484D02*
X4930110Y-7538484D01*
X4930110Y-7538484D02*
X4911063Y-7567055D01*
X4911063Y-7567055D02*
X4892015Y-7586103D01*
X4892015Y-7586103D02*
X4872967Y-7595627D01*
X5111063Y-7538484D02*
X5130110Y-7538484D01*
X5130110Y-7538484D02*
X5149158Y-7548008D01*
X5149158Y-7548008D02*
X5158682Y-7557531D01*
X5158682Y-7557531D02*
X5168205Y-7576579D01*
X5168205Y-7576579D02*
X5177729Y-7614674D01*
X5177729Y-7614674D02*
X5177729Y-7662293D01*
X5177729Y-7662293D02*
X5168205Y-7700388D01*
X5168205Y-7700388D02*
X5158682Y-7719436D01*
X5158682Y-7719436D02*
X5149158Y-7728960D01*
X5149158Y-7728960D02*
X5130110Y-7738484D01*
X5130110Y-7738484D02*
X5111063Y-7738484D01*
X5111063Y-7738484D02*
X5092015Y-7728960D01*
X5092015Y-7728960D02*
X5082491Y-7719436D01*
X5082491Y-7719436D02*
X5072967Y-7700388D01*
X5072967Y-7700388D02*
X5063444Y-7662293D01*
X5063444Y-7662293D02*
X5063444Y-7614674D01*
X5063444Y-7614674D02*
X5072967Y-7576579D01*
X5072967Y-7576579D02*
X5082491Y-7557531D01*
X5082491Y-7557531D02*
X5092015Y-7548008D01*
X5092015Y-7548008D02*
X5111063Y-7538484D01*
X5301539Y-7538484D02*
X5320586Y-7538484D01*
X5320586Y-7538484D02*
X5339634Y-7548008D01*
X5339634Y-7548008D02*
X5349158Y-7557531D01*
X5349158Y-7557531D02*
X5358682Y-7576579D01*
X5358682Y-7576579D02*
X5368205Y-7614674D01*
X5368205Y-7614674D02*
X5368205Y-7662293D01*
X5368205Y-7662293D02*
X5358682Y-7700388D01*
X5358682Y-7700388D02*
X5349158Y-7719436D01*
X5349158Y-7719436D02*
X5339634Y-7728960D01*
X5339634Y-7728960D02*
X5320586Y-7738484D01*
X5320586Y-7738484D02*
X5301539Y-7738484D01*
X5301539Y-7738484D02*
X5282491Y-7728960D01*
X5282491Y-7728960D02*
X5272967Y-7719436D01*
X5272967Y-7719436D02*
X5263444Y-7700388D01*
X5263444Y-7700388D02*
X5253920Y-7662293D01*
X5253920Y-7662293D02*
X5253920Y-7614674D01*
X5253920Y-7614674D02*
X5263444Y-7576579D01*
X5263444Y-7576579D02*
X5272967Y-7557531D01*
X5272967Y-7557531D02*
X5282491Y-7548008D01*
X5282491Y-7548008D02*
X5301539Y-7538484D01*
X5453920Y-7738484D02*
X5453920Y-7605150D01*
X5453920Y-7624198D02*
X5463444Y-7614674D01*
X5463444Y-7614674D02*
X5482491Y-7605150D01*
X5482491Y-7605150D02*
X5511063Y-7605150D01*
X5511063Y-7605150D02*
X5530110Y-7614674D01*
X5530110Y-7614674D02*
X5539634Y-7633722D01*
X5539634Y-7633722D02*
X5539634Y-7738484D01*
X5539634Y-7633722D02*
X5549158Y-7614674D01*
X5549158Y-7614674D02*
X5568205Y-7605150D01*
X5568205Y-7605150D02*
X5596777Y-7605150D01*
X5596777Y-7605150D02*
X5615824Y-7614674D01*
X5615824Y-7614674D02*
X5625348Y-7633722D01*
X5625348Y-7633722D02*
X5625348Y-7738484D01*
X5720586Y-7738484D02*
X5720586Y-7605150D01*
X5720586Y-7624198D02*
X5730110Y-7614674D01*
X5730110Y-7614674D02*
X5749158Y-7605150D01*
X5749158Y-7605150D02*
X5777729Y-7605150D01*
X5777729Y-7605150D02*
X5796777Y-7614674D01*
X5796777Y-7614674D02*
X5806301Y-7633722D01*
X5806301Y-7633722D02*
X5806301Y-7738484D01*
X5806301Y-7633722D02*
X5815824Y-7614674D01*
X5815824Y-7614674D02*
X5834872Y-7605150D01*
X5834872Y-7605150D02*
X5863443Y-7605150D01*
X5863443Y-7605150D02*
X5882491Y-7614674D01*
X5882491Y-7614674D02*
X5892015Y-7633722D01*
X5892015Y-7633722D02*
X5892015Y-7738484D01*
X6282491Y-7528960D02*
X6111063Y-7786103D01*
X6539634Y-7538484D02*
X6558682Y-7538484D01*
X6558682Y-7538484D02*
X6577729Y-7548008D01*
X6577729Y-7548008D02*
X6587253Y-7557531D01*
X6587253Y-7557531D02*
X6596777Y-7576579D01*
X6596777Y-7576579D02*
X6606301Y-7614674D01*
X6606301Y-7614674D02*
X6606301Y-7662293D01*
X6606301Y-7662293D02*
X6596777Y-7700388D01*
X6596777Y-7700388D02*
X6587253Y-7719436D01*
X6587253Y-7719436D02*
X6577729Y-7728960D01*
X6577729Y-7728960D02*
X6558682Y-7738484D01*
X6558682Y-7738484D02*
X6539634Y-7738484D01*
X6539634Y-7738484D02*
X6520586Y-7728960D01*
X6520586Y-7728960D02*
X6511063Y-7719436D01*
X6511063Y-7719436D02*
X6501539Y-7700388D01*
X6501539Y-7700388D02*
X6492015Y-7662293D01*
X6492015Y-7662293D02*
X6492015Y-7614674D01*
X6492015Y-7614674D02*
X6501539Y-7576579D01*
X6501539Y-7576579D02*
X6511063Y-7557531D01*
X6511063Y-7557531D02*
X6520586Y-7548008D01*
X6520586Y-7548008D02*
X6539634Y-7538484D01*
X6692015Y-7719436D02*
X6701539Y-7728960D01*
X6701539Y-7728960D02*
X6692015Y-7738484D01*
X6692015Y-7738484D02*
X6682491Y-7728960D01*
X6682491Y-7728960D02*
X6692015Y-7719436D01*
X6692015Y-7719436D02*
X6692015Y-7738484D01*
X6825348Y-7538484D02*
X6844396Y-7538484D01*
X6844396Y-7538484D02*
X6863444Y-7548008D01*
X6863444Y-7548008D02*
X6872967Y-7557531D01*
X6872967Y-7557531D02*
X6882491Y-7576579D01*
X6882491Y-7576579D02*
X6892015Y-7614674D01*
X6892015Y-7614674D02*
X6892015Y-7662293D01*
X6892015Y-7662293D02*
X6882491Y-7700388D01*
X6882491Y-7700388D02*
X6872967Y-7719436D01*
X6872967Y-7719436D02*
X6863444Y-7728960D01*
X6863444Y-7728960D02*
X6844396Y-7738484D01*
X6844396Y-7738484D02*
X6825348Y-7738484D01*
X6825348Y-7738484D02*
X6806301Y-7728960D01*
X6806301Y-7728960D02*
X6796777Y-7719436D01*
X6796777Y-7719436D02*
X6787253Y-7700388D01*
X6787253Y-7700388D02*
X6777729Y-7662293D01*
X6777729Y-7662293D02*
X6777729Y-7614674D01*
X6777729Y-7614674D02*
X6787253Y-7576579D01*
X6787253Y-7576579D02*
X6796777Y-7557531D01*
X6796777Y-7557531D02*
X6806301Y-7548008D01*
X6806301Y-7548008D02*
X6825348Y-7538484D01*
X7063444Y-7605150D02*
X7063444Y-7738484D01*
X7015825Y-7528960D02*
X6968206Y-7671817D01*
X6968206Y-7671817D02*
X7092015Y-7671817D01*
X7149158Y-7538484D02*
X7272967Y-7538484D01*
X7272967Y-7538484D02*
X7206301Y-7614674D01*
X7206301Y-7614674D02*
X7234872Y-7614674D01*
X7234872Y-7614674D02*
X7253920Y-7624198D01*
X7253920Y-7624198D02*
X7263444Y-7633722D01*
X7263444Y-7633722D02*
X7272967Y-7652769D01*
X7272967Y-7652769D02*
X7272967Y-7700388D01*
X7272967Y-7700388D02*
X7263444Y-7719436D01*
X7263444Y-7719436D02*
X7253920Y-7728960D01*
X7253920Y-7728960D02*
X7234872Y-7738484D01*
X7234872Y-7738484D02*
X7177729Y-7738484D01*
X7177729Y-7738484D02*
X7158682Y-7728960D01*
X7158682Y-7728960D02*
X7149158Y-7719436D01*
X7339634Y-7538484D02*
X7463444Y-7538484D01*
X7463444Y-7538484D02*
X7396777Y-7614674D01*
X7396777Y-7614674D02*
X7425348Y-7614674D01*
X7425348Y-7614674D02*
X7444396Y-7624198D01*
X7444396Y-7624198D02*
X7453920Y-7633722D01*
X7453920Y-7633722D02*
X7463444Y-7652769D01*
X7463444Y-7652769D02*
X7463444Y-7700388D01*
X7463444Y-7700388D02*
X7453920Y-7719436D01*
X7453920Y-7719436D02*
X7444396Y-7728960D01*
X7444396Y-7728960D02*
X7425348Y-7738484D01*
X7425348Y-7738484D02*
X7368206Y-7738484D01*
X7368206Y-7738484D02*
X7349158Y-7728960D01*
X7349158Y-7728960D02*
X7339634Y-7719436D01*
X7539634Y-7538484D02*
X7539634Y-7576579D01*
X7615825Y-7538484D02*
X7615825Y-7576579D01*
X7911063Y-7814674D02*
X7901539Y-7805150D01*
X7901539Y-7805150D02*
X7882491Y-7776579D01*
X7882491Y-7776579D02*
X7872968Y-7757531D01*
X7872968Y-7757531D02*
X7863444Y-7728960D01*
X7863444Y-7728960D02*
X7853920Y-7681341D01*
X7853920Y-7681341D02*
X7853920Y-7643246D01*
X7853920Y-7643246D02*
X7863444Y-7595627D01*
X7863444Y-7595627D02*
X7872968Y-7567055D01*
X7872968Y-7567055D02*
X7882491Y-7548008D01*
X7882491Y-7548008D02*
X7901539Y-7519436D01*
X7901539Y-7519436D02*
X7911063Y-7509912D01*
X8072968Y-7605150D02*
X8072968Y-7738484D01*
X8025348Y-7528960D02*
X7977729Y-7671817D01*
X7977729Y-7671817D02*
X8101539Y-7671817D01*
X8330110Y-7738484D02*
X8330110Y-7538484D01*
X8415825Y-7738484D02*
X8415825Y-7633722D01*
X8415825Y-7633722D02*
X8406301Y-7614674D01*
X8406301Y-7614674D02*
X8387253Y-7605150D01*
X8387253Y-7605150D02*
X8358682Y-7605150D01*
X8358682Y-7605150D02*
X8339634Y-7614674D01*
X8339634Y-7614674D02*
X8330110Y-7624198D01*
X8539634Y-7738484D02*
X8520587Y-7728960D01*
X8520587Y-7728960D02*
X8511063Y-7719436D01*
X8511063Y-7719436D02*
X8501539Y-7700388D01*
X8501539Y-7700388D02*
X8501539Y-7643246D01*
X8501539Y-7643246D02*
X8511063Y-7624198D01*
X8511063Y-7624198D02*
X8520587Y-7614674D01*
X8520587Y-7614674D02*
X8539634Y-7605150D01*
X8539634Y-7605150D02*
X8568206Y-7605150D01*
X8568206Y-7605150D02*
X8587253Y-7614674D01*
X8587253Y-7614674D02*
X8596777Y-7624198D01*
X8596777Y-7624198D02*
X8606301Y-7643246D01*
X8606301Y-7643246D02*
X8606301Y-7700388D01*
X8606301Y-7700388D02*
X8596777Y-7719436D01*
X8596777Y-7719436D02*
X8587253Y-7728960D01*
X8587253Y-7728960D02*
X8568206Y-7738484D01*
X8568206Y-7738484D02*
X8539634Y-7738484D01*
X8720587Y-7738484D02*
X8701539Y-7728960D01*
X8701539Y-7728960D02*
X8692015Y-7709912D01*
X8692015Y-7709912D02*
X8692015Y-7538484D01*
X8872968Y-7728960D02*
X8853920Y-7738484D01*
X8853920Y-7738484D02*
X8815825Y-7738484D01*
X8815825Y-7738484D02*
X8796777Y-7728960D01*
X8796777Y-7728960D02*
X8787253Y-7709912D01*
X8787253Y-7709912D02*
X8787253Y-7633722D01*
X8787253Y-7633722D02*
X8796777Y-7614674D01*
X8796777Y-7614674D02*
X8815825Y-7605150D01*
X8815825Y-7605150D02*
X8853920Y-7605150D01*
X8853920Y-7605150D02*
X8872968Y-7614674D01*
X8872968Y-7614674D02*
X8882492Y-7633722D01*
X8882492Y-7633722D02*
X8882492Y-7652769D01*
X8882492Y-7652769D02*
X8787253Y-7671817D01*
X8958682Y-7728960D02*
X8977730Y-7738484D01*
X8977730Y-7738484D02*
X9015825Y-7738484D01*
X9015825Y-7738484D02*
X9034873Y-7728960D01*
X9034873Y-7728960D02*
X9044396Y-7709912D01*
X9044396Y-7709912D02*
X9044396Y-7700388D01*
X9044396Y-7700388D02*
X9034873Y-7681341D01*
X9034873Y-7681341D02*
X9015825Y-7671817D01*
X9015825Y-7671817D02*
X8987253Y-7671817D01*
X8987253Y-7671817D02*
X8968206Y-7662293D01*
X8968206Y-7662293D02*
X8958682Y-7643246D01*
X8958682Y-7643246D02*
X8958682Y-7633722D01*
X8958682Y-7633722D02*
X8968206Y-7614674D01*
X8968206Y-7614674D02*
X8987253Y-7605150D01*
X8987253Y-7605150D02*
X9015825Y-7605150D01*
X9015825Y-7605150D02*
X9034873Y-7614674D01*
X9111063Y-7814674D02*
X9120587Y-7805150D01*
X9120587Y-7805150D02*
X9139634Y-7776579D01*
X9139634Y-7776579D02*
X9149158Y-7757531D01*
X9149158Y-7757531D02*
X9158682Y-7728960D01*
X9158682Y-7728960D02*
X9168206Y-7681341D01*
X9168206Y-7681341D02*
X9168206Y-7643246D01*
X9168206Y-7643246D02*
X9158682Y-7595627D01*
X9158682Y-7595627D02*
X9149158Y-7567055D01*
X9149158Y-7567055D02*
X9139634Y-7548008D01*
X9139634Y-7548008D02*
X9120587Y-7519436D01*
X9120587Y-7519436D02*
X9111063Y-7509912D01*
M02*
