%TF.GenerationSoftware,KiCad,Pcbnew,7.0.6*%
%TF.CreationDate,2024-03-03T22:58:42+08:00*%
%TF.ProjectId,Digital Clock,44696769-7461-46c2-9043-6c6f636b2e6b,_____*%
%TF.SameCoordinates,Original*%
%TF.FileFunction,Paste,Bot*%
%TF.FilePolarity,Positive*%
%FSLAX46Y46*%
G04 Gerber Fmt 4.6, Leading zero omitted, Abs format (unit mm)*
G04 Created by KiCad (PCBNEW 7.0.6) date 2024-03-03 22:58:42*
%MOMM*%
%LPD*%
G01*
G04 APERTURE LIST*
%ADD10R,0.600000X1.200000*%
%ADD11R,0.650000X1.300000*%
%ADD12R,0.400000X0.650000*%
%ADD13R,2.200000X2.450000*%
%TA.AperFunction,Profile*%
%ADD14C,0.100000*%
%TD*%
G04 APERTURE END LIST*
D10*
%TO.C,SW2*%
X55206000Y-45720000D03*
X51756000Y-45720000D03*
D11*
X51116000Y-47560000D03*
D12*
X51636000Y-47880000D03*
X55316000Y-47890000D03*
D11*
X55836000Y-47570000D03*
%TD*%
D10*
%TO.C,SW5*%
X73790000Y-45540000D03*
X77240000Y-45540000D03*
D11*
X73150000Y-47380000D03*
D12*
X73670000Y-47700000D03*
X77350000Y-47710000D03*
D11*
X77870000Y-47390000D03*
%TD*%
D13*
%TO.C,D1*%
X72110000Y-25700000D03*
X64490000Y-25695000D03*
X61950000Y-25700000D03*
X59410000Y-40175000D03*
X69570000Y-25705000D03*
X59410000Y-25690000D03*
X64490000Y-40180000D03*
X69570000Y-40190000D03*
X72110000Y-40185000D03*
X67030000Y-25695000D03*
X61950000Y-40185000D03*
X67030000Y-40180000D03*
%TD*%
D10*
%TO.C,SW1*%
X80450000Y-45540000D03*
X83900000Y-45540000D03*
D11*
X79810000Y-47380000D03*
D12*
X80330000Y-47700000D03*
X84010000Y-47710000D03*
D11*
X84530000Y-47390000D03*
%TD*%
D10*
%TO.C,SW3*%
X64900000Y-45540000D03*
X68350000Y-45540000D03*
D11*
X64260000Y-47380000D03*
D12*
X64780000Y-47700000D03*
X68460000Y-47710000D03*
D11*
X68980000Y-47390000D03*
%TD*%
D14*
X43410000Y-19400000D02*
X88800000Y-19400000D01*
X88800000Y-48900000D01*
X43410000Y-48900000D01*
X43410000Y-19400000D01*
M02*
