%TF.GenerationSoftware,KiCad,Pcbnew,7.0.6*%
%TF.CreationDate,2024-03-03T22:58:42+08:00*%
%TF.ProjectId,Digital Clock,44696769-7461-46c2-9043-6c6f636b2e6b,_____*%
%TF.SameCoordinates,Original*%
%TF.FileFunction,Paste,Top*%
%TF.FilePolarity,Positive*%
%FSLAX46Y46*%
G04 Gerber Fmt 4.6, Leading zero omitted, Abs format (unit mm)*
G04 Created by KiCad (PCBNEW 7.0.6) date 2024-03-03 22:58:42*
%MOMM*%
%LPD*%
G01*
G04 APERTURE LIST*
G04 Aperture macros list*
%AMRoundRect*
0 Rectangle with rounded corners*
0 $1 Rounding radius*
0 $2 $3 $4 $5 $6 $7 $8 $9 X,Y pos of 4 corners*
0 Add a 4 corners polygon primitive as box body*
4,1,4,$2,$3,$4,$5,$6,$7,$8,$9,$2,$3,0*
0 Add four circle primitives for the rounded corners*
1,1,$1+$1,$2,$3*
1,1,$1+$1,$4,$5*
1,1,$1+$1,$6,$7*
1,1,$1+$1,$8,$9*
0 Add four rect primitives between the rounded corners*
20,1,$1+$1,$2,$3,$4,$5,0*
20,1,$1+$1,$4,$5,$6,$7,0*
20,1,$1+$1,$6,$7,$8,$9,0*
20,1,$1+$1,$8,$9,$2,$3,0*%
G04 Aperture macros list end*
%ADD10RoundRect,0.150000X0.512500X0.150000X-0.512500X0.150000X-0.512500X-0.150000X0.512500X-0.150000X0*%
%ADD11RoundRect,0.079500X-0.079500X-0.100500X0.079500X-0.100500X0.079500X0.100500X-0.079500X0.100500X0*%
%ADD12R,2.100000X5.080000*%
%ADD13RoundRect,0.079500X-0.100500X0.079500X-0.100500X-0.079500X0.100500X-0.079500X0.100500X0.079500X0*%
%ADD14RoundRect,0.079500X0.100500X-0.079500X0.100500X0.079500X-0.100500X0.079500X-0.100500X-0.079500X0*%
%ADD15RoundRect,0.225000X0.250000X-0.225000X0.250000X0.225000X-0.250000X0.225000X-0.250000X-0.225000X0*%
%ADD16RoundRect,0.150000X-0.150000X0.650000X-0.150000X-0.650000X0.150000X-0.650000X0.150000X0.650000X0*%
%ADD17R,1.390000X0.430000*%
%ADD18R,1.800000X1.800000*%
%ADD19RoundRect,0.137500X-0.662500X-0.137500X0.662500X-0.137500X0.662500X0.137500X-0.662500X0.137500X0*%
%ADD20RoundRect,0.079500X0.079500X0.100500X-0.079500X0.100500X-0.079500X-0.100500X0.079500X-0.100500X0*%
%ADD21RoundRect,0.150000X0.675000X0.150000X-0.675000X0.150000X-0.675000X-0.150000X0.675000X-0.150000X0*%
%ADD22RoundRect,0.150000X0.150000X-0.650000X0.150000X0.650000X-0.150000X0.650000X-0.150000X-0.650000X0*%
%TA.AperFunction,Profile*%
%ADD23C,0.100000*%
%TD*%
G04 APERTURE END LIST*
D10*
%TO.C,U2*%
X68422100Y-41336000D03*
X68422100Y-40386000D03*
X68422100Y-39436000D03*
X66147100Y-39436000D03*
X66147100Y-41336000D03*
%TD*%
D11*
%TO.C,R3*%
X71525000Y-21460000D03*
X72215000Y-21460000D03*
%TD*%
D12*
%TO.C,BZ1*%
X46750000Y-26430000D03*
X58750000Y-26430000D03*
%TD*%
D13*
%TO.C,C5*%
X50010000Y-43815000D03*
X50010000Y-44505000D03*
%TD*%
D14*
%TO.C,C4*%
X73100000Y-31705000D03*
X73100000Y-31015000D03*
%TD*%
D11*
%TO.C,CBP1*%
X67451800Y-38023800D03*
X66761800Y-38023800D03*
%TD*%
D15*
%TO.C,C2*%
X61620000Y-35800000D03*
X61620000Y-34250000D03*
%TD*%
D16*
%TO.C,U5*%
X57660000Y-36360000D03*
X56385000Y-36360000D03*
X55115000Y-36360000D03*
X53845000Y-36360000D03*
X52575000Y-36360000D03*
X51305000Y-36360000D03*
X50060000Y-36360000D03*
X48765000Y-36360000D03*
X48760000Y-42260000D03*
X50030000Y-42260000D03*
X51300000Y-42260000D03*
X52570000Y-42260000D03*
X53840000Y-42260000D03*
X55110000Y-42260000D03*
X56380000Y-42260000D03*
X57650000Y-42260000D03*
%TD*%
D13*
%TO.C,COUT1*%
X64262000Y-40320400D03*
X64262000Y-41010400D03*
%TD*%
D11*
%TO.C,R4*%
X72565000Y-24100000D03*
X73255000Y-24100000D03*
%TD*%
D17*
%TO.C,J1*%
X83677500Y-38060000D03*
X83677500Y-37410000D03*
X83677500Y-36760000D03*
X83677500Y-36110000D03*
X83677500Y-35460000D03*
D18*
X86337500Y-36790000D03*
%TD*%
D19*
%TO.C,U4*%
X63510000Y-27205000D03*
X63510000Y-28475000D03*
X63510000Y-29745000D03*
X63510000Y-31015000D03*
X63510000Y-32285000D03*
X63510000Y-33555000D03*
X63510000Y-34825000D03*
X63510000Y-36095000D03*
X68810000Y-36095000D03*
X68810000Y-34825000D03*
X68810000Y-33555000D03*
X68810000Y-32285000D03*
X68810000Y-31015000D03*
X68810000Y-29745000D03*
X68810000Y-28475000D03*
X68810000Y-27205000D03*
%TD*%
D11*
%TO.C,R5*%
X62585000Y-23760000D03*
X63275000Y-23760000D03*
%TD*%
D20*
%TO.C,C1*%
X72045000Y-38600000D03*
X71355000Y-38600000D03*
%TD*%
D14*
%TO.C,CIN1*%
X70205600Y-42585200D03*
X70205600Y-41895200D03*
%TD*%
D21*
%TO.C,U1*%
X79035000Y-38665000D03*
X79035000Y-37395000D03*
X79035000Y-36125000D03*
X79035000Y-34855000D03*
X73785000Y-34855000D03*
X73785000Y-36125000D03*
X73785000Y-37395000D03*
X73785000Y-38665000D03*
%TD*%
D22*
%TO.C,U3*%
X74700000Y-30860000D03*
X75970000Y-30860000D03*
X77240000Y-30860000D03*
X78510000Y-30860000D03*
X79780000Y-30860000D03*
X81050000Y-30860000D03*
X82320000Y-30860000D03*
X83590000Y-30860000D03*
X83595000Y-22610000D03*
X82325000Y-22610000D03*
X81055000Y-22610000D03*
X79785000Y-22610000D03*
X78515000Y-22610000D03*
X77245000Y-22610000D03*
X75975000Y-22610000D03*
X74705000Y-22610000D03*
%TD*%
D14*
%TO.C,C3*%
X60370000Y-35920000D03*
X60370000Y-35230000D03*
%TD*%
D13*
%TO.C,R2*%
X73210000Y-27535000D03*
X73210000Y-28225000D03*
%TD*%
D23*
X43410000Y-19400000D02*
X88800000Y-19400000D01*
X88800000Y-48900000D01*
X43410000Y-48900000D01*
X43410000Y-19400000D01*
M02*
