%TF.GenerationSoftware,KiCad,Pcbnew,7.0.6*%
%TF.CreationDate,2024-03-10T16:24:53+08:00*%
%TF.ProjectId,Digital Clock,44696769-7461-46c2-9043-6c6f636b2e6b,_____*%
%TF.SameCoordinates,Original*%
%TF.FileFunction,Copper,L1,Top*%
%TF.FilePolarity,Positive*%
%FSLAX46Y46*%
G04 Gerber Fmt 4.6, Leading zero omitted, Abs format (unit mm)*
G04 Created by KiCad (PCBNEW 7.0.6) date 2024-03-10 16:24:53*
%MOMM*%
%LPD*%
G01*
G04 APERTURE LIST*
G04 Aperture macros list*
%AMRoundRect*
0 Rectangle with rounded corners*
0 $1 Rounding radius*
0 $2 $3 $4 $5 $6 $7 $8 $9 X,Y pos of 4 corners*
0 Add a 4 corners polygon primitive as box body*
4,1,4,$2,$3,$4,$5,$6,$7,$8,$9,$2,$3,0*
0 Add four circle primitives for the rounded corners*
1,1,$1+$1,$2,$3*
1,1,$1+$1,$4,$5*
1,1,$1+$1,$6,$7*
1,1,$1+$1,$8,$9*
0 Add four rect primitives between the rounded corners*
20,1,$1+$1,$2,$3,$4,$5,0*
20,1,$1+$1,$4,$5,$6,$7,0*
20,1,$1+$1,$6,$7,$8,$9,0*
20,1,$1+$1,$8,$9,$2,$3,0*%
G04 Aperture macros list end*
%TA.AperFunction,SMDPad,CuDef*%
%ADD10RoundRect,0.100000X-0.130000X-0.100000X0.130000X-0.100000X0.130000X0.100000X-0.130000X0.100000X0*%
%TD*%
%TA.AperFunction,SMDPad,CuDef*%
%ADD11R,2.100000X5.080000*%
%TD*%
%TA.AperFunction,SMDPad,CuDef*%
%ADD12RoundRect,0.100000X-0.100000X0.130000X-0.100000X-0.130000X0.100000X-0.130000X0.100000X0.130000X0*%
%TD*%
%TA.AperFunction,SMDPad,CuDef*%
%ADD13RoundRect,0.100000X0.100000X-0.130000X0.100000X0.130000X-0.100000X0.130000X-0.100000X-0.130000X0*%
%TD*%
%TA.AperFunction,SMDPad,CuDef*%
%ADD14RoundRect,0.225000X0.250000X-0.225000X0.250000X0.225000X-0.250000X0.225000X-0.250000X-0.225000X0*%
%TD*%
%TA.AperFunction,SMDPad,CuDef*%
%ADD15RoundRect,0.150000X-0.150000X0.650000X-0.150000X-0.650000X0.150000X-0.650000X0.150000X0.650000X0*%
%TD*%
%TA.AperFunction,SMDPad,CuDef*%
%ADD16RoundRect,0.150000X0.512500X0.150000X-0.512500X0.150000X-0.512500X-0.150000X0.512500X-0.150000X0*%
%TD*%
%TA.AperFunction,SMDPad,CuDef*%
%ADD17R,1.390000X0.430000*%
%TD*%
%TA.AperFunction,ComponentPad*%
%ADD18C,0.650000*%
%TD*%
%TA.AperFunction,ComponentPad*%
%ADD19O,2.090000X0.930000*%
%TD*%
%TA.AperFunction,SMDPad,CuDef*%
%ADD20R,1.800000X1.800000*%
%TD*%
%TA.AperFunction,SMDPad,CuDef*%
%ADD21RoundRect,0.137500X-0.662500X-0.137500X0.662500X-0.137500X0.662500X0.137500X-0.662500X0.137500X0*%
%TD*%
%TA.AperFunction,SMDPad,CuDef*%
%ADD22RoundRect,0.100000X0.130000X0.100000X-0.130000X0.100000X-0.130000X-0.100000X0.130000X-0.100000X0*%
%TD*%
%TA.AperFunction,SMDPad,CuDef*%
%ADD23RoundRect,0.150000X0.675000X0.150000X-0.675000X0.150000X-0.675000X-0.150000X0.675000X-0.150000X0*%
%TD*%
%TA.AperFunction,SMDPad,CuDef*%
%ADD24RoundRect,0.150000X0.150000X-0.650000X0.150000X0.650000X-0.150000X0.650000X-0.150000X-0.650000X0*%
%TD*%
%TA.AperFunction,ComponentPad*%
%ADD25C,1.000000*%
%TD*%
%TA.AperFunction,ViaPad*%
%ADD26C,0.800000*%
%TD*%
%TA.AperFunction,ViaPad*%
%ADD27C,2.000000*%
%TD*%
%TA.AperFunction,ViaPad*%
%ADD28C,1.200000*%
%TD*%
%TA.AperFunction,ViaPad*%
%ADD29C,1.000000*%
%TD*%
%TA.AperFunction,ViaPad*%
%ADD30C,0.700000*%
%TD*%
%TA.AperFunction,ViaPad*%
%ADD31C,0.600000*%
%TD*%
%TA.AperFunction,Conductor*%
%ADD32C,0.500000*%
%TD*%
%TA.AperFunction,Conductor*%
%ADD33C,0.400000*%
%TD*%
%TA.AperFunction,Conductor*%
%ADD34C,0.300000*%
%TD*%
%TA.AperFunction,Conductor*%
%ADD35C,0.250000*%
%TD*%
%TA.AperFunction,Profile*%
%ADD36C,0.100000*%
%TD*%
G04 APERTURE END LIST*
D10*
%TO.P,R3,1*%
%TO.N,VCC*%
X71550000Y-21460000D03*
%TO.P,R3,2*%
%TO.N,/P3.7*%
X72190000Y-21460000D03*
%TD*%
D11*
%TO.P,BZ1,1,-*%
%TO.N,/P1.1*%
X46750000Y-26430000D03*
%TO.P,BZ1,2,+*%
%TO.N,GND*%
X58750000Y-26430000D03*
%TD*%
D12*
%TO.P,C5,1*%
%TO.N,VCC*%
X50010000Y-43840000D03*
%TO.P,C5,2*%
%TO.N,GND*%
X50010000Y-44480000D03*
%TD*%
D13*
%TO.P,C4,1*%
%TO.N,VCC*%
X73100000Y-31680000D03*
%TO.P,C4,2*%
%TO.N,GND*%
X73100000Y-31040000D03*
%TD*%
D10*
%TO.P,CBP1,1*%
%TO.N,Net-(U2-BP)*%
X66786800Y-38023800D03*
%TO.P,CBP1,2*%
%TO.N,GND*%
X67426800Y-38023800D03*
%TD*%
D14*
%TO.P,C2,1*%
%TO.N,GND*%
X61620000Y-35800000D03*
%TO.P,C2,2*%
%TO.N,VCC*%
X61620000Y-34250000D03*
%TD*%
D15*
%TO.P,U5,1,DIG1*%
%TO.N,/DIG1*%
X57660000Y-36360000D03*
%TO.P,U5,2,SCL*%
%TO.N,/P1.2*%
X56385000Y-36360000D03*
%TO.P,U5,3,SDA*%
%TO.N,/P1.3*%
X55115000Y-36360000D03*
%TO.P,U5,4,GND*%
%TO.N,GND*%
X53845000Y-36360000D03*
%TO.P,U5,5,DIG2*%
%TO.N,/DIG2*%
X52575000Y-36360000D03*
%TO.P,U5,6,DIG3*%
%TO.N,/DIG3*%
X51305000Y-36360000D03*
%TO.P,U5,7,DIG4*%
%TO.N,/DIG4*%
X50060000Y-36360000D03*
%TO.P,U5,8,A/KI1*%
%TO.N,/A*%
X48765000Y-36360000D03*
%TO.P,U5,9,B/KI2*%
%TO.N,/B*%
X48760000Y-42260000D03*
%TO.P,U5,10,VDD*%
%TO.N,VCC*%
X50030000Y-42260000D03*
%TO.P,U5,11,C/KI3*%
%TO.N,/C*%
X51300000Y-42260000D03*
%TO.P,U5,12,D/KI4*%
%TO.N,/D*%
X52570000Y-42260000D03*
%TO.P,U5,13,E/KI5*%
%TO.N,/E*%
X53840000Y-42260000D03*
%TO.P,U5,14,F/KI6*%
%TO.N,/F*%
X55110000Y-42260000D03*
%TO.P,U5,15,G/KI7*%
%TO.N,/G*%
X56380000Y-42260000D03*
%TO.P,U5,16,DP/KP*%
%TO.N,/DP*%
X57650000Y-42260000D03*
%TD*%
D12*
%TO.P,COUT1,1*%
%TO.N,GND*%
X64262000Y-40345400D03*
%TO.P,COUT1,2*%
%TO.N,VCC*%
X64262000Y-40985400D03*
%TD*%
D10*
%TO.P,R4,1*%
%TO.N,/P1.0*%
X72590000Y-24100000D03*
%TO.P,R4,2*%
%TO.N,VCC*%
X73230000Y-24100000D03*
%TD*%
D16*
%TO.P,U2,1,IN*%
%TO.N,Net-(J1-VBUS)*%
X68422100Y-41336000D03*
%TO.P,U2,2,GND*%
%TO.N,GND*%
X68422100Y-40386000D03*
%TO.P,U2,3,EN*%
%TO.N,Net-(J1-VBUS)*%
X68422100Y-39436000D03*
%TO.P,U2,4,BP*%
%TO.N,Net-(U2-BP)*%
X66147100Y-39436000D03*
%TO.P,U2,5,OUT*%
%TO.N,VCC*%
X66147100Y-41336000D03*
%TD*%
D17*
%TO.P,J1,1,VBUS*%
%TO.N,Net-(J1-VBUS)*%
X83677500Y-38060000D03*
%TO.P,J1,2,D-*%
%TO.N,/UD-*%
X83677500Y-37410000D03*
%TO.P,J1,3,D+*%
%TO.N,/UD+*%
X83677500Y-36760000D03*
%TO.P,J1,4,ID*%
%TO.N,GND*%
X83677500Y-36110000D03*
%TO.P,J1,5,GND*%
X83677500Y-35460000D03*
D18*
%TO.P,J1,6,Shield*%
X84237500Y-38760000D03*
X84237500Y-34760000D03*
D19*
%TO.P,J1,7*%
%TO.N,N/C*%
X86337500Y-39590000D03*
X86337500Y-33910000D03*
D20*
%TO.P,J1,8*%
X86337500Y-36790000D03*
%TD*%
D21*
%TO.P,U4,1,CMPO/T0/P1.2*%
%TO.N,/P1.2*%
X63510000Y-27205000D03*
%TO.P,U4,2,P1.3*%
%TO.N,/P1.3*%
X63510000Y-28475000D03*
%TO.P,U4,3,T0CLKO/P1.4*%
%TO.N,/P1.4*%
X63510000Y-29745000D03*
%TO.P,U4,4,P1.5*%
%TO.N,/P1.5*%
X63510000Y-31015000D03*
%TO.P,U4,5,CMP-/MCLKO/RST/P5.4*%
%TO.N,/P5.4*%
X63510000Y-32285000D03*
%TO.P,U4,6,VCC*%
%TO.N,VCC*%
X63510000Y-33555000D03*
%TO.P,U4,7,CMP+/P5.5*%
%TO.N,/P5.5*%
X63510000Y-34825000D03*
%TO.P,U4,8,GND*%
%TO.N,GND*%
X63510000Y-36095000D03*
%TO.P,U4,9,P3.0/RxD/~{INT4}/T2CLKO*%
%TO.N,/RX*%
X68810000Y-36095000D03*
%TO.P,U4,10,P3.1/TXD/T2*%
%TO.N,/TX*%
X68810000Y-34825000D03*
%TO.P,U4,11,P3.2/INT0*%
%TO.N,/P3.2*%
X68810000Y-33555000D03*
%TO.P,U4,12,P3.3/INT1*%
%TO.N,/P3.3*%
X68810000Y-32285000D03*
%TO.P,U4,13,P3.6/~{INT2}/RXD_2*%
%TO.N,/~{INT2}*%
X68810000Y-31015000D03*
%TO.P,U4,14,P3.7/~{INT3}/TXD_2*%
%TO.N,/P3.7*%
X68810000Y-29745000D03*
%TO.P,U4,15,P1.0/RSTOUT_LOW*%
%TO.N,/P1.0*%
X68810000Y-28475000D03*
%TO.P,U4,16,P1.1*%
%TO.N,/P1.1*%
X68810000Y-27205000D03*
%TD*%
D10*
%TO.P,R5,1*%
%TO.N,VCC*%
X62610000Y-23760000D03*
%TO.P,R5,2*%
%TO.N,/P1.1*%
X63250000Y-23760000D03*
%TD*%
D22*
%TO.P,C1,1*%
%TO.N,VCC*%
X72020000Y-38600000D03*
%TO.P,C1,2*%
%TO.N,GND*%
X71380000Y-38600000D03*
%TD*%
D13*
%TO.P,CIN1,1*%
%TO.N,GND*%
X70205600Y-42560200D03*
%TO.P,CIN1,2*%
%TO.N,Net-(J1-VBUS)*%
X70205600Y-41920200D03*
%TD*%
D23*
%TO.P,U1,1,UD+*%
%TO.N,/UD+*%
X79035000Y-38665000D03*
%TO.P,U1,2,UD-*%
%TO.N,/UD-*%
X79035000Y-37395000D03*
%TO.P,U1,3,GND*%
%TO.N,GND*%
X79035000Y-36125000D03*
%TO.P,U1,4,RTS#*%
X79035000Y-34855000D03*
%TO.P,U1,5,VCC*%
%TO.N,VCC*%
X73785000Y-34855000D03*
%TO.P,U1,6,TXD*%
%TO.N,/RX*%
X73785000Y-36125000D03*
%TO.P,U1,7,RXD*%
%TO.N,/TX*%
X73785000Y-37395000D03*
%TO.P,U1,8,V3*%
%TO.N,VCC*%
X73785000Y-38665000D03*
%TD*%
D24*
%TO.P,U3,1,32kHz*%
%TO.N,GND*%
X74700000Y-30860000D03*
%TO.P,U3,2,VCC*%
%TO.N,VCC*%
X75970000Y-30860000D03*
%TO.P,U3,3,~{INT}/SQW*%
%TO.N,/~{INT2}*%
X77240000Y-30860000D03*
%TO.P,U3,4,~{RST}*%
%TO.N,/P3.3*%
X78510000Y-30860000D03*
%TO.P,U3,5,N.C.*%
%TO.N,GND*%
X79780000Y-30860000D03*
%TO.P,U3,6,N.C.*%
X81050000Y-30860000D03*
%TO.P,U3,7,N.C.*%
X82320000Y-30860000D03*
%TO.P,U3,8,N.C.*%
X83590000Y-30860000D03*
%TO.P,U3,9,N.C.*%
X83595000Y-22610000D03*
%TO.P,U3,10,N.C.*%
X82325000Y-22610000D03*
%TO.P,U3,11,N.C.*%
X81055000Y-22610000D03*
%TO.P,U3,12,N.C.*%
X79785000Y-22610000D03*
%TO.P,U3,13,GND*%
X78515000Y-22610000D03*
%TO.P,U3,14,VBAT*%
X77245000Y-22610000D03*
%TO.P,U3,15,SDA*%
%TO.N,/P3.7*%
X75975000Y-22610000D03*
%TO.P,U3,16,SCL*%
%TO.N,/P1.0*%
X74705000Y-22610000D03*
%TD*%
D13*
%TO.P,C3,1*%
%TO.N,GND*%
X60370000Y-35895000D03*
%TO.P,C3,2*%
%TO.N,VCC*%
X60370000Y-35255000D03*
%TD*%
D12*
%TO.P,R2,1*%
%TO.N,VCC*%
X73210000Y-27560000D03*
%TO.P,R2,2*%
%TO.N,/~{INT2}*%
X73210000Y-28200000D03*
%TD*%
D25*
%TO.P,SW2,4*%
%TO.N,N/C*%
X52656000Y-46920000D03*
X54356000Y-46920000D03*
%TD*%
%TO.P,SW5,4*%
%TO.N,N/C*%
X74690000Y-46740000D03*
X76390000Y-46740000D03*
%TD*%
%TO.P,SW1,4*%
%TO.N,N/C*%
X81350000Y-46740000D03*
X83050000Y-46740000D03*
%TD*%
%TO.P,SW3,4*%
%TO.N,N/C*%
X65800000Y-46740000D03*
X67500000Y-46740000D03*
%TD*%
D26*
%TO.N,/P1.1*%
X45550000Y-30410000D03*
%TO.N,GND*%
X72110000Y-30460000D03*
X85400000Y-22650000D03*
X70200000Y-38100000D03*
D27*
X86900000Y-21199999D03*
D28*
X79000000Y-33100000D03*
D29*
X64058800Y-38227000D03*
X81900000Y-35400000D03*
D26*
X68808600Y-38023800D03*
X48600000Y-45300000D03*
D28*
X86350000Y-32000000D03*
D26*
X68961000Y-42697400D03*
D28*
X86337907Y-41700667D03*
D27*
X45100000Y-46700000D03*
D26*
X59450000Y-35890000D03*
X73130000Y-29320000D03*
D27*
X86900000Y-46700000D03*
X45100000Y-21200000D03*
D26*
X53810000Y-34000000D03*
X85400000Y-30850000D03*
X77250000Y-20850000D03*
D29*
%TO.N,VCC*%
X64109600Y-42037000D03*
X48610000Y-44100000D03*
D26*
X72110000Y-34360000D03*
X74500000Y-27200000D03*
X59330000Y-34600000D03*
X71970000Y-31690000D03*
X70760000Y-22260000D03*
X74600000Y-24500000D03*
D29*
X74300000Y-40100000D03*
D26*
X61370000Y-23740000D03*
%TO.N,/DIG1*%
X59290000Y-33420000D03*
%TO.N,/DIG4*%
X55900000Y-31200000D03*
%TO.N,/DIG2*%
X53600000Y-31900000D03*
%TO.N,/DIG3*%
X51290000Y-34370000D03*
%TO.N,/A*%
X58050000Y-30350000D03*
%TO.N,/B*%
X55000000Y-29400000D03*
%TO.N,/C*%
X65455800Y-38074600D03*
%TO.N,/D*%
X61710000Y-45460000D03*
%TO.N,/E*%
X72410000Y-42860000D03*
%TO.N,/F*%
X66000000Y-28300000D03*
X66000000Y-31600000D03*
X55110000Y-38860000D03*
X55110000Y-40660000D03*
X66000000Y-35900000D03*
%TO.N,/G*%
X60410000Y-43760000D03*
%TO.N,/DP*%
X65010000Y-42860000D03*
D30*
%TO.N,/UD+*%
X82110000Y-36760000D03*
X80840000Y-38010000D03*
%TO.N,/P3.7*%
X70660000Y-29280000D03*
X70660000Y-27680000D03*
D26*
%TO.N,/P3.2*%
X77851000Y-42799000D03*
D31*
X70510000Y-33560000D03*
D26*
X75692000Y-44958000D03*
%TO.N,/P1.4*%
X59210000Y-42160000D03*
X60310000Y-33560000D03*
X59910000Y-38260000D03*
%TO.N,/P1.5*%
X61470000Y-38270000D03*
X66548000Y-45466000D03*
X60510000Y-42160000D03*
X60706000Y-46482000D03*
X61110000Y-32760000D03*
%TO.N,/P5.4*%
X62500000Y-38100000D03*
X62130000Y-33000000D03*
X68453000Y-43561000D03*
X63400000Y-43800000D03*
X62700000Y-42100000D03*
D31*
%TO.N,/TX*%
X71710000Y-35360000D03*
X72100000Y-36900000D03*
%TO.N,/P1.3*%
X59980000Y-30730000D03*
D26*
X56780000Y-31810000D03*
%TO.N,/P5.5*%
X67110000Y-35460000D03*
%TD*%
D32*
%TO.N,/P1.1*%
X58422500Y-26347500D02*
X59170000Y-25600000D01*
D33*
X63220000Y-24000000D02*
X63220000Y-25575000D01*
D32*
X68710000Y-27110000D02*
X68710000Y-27215000D01*
X59170000Y-25600000D02*
X67200000Y-25600000D01*
D33*
X46422500Y-29527500D02*
X46422500Y-26347500D01*
X45550000Y-30400000D02*
X46422500Y-29527500D01*
X45550000Y-30410000D02*
X45550000Y-30400000D01*
D32*
X67200000Y-25600000D02*
X68710000Y-27110000D01*
D33*
%TO.N,GND*%
X73100000Y-29350000D02*
X73130000Y-29320000D01*
X83677500Y-35460000D02*
X83677500Y-36110000D01*
X61525000Y-35895000D02*
X61620000Y-35800000D01*
X64058800Y-38227000D02*
X64262000Y-38430200D01*
X79000000Y-33100000D02*
X79035000Y-33135000D01*
X77250000Y-20850000D02*
X77245000Y-20855000D01*
X85487500Y-34760000D02*
X86337500Y-33910000D01*
X86337500Y-32012500D02*
X86337500Y-33910000D01*
X73900000Y-30860000D02*
X73100000Y-30060000D01*
X70700000Y-38600000D02*
X71380000Y-38600000D01*
X48600000Y-45300000D02*
X49190000Y-45300000D01*
D32*
X53810000Y-34000000D02*
X53845000Y-34035000D01*
D33*
X68381500Y-40345400D02*
X68422100Y-40386000D01*
X81960000Y-35460000D02*
X83677500Y-35460000D01*
D32*
X53845000Y-34035000D02*
X53845000Y-36360000D01*
D33*
X78515000Y-22610000D02*
X79785000Y-22610000D01*
X69098200Y-42560200D02*
X70205600Y-42560200D01*
X86337500Y-41700260D02*
X86337907Y-41700667D01*
X79035000Y-36125000D02*
X79035000Y-34855000D01*
X61630000Y-35810000D02*
X62330000Y-35810000D01*
X82320000Y-30860000D02*
X83590000Y-30860000D01*
X79780000Y-30860000D02*
X81050000Y-30860000D01*
X85390000Y-30860000D02*
X85400000Y-30850000D01*
X86337500Y-39590000D02*
X86337500Y-36790000D01*
X86337500Y-33910000D02*
X86337500Y-36790000D01*
X74700000Y-30860000D02*
X73900000Y-30860000D01*
X79785000Y-22610000D02*
X81055000Y-22610000D01*
X62615000Y-36095000D02*
X63510000Y-36095000D01*
X86350000Y-32000000D02*
X86337500Y-32012500D01*
X85360000Y-22610000D02*
X85400000Y-22650000D01*
X59455000Y-35895000D02*
X60370000Y-35895000D01*
X86337500Y-39590000D02*
X86337500Y-41700260D01*
X79035000Y-33135000D02*
X79035000Y-34855000D01*
X83590000Y-30860000D02*
X85390000Y-30860000D01*
X72110000Y-30460000D02*
X72520000Y-30460000D01*
X82325000Y-22610000D02*
X83595000Y-22610000D01*
X49190000Y-45300000D02*
X50010000Y-44480000D01*
X60370000Y-35895000D02*
X61525000Y-35895000D01*
X73100000Y-30060000D02*
X73100000Y-29350000D01*
X72520000Y-30460000D02*
X73100000Y-31040000D01*
X81050000Y-30860000D02*
X82320000Y-30860000D01*
X64262000Y-40345400D02*
X68381500Y-40345400D01*
X68961000Y-42697400D02*
X69098200Y-42560200D01*
X70200000Y-38100000D02*
X70700000Y-38600000D01*
X84237500Y-38760000D02*
X85507500Y-38760000D01*
X67426800Y-38023800D02*
X68808600Y-38023800D01*
X84237500Y-34760000D02*
X85487500Y-34760000D01*
X59450000Y-35890000D02*
X59455000Y-35895000D01*
X62330000Y-35810000D02*
X62615000Y-36095000D01*
X61620000Y-35800000D02*
X61630000Y-35810000D01*
X85507500Y-38760000D02*
X86337500Y-39590000D01*
X64262000Y-38430200D02*
X64262000Y-40345400D01*
X83595000Y-22610000D02*
X85360000Y-22610000D01*
X77245000Y-20855000D02*
X77245000Y-22610000D01*
X81055000Y-22610000D02*
X82325000Y-22610000D01*
%TO.N,VCC*%
X73720000Y-38600000D02*
X73785000Y-38665000D01*
X61390000Y-23760000D02*
X62610000Y-23760000D01*
X62310000Y-34250000D02*
X61620000Y-34250000D01*
X59520000Y-34600000D02*
X60175000Y-35255000D01*
X50010000Y-43840000D02*
X50010000Y-42280000D01*
X70760000Y-22260000D02*
X70760000Y-22250000D01*
X74300000Y-40100000D02*
X73785000Y-39585000D01*
X64810600Y-41336000D02*
X64109600Y-42037000D01*
X70760000Y-22250000D02*
X71510000Y-21500000D01*
X75270000Y-32430000D02*
X73220000Y-32430000D01*
X73210000Y-27560000D02*
X73570000Y-27200000D01*
X75970000Y-31730000D02*
X75270000Y-32430000D01*
X73100000Y-31680000D02*
X71980000Y-31680000D01*
X73785000Y-39585000D02*
X73785000Y-38665000D01*
X73570000Y-27200000D02*
X74500000Y-27200000D01*
X60370000Y-35255000D02*
X60615000Y-35255000D01*
X74200000Y-24100000D02*
X74600000Y-24500000D01*
X60175000Y-35255000D02*
X60370000Y-35255000D01*
X73220000Y-32430000D02*
X73100000Y-32310000D01*
X48610000Y-44100000D02*
X48870000Y-43840000D01*
X50010000Y-42280000D02*
X50030000Y-42260000D01*
X61370000Y-23740000D02*
X61390000Y-23760000D01*
X48870000Y-43840000D02*
X50010000Y-43840000D01*
X59330000Y-34600000D02*
X59520000Y-34600000D01*
X73230000Y-24100000D02*
X74200000Y-24100000D01*
X75970000Y-31730000D02*
X75970000Y-30860000D01*
X72605000Y-34855000D02*
X73785000Y-34855000D01*
X73100000Y-32310000D02*
X73100000Y-31680000D01*
X66147100Y-41336000D02*
X64810600Y-41336000D01*
X63005000Y-33555000D02*
X62310000Y-34250000D01*
X60615000Y-35255000D02*
X61620000Y-34250000D01*
X64262000Y-40985400D02*
X64460000Y-40985400D01*
X72020000Y-38600000D02*
X73720000Y-38600000D01*
X72110000Y-34360000D02*
X72605000Y-34855000D01*
X64460000Y-40985400D02*
X64810600Y-41336000D01*
X63510000Y-33555000D02*
X63005000Y-33555000D01*
X71980000Y-31680000D02*
X71970000Y-31690000D01*
%TO.N,/DIG1*%
X57660000Y-35050000D02*
X57660000Y-36360000D01*
X59290000Y-33420000D02*
X57660000Y-35050000D01*
%TO.N,/DIG4*%
X55900000Y-31200000D02*
X55800000Y-31100000D01*
X52790000Y-31100000D02*
X50060000Y-33830000D01*
X50060000Y-33830000D02*
X50060000Y-36360000D01*
X55800000Y-31100000D02*
X52790000Y-31100000D01*
%TO.N,/DIG2*%
X53600000Y-31900000D02*
X52575000Y-32925000D01*
X52575000Y-32925000D02*
X52575000Y-36360000D01*
%TO.N,/DIG3*%
X51310000Y-34390000D02*
X51290000Y-34370000D01*
X51310000Y-36355000D02*
X51310000Y-34390000D01*
X51305000Y-36360000D02*
X51310000Y-36355000D01*
%TO.N,/A*%
X58000000Y-30300000D02*
X52480000Y-30300000D01*
X58050000Y-30350000D02*
X58000000Y-30300000D01*
X48765000Y-34015000D02*
X48765000Y-36360000D01*
X52480000Y-30300000D02*
X48765000Y-34015000D01*
%TO.N,/B*%
X55000000Y-29400000D02*
X52360000Y-29400000D01*
X52360000Y-29400000D02*
X47080000Y-34680000D01*
X47080000Y-40580000D02*
X48760000Y-42260000D01*
X47080000Y-34680000D02*
X47080000Y-40580000D01*
D34*
%TO.N,/C*%
X59660000Y-37310000D02*
X57210000Y-39760000D01*
X65455800Y-38074600D02*
X64691200Y-37310000D01*
X64691200Y-37310000D02*
X59660000Y-37310000D01*
X57210000Y-39760000D02*
X52410000Y-39760000D01*
X51300000Y-40870000D02*
X51300000Y-42260000D01*
X52410000Y-39760000D02*
X51300000Y-40870000D01*
D33*
%TO.N,/D*%
X52570000Y-43120000D02*
X52570000Y-42260000D01*
X61710000Y-45460000D02*
X54910000Y-45460000D01*
X54910000Y-45460000D02*
X52570000Y-43120000D01*
%TO.N,/E*%
X70500000Y-44600000D02*
X55150000Y-44600000D01*
X72240000Y-42860000D02*
X70500000Y-44600000D01*
X72410000Y-42860000D02*
X72240000Y-42860000D01*
X55150000Y-44600000D02*
X53840000Y-43290000D01*
X53840000Y-43290000D02*
X53840000Y-42260000D01*
D34*
%TO.N,/F*%
X66000000Y-28300000D02*
X66000000Y-31600000D01*
X55110000Y-42260000D02*
X55110000Y-40660000D01*
X66000000Y-35900000D02*
X65100000Y-36800000D01*
X59370000Y-36800000D02*
X58210000Y-37960000D01*
X65100000Y-36800000D02*
X59370000Y-36800000D01*
X58210000Y-37960000D02*
X56010000Y-37960000D01*
X56010000Y-37960000D02*
X55110000Y-38860000D01*
%TO.N,/G*%
X60410000Y-43760000D02*
X57010000Y-43760000D01*
X56380000Y-43130000D02*
X56380000Y-42260000D01*
X57010000Y-43760000D02*
X56380000Y-43130000D01*
%TO.N,/DP*%
X64910000Y-42960000D02*
X58210000Y-42960000D01*
X57650000Y-42400000D02*
X57650000Y-42260000D01*
X65010000Y-42860000D02*
X64910000Y-42960000D01*
X58210000Y-42960000D02*
X57650000Y-42400000D01*
%TO.N,/UD-*%
X80350000Y-36790000D02*
X80340000Y-36790000D01*
X82820000Y-37410000D02*
X82610000Y-37620000D01*
X81710000Y-37450000D02*
X81660000Y-37450000D01*
X81190000Y-37110140D02*
X81190000Y-36250000D01*
X79735000Y-37395000D02*
X79035000Y-37395000D01*
X82610000Y-37620000D02*
X82610000Y-38100000D01*
X80340000Y-36790000D02*
X79735000Y-37395000D01*
X80592882Y-36190900D02*
X80592882Y-36547118D01*
X80592882Y-36547118D02*
X80350000Y-36790000D01*
X82010000Y-38100000D02*
X82010000Y-37750000D01*
X81423468Y-37343608D02*
X81190000Y-37110140D01*
X83677500Y-37410000D02*
X82820000Y-37410000D01*
X83210000Y-37400000D02*
G75*
G03*
X83260000Y-37450000I50000J0D01*
G01*
X81423486Y-37343593D02*
G75*
G03*
X81660000Y-37450000I234014J204093D01*
G01*
X82010000Y-37750000D02*
G75*
G03*
X81710000Y-37450000I-300000J0D01*
G01*
X81190000Y-36250000D02*
G75*
G03*
X80890000Y-35950000I-300000J0D01*
G01*
X82310000Y-38400000D02*
G75*
G03*
X82610000Y-38100000I0J300000D01*
G01*
X82010000Y-38100000D02*
G75*
G03*
X82310000Y-38400000I300000J0D01*
G01*
X80890000Y-35949970D02*
G75*
G03*
X80592882Y-36190900I2400J-306630D01*
G01*
X83210000Y-37400000D02*
G75*
G03*
X83160000Y-37350000I-50000J0D01*
G01*
%TO.N,/UD+*%
X79035000Y-38665000D02*
X80185000Y-38665000D01*
X80185000Y-38665000D02*
X80840000Y-38010000D01*
X82110000Y-36760000D02*
X83677500Y-36760000D01*
%TO.N,/~{INT2}*%
X77240000Y-30860000D02*
X77240000Y-31270000D01*
X71920000Y-33040000D02*
X69905000Y-31025000D01*
X69905000Y-31025000D02*
X68710000Y-31025000D01*
D33*
X77240000Y-29440000D02*
X77240000Y-30860000D01*
X76000000Y-28200000D02*
X77240000Y-29440000D01*
D34*
X77240000Y-31270000D02*
X75470000Y-33040000D01*
D33*
X73210000Y-28200000D02*
X76000000Y-28200000D01*
D34*
X75470000Y-33040000D02*
X71920000Y-33040000D01*
%TO.N,/P3.7*%
X70185000Y-29755000D02*
X68710000Y-29755000D01*
X75975000Y-21945000D02*
X75975000Y-22610000D01*
X73740000Y-21060000D02*
X75090000Y-21060000D01*
X73340000Y-21460000D02*
X73350000Y-21450000D01*
X70660000Y-27680000D02*
X70660000Y-24140000D01*
X70660000Y-24140000D02*
X73350000Y-21450000D01*
X73350000Y-21450000D02*
X73740000Y-21060000D01*
X70660000Y-29280000D02*
X70185000Y-29755000D01*
X75090000Y-21060000D02*
X75975000Y-21945000D01*
X72190000Y-21460000D02*
X73340000Y-21460000D01*
%TO.N,/P1.0*%
X72050000Y-23700000D02*
X71520000Y-24230000D01*
D33*
X72420000Y-24100000D02*
X72050000Y-23730000D01*
D34*
X73140000Y-22610000D02*
X72050000Y-23700000D01*
X72050000Y-23730000D02*
X72050000Y-23700000D01*
X71520000Y-27860000D02*
X70895000Y-28485000D01*
X70895000Y-28485000D02*
X68710000Y-28485000D01*
X74705000Y-22610000D02*
X73140000Y-22610000D01*
X71520000Y-24230000D02*
X71520000Y-27860000D01*
D33*
X72590000Y-24100000D02*
X72420000Y-24100000D01*
%TO.N,/P3.2*%
X70510000Y-33560000D02*
X70505000Y-33565000D01*
X70505000Y-33565000D02*
X68710000Y-33565000D01*
X75692000Y-44958000D02*
X77851000Y-42799000D01*
%TO.N,/P1.4*%
X60230000Y-33710000D02*
X60310000Y-33630000D01*
D34*
X63710000Y-29755000D02*
X62085000Y-29755000D01*
D33*
X60310000Y-33630000D02*
X60310000Y-33560000D01*
D34*
X60230000Y-31610000D02*
X60230000Y-33710000D01*
D33*
X59910000Y-41460000D02*
X59210000Y-42160000D01*
D34*
X62085000Y-29755000D02*
X60230000Y-31610000D01*
D33*
X59910000Y-38260000D02*
X59910000Y-41460000D01*
D34*
%TO.N,/P1.5*%
X61110000Y-32710000D02*
X61020000Y-32800000D01*
X63710000Y-31025000D02*
X61805000Y-31025000D01*
D33*
X61470000Y-38270000D02*
X61470000Y-41200000D01*
D34*
X61110000Y-31720000D02*
X61110000Y-32710000D01*
D33*
X61110000Y-32760000D02*
X61060000Y-32760000D01*
X60706000Y-46482000D02*
X64679142Y-46482000D01*
X61470000Y-41200000D02*
X60510000Y-42160000D01*
X61060000Y-32760000D02*
X61020000Y-32800000D01*
X64679142Y-46482000D02*
X65695142Y-45466000D01*
X65695142Y-45466000D02*
X66548000Y-45466000D01*
D34*
X61805000Y-31025000D02*
X61110000Y-31720000D01*
D33*
%TO.N,/P5.4*%
X63200000Y-41600000D02*
X62700000Y-42100000D01*
X68453000Y-43561000D02*
X65862200Y-43561000D01*
X65659000Y-43764200D02*
X63435800Y-43764200D01*
D34*
X63710000Y-32295000D02*
X62835000Y-32295000D01*
D33*
X63200000Y-38800000D02*
X63200000Y-41600000D01*
D34*
X62835000Y-32295000D02*
X62130000Y-33000000D01*
D33*
X62500000Y-38100000D02*
X63200000Y-38800000D01*
X63435800Y-43764200D02*
X63400000Y-43800000D01*
X65862200Y-43561000D02*
X65659000Y-43764200D01*
D34*
%TO.N,/RX*%
X73785000Y-36125000D02*
X69630000Y-36125000D01*
X69630000Y-36125000D02*
X69610000Y-36105000D01*
D35*
%TO.N,/TX*%
X72595000Y-37395000D02*
X72100000Y-36900000D01*
D34*
X71185000Y-34835000D02*
X69610000Y-34835000D01*
D35*
X73785000Y-37395000D02*
X72595000Y-37395000D01*
D34*
X71710000Y-35360000D02*
X71185000Y-34835000D01*
%TO.N,/P3.3*%
X68710000Y-32295000D02*
X70335000Y-32295000D01*
X78510000Y-31190000D02*
X78510000Y-30860000D01*
X70335000Y-32295000D02*
X71620000Y-33580000D01*
X76120000Y-33580000D02*
X78510000Y-31190000D01*
X71620000Y-33580000D02*
X76120000Y-33580000D01*
%TO.N,/P1.2*%
X58500000Y-33120000D02*
X56385000Y-35235000D01*
D33*
X63710000Y-27215000D02*
X62365000Y-27215000D01*
D34*
X62365000Y-27215000D02*
X58500000Y-31080000D01*
X56385000Y-35235000D02*
X56385000Y-35605000D01*
D33*
X56385000Y-35605000D02*
X56385000Y-36360000D01*
D34*
X58500000Y-31080000D02*
X58500000Y-33120000D01*
%TO.N,/P1.3*%
X59980000Y-30730000D02*
X62225000Y-28485000D01*
D33*
X55115000Y-33475000D02*
X55115000Y-36360000D01*
X62225000Y-28485000D02*
X63710000Y-28485000D01*
X56780000Y-31810000D02*
X55115000Y-33475000D01*
D34*
%TO.N,/P5.5*%
X66485000Y-34835000D02*
X63710000Y-34835000D01*
X67110000Y-35460000D02*
X66485000Y-34835000D01*
D33*
%TO.N,Net-(U2-BP)*%
X66147100Y-38663500D02*
X66786800Y-38023800D01*
X66147100Y-39436000D02*
X66147100Y-38663500D01*
%TO.N,Net-(J1-VBUS)*%
X70916800Y-41920200D02*
X74629800Y-41920200D01*
X68422100Y-39436000D02*
X68912417Y-39436000D01*
D32*
X76650000Y-39900000D02*
X80850000Y-39900000D01*
D33*
X68912417Y-39436000D02*
X68922617Y-39446200D01*
X68422100Y-41336000D02*
X69621400Y-41336000D01*
X74629800Y-41920200D02*
X76650000Y-39900000D01*
X69621400Y-41336000D02*
X70205600Y-41920200D01*
X83677500Y-38060000D02*
X83677500Y-38122500D01*
X70789800Y-40005000D02*
X70789800Y-41859200D01*
X70231000Y-39446200D02*
X70789800Y-40005000D01*
X68922617Y-39446200D02*
X70231000Y-39446200D01*
X81900000Y-39900000D02*
X80850000Y-39900000D01*
X83677500Y-38122500D02*
X81900000Y-39900000D01*
X70205600Y-41920200D02*
X70916800Y-41920200D01*
%TD*%
%TA.AperFunction,Conductor*%
%TO.N,GND*%
G36*
X67347035Y-41635723D02*
G01*
X67396293Y-41686852D01*
X67401815Y-41698943D01*
X67425238Y-41758341D01*
X67425241Y-41758345D01*
X67516677Y-41878922D01*
X67637254Y-41970358D01*
X67637258Y-41970361D01*
X67778035Y-42025877D01*
X67778034Y-42025877D01*
X67805994Y-42029234D01*
X67866498Y-42036500D01*
X67866501Y-42036500D01*
X68977699Y-42036500D01*
X68977702Y-42036500D01*
X69066164Y-42025877D01*
X69206942Y-41970361D01*
X69206946Y-41970358D01*
X69217831Y-41962104D01*
X69284195Y-41936879D01*
X69293966Y-41936500D01*
X69320475Y-41936500D01*
X69388596Y-41956502D01*
X69409570Y-41973405D01*
X69602631Y-42166466D01*
X69631591Y-42211526D01*
X69661804Y-42292531D01*
X69664954Y-42296739D01*
X69748053Y-42407746D01*
X69797466Y-42444736D01*
X69863269Y-42493996D01*
X69863271Y-42493996D01*
X69863273Y-42493998D01*
X69923630Y-42516509D01*
X69998114Y-42544290D01*
X69998117Y-42544291D01*
X70057727Y-42550700D01*
X70353472Y-42550699D01*
X70395724Y-42546157D01*
X70413076Y-42544292D01*
X70413077Y-42544291D01*
X70413083Y-42544291D01*
X70455034Y-42528644D01*
X70499066Y-42520700D01*
X70877439Y-42520700D01*
X71425874Y-42520700D01*
X71493995Y-42540702D01*
X71540488Y-42594358D01*
X71550592Y-42664632D01*
X71521098Y-42729212D01*
X71514969Y-42735795D01*
X70288170Y-43962595D01*
X70225858Y-43996620D01*
X70199075Y-43999500D01*
X69325234Y-43999500D01*
X69257113Y-43979498D01*
X69210620Y-43925842D01*
X69200516Y-43855568D01*
X69206305Y-43831885D01*
X69238368Y-43740255D01*
X69258565Y-43561000D01*
X69238368Y-43381745D01*
X69178789Y-43211478D01*
X69178787Y-43211475D01*
X69178787Y-43211474D01*
X69082817Y-43058739D01*
X69082816Y-43058737D01*
X68955262Y-42931183D01*
X68955260Y-42931182D01*
X68802525Y-42835212D01*
X68802522Y-42835211D01*
X68802521Y-42835211D01*
X68632255Y-42775632D01*
X68453000Y-42755435D01*
X68452999Y-42755435D01*
X68426926Y-42758372D01*
X68273745Y-42775632D01*
X68273742Y-42775632D01*
X68273742Y-42775633D01*
X68103477Y-42835211D01*
X68103474Y-42835212D01*
X67950745Y-42931178D01*
X67948450Y-42933009D01*
X67946685Y-42933729D01*
X67944746Y-42934948D01*
X67944532Y-42934608D01*
X67882720Y-42959845D01*
X67869887Y-42960500D01*
X65939489Y-42960500D01*
X65871368Y-42940498D01*
X65824875Y-42886842D01*
X65814281Y-42848608D01*
X65812772Y-42835212D01*
X65795368Y-42680745D01*
X65735789Y-42510478D01*
X65735787Y-42510475D01*
X65735787Y-42510474D01*
X65639817Y-42357739D01*
X65639816Y-42357737D01*
X65533674Y-42251595D01*
X65499648Y-42189283D01*
X65504713Y-42118468D01*
X65547260Y-42061632D01*
X65613780Y-42036821D01*
X65622769Y-42036500D01*
X66702699Y-42036500D01*
X66702702Y-42036500D01*
X66791164Y-42025877D01*
X66931942Y-41970361D01*
X67052522Y-41878922D01*
X67143961Y-41758342D01*
X67167385Y-41698942D01*
X67210983Y-41642910D01*
X67277954Y-41619342D01*
X67347035Y-41635723D01*
G37*
%TD.AperFunction*%
%TA.AperFunction,Conductor*%
G36*
X67577705Y-36222470D02*
G01*
X67610452Y-36285463D01*
X67611912Y-36294706D01*
X67619882Y-36361077D01*
X67674137Y-36498656D01*
X67674139Y-36498659D01*
X67763499Y-36616500D01*
X67775749Y-36625789D01*
X67881342Y-36705862D01*
X67934394Y-36726783D01*
X68018922Y-36760117D01*
X68018921Y-36760117D01*
X68042520Y-36762950D01*
X68105382Y-36770500D01*
X68105385Y-36770500D01*
X69514615Y-36770500D01*
X69514618Y-36770500D01*
X69601077Y-36760117D01*
X69738658Y-36705862D01*
X69742662Y-36702826D01*
X69744933Y-36701104D01*
X69811297Y-36675879D01*
X69821068Y-36675500D01*
X71279390Y-36675500D01*
X71347511Y-36695502D01*
X71394004Y-36749158D01*
X71404471Y-36816688D01*
X71394355Y-36899997D01*
X71394355Y-36900002D01*
X71414859Y-37068871D01*
X71475179Y-37227925D01*
X71475181Y-37227929D01*
X71571816Y-37367928D01*
X71571818Y-37367930D01*
X71698320Y-37480001D01*
X71699148Y-37480734D01*
X71849775Y-37559790D01*
X71849776Y-37559790D01*
X71849778Y-37559791D01*
X71897727Y-37571609D01*
X72014944Y-37600500D01*
X72014950Y-37600500D01*
X72020020Y-37601116D01*
X72085234Y-37629180D01*
X72093922Y-37637092D01*
X72172118Y-37715288D01*
X72217073Y-37760243D01*
X72242528Y-37787499D01*
X72274405Y-37850936D01*
X72266925Y-37921538D01*
X72222463Y-37976888D01*
X72155134Y-37999413D01*
X72150442Y-37999500D01*
X71842134Y-37999500D01*
X71842113Y-37999502D01*
X71782519Y-38005908D01*
X71782518Y-38005908D01*
X71647673Y-38056201D01*
X71647670Y-38056203D01*
X71532453Y-38142453D01*
X71446203Y-38257670D01*
X71446201Y-38257673D01*
X71395909Y-38392515D01*
X71389500Y-38452121D01*
X71389500Y-38747864D01*
X71389502Y-38747885D01*
X71395908Y-38807480D01*
X71395908Y-38807481D01*
X71446201Y-38942326D01*
X71446203Y-38942329D01*
X71446204Y-38942331D01*
X71470947Y-38975383D01*
X71532453Y-39057546D01*
X71572255Y-39087341D01*
X71647669Y-39143796D01*
X71647671Y-39143796D01*
X71647673Y-39143798D01*
X71708030Y-39166309D01*
X71782514Y-39194090D01*
X71782517Y-39194091D01*
X71842127Y-39200500D01*
X71970475Y-39200499D01*
X71970487Y-39200500D01*
X71980639Y-39200500D01*
X72664919Y-39200500D01*
X72733040Y-39220502D01*
X72741053Y-39226103D01*
X72837654Y-39299358D01*
X72837658Y-39299361D01*
X72978435Y-39354877D01*
X72978434Y-39354877D01*
X73070637Y-39365949D01*
X73070502Y-39367065D01*
X73132806Y-39389464D01*
X73176025Y-39445791D01*
X73184500Y-39491222D01*
X73184500Y-39541505D01*
X73183960Y-39549737D01*
X73179318Y-39584999D01*
X73179318Y-39585000D01*
X73184500Y-39624361D01*
X73199955Y-39741760D01*
X73200432Y-39742910D01*
X73260464Y-39887841D01*
X73356718Y-40013282D01*
X73356722Y-40013285D01*
X73357629Y-40014192D01*
X73358153Y-40015151D01*
X73361746Y-40019834D01*
X73361016Y-40020394D01*
X73391659Y-40076502D01*
X73393483Y-40093471D01*
X73393850Y-40093433D01*
X73394540Y-40099999D01*
X73394540Y-40100000D01*
X73396216Y-40115950D01*
X73414325Y-40288256D01*
X73472818Y-40468278D01*
X73472822Y-40468286D01*
X73567465Y-40632214D01*
X73567466Y-40632216D01*
X73694126Y-40772886D01*
X73847267Y-40884149D01*
X73847267Y-40884150D01*
X73880787Y-40899074D01*
X74020197Y-40961144D01*
X74205354Y-41000500D01*
X74396075Y-41000500D01*
X74464196Y-41020502D01*
X74510689Y-41074158D01*
X74520793Y-41144432D01*
X74491299Y-41209012D01*
X74485170Y-41215595D01*
X74417970Y-41282795D01*
X74355658Y-41316821D01*
X74328875Y-41319700D01*
X71516300Y-41319700D01*
X71448179Y-41299698D01*
X71401686Y-41246042D01*
X71390300Y-41193700D01*
X71390300Y-40048501D01*
X71390840Y-40040269D01*
X71395483Y-40005000D01*
X71374844Y-39848239D01*
X71349417Y-39786852D01*
X71314336Y-39702159D01*
X71314334Y-39702156D01*
X71310674Y-39697386D01*
X71218081Y-39576717D01*
X71189855Y-39555058D01*
X71183661Y-39549626D01*
X70686366Y-39052331D01*
X70680940Y-39046143D01*
X70659282Y-39017918D01*
X70533841Y-38921664D01*
X70481586Y-38900019D01*
X70387760Y-38861155D01*
X70351484Y-38856380D01*
X70231000Y-38840518D01*
X70230999Y-38840518D01*
X70195738Y-38845160D01*
X70187506Y-38845700D01*
X69307417Y-38845700D01*
X69239296Y-38825698D01*
X69231283Y-38820097D01*
X69206945Y-38801641D01*
X69206941Y-38801638D01*
X69066164Y-38746122D01*
X69066165Y-38746122D01*
X68977705Y-38735500D01*
X68977702Y-38735500D01*
X67866498Y-38735500D01*
X67866494Y-38735500D01*
X67778035Y-38746122D01*
X67637258Y-38801638D01*
X67637254Y-38801641D01*
X67516677Y-38893077D01*
X67425241Y-39013654D01*
X67425240Y-39013656D01*
X67425239Y-39013657D01*
X67425239Y-39013658D01*
X67415146Y-39039252D01*
X67401815Y-39073057D01*
X67358216Y-39129090D01*
X67291245Y-39152657D01*
X67222165Y-39136275D01*
X67172907Y-39085146D01*
X67167385Y-39073057D01*
X67159215Y-39052340D01*
X67143961Y-39013658D01*
X67114936Y-38975383D01*
X67052523Y-38893079D01*
X67052520Y-38893077D01*
X67010427Y-38861156D01*
X67005139Y-38857146D01*
X66962947Y-38800047D01*
X66958322Y-38729201D01*
X66992177Y-38667656D01*
X67033068Y-38626765D01*
X67078125Y-38597808D01*
X67159131Y-38567596D01*
X67274346Y-38481346D01*
X67360596Y-38366131D01*
X67410891Y-38231283D01*
X67417300Y-38171673D01*
X67417299Y-37875928D01*
X67410891Y-37816317D01*
X67375534Y-37721519D01*
X67360598Y-37681473D01*
X67360596Y-37681470D01*
X67360596Y-37681469D01*
X67290704Y-37588105D01*
X67274346Y-37566253D01*
X67197391Y-37508645D01*
X67159131Y-37480004D01*
X67159129Y-37480003D01*
X67159126Y-37480001D01*
X67024283Y-37429709D01*
X67024286Y-37429709D01*
X66964678Y-37423300D01*
X66964673Y-37423300D01*
X66830296Y-37423300D01*
X66822065Y-37422760D01*
X66786801Y-37418118D01*
X66786799Y-37418118D01*
X66781187Y-37418856D01*
X66751522Y-37422761D01*
X66743302Y-37423300D01*
X66608934Y-37423300D01*
X66608913Y-37423302D01*
X66549319Y-37429708D01*
X66549318Y-37429708D01*
X66414473Y-37480001D01*
X66414470Y-37480003D01*
X66299252Y-37566254D01*
X66290971Y-37577317D01*
X66234133Y-37619862D01*
X66163317Y-37624923D01*
X66101007Y-37590896D01*
X66090393Y-37577585D01*
X66090032Y-37577874D01*
X66085616Y-37572337D01*
X65958062Y-37444783D01*
X65958060Y-37444782D01*
X65805325Y-37348812D01*
X65805322Y-37348811D01*
X65642271Y-37291757D01*
X65584579Y-37250379D01*
X65558417Y-37184379D01*
X65572090Y-37114711D01*
X65594787Y-37083736D01*
X65938350Y-36740172D01*
X66000661Y-36706149D01*
X66013312Y-36704065D01*
X66179255Y-36685368D01*
X66349522Y-36625789D01*
X66502262Y-36529816D01*
X66629816Y-36402262D01*
X66711411Y-36272403D01*
X66764587Y-36225368D01*
X66834755Y-36214547D01*
X66859705Y-36220510D01*
X66930745Y-36245368D01*
X67110000Y-36265565D01*
X67289255Y-36245368D01*
X67445199Y-36190800D01*
X67516100Y-36187181D01*
X67577705Y-36222470D01*
G37*
%TD.AperFunction*%
%TA.AperFunction,Conductor*%
G36*
X55284352Y-31720502D02*
G01*
X55305326Y-31737405D01*
X55397737Y-31829816D01*
X55397739Y-31829817D01*
X55509433Y-31899999D01*
X55550478Y-31925789D01*
X55557140Y-31928120D01*
X55614832Y-31969499D01*
X55640994Y-32035500D01*
X55627320Y-32105167D01*
X55604619Y-32136144D01*
X54721139Y-33019625D01*
X54714938Y-33025063D01*
X54686720Y-33046716D01*
X54686719Y-33046717D01*
X54686718Y-33046718D01*
X54669679Y-33068924D01*
X54619426Y-33134415D01*
X54590468Y-33172153D01*
X54590463Y-33172160D01*
X54529955Y-33318239D01*
X54509318Y-33474999D01*
X54509318Y-33475003D01*
X54513960Y-33510264D01*
X54514499Y-33518495D01*
X54514500Y-35350634D01*
X54494498Y-35418755D01*
X54488898Y-35426767D01*
X54480640Y-35437655D01*
X54480638Y-35437659D01*
X54425122Y-35578435D01*
X54414500Y-35666894D01*
X54414500Y-37053105D01*
X54425122Y-37141564D01*
X54480638Y-37282341D01*
X54480641Y-37282345D01*
X54572077Y-37402922D01*
X54692654Y-37494358D01*
X54692658Y-37494361D01*
X54833435Y-37549877D01*
X54833434Y-37549877D01*
X54861394Y-37553234D01*
X54921898Y-37560500D01*
X54921901Y-37560500D01*
X55308096Y-37560500D01*
X55308102Y-37560500D01*
X55313276Y-37559878D01*
X55383292Y-37571609D01*
X55435855Y-37619334D01*
X55454272Y-37687900D01*
X55432696Y-37755539D01*
X55417401Y-37774073D01*
X55171649Y-38019825D01*
X55109337Y-38053851D01*
X55096665Y-38055937D01*
X54930745Y-38074632D01*
X54930742Y-38074632D01*
X54930742Y-38074633D01*
X54760477Y-38134211D01*
X54760474Y-38134212D01*
X54607739Y-38230182D01*
X54607737Y-38230183D01*
X54480183Y-38357737D01*
X54480182Y-38357739D01*
X54384212Y-38510474D01*
X54384211Y-38510477D01*
X54326468Y-38675499D01*
X54324632Y-38680745D01*
X54304843Y-38856380D01*
X54304435Y-38860000D01*
X54324631Y-39039251D01*
X54325554Y-39041889D01*
X54325646Y-39043699D01*
X54326205Y-39046146D01*
X54325776Y-39046243D01*
X54329171Y-39112793D01*
X54293879Y-39174397D01*
X54230885Y-39207142D01*
X54206623Y-39209500D01*
X52419397Y-39209500D01*
X52353174Y-39207238D01*
X52353173Y-39207238D01*
X52310218Y-39217705D01*
X52303878Y-39218910D01*
X52260087Y-39224928D01*
X52260075Y-39224931D01*
X52243768Y-39232014D01*
X52223413Y-39238858D01*
X52206154Y-39243064D01*
X52206145Y-39243067D01*
X52167612Y-39264733D01*
X52161834Y-39267603D01*
X52121280Y-39285219D01*
X52107486Y-39296441D01*
X52089733Y-39308524D01*
X52074238Y-39317236D01*
X52042980Y-39348494D01*
X52038190Y-39352816D01*
X52003893Y-39380720D01*
X52003891Y-39380722D01*
X51993639Y-39395246D01*
X51979798Y-39411676D01*
X50917382Y-40474092D01*
X50868959Y-40519317D01*
X50868953Y-40519323D01*
X50845985Y-40557091D01*
X50842356Y-40562424D01*
X50815639Y-40597656D01*
X50809115Y-40614199D01*
X50799564Y-40633428D01*
X50790328Y-40648617D01*
X50778397Y-40691194D01*
X50776341Y-40697309D01*
X50760124Y-40738435D01*
X50760123Y-40738441D01*
X50758304Y-40756122D01*
X50754296Y-40777212D01*
X50749500Y-40794333D01*
X50749500Y-40838547D01*
X50749169Y-40844995D01*
X50744647Y-40888969D01*
X50747668Y-40906487D01*
X50749500Y-40927895D01*
X50749500Y-41097300D01*
X50729498Y-41165421D01*
X50675842Y-41211914D01*
X50605568Y-41222018D01*
X50547366Y-41197698D01*
X50503896Y-41164734D01*
X50452342Y-41125639D01*
X50452340Y-41125638D01*
X50452341Y-41125638D01*
X50311564Y-41070122D01*
X50311565Y-41070122D01*
X50223105Y-41059500D01*
X50223102Y-41059500D01*
X49836898Y-41059500D01*
X49836894Y-41059500D01*
X49748435Y-41070122D01*
X49607658Y-41125638D01*
X49607654Y-41125641D01*
X49487077Y-41217078D01*
X49484091Y-41220064D01*
X49480694Y-41221918D01*
X49480211Y-41222285D01*
X49480155Y-41222212D01*
X49421776Y-41254086D01*
X49350961Y-41249017D01*
X49305909Y-41220064D01*
X49302922Y-41217078D01*
X49182345Y-41125641D01*
X49182341Y-41125638D01*
X49041564Y-41070122D01*
X49041565Y-41070122D01*
X48953105Y-41059500D01*
X48953102Y-41059500D01*
X48566898Y-41059500D01*
X48566892Y-41059500D01*
X48486500Y-41069154D01*
X48416481Y-41057416D01*
X48382383Y-41033148D01*
X47717404Y-40368169D01*
X47683378Y-40305857D01*
X47680499Y-40279083D01*
X47680499Y-34980924D01*
X47700501Y-34912804D01*
X47717404Y-34891829D01*
X47824001Y-34785233D01*
X47949405Y-34659828D01*
X48011717Y-34625804D01*
X48082533Y-34630869D01*
X48139368Y-34673416D01*
X48164179Y-34739937D01*
X48164500Y-34748925D01*
X48164500Y-35350634D01*
X48144498Y-35418755D01*
X48138898Y-35426767D01*
X48130640Y-35437655D01*
X48130638Y-35437659D01*
X48075122Y-35578435D01*
X48064500Y-35666894D01*
X48064500Y-37053105D01*
X48075122Y-37141564D01*
X48130638Y-37282341D01*
X48130641Y-37282345D01*
X48222077Y-37402922D01*
X48342654Y-37494358D01*
X48342658Y-37494361D01*
X48483435Y-37549877D01*
X48483434Y-37549877D01*
X48511394Y-37553234D01*
X48571898Y-37560500D01*
X48571901Y-37560500D01*
X48958099Y-37560500D01*
X48958102Y-37560500D01*
X49046564Y-37549877D01*
X49187342Y-37494361D01*
X49307922Y-37402922D01*
X49312103Y-37397407D01*
X49369201Y-37355216D01*
X49440047Y-37350591D01*
X49502147Y-37385002D01*
X49512892Y-37397402D01*
X49517078Y-37402922D01*
X49517080Y-37402924D01*
X49637654Y-37494358D01*
X49637658Y-37494361D01*
X49778435Y-37549877D01*
X49778434Y-37549877D01*
X49806394Y-37553234D01*
X49866898Y-37560500D01*
X49866901Y-37560500D01*
X50253099Y-37560500D01*
X50253102Y-37560500D01*
X50341564Y-37549877D01*
X50482342Y-37494361D01*
X50602922Y-37402922D01*
X50602924Y-37402920D01*
X50606366Y-37400310D01*
X50672730Y-37375086D01*
X50742197Y-37389746D01*
X50758634Y-37400310D01*
X50762076Y-37402920D01*
X50762078Y-37402922D01*
X50788952Y-37423301D01*
X50882654Y-37494358D01*
X50882658Y-37494361D01*
X51023435Y-37549877D01*
X51023434Y-37549877D01*
X51051394Y-37553234D01*
X51111898Y-37560500D01*
X51111901Y-37560500D01*
X51498099Y-37560500D01*
X51498102Y-37560500D01*
X51586564Y-37549877D01*
X51727342Y-37494361D01*
X51847922Y-37402922D01*
X51847924Y-37402920D01*
X51850905Y-37399940D01*
X51854298Y-37398086D01*
X51854789Y-37397715D01*
X51854844Y-37397788D01*
X51913217Y-37365914D01*
X51984032Y-37370979D01*
X52029095Y-37399940D01*
X52032075Y-37402920D01*
X52152654Y-37494358D01*
X52152658Y-37494361D01*
X52293435Y-37549877D01*
X52293434Y-37549877D01*
X52321394Y-37553234D01*
X52381898Y-37560500D01*
X52381901Y-37560500D01*
X52768099Y-37560500D01*
X52768102Y-37560500D01*
X52856564Y-37549877D01*
X52997342Y-37494361D01*
X53117922Y-37402922D01*
X53209361Y-37282342D01*
X53264877Y-37141564D01*
X53275500Y-37053102D01*
X53275500Y-35666898D01*
X53266191Y-35589378D01*
X53264877Y-35578435D01*
X53222500Y-35470976D01*
X53209361Y-35437658D01*
X53201101Y-35426766D01*
X53175879Y-35360406D01*
X53175500Y-35350659D01*
X53175500Y-33225925D01*
X53195502Y-33157804D01*
X53212400Y-33136834D01*
X53618040Y-32731193D01*
X53680351Y-32697170D01*
X53693015Y-32695084D01*
X53768336Y-32686598D01*
X53779247Y-32685369D01*
X53779247Y-32685368D01*
X53779255Y-32685368D01*
X53949522Y-32625789D01*
X54102262Y-32529816D01*
X54229816Y-32402262D01*
X54325789Y-32249522D01*
X54385368Y-32079255D01*
X54405565Y-31900000D01*
X54398873Y-31840606D01*
X54411123Y-31770675D01*
X54459235Y-31718467D01*
X54524081Y-31700500D01*
X55216231Y-31700500D01*
X55284352Y-31720502D01*
G37*
%TD.AperFunction*%
%TA.AperFunction,Conductor*%
G36*
X64479106Y-37880502D02*
G01*
X64500080Y-37897405D01*
X64615625Y-38012950D01*
X64649651Y-38075262D01*
X64651737Y-38087931D01*
X64670432Y-38253855D01*
X64670433Y-38253857D01*
X64730011Y-38424122D01*
X64730012Y-38424125D01*
X64825982Y-38576860D01*
X64825983Y-38576862D01*
X64953537Y-38704416D01*
X64953539Y-38704417D01*
X65106274Y-38800387D01*
X65112649Y-38803457D01*
X65112005Y-38804792D01*
X65163166Y-38841485D01*
X65189329Y-38907485D01*
X65175657Y-38977152D01*
X65164258Y-38995169D01*
X65150243Y-39013650D01*
X65150238Y-39013658D01*
X65094722Y-39154435D01*
X65084100Y-39242894D01*
X65084100Y-39629105D01*
X65094722Y-39717564D01*
X65150238Y-39858341D01*
X65150241Y-39858345D01*
X65241677Y-39978922D01*
X65362254Y-40070358D01*
X65362258Y-40070361D01*
X65503035Y-40125877D01*
X65503034Y-40125877D01*
X65530994Y-40129234D01*
X65591498Y-40136500D01*
X65591501Y-40136500D01*
X66702699Y-40136500D01*
X66702702Y-40136500D01*
X66791164Y-40125877D01*
X66931942Y-40070361D01*
X67052522Y-39978922D01*
X67143961Y-39858342D01*
X67167385Y-39798942D01*
X67210983Y-39742910D01*
X67277954Y-39719342D01*
X67347035Y-39735723D01*
X67396293Y-39786852D01*
X67401815Y-39798943D01*
X67425238Y-39858341D01*
X67425241Y-39858345D01*
X67516677Y-39978922D01*
X67637254Y-40070358D01*
X67637258Y-40070361D01*
X67778035Y-40125877D01*
X67778034Y-40125877D01*
X67805994Y-40129234D01*
X67866498Y-40136500D01*
X67866501Y-40136500D01*
X68977699Y-40136500D01*
X68977702Y-40136500D01*
X69066164Y-40125877D01*
X69206942Y-40070361D01*
X69206947Y-40070356D01*
X69214455Y-40066136D01*
X69215537Y-40068061D01*
X69270748Y-40047079D01*
X69280515Y-40046700D01*
X69930074Y-40046700D01*
X69998195Y-40066702D01*
X70019169Y-40083604D01*
X70152395Y-40216829D01*
X70186420Y-40279141D01*
X70189300Y-40305925D01*
X70189300Y-40759348D01*
X70169298Y-40827469D01*
X70115642Y-40873962D01*
X70045368Y-40884066D01*
X69986597Y-40859311D01*
X69924241Y-40811464D01*
X69882884Y-40794333D01*
X69778160Y-40750955D01*
X69752291Y-40747550D01*
X69621400Y-40730318D01*
X69621399Y-40730318D01*
X69586138Y-40734960D01*
X69577906Y-40735500D01*
X69293966Y-40735500D01*
X69225845Y-40715498D01*
X69217831Y-40709896D01*
X69206946Y-40701641D01*
X69206941Y-40701638D01*
X69066164Y-40646122D01*
X69066165Y-40646122D01*
X68977705Y-40635500D01*
X68977702Y-40635500D01*
X67866498Y-40635500D01*
X67866494Y-40635500D01*
X67778035Y-40646122D01*
X67637258Y-40701638D01*
X67637254Y-40701641D01*
X67516677Y-40793077D01*
X67425241Y-40913654D01*
X67425240Y-40913656D01*
X67425239Y-40913657D01*
X67425239Y-40913658D01*
X67406513Y-40961144D01*
X67401815Y-40973057D01*
X67358216Y-41029090D01*
X67291245Y-41052657D01*
X67222165Y-41036275D01*
X67172907Y-40985146D01*
X67167385Y-40973057D01*
X67162687Y-40961144D01*
X67143961Y-40913658D01*
X67121585Y-40884151D01*
X67052522Y-40793077D01*
X66931945Y-40701641D01*
X66931941Y-40701638D01*
X66791164Y-40646122D01*
X66791165Y-40646122D01*
X66702705Y-40635500D01*
X66702702Y-40635500D01*
X65591498Y-40635500D01*
X65591494Y-40635500D01*
X65503035Y-40646122D01*
X65362258Y-40701638D01*
X65362253Y-40701641D01*
X65351369Y-40709896D01*
X65285005Y-40735121D01*
X65275234Y-40735500D01*
X65111525Y-40735500D01*
X65043404Y-40715498D01*
X65022430Y-40698595D01*
X64969957Y-40646122D01*
X64915367Y-40591532D01*
X64909940Y-40585344D01*
X64888282Y-40557118D01*
X64888280Y-40557117D01*
X64888280Y-40557116D01*
X64785318Y-40478111D01*
X64762841Y-40460864D01*
X64749892Y-40455500D01*
X64616760Y-40400355D01*
X64565121Y-40393557D01*
X64537537Y-40386691D01*
X64469484Y-40361309D01*
X64469486Y-40361309D01*
X64409873Y-40354900D01*
X64114135Y-40354900D01*
X64114114Y-40354902D01*
X64054519Y-40361308D01*
X64054518Y-40361308D01*
X63970531Y-40392633D01*
X63899715Y-40397697D01*
X63837403Y-40363671D01*
X63803379Y-40301359D01*
X63800500Y-40274577D01*
X63800500Y-38843494D01*
X63801040Y-38835262D01*
X63805682Y-38800000D01*
X63805682Y-38799999D01*
X63792259Y-38698039D01*
X63785044Y-38643238D01*
X63724536Y-38497159D01*
X63688493Y-38450186D01*
X63652455Y-38403220D01*
X63652448Y-38403212D01*
X63650217Y-38400304D01*
X63628282Y-38371718D01*
X63600064Y-38350065D01*
X63593865Y-38344629D01*
X63331195Y-38081960D01*
X63297170Y-38019647D01*
X63295081Y-38006960D01*
X63294660Y-38003217D01*
X63294364Y-38000587D01*
X63306625Y-37930657D01*
X63354746Y-37878457D01*
X63419574Y-37860500D01*
X64410985Y-37860500D01*
X64479106Y-37880502D01*
G37*
%TD.AperFunction*%
%TA.AperFunction,Conductor*%
G36*
X62279163Y-35045290D02*
G01*
X62323634Y-35100633D01*
X62324373Y-35102464D01*
X62374137Y-35228656D01*
X62374139Y-35228659D01*
X62463499Y-35346500D01*
X62524826Y-35393005D01*
X62581342Y-35435862D01*
X62642552Y-35460000D01*
X62718922Y-35490117D01*
X62718921Y-35490117D01*
X62742520Y-35492950D01*
X62805382Y-35500500D01*
X62805385Y-35500500D01*
X64214615Y-35500500D01*
X64214618Y-35500500D01*
X64301077Y-35490117D01*
X64438658Y-35435862D01*
X64471309Y-35411101D01*
X64537674Y-35385879D01*
X64547442Y-35385500D01*
X65154359Y-35385500D01*
X65222480Y-35405502D01*
X65268973Y-35459158D01*
X65279077Y-35529432D01*
X65273288Y-35553115D01*
X65227741Y-35683282D01*
X65214632Y-35720745D01*
X65196791Y-35879090D01*
X65195938Y-35886662D01*
X65168434Y-35952115D01*
X65159825Y-35961649D01*
X64908878Y-36212596D01*
X64846568Y-36246620D01*
X64819785Y-36249500D01*
X59379414Y-36249500D01*
X59313174Y-36247237D01*
X59270218Y-36257705D01*
X59263877Y-36258910D01*
X59220086Y-36264928D01*
X59220078Y-36264930D01*
X59203770Y-36272014D01*
X59183416Y-36278858D01*
X59172064Y-36281624D01*
X59166147Y-36283067D01*
X59166144Y-36283068D01*
X59127603Y-36304737D01*
X59121826Y-36307607D01*
X59081278Y-36325220D01*
X59067492Y-36336436D01*
X59049739Y-36348518D01*
X59034245Y-36357230D01*
X59034243Y-36357232D01*
X59002974Y-36388499D01*
X58998185Y-36392821D01*
X58963893Y-36420720D01*
X58963892Y-36420721D01*
X58953640Y-36435244D01*
X58939801Y-36451671D01*
X58575594Y-36815878D01*
X58513282Y-36849904D01*
X58442467Y-36844839D01*
X58385631Y-36802292D01*
X58360820Y-36735772D01*
X58360500Y-36726811D01*
X58360500Y-35666898D01*
X58351191Y-35589378D01*
X58349877Y-35578435D01*
X58307500Y-35470976D01*
X58294361Y-35437658D01*
X58286227Y-35426932D01*
X58261004Y-35360571D01*
X58275663Y-35291105D01*
X58297530Y-35261705D01*
X58494612Y-35064623D01*
X58556924Y-35030597D01*
X58627739Y-35035662D01*
X58684575Y-35078209D01*
X58690394Y-35086682D01*
X58700183Y-35102261D01*
X58700185Y-35102264D01*
X58827737Y-35229816D01*
X58827739Y-35229817D01*
X58980474Y-35325787D01*
X58980475Y-35325787D01*
X58980478Y-35325789D01*
X59150745Y-35385368D01*
X59330000Y-35405565D01*
X59401217Y-35397540D01*
X59471146Y-35409789D01*
X59504418Y-35433653D01*
X59719626Y-35648861D01*
X59725058Y-35655055D01*
X59737265Y-35670962D01*
X59746718Y-35683282D01*
X59828092Y-35745722D01*
X59872159Y-35779536D01*
X60018238Y-35840044D01*
X60065242Y-35846232D01*
X60092820Y-35853095D01*
X60162517Y-35879091D01*
X60222127Y-35885500D01*
X60517872Y-35885499D01*
X60577483Y-35879091D01*
X60619901Y-35863269D01*
X60647478Y-35856405D01*
X60771762Y-35840044D01*
X60917841Y-35779536D01*
X60961908Y-35745722D01*
X61043282Y-35683282D01*
X61064940Y-35655054D01*
X61070361Y-35648872D01*
X61581832Y-35137401D01*
X61644142Y-35103378D01*
X61670925Y-35100499D01*
X61933164Y-35100499D01*
X61947347Y-35099383D01*
X61968627Y-35097709D01*
X62120390Y-35053618D01*
X62143018Y-35040235D01*
X62211831Y-35022775D01*
X62279163Y-35045290D01*
G37*
%TD.AperFunction*%
%TA.AperFunction,Conductor*%
G36*
X88176621Y-19980002D02*
G01*
X88223114Y-20033658D01*
X88234500Y-20086000D01*
X88234500Y-48274000D01*
X88214498Y-48342121D01*
X88160842Y-48388614D01*
X88108500Y-48400000D01*
X44127691Y-48400000D01*
X44059570Y-48379998D01*
X44013077Y-48326342D01*
X44001691Y-48273956D01*
X44004396Y-40580000D01*
X46474318Y-40580000D01*
X46479500Y-40619361D01*
X46494955Y-40736760D01*
X46545718Y-40859311D01*
X46555464Y-40882841D01*
X46567920Y-40899074D01*
X46645746Y-41000500D01*
X46651718Y-41008282D01*
X46679944Y-41029940D01*
X46686132Y-41035367D01*
X47361579Y-41710814D01*
X48022595Y-42371830D01*
X48056621Y-42434142D01*
X48059500Y-42460925D01*
X48059500Y-42953105D01*
X48070122Y-43041564D01*
X48125638Y-43182341D01*
X48129864Y-43189856D01*
X48128245Y-43190765D01*
X48149666Y-43247141D01*
X48134999Y-43316606D01*
X48098105Y-43358834D01*
X48004126Y-43427113D01*
X47877466Y-43567783D01*
X47877465Y-43567785D01*
X47782822Y-43731713D01*
X47782818Y-43731721D01*
X47724325Y-43911743D01*
X47704540Y-44100000D01*
X47724325Y-44288256D01*
X47782818Y-44468278D01*
X47782822Y-44468286D01*
X47877465Y-44632214D01*
X47877466Y-44632216D01*
X48004126Y-44772886D01*
X48157267Y-44884149D01*
X48157267Y-44884150D01*
X48204612Y-44905229D01*
X48330197Y-44961144D01*
X48515354Y-45000500D01*
X48704646Y-45000500D01*
X48889803Y-44961144D01*
X49062730Y-44884151D01*
X49062730Y-44884150D01*
X49062732Y-44884150D01*
X49062732Y-44884149D01*
X49215871Y-44772888D01*
X49342533Y-44632216D01*
X49356240Y-44608474D01*
X49416848Y-44503500D01*
X49468230Y-44454507D01*
X49525967Y-44440500D01*
X49716533Y-44440500D01*
X49760564Y-44448444D01*
X49780121Y-44455738D01*
X49802514Y-44464090D01*
X49802517Y-44464091D01*
X49862127Y-44470500D01*
X50157872Y-44470499D01*
X50217483Y-44464091D01*
X50352331Y-44413796D01*
X50467546Y-44327546D01*
X50553796Y-44212331D01*
X50604091Y-44077483D01*
X50610500Y-44017873D01*
X50610500Y-43883494D01*
X50611040Y-43875262D01*
X50615682Y-43840000D01*
X50615682Y-43839999D01*
X50611040Y-43804737D01*
X50610500Y-43796505D01*
X50610500Y-43445449D01*
X50630502Y-43377328D01*
X50684158Y-43330835D01*
X50754432Y-43320731D01*
X50812634Y-43345052D01*
X50877654Y-43394358D01*
X50877658Y-43394361D01*
X51018435Y-43449877D01*
X51018434Y-43449877D01*
X51046394Y-43453234D01*
X51106898Y-43460500D01*
X51106901Y-43460500D01*
X51493099Y-43460500D01*
X51493102Y-43460500D01*
X51581564Y-43449877D01*
X51722342Y-43394361D01*
X51829181Y-43313341D01*
X51895543Y-43288119D01*
X51965010Y-43302779D01*
X52015523Y-43352668D01*
X52021719Y-43365516D01*
X52033666Y-43394358D01*
X52045463Y-43422839D01*
X52045465Y-43422842D01*
X52140241Y-43546358D01*
X52141718Y-43548282D01*
X52169944Y-43569940D01*
X52176132Y-43575367D01*
X53373651Y-44772886D01*
X54405170Y-45804405D01*
X54439196Y-45866717D01*
X54434131Y-45937532D01*
X54391584Y-45994368D01*
X54325064Y-46019179D01*
X54316075Y-46019500D01*
X54261354Y-46019500D01*
X54076199Y-46058855D01*
X53903267Y-46135849D01*
X53903267Y-46135850D01*
X53750126Y-46247113D01*
X53623466Y-46387783D01*
X53623465Y-46387785D01*
X53615115Y-46402247D01*
X53563730Y-46451237D01*
X53494015Y-46464670D01*
X53428106Y-46438280D01*
X53396878Y-46402238D01*
X53388533Y-46387784D01*
X53374063Y-46371713D01*
X53261873Y-46247113D01*
X53108732Y-46135850D01*
X53108732Y-46135849D01*
X52983145Y-46079934D01*
X52935803Y-46058856D01*
X52935801Y-46058855D01*
X52935800Y-46058855D01*
X52750646Y-46019500D01*
X52561354Y-46019500D01*
X52376199Y-46058855D01*
X52203267Y-46135849D01*
X52203267Y-46135850D01*
X52050126Y-46247113D01*
X51923466Y-46387783D01*
X51923465Y-46387785D01*
X51828822Y-46551713D01*
X51828818Y-46551721D01*
X51770325Y-46731743D01*
X51750540Y-46920000D01*
X51770325Y-47108256D01*
X51828818Y-47288278D01*
X51828822Y-47288286D01*
X51923465Y-47452214D01*
X51923466Y-47452216D01*
X52050126Y-47592886D01*
X52203267Y-47704149D01*
X52203267Y-47704150D01*
X52250612Y-47725229D01*
X52376197Y-47781144D01*
X52561354Y-47820500D01*
X52750646Y-47820500D01*
X52935803Y-47781144D01*
X53108730Y-47704151D01*
X53108730Y-47704150D01*
X53108732Y-47704150D01*
X53108732Y-47704149D01*
X53261871Y-47592888D01*
X53388533Y-47452216D01*
X53396879Y-47437759D01*
X53448263Y-47388765D01*
X53517976Y-47375328D01*
X53583887Y-47401715D01*
X53615120Y-47437759D01*
X53623467Y-47452217D01*
X53750126Y-47592886D01*
X53903267Y-47704149D01*
X53903267Y-47704150D01*
X53950612Y-47725229D01*
X54076197Y-47781144D01*
X54261354Y-47820500D01*
X54450646Y-47820500D01*
X54635803Y-47781144D01*
X54808730Y-47704151D01*
X54808730Y-47704150D01*
X54808732Y-47704150D01*
X54808732Y-47704149D01*
X54961871Y-47592888D01*
X55088533Y-47452216D01*
X55183179Y-47288284D01*
X55188401Y-47272214D01*
X55241674Y-47108256D01*
X55244381Y-47082500D01*
X55261460Y-46920000D01*
X55241674Y-46731744D01*
X55241674Y-46731743D01*
X55183181Y-46551721D01*
X55183177Y-46551713D01*
X55088534Y-46387785D01*
X55088533Y-46387783D01*
X54983210Y-46270810D01*
X54952492Y-46206803D01*
X54961257Y-46136349D01*
X55006720Y-46081818D01*
X55074447Y-46060523D01*
X55076846Y-46060500D01*
X59827817Y-46060500D01*
X59895938Y-46080502D01*
X59942431Y-46134158D01*
X59952535Y-46204432D01*
X59946746Y-46228115D01*
X59926957Y-46284670D01*
X59920632Y-46302745D01*
X59900435Y-46482000D01*
X59920632Y-46661255D01*
X59920633Y-46661257D01*
X59980211Y-46831522D01*
X59980212Y-46831525D01*
X60076182Y-46984260D01*
X60076183Y-46984262D01*
X60203737Y-47111816D01*
X60203739Y-47111817D01*
X60356474Y-47207787D01*
X60356475Y-47207787D01*
X60356478Y-47207789D01*
X60526745Y-47267368D01*
X60706000Y-47287565D01*
X60885255Y-47267368D01*
X61055522Y-47207789D01*
X61208262Y-47111816D01*
X61208268Y-47111809D01*
X61210550Y-47109991D01*
X61212314Y-47109270D01*
X61214254Y-47108052D01*
X61214467Y-47108391D01*
X61276280Y-47083155D01*
X61289113Y-47082500D01*
X64635648Y-47082500D01*
X64643880Y-47083040D01*
X64679141Y-47087682D01*
X64679142Y-47087682D01*
X64835904Y-47067044D01*
X64835911Y-47067040D01*
X64840462Y-47065822D01*
X64911439Y-47067508D01*
X64970236Y-47107299D01*
X64982198Y-47124527D01*
X65067465Y-47272214D01*
X65067466Y-47272216D01*
X65194126Y-47412886D01*
X65347267Y-47524149D01*
X65347267Y-47524150D01*
X65394612Y-47545229D01*
X65520197Y-47601144D01*
X65705354Y-47640500D01*
X65894646Y-47640500D01*
X66079803Y-47601144D01*
X66252730Y-47524151D01*
X66252730Y-47524150D01*
X66252732Y-47524150D01*
X66252732Y-47524149D01*
X66405871Y-47412888D01*
X66532533Y-47272216D01*
X66540877Y-47257762D01*
X66592257Y-47208767D01*
X66661970Y-47195328D01*
X66727883Y-47221712D01*
X66759116Y-47257755D01*
X66767462Y-47272210D01*
X66767466Y-47272216D01*
X66894126Y-47412886D01*
X67047267Y-47524149D01*
X67047267Y-47524150D01*
X67094612Y-47545229D01*
X67220197Y-47601144D01*
X67405354Y-47640500D01*
X67594646Y-47640500D01*
X67779803Y-47601144D01*
X67952730Y-47524151D01*
X67952730Y-47524150D01*
X67952732Y-47524150D01*
X67952732Y-47524149D01*
X68105871Y-47412888D01*
X68232533Y-47272216D01*
X68327179Y-47108284D01*
X68385674Y-46928256D01*
X68405460Y-46740000D01*
X68405460Y-46739999D01*
X73784540Y-46739999D01*
X73804325Y-46928256D01*
X73862818Y-47108278D01*
X73862822Y-47108286D01*
X73957465Y-47272214D01*
X73957466Y-47272216D01*
X74084126Y-47412886D01*
X74237267Y-47524149D01*
X74237267Y-47524150D01*
X74284612Y-47545229D01*
X74410197Y-47601144D01*
X74595354Y-47640500D01*
X74784646Y-47640500D01*
X74969803Y-47601144D01*
X75142730Y-47524151D01*
X75142730Y-47524150D01*
X75142732Y-47524150D01*
X75142732Y-47524149D01*
X75295871Y-47412888D01*
X75422533Y-47272216D01*
X75427674Y-47263310D01*
X75430880Y-47257759D01*
X75482263Y-47208765D01*
X75551976Y-47195328D01*
X75617887Y-47221715D01*
X75649120Y-47257759D01*
X75657467Y-47272217D01*
X75784126Y-47412886D01*
X75937267Y-47524149D01*
X75937267Y-47524150D01*
X75984612Y-47545229D01*
X76110197Y-47601144D01*
X76295354Y-47640500D01*
X76484646Y-47640500D01*
X76669803Y-47601144D01*
X76842730Y-47524151D01*
X76842730Y-47524150D01*
X76842732Y-47524150D01*
X76842732Y-47524149D01*
X76995871Y-47412888D01*
X77122533Y-47272216D01*
X77217179Y-47108284D01*
X77275674Y-46928256D01*
X77295460Y-46740000D01*
X77295460Y-46739999D01*
X80444540Y-46739999D01*
X80464325Y-46928256D01*
X80522818Y-47108278D01*
X80522822Y-47108286D01*
X80617465Y-47272214D01*
X80617466Y-47272216D01*
X80744126Y-47412886D01*
X80897267Y-47524149D01*
X80897267Y-47524150D01*
X80944612Y-47545229D01*
X81070197Y-47601144D01*
X81255354Y-47640500D01*
X81444646Y-47640500D01*
X81629803Y-47601144D01*
X81802730Y-47524151D01*
X81802730Y-47524150D01*
X81802732Y-47524150D01*
X81802732Y-47524149D01*
X81955871Y-47412888D01*
X82082533Y-47272216D01*
X82087674Y-47263310D01*
X82090880Y-47257759D01*
X82142263Y-47208765D01*
X82211976Y-47195328D01*
X82277887Y-47221715D01*
X82309120Y-47257759D01*
X82317467Y-47272217D01*
X82444126Y-47412886D01*
X82597267Y-47524149D01*
X82597267Y-47524150D01*
X82644612Y-47545229D01*
X82770197Y-47601144D01*
X82955354Y-47640500D01*
X83144646Y-47640500D01*
X83329803Y-47601144D01*
X83502730Y-47524151D01*
X83502730Y-47524150D01*
X83502732Y-47524150D01*
X83502732Y-47524149D01*
X83655871Y-47412888D01*
X83782533Y-47272216D01*
X83877179Y-47108284D01*
X83935674Y-46928256D01*
X83955460Y-46740000D01*
X83935674Y-46551744D01*
X83913013Y-46482000D01*
X83877181Y-46371721D01*
X83877177Y-46371713D01*
X83782534Y-46207785D01*
X83782533Y-46207783D01*
X83655873Y-46067113D01*
X83502732Y-45955850D01*
X83502732Y-45955849D01*
X83377145Y-45899934D01*
X83329803Y-45878856D01*
X83329801Y-45878855D01*
X83329800Y-45878855D01*
X83144646Y-45839500D01*
X82955354Y-45839500D01*
X82770199Y-45878855D01*
X82597267Y-45955849D01*
X82597267Y-45955850D01*
X82444126Y-46067113D01*
X82317466Y-46207783D01*
X82317465Y-46207785D01*
X82309118Y-46222243D01*
X82257735Y-46271235D01*
X82188021Y-46284670D01*
X82122111Y-46258283D01*
X82090882Y-46222243D01*
X82082534Y-46207785D01*
X82082533Y-46207783D01*
X81955873Y-46067113D01*
X81802732Y-45955850D01*
X81802732Y-45955849D01*
X81677145Y-45899934D01*
X81629803Y-45878856D01*
X81629801Y-45878855D01*
X81629800Y-45878855D01*
X81444646Y-45839500D01*
X81255354Y-45839500D01*
X81070199Y-45878855D01*
X80897267Y-45955849D01*
X80897267Y-45955850D01*
X80744126Y-46067113D01*
X80617466Y-46207783D01*
X80617465Y-46207785D01*
X80522822Y-46371713D01*
X80522818Y-46371721D01*
X80464325Y-46551743D01*
X80444540Y-46739999D01*
X77295460Y-46739999D01*
X77275674Y-46551744D01*
X77253013Y-46482000D01*
X77217181Y-46371721D01*
X77217177Y-46371713D01*
X77122534Y-46207785D01*
X77122533Y-46207783D01*
X76995873Y-46067113D01*
X76842732Y-45955850D01*
X76842732Y-45955849D01*
X76717145Y-45899934D01*
X76669803Y-45878856D01*
X76669801Y-45878855D01*
X76669800Y-45878855D01*
X76484646Y-45839500D01*
X76295354Y-45839500D01*
X76295351Y-45839500D01*
X76231167Y-45853142D01*
X76160377Y-45847739D01*
X76103745Y-45804922D01*
X76079252Y-45738284D01*
X76094674Y-45668983D01*
X76137936Y-45623207D01*
X76194262Y-45587816D01*
X76321816Y-45460262D01*
X76417789Y-45307522D01*
X76477368Y-45137255D01*
X76487083Y-45051025D01*
X76514586Y-44985573D01*
X76523186Y-44976047D01*
X77869039Y-43630194D01*
X77931349Y-43596170D01*
X77944026Y-43594083D01*
X78030247Y-43584369D01*
X78030247Y-43584368D01*
X78030255Y-43584368D01*
X78200522Y-43524789D01*
X78353262Y-43428816D01*
X78480816Y-43301262D01*
X78576789Y-43148522D01*
X78636368Y-42978255D01*
X78656565Y-42799000D01*
X78636368Y-42619745D01*
X78576789Y-42449478D01*
X78576787Y-42449475D01*
X78576787Y-42449474D01*
X78480817Y-42296739D01*
X78480816Y-42296737D01*
X78353262Y-42169183D01*
X78353260Y-42169182D01*
X78200525Y-42073212D01*
X78200522Y-42073211D01*
X78147889Y-42054794D01*
X78030255Y-42013632D01*
X77851000Y-41993435D01*
X77671745Y-42013632D01*
X77671742Y-42013632D01*
X77671742Y-42013633D01*
X77501477Y-42073211D01*
X77501474Y-42073212D01*
X77348739Y-42169182D01*
X77348737Y-42169183D01*
X77221183Y-42296737D01*
X77221182Y-42296739D01*
X77125212Y-42449474D01*
X77125211Y-42449477D01*
X77071185Y-42603876D01*
X77065632Y-42619745D01*
X77058897Y-42679516D01*
X77055916Y-42705974D01*
X77028411Y-42771427D01*
X77019803Y-42780960D01*
X75673960Y-44126803D01*
X75611648Y-44160829D01*
X75598974Y-44162916D01*
X75572516Y-44165897D01*
X75512745Y-44172632D01*
X75512742Y-44172632D01*
X75512741Y-44172633D01*
X75342477Y-44232211D01*
X75342474Y-44232212D01*
X75189739Y-44328182D01*
X75189737Y-44328183D01*
X75062183Y-44455737D01*
X75062182Y-44455739D01*
X74966212Y-44608474D01*
X74966211Y-44608477D01*
X74908682Y-44772886D01*
X74906632Y-44778745D01*
X74886435Y-44958000D01*
X74906632Y-45137255D01*
X74953318Y-45270675D01*
X74966211Y-45307522D01*
X74966212Y-45307525D01*
X75062182Y-45460260D01*
X75062183Y-45460262D01*
X75189737Y-45587816D01*
X75189739Y-45587817D01*
X75342474Y-45683787D01*
X75342475Y-45683787D01*
X75342478Y-45683789D01*
X75512745Y-45743368D01*
X75692000Y-45763565D01*
X75821153Y-45749013D01*
X75891079Y-45761261D01*
X75943288Y-45809373D01*
X75961197Y-45878074D01*
X75939121Y-45945551D01*
X75909318Y-45976156D01*
X75784124Y-46067115D01*
X75657466Y-46207783D01*
X75657465Y-46207785D01*
X75649118Y-46222243D01*
X75597735Y-46271235D01*
X75528021Y-46284670D01*
X75462111Y-46258283D01*
X75430882Y-46222243D01*
X75422534Y-46207785D01*
X75422533Y-46207783D01*
X75295873Y-46067113D01*
X75142732Y-45955850D01*
X75142732Y-45955849D01*
X75017145Y-45899934D01*
X74969803Y-45878856D01*
X74969801Y-45878855D01*
X74969800Y-45878855D01*
X74784646Y-45839500D01*
X74595354Y-45839500D01*
X74410199Y-45878855D01*
X74237267Y-45955849D01*
X74237267Y-45955850D01*
X74084126Y-46067113D01*
X73957466Y-46207783D01*
X73957465Y-46207785D01*
X73862822Y-46371713D01*
X73862818Y-46371721D01*
X73804325Y-46551743D01*
X73784540Y-46739999D01*
X68405460Y-46739999D01*
X68385674Y-46551744D01*
X68363013Y-46482000D01*
X68327181Y-46371721D01*
X68327177Y-46371713D01*
X68232534Y-46207785D01*
X68232533Y-46207783D01*
X68105873Y-46067113D01*
X67952732Y-45955850D01*
X67952732Y-45955849D01*
X67827145Y-45899934D01*
X67779803Y-45878856D01*
X67779801Y-45878855D01*
X67779800Y-45878855D01*
X67594646Y-45839500D01*
X67442979Y-45839500D01*
X67374858Y-45819498D01*
X67328365Y-45765842D01*
X67318261Y-45695568D01*
X67324049Y-45671886D01*
X67325065Y-45668983D01*
X67333368Y-45645255D01*
X67353565Y-45466000D01*
X67339436Y-45340607D01*
X67351687Y-45270675D01*
X67399800Y-45218467D01*
X67464645Y-45200500D01*
X70456506Y-45200500D01*
X70464738Y-45201040D01*
X70499999Y-45205682D01*
X70500000Y-45205682D01*
X70656762Y-45185044D01*
X70802841Y-45124536D01*
X70882756Y-45063215D01*
X70928282Y-45028282D01*
X70949946Y-45000046D01*
X70955362Y-44993871D01*
X72253557Y-43695676D01*
X72315867Y-43661652D01*
X72356752Y-43659565D01*
X72410000Y-43665565D01*
X72589255Y-43645368D01*
X72759522Y-43585789D01*
X72912262Y-43489816D01*
X73039816Y-43362262D01*
X73135789Y-43209522D01*
X73195368Y-43039255D01*
X73215565Y-42860000D01*
X73195368Y-42680745D01*
X73195365Y-42680737D01*
X73193997Y-42674740D01*
X73198337Y-42603876D01*
X73240301Y-42546609D01*
X73306564Y-42521119D01*
X73316837Y-42520700D01*
X74586306Y-42520700D01*
X74594538Y-42521240D01*
X74629799Y-42525882D01*
X74629800Y-42525882D01*
X74786562Y-42505244D01*
X74932641Y-42444736D01*
X74968481Y-42417235D01*
X75058082Y-42348482D01*
X75079740Y-42320254D01*
X75085161Y-42314072D01*
X76811832Y-40587402D01*
X76874142Y-40553379D01*
X76900925Y-40550500D01*
X80890922Y-40550500D01*
X80890925Y-40550500D01*
X80936544Y-40544737D01*
X81013053Y-40535072D01*
X81013053Y-40535071D01*
X81013058Y-40535071D01*
X81078027Y-40509347D01*
X81124410Y-40500500D01*
X81856506Y-40500500D01*
X81864738Y-40501040D01*
X81899999Y-40505682D01*
X81900000Y-40505682D01*
X82056762Y-40485044D01*
X82202841Y-40424536D01*
X82219694Y-40411604D01*
X82328282Y-40328282D01*
X82349940Y-40300054D01*
X82355361Y-40293872D01*
X83106367Y-39542866D01*
X84888173Y-39542866D01*
X84896809Y-39702158D01*
X84898365Y-39730845D01*
X84898366Y-39730856D01*
X84948726Y-39912236D01*
X84948729Y-39912244D01*
X85036911Y-40078572D01*
X85158786Y-40222055D01*
X85308657Y-40335983D01*
X85479515Y-40415031D01*
X85663371Y-40455500D01*
X85663374Y-40455500D01*
X86964423Y-40455500D01*
X86964431Y-40455500D01*
X86975877Y-40454255D01*
X87104647Y-40440251D01*
X87104648Y-40440250D01*
X87104654Y-40440250D01*
X87151292Y-40424536D01*
X87283054Y-40380140D01*
X87283053Y-40380140D01*
X87283057Y-40380139D01*
X87444367Y-40283082D01*
X87581041Y-40153617D01*
X87686689Y-39997798D01*
X87756370Y-39822911D01*
X87786827Y-39637134D01*
X87776635Y-39449152D01*
X87769106Y-39422036D01*
X87726273Y-39267763D01*
X87726272Y-39267762D01*
X87726271Y-39267756D01*
X87638089Y-39101428D01*
X87516214Y-38957945D01*
X87501242Y-38946564D01*
X87366343Y-38844017D01*
X87366340Y-38844015D01*
X87195484Y-38764968D01*
X87011635Y-38724501D01*
X87011632Y-38724500D01*
X87011629Y-38724500D01*
X85710569Y-38724500D01*
X85710559Y-38724500D01*
X85570352Y-38739748D01*
X85570339Y-38739751D01*
X85391945Y-38799859D01*
X85391944Y-38799860D01*
X85230635Y-38896916D01*
X85230626Y-38896924D01*
X85093961Y-39026380D01*
X84988308Y-39182205D01*
X84918630Y-39357086D01*
X84918629Y-39357088D01*
X84888396Y-39541505D01*
X84888173Y-39542866D01*
X83106367Y-39542866D01*
X83936830Y-38712404D01*
X83999142Y-38678378D01*
X84025925Y-38675499D01*
X84404016Y-38675499D01*
X84404018Y-38675499D01*
X84497804Y-38660646D01*
X84610842Y-38603050D01*
X84700550Y-38513342D01*
X84758146Y-38400304D01*
X84773000Y-38306519D01*
X84772999Y-37813482D01*
X84768884Y-37787499D01*
X84763691Y-37754709D01*
X84763691Y-37721516D01*
X85037000Y-37721516D01*
X85051853Y-37815302D01*
X85109449Y-37928342D01*
X85199157Y-38018050D01*
X85221357Y-38029361D01*
X85312196Y-38075646D01*
X85405981Y-38090500D01*
X87269018Y-38090499D01*
X87362804Y-38075646D01*
X87475842Y-38018050D01*
X87565550Y-37928342D01*
X87623146Y-37815304D01*
X87638000Y-37721519D01*
X87637999Y-35858482D01*
X87623146Y-35764696D01*
X87591534Y-35702654D01*
X87565550Y-35651657D01*
X87475842Y-35561949D01*
X87387197Y-35516783D01*
X87362804Y-35504354D01*
X87269019Y-35489500D01*
X87269015Y-35489500D01*
X85405983Y-35489500D01*
X85312197Y-35504353D01*
X85199157Y-35561949D01*
X85109449Y-35651657D01*
X85074248Y-35720745D01*
X85051854Y-35764696D01*
X85037000Y-35858481D01*
X85037000Y-35858484D01*
X85037000Y-37721516D01*
X84763691Y-37721516D01*
X84763691Y-37715288D01*
X84773000Y-37656519D01*
X84772999Y-37163482D01*
X84763691Y-37104709D01*
X84763691Y-37065288D01*
X84773000Y-37006519D01*
X84772999Y-36513482D01*
X84758146Y-36419696D01*
X84710008Y-36325220D01*
X84700550Y-36306657D01*
X84610842Y-36216949D01*
X84523791Y-36172595D01*
X84497804Y-36159354D01*
X84404019Y-36144500D01*
X84404015Y-36144500D01*
X82950983Y-36144500D01*
X82857197Y-36159353D01*
X82837238Y-36169523D01*
X82802583Y-36187181D01*
X82785732Y-36195767D01*
X82728529Y-36209500D01*
X82673058Y-36209500D01*
X82604937Y-36189498D01*
X82583963Y-36172595D01*
X82580894Y-36169526D01*
X82580891Y-36169524D01*
X82580890Y-36169523D01*
X82456799Y-36091551D01*
X82437689Y-36079543D01*
X82328485Y-36041331D01*
X82278059Y-36023687D01*
X82110000Y-36004751D01*
X82109999Y-36004751D01*
X81941940Y-36023687D01*
X81857766Y-36053141D01*
X81786862Y-36056759D01*
X81725257Y-36021470D01*
X81699743Y-35982429D01*
X81643703Y-35847137D01*
X81550626Y-35707838D01*
X81550621Y-35707832D01*
X81432167Y-35589378D01*
X81432161Y-35589373D01*
X81323522Y-35516783D01*
X81292863Y-35496297D01*
X81157058Y-35440044D01*
X81138085Y-35432185D01*
X81138083Y-35432184D01*
X81138082Y-35432184D01*
X81025494Y-35409789D01*
X80973769Y-35399500D01*
X80973767Y-35399500D01*
X80960557Y-35399500D01*
X80953444Y-35399098D01*
X80952525Y-35398993D01*
X80938160Y-35399106D01*
X80937879Y-35399025D01*
X80884220Y-35399500D01*
X80823157Y-35399500D01*
X80821862Y-35399657D01*
X80814840Y-35400112D01*
X80803333Y-35400214D01*
X80802974Y-35400218D01*
X80640841Y-35433128D01*
X80487998Y-35496437D01*
X80350093Y-35587803D01*
X80350078Y-35587816D01*
X80232191Y-35703869D01*
X80232186Y-35703875D01*
X80138670Y-35840333D01*
X80138667Y-35840339D01*
X80072971Y-35992170D01*
X80059001Y-36055547D01*
X80058142Y-36058981D01*
X80042382Y-36115236D01*
X80042382Y-36117579D01*
X80040971Y-36130598D01*
X80041569Y-36130655D01*
X80040845Y-36138244D01*
X80042382Y-36197969D01*
X80042382Y-36256902D01*
X80022380Y-36325023D01*
X80005476Y-36345999D01*
X79972981Y-36378493D01*
X79968191Y-36382816D01*
X79933893Y-36410720D01*
X79933891Y-36410722D01*
X79923639Y-36425246D01*
X79909799Y-36441676D01*
X79693878Y-36657596D01*
X79631569Y-36691620D01*
X79604785Y-36694500D01*
X78316894Y-36694500D01*
X78228435Y-36705122D01*
X78087658Y-36760638D01*
X78087654Y-36760641D01*
X77967077Y-36852077D01*
X77875641Y-36972654D01*
X77875638Y-36972658D01*
X77820122Y-37113435D01*
X77809500Y-37201894D01*
X77809500Y-37588105D01*
X77820122Y-37676564D01*
X77875638Y-37817341D01*
X77875641Y-37817345D01*
X77967079Y-37937924D01*
X77970060Y-37940905D01*
X77971913Y-37944298D01*
X77972285Y-37944789D01*
X77972211Y-37944844D01*
X78004086Y-38003217D01*
X77999021Y-38074032D01*
X77970060Y-38119095D01*
X77967079Y-38122075D01*
X77875641Y-38242654D01*
X77875638Y-38242658D01*
X77820122Y-38383435D01*
X77809500Y-38471894D01*
X77809500Y-38858105D01*
X77820122Y-38946564D01*
X77871669Y-39077276D01*
X77878052Y-39147985D01*
X77845194Y-39210920D01*
X77783526Y-39246100D01*
X77754454Y-39249500D01*
X76609075Y-39249500D01*
X76609072Y-39249500D01*
X76609059Y-39249501D01*
X76486946Y-39264927D01*
X76486941Y-39264929D01*
X76334133Y-39325429D01*
X76334126Y-39325433D01*
X76201164Y-39422035D01*
X76201163Y-39422036D01*
X76096400Y-39548673D01*
X76056263Y-39633967D01*
X76031350Y-39669413D01*
X75410629Y-40290134D01*
X75348317Y-40324160D01*
X75277502Y-40319095D01*
X75220666Y-40276548D01*
X75195855Y-40210028D01*
X75196223Y-40187878D01*
X75205460Y-40100000D01*
X75185674Y-39911744D01*
X75177908Y-39887842D01*
X75127181Y-39731721D01*
X75127177Y-39731713D01*
X75110112Y-39702156D01*
X75072571Y-39637132D01*
X75032534Y-39567785D01*
X75032533Y-39567783D01*
X74905873Y-39427113D01*
X74905872Y-39427112D01*
X74867601Y-39399306D01*
X74824248Y-39343083D01*
X74818173Y-39272347D01*
X74848306Y-39215237D01*
X74847715Y-39214789D01*
X74850439Y-39211196D01*
X74851305Y-39209556D01*
X74852574Y-39208269D01*
X74852913Y-39207928D01*
X74852922Y-39207922D01*
X74944361Y-39087342D01*
X74999877Y-38946564D01*
X75010500Y-38858102D01*
X75010500Y-38471898D01*
X75001870Y-38400039D01*
X74999877Y-38383435D01*
X74944361Y-38242658D01*
X74944358Y-38242654D01*
X74852920Y-38122075D01*
X74849940Y-38119095D01*
X74848086Y-38115701D01*
X74847715Y-38115211D01*
X74847788Y-38115155D01*
X74815914Y-38056783D01*
X74820979Y-37985968D01*
X74849940Y-37940905D01*
X74852920Y-37937924D01*
X74858431Y-37930657D01*
X74944361Y-37817342D01*
X74999877Y-37676564D01*
X75010500Y-37588102D01*
X75010500Y-37201898D01*
X74999877Y-37113436D01*
X74996435Y-37104709D01*
X74944361Y-36972658D01*
X74944358Y-36972654D01*
X74852920Y-36852075D01*
X74849940Y-36849095D01*
X74848086Y-36845701D01*
X74847715Y-36845211D01*
X74847788Y-36845155D01*
X74815914Y-36786783D01*
X74820979Y-36715968D01*
X74849940Y-36670905D01*
X74852920Y-36667924D01*
X74860753Y-36657595D01*
X74944361Y-36547342D01*
X74999877Y-36406564D01*
X75010500Y-36318102D01*
X75010500Y-35931898D01*
X75000437Y-35848099D01*
X74999877Y-35843435D01*
X74944361Y-35702658D01*
X74944358Y-35702654D01*
X74852920Y-35582075D01*
X74849940Y-35579095D01*
X74848086Y-35575701D01*
X74847715Y-35575211D01*
X74847788Y-35575155D01*
X74815914Y-35516783D01*
X74820979Y-35445968D01*
X74849940Y-35400905D01*
X74852920Y-35397924D01*
X74852922Y-35397922D01*
X74944361Y-35277342D01*
X74999877Y-35136564D01*
X75010500Y-35048102D01*
X75010500Y-34661898D01*
X74999877Y-34573436D01*
X74994153Y-34558922D01*
X74944361Y-34432658D01*
X74944358Y-34432654D01*
X74868511Y-34332634D01*
X74843287Y-34266269D01*
X74857948Y-34196802D01*
X74907837Y-34146289D01*
X74968908Y-34130500D01*
X76110603Y-34130500D01*
X76176826Y-34132762D01*
X76202730Y-34126448D01*
X76219772Y-34122296D01*
X76226116Y-34121090D01*
X76231444Y-34120357D01*
X76269920Y-34115070D01*
X76286225Y-34107986D01*
X76306590Y-34101138D01*
X76323852Y-34096933D01*
X76362402Y-34075256D01*
X76368167Y-34072394D01*
X76408720Y-34054780D01*
X76422506Y-34043563D01*
X76440264Y-34031477D01*
X76455759Y-34022766D01*
X76487033Y-33991490D01*
X76491805Y-33987184D01*
X76526108Y-33959278D01*
X76536360Y-33944752D01*
X76550197Y-33928326D01*
X76615657Y-33862866D01*
X84888173Y-33862866D01*
X84897970Y-34043571D01*
X84898365Y-34050845D01*
X84898366Y-34050856D01*
X84948726Y-34232236D01*
X84948729Y-34232244D01*
X85036911Y-34398572D01*
X85158786Y-34542055D01*
X85267241Y-34624500D01*
X85308656Y-34655982D01*
X85308659Y-34655984D01*
X85404098Y-34700139D01*
X85479515Y-34735031D01*
X85663371Y-34775500D01*
X85663374Y-34775500D01*
X86964423Y-34775500D01*
X86964431Y-34775500D01*
X86975877Y-34774255D01*
X87104647Y-34760251D01*
X87104648Y-34760250D01*
X87104654Y-34760250D01*
X87283057Y-34700139D01*
X87444367Y-34603082D01*
X87581041Y-34473617D01*
X87686689Y-34317798D01*
X87688442Y-34313400D01*
X87745682Y-34169735D01*
X87756370Y-34142911D01*
X87786827Y-33957134D01*
X87776635Y-33769152D01*
X87771714Y-33751429D01*
X87726273Y-33587763D01*
X87726272Y-33587762D01*
X87726271Y-33587756D01*
X87638089Y-33421428D01*
X87516214Y-33277945D01*
X87366343Y-33164017D01*
X87366340Y-33164015D01*
X87195484Y-33084968D01*
X87011635Y-33044501D01*
X87011632Y-33044500D01*
X87011629Y-33044500D01*
X85710569Y-33044500D01*
X85710559Y-33044500D01*
X85570352Y-33059748D01*
X85570339Y-33059751D01*
X85391945Y-33119859D01*
X85391944Y-33119860D01*
X85230635Y-33216916D01*
X85230626Y-33216924D01*
X85093961Y-33346380D01*
X84988308Y-33502205D01*
X84918630Y-33677086D01*
X84918629Y-33677088D01*
X84895024Y-33821077D01*
X84888173Y-33862866D01*
X76615657Y-33862866D01*
X78381119Y-32097405D01*
X78443431Y-32063379D01*
X78470214Y-32060500D01*
X78703099Y-32060500D01*
X78703102Y-32060500D01*
X78791564Y-32049877D01*
X78932342Y-31994361D01*
X79052922Y-31902922D01*
X79144361Y-31782342D01*
X79199877Y-31641564D01*
X79210500Y-31553102D01*
X79210500Y-30166898D01*
X79199877Y-30078436D01*
X79192795Y-30060478D01*
X79144361Y-29937658D01*
X79144358Y-29937654D01*
X79052922Y-29817077D01*
X78932345Y-29725641D01*
X78932341Y-29725638D01*
X78791564Y-29670122D01*
X78791565Y-29670122D01*
X78703105Y-29659500D01*
X78703102Y-29659500D01*
X78316898Y-29659500D01*
X78316894Y-29659500D01*
X78228435Y-29670122D01*
X78087658Y-29725638D01*
X78042634Y-29759782D01*
X77976269Y-29785005D01*
X77906802Y-29770344D01*
X77856289Y-29720455D01*
X77840500Y-29659384D01*
X77840500Y-29483494D01*
X77841040Y-29475262D01*
X77845682Y-29440000D01*
X77845682Y-29439999D01*
X77825044Y-29283239D01*
X77823702Y-29280000D01*
X77764536Y-29137159D01*
X77762218Y-29134138D01*
X77668282Y-29011718D01*
X77654989Y-29001518D01*
X77640055Y-28990058D01*
X77633861Y-28984626D01*
X76455367Y-27806132D01*
X76449940Y-27799944D01*
X76428282Y-27771718D01*
X76428280Y-27771717D01*
X76428280Y-27771716D01*
X76302842Y-27675465D01*
X76302841Y-27675464D01*
X76290090Y-27670182D01*
X76156760Y-27614955D01*
X76108924Y-27608658D01*
X76000000Y-27594318D01*
X75999999Y-27594318D01*
X75964738Y-27598960D01*
X75956506Y-27599500D01*
X75385881Y-27599500D01*
X75317760Y-27579498D01*
X75271267Y-27525842D01*
X75261163Y-27455568D01*
X75266952Y-27431885D01*
X75267578Y-27430094D01*
X75285368Y-27379255D01*
X75305565Y-27200000D01*
X75285368Y-27020745D01*
X75225789Y-26850478D01*
X75225787Y-26850475D01*
X75225787Y-26850474D01*
X75129817Y-26697739D01*
X75129816Y-26697737D01*
X75002262Y-26570183D01*
X75002260Y-26570182D01*
X74849525Y-26474212D01*
X74849522Y-26474211D01*
X74679255Y-26414632D01*
X74500000Y-26394435D01*
X74320745Y-26414632D01*
X74320742Y-26414632D01*
X74320742Y-26414633D01*
X74150477Y-26474211D01*
X74150474Y-26474212D01*
X73997745Y-26570178D01*
X73995450Y-26572009D01*
X73993685Y-26572729D01*
X73991746Y-26573948D01*
X73991532Y-26573608D01*
X73929720Y-26598845D01*
X73916887Y-26599500D01*
X73613494Y-26599500D01*
X73605262Y-26598960D01*
X73570001Y-26594318D01*
X73570000Y-26594318D01*
X73530639Y-26599500D01*
X73413239Y-26614955D01*
X73267160Y-26675463D01*
X73267152Y-26675468D01*
X73141719Y-26771717D01*
X73141716Y-26771720D01*
X73120063Y-26799938D01*
X73114625Y-26806139D01*
X72993733Y-26927030D01*
X72948673Y-26955990D01*
X72867668Y-26986204D01*
X72752453Y-27072453D01*
X72666203Y-27187670D01*
X72666201Y-27187673D01*
X72615909Y-27322515D01*
X72609500Y-27382121D01*
X72609500Y-27516503D01*
X72608961Y-27524725D01*
X72608815Y-27525842D01*
X72604318Y-27559999D01*
X72604318Y-27560001D01*
X72608960Y-27595265D01*
X72609500Y-27603496D01*
X72609500Y-27737865D01*
X72609502Y-27737886D01*
X72615908Y-27797479D01*
X72615909Y-27797483D01*
X72630263Y-27835970D01*
X72635326Y-27906786D01*
X72630263Y-27924028D01*
X72615910Y-27962511D01*
X72615909Y-27962518D01*
X72609500Y-28022121D01*
X72609500Y-28156503D01*
X72608961Y-28164725D01*
X72605163Y-28193579D01*
X72604318Y-28199999D01*
X72604318Y-28200001D01*
X72608960Y-28235265D01*
X72609500Y-28243496D01*
X72609500Y-28377865D01*
X72609502Y-28377886D01*
X72615908Y-28437480D01*
X72615908Y-28437481D01*
X72666201Y-28572326D01*
X72666203Y-28572329D01*
X72752453Y-28687546D01*
X72810061Y-28730670D01*
X72867669Y-28773796D01*
X72867671Y-28773796D01*
X72867673Y-28773798D01*
X72922691Y-28794318D01*
X73002514Y-28824090D01*
X73002517Y-28824091D01*
X73062127Y-28830500D01*
X73357872Y-28830499D01*
X73400124Y-28825957D01*
X73417476Y-28824092D01*
X73417477Y-28824091D01*
X73417483Y-28824091D01*
X73459434Y-28808444D01*
X73503466Y-28800500D01*
X75699075Y-28800500D01*
X75767196Y-28820502D01*
X75788170Y-28837405D01*
X76432610Y-29481845D01*
X76466636Y-29544157D01*
X76461571Y-29614972D01*
X76419024Y-29671808D01*
X76352504Y-29696619D01*
X76297291Y-29688155D01*
X76251564Y-29670122D01*
X76251565Y-29670122D01*
X76163105Y-29659500D01*
X76163102Y-29659500D01*
X75776898Y-29659500D01*
X75776894Y-29659500D01*
X75688435Y-29670122D01*
X75547658Y-29725638D01*
X75547654Y-29725641D01*
X75427077Y-29817077D01*
X75335641Y-29937654D01*
X75335638Y-29937658D01*
X75280122Y-30078435D01*
X75269500Y-30166894D01*
X75269500Y-31529073D01*
X75249498Y-31597194D01*
X75232596Y-31618168D01*
X75058170Y-31792595D01*
X74995858Y-31826620D01*
X74969074Y-31829500D01*
X73829675Y-31829500D01*
X73761554Y-31809498D01*
X73715061Y-31755842D01*
X73704753Y-31687053D01*
X73705682Y-31680000D01*
X73702669Y-31657113D01*
X73701039Y-31644730D01*
X73700499Y-31636498D01*
X73700499Y-31502135D01*
X73700499Y-31502128D01*
X73694091Y-31442517D01*
X73654228Y-31335639D01*
X73643798Y-31307673D01*
X73643796Y-31307670D01*
X73643796Y-31307669D01*
X73574847Y-31215565D01*
X73557546Y-31192453D01*
X73477511Y-31132540D01*
X73442331Y-31106204D01*
X73442329Y-31106203D01*
X73442326Y-31106201D01*
X73307483Y-31055909D01*
X73307486Y-31055909D01*
X73247873Y-31049500D01*
X72952135Y-31049500D01*
X72952114Y-31049502D01*
X72892523Y-31055907D01*
X72892516Y-31055909D01*
X72850565Y-31071556D01*
X72806534Y-31079500D01*
X72539304Y-31079500D01*
X72472268Y-31060187D01*
X72319525Y-30964212D01*
X72319522Y-30964211D01*
X72264514Y-30944963D01*
X72149255Y-30904632D01*
X71970000Y-30884435D01*
X71790745Y-30904632D01*
X71790742Y-30904632D01*
X71790742Y-30904633D01*
X71620477Y-30964211D01*
X71620474Y-30964212D01*
X71467739Y-31060182D01*
X71467737Y-31060183D01*
X71340183Y-31187737D01*
X71340182Y-31187739D01*
X71244210Y-31340477D01*
X71241557Y-31345988D01*
X71193979Y-31398684D01*
X71125465Y-31417293D01*
X71057766Y-31395905D01*
X71038940Y-31380414D01*
X70300907Y-30642382D01*
X70255683Y-30593958D01*
X70255682Y-30593957D01*
X70247311Y-30588866D01*
X70217899Y-30570980D01*
X70212575Y-30567356D01*
X70170476Y-30535433D01*
X70172354Y-30532955D01*
X70133320Y-30492942D01*
X70119090Y-30423386D01*
X70144724Y-30357178D01*
X70202082Y-30315340D01*
X70233437Y-30310434D01*
X70233253Y-30308644D01*
X70241823Y-30307762D01*
X70241823Y-30307761D01*
X70241826Y-30307762D01*
X70267380Y-30301534D01*
X70284772Y-30297296D01*
X70291116Y-30296090D01*
X70296444Y-30295357D01*
X70334920Y-30290070D01*
X70351225Y-30282986D01*
X70371590Y-30276138D01*
X70388852Y-30271933D01*
X70427402Y-30250256D01*
X70433167Y-30247394D01*
X70473720Y-30229780D01*
X70487506Y-30218563D01*
X70505264Y-30206477D01*
X70520759Y-30197766D01*
X70552027Y-30166496D01*
X70556813Y-30162178D01*
X70591108Y-30134278D01*
X70601360Y-30119752D01*
X70615197Y-30103326D01*
X70655056Y-30063467D01*
X70717366Y-30029443D01*
X70730030Y-30027357D01*
X70828059Y-30016313D01*
X70987690Y-29960456D01*
X71130890Y-29870477D01*
X71250477Y-29750890D01*
X71340456Y-29607690D01*
X71396313Y-29448059D01*
X71415249Y-29280000D01*
X71396313Y-29111941D01*
X71340456Y-28952310D01*
X71340453Y-28952306D01*
X71337384Y-28945930D01*
X71339307Y-28945003D01*
X71322807Y-28886649D01*
X71343492Y-28818733D01*
X71359706Y-28798818D01*
X71902603Y-28255920D01*
X71924719Y-28235265D01*
X71951044Y-28210680D01*
X71974016Y-28172902D01*
X71977633Y-28167586D01*
X72004361Y-28132343D01*
X72010883Y-28115801D01*
X72020435Y-28096570D01*
X72029672Y-28081382D01*
X72041602Y-28038799D01*
X72043651Y-28032708D01*
X72059876Y-27991565D01*
X72061692Y-27973887D01*
X72065704Y-27952778D01*
X72070500Y-27935665D01*
X72070500Y-27891444D01*
X72070831Y-27884997D01*
X72071006Y-27883300D01*
X72075351Y-27841029D01*
X72072332Y-27823517D01*
X72070500Y-27802111D01*
X72070500Y-24793781D01*
X72090502Y-24725660D01*
X72144158Y-24679167D01*
X72214432Y-24669063D01*
X72244717Y-24677372D01*
X72263238Y-24685044D01*
X72420000Y-24705682D01*
X72420001Y-24705682D01*
X72455262Y-24701040D01*
X72463494Y-24700500D01*
X72633161Y-24700500D01*
X72633177Y-24700499D01*
X72767865Y-24700499D01*
X72767872Y-24700499D01*
X72827483Y-24694091D01*
X72865968Y-24679736D01*
X72936782Y-24674671D01*
X72954028Y-24679735D01*
X72992514Y-24694090D01*
X72992517Y-24694091D01*
X73052127Y-24700500D01*
X73180475Y-24700499D01*
X73180487Y-24700500D01*
X73190639Y-24700500D01*
X73732665Y-24700500D01*
X73800786Y-24720502D01*
X73847279Y-24774158D01*
X73851586Y-24784865D01*
X73874211Y-24849522D01*
X73874212Y-24849524D01*
X73874213Y-24849526D01*
X73970182Y-25002260D01*
X73970183Y-25002262D01*
X74097737Y-25129816D01*
X74097739Y-25129817D01*
X74250474Y-25225787D01*
X74250475Y-25225787D01*
X74250478Y-25225789D01*
X74420745Y-25285368D01*
X74600000Y-25305565D01*
X74779255Y-25285368D01*
X74949522Y-25225789D01*
X75102262Y-25129816D01*
X75229816Y-25002262D01*
X75325789Y-24849522D01*
X75385368Y-24679255D01*
X75405565Y-24500000D01*
X75385368Y-24320745D01*
X75325789Y-24150478D01*
X75325787Y-24150475D01*
X75325787Y-24150474D01*
X75229817Y-23997739D01*
X75229816Y-23997737D01*
X75143699Y-23911620D01*
X75109673Y-23849308D01*
X75114738Y-23778493D01*
X75156659Y-23722128D01*
X75247922Y-23652922D01*
X75247923Y-23652920D01*
X75247925Y-23652919D01*
X75250905Y-23649940D01*
X75254297Y-23648087D01*
X75254790Y-23647714D01*
X75254846Y-23647787D01*
X75313217Y-23615914D01*
X75384032Y-23620979D01*
X75429095Y-23649940D01*
X75432075Y-23652920D01*
X75552654Y-23744358D01*
X75552658Y-23744361D01*
X75693435Y-23799877D01*
X75693434Y-23799877D01*
X75721394Y-23803234D01*
X75781898Y-23810500D01*
X75781901Y-23810500D01*
X76168099Y-23810500D01*
X76168102Y-23810500D01*
X76256564Y-23799877D01*
X76397342Y-23744361D01*
X76517922Y-23652922D01*
X76609361Y-23532342D01*
X76664877Y-23391564D01*
X76675500Y-23303102D01*
X76675500Y-21916898D01*
X76664877Y-21828436D01*
X76609361Y-21687658D01*
X76565777Y-21630184D01*
X76517922Y-21567077D01*
X76397345Y-21475641D01*
X76397341Y-21475638D01*
X76256565Y-21420123D01*
X76252866Y-21419188D01*
X76249848Y-21417474D01*
X76249049Y-21417159D01*
X76249093Y-21417045D01*
X76194651Y-21386126D01*
X75485906Y-20677381D01*
X75462964Y-20652816D01*
X75440683Y-20628958D01*
X75440682Y-20628957D01*
X75432311Y-20623866D01*
X75402899Y-20605980D01*
X75397575Y-20602356D01*
X75362339Y-20575637D01*
X75345806Y-20569117D01*
X75326568Y-20559562D01*
X75311383Y-20550328D01*
X75311380Y-20550327D01*
X75285468Y-20543067D01*
X75268802Y-20538397D01*
X75262695Y-20536343D01*
X75221566Y-20520124D01*
X75209456Y-20518878D01*
X75203873Y-20518304D01*
X75182784Y-20514296D01*
X75165665Y-20509500D01*
X75165662Y-20509500D01*
X75121453Y-20509500D01*
X75115005Y-20509169D01*
X75071029Y-20504647D01*
X75053511Y-20507668D01*
X75032104Y-20509500D01*
X73749397Y-20509500D01*
X73683174Y-20507238D01*
X73683173Y-20507238D01*
X73640218Y-20517705D01*
X73633878Y-20518910D01*
X73590087Y-20524928D01*
X73590075Y-20524931D01*
X73573768Y-20532014D01*
X73553413Y-20538858D01*
X73536154Y-20543064D01*
X73536145Y-20543067D01*
X73497612Y-20564733D01*
X73491834Y-20567603D01*
X73451280Y-20585219D01*
X73437486Y-20596441D01*
X73419733Y-20608524D01*
X73404238Y-20617236D01*
X73372980Y-20648494D01*
X73368190Y-20652816D01*
X73333893Y-20680720D01*
X73333891Y-20680722D01*
X73323639Y-20695246D01*
X73309798Y-20711676D01*
X73148878Y-20872596D01*
X73086569Y-20906620D01*
X73059785Y-20909500D01*
X72567090Y-20909500D01*
X72523059Y-20901556D01*
X72427483Y-20865909D01*
X72427486Y-20865909D01*
X72367873Y-20859500D01*
X72012135Y-20859500D01*
X72012114Y-20859502D01*
X71952520Y-20865908D01*
X71952513Y-20865909D01*
X71914028Y-20880263D01*
X71843213Y-20885326D01*
X71825970Y-20880263D01*
X71804343Y-20872197D01*
X71787483Y-20865909D01*
X71727873Y-20859500D01*
X71372135Y-20859500D01*
X71372114Y-20859502D01*
X71312519Y-20865908D01*
X71312518Y-20865908D01*
X71177673Y-20916201D01*
X71177670Y-20916203D01*
X71062453Y-21002453D01*
X70976204Y-21117668D01*
X70945990Y-21198673D01*
X70917030Y-21243733D01*
X70730691Y-21430072D01*
X70668379Y-21464098D01*
X70655706Y-21466184D01*
X70580753Y-21474630D01*
X70580739Y-21474633D01*
X70410477Y-21534211D01*
X70410474Y-21534212D01*
X70257739Y-21630182D01*
X70257737Y-21630183D01*
X70130183Y-21757737D01*
X70130182Y-21757739D01*
X70034212Y-21910474D01*
X70034211Y-21910477D01*
X70031964Y-21916900D01*
X69974632Y-22080745D01*
X69954435Y-22260000D01*
X69974632Y-22439255D01*
X69974633Y-22439257D01*
X70034211Y-22609522D01*
X70034212Y-22609525D01*
X70130182Y-22762260D01*
X70130183Y-22762262D01*
X70257737Y-22889816D01*
X70257739Y-22889817D01*
X70410474Y-22985787D01*
X70410475Y-22985787D01*
X70410478Y-22985789D01*
X70580745Y-23045368D01*
X70676076Y-23056109D01*
X70741527Y-23083611D01*
X70781720Y-23142135D01*
X70783893Y-23213098D01*
X70751062Y-23270411D01*
X70277382Y-23744092D01*
X70228959Y-23789317D01*
X70228953Y-23789323D01*
X70205985Y-23827091D01*
X70202356Y-23832424D01*
X70175639Y-23867656D01*
X70169115Y-23884199D01*
X70159564Y-23903428D01*
X70150328Y-23918617D01*
X70138397Y-23961194D01*
X70136341Y-23967309D01*
X70120124Y-24008435D01*
X70120123Y-24008441D01*
X70118304Y-24026122D01*
X70114296Y-24047212D01*
X70109500Y-24064333D01*
X70109500Y-24108547D01*
X70109169Y-24114995D01*
X70104647Y-24158969D01*
X70107668Y-24176487D01*
X70109500Y-24197895D01*
X70109500Y-26642447D01*
X70089498Y-26710568D01*
X70035842Y-26757061D01*
X69965568Y-26767165D01*
X69900988Y-26737671D01*
X69883105Y-26718584D01*
X69856500Y-26683500D01*
X69856498Y-26683499D01*
X69856498Y-26683498D01*
X69744865Y-26598845D01*
X69738658Y-26594138D01*
X69738656Y-26594137D01*
X69601077Y-26539882D01*
X69601078Y-26539882D01*
X69514620Y-26529500D01*
X69514618Y-26529500D01*
X69101636Y-26529500D01*
X69033515Y-26509498D01*
X69012541Y-26492595D01*
X67720591Y-25200645D01*
X67710460Y-25187999D01*
X67710256Y-25188169D01*
X67705203Y-25182061D01*
X67652755Y-25132809D01*
X67631043Y-25111097D01*
X67631035Y-25111089D01*
X67631029Y-25111084D01*
X67631021Y-25111077D01*
X67625278Y-25106622D01*
X67620763Y-25102766D01*
X67585397Y-25069555D01*
X67585392Y-25069551D01*
X67578910Y-25065988D01*
X67566930Y-25059401D01*
X67550407Y-25048548D01*
X67533765Y-25035639D01*
X67533764Y-25035638D01*
X67489222Y-25016362D01*
X67483900Y-25013755D01*
X67441372Y-24990374D01*
X67441361Y-24990370D01*
X67420954Y-24985130D01*
X67402257Y-24978729D01*
X67382923Y-24970363D01*
X67382924Y-24970363D01*
X67335001Y-24962773D01*
X67329187Y-24961569D01*
X67282181Y-24949501D01*
X67282180Y-24949500D01*
X67282177Y-24949500D01*
X67282174Y-24949500D01*
X67261116Y-24949500D01*
X67241405Y-24947949D01*
X67220594Y-24944652D01*
X67172279Y-24949220D01*
X67166346Y-24949500D01*
X63946500Y-24949500D01*
X63878379Y-24929498D01*
X63831886Y-24875842D01*
X63820500Y-24823500D01*
X63820500Y-24133899D01*
X63828443Y-24089870D01*
X63874091Y-23967483D01*
X63880500Y-23907873D01*
X63880499Y-23612128D01*
X63874091Y-23552517D01*
X63850587Y-23489500D01*
X63823798Y-23417673D01*
X63823796Y-23417670D01*
X63823796Y-23417669D01*
X63777307Y-23355568D01*
X63737546Y-23302453D01*
X63646314Y-23234158D01*
X63622331Y-23216204D01*
X63622329Y-23216203D01*
X63622326Y-23216201D01*
X63487483Y-23165909D01*
X63487486Y-23165909D01*
X63427873Y-23159500D01*
X63072135Y-23159500D01*
X63072114Y-23159502D01*
X63012520Y-23165908D01*
X63012513Y-23165909D01*
X62974028Y-23180263D01*
X62903213Y-23185326D01*
X62885970Y-23180263D01*
X62864343Y-23172197D01*
X62847483Y-23165909D01*
X62823952Y-23163379D01*
X62787878Y-23159500D01*
X62787873Y-23159500D01*
X62649363Y-23159500D01*
X62649361Y-23159500D01*
X61973769Y-23159500D01*
X61905648Y-23139498D01*
X61884674Y-23122595D01*
X61872262Y-23110183D01*
X61872260Y-23110182D01*
X61719525Y-23014212D01*
X61719522Y-23014211D01*
X61719522Y-23014210D01*
X61549255Y-22954632D01*
X61370000Y-22934435D01*
X61190745Y-22954632D01*
X61190742Y-22954632D01*
X61190742Y-22954633D01*
X61020477Y-23014211D01*
X61020474Y-23014212D01*
X60867739Y-23110182D01*
X60867737Y-23110183D01*
X60740183Y-23237737D01*
X60740182Y-23237739D01*
X60644212Y-23390474D01*
X60644211Y-23390477D01*
X60587511Y-23552517D01*
X60584632Y-23560745D01*
X60564435Y-23740000D01*
X60584632Y-23919255D01*
X60629406Y-24047212D01*
X60644211Y-24089522D01*
X60644212Y-24089525D01*
X60740182Y-24242260D01*
X60740183Y-24242262D01*
X60867737Y-24369816D01*
X60867739Y-24369817D01*
X61020474Y-24465787D01*
X61020475Y-24465787D01*
X61020478Y-24465789D01*
X61190745Y-24525368D01*
X61370000Y-24545565D01*
X61549255Y-24525368D01*
X61719522Y-24465789D01*
X61789862Y-24421591D01*
X61856353Y-24379813D01*
X61923389Y-24360500D01*
X62432127Y-24360500D01*
X62493500Y-24360500D01*
X62561621Y-24380502D01*
X62608114Y-24434158D01*
X62619500Y-24486500D01*
X62619500Y-24823500D01*
X62599498Y-24891621D01*
X62545842Y-24938114D01*
X62493500Y-24949500D01*
X59255726Y-24949500D01*
X59239619Y-24947721D01*
X59239595Y-24947986D01*
X59231704Y-24947240D01*
X59231703Y-24947240D01*
X59159783Y-24949500D01*
X59129074Y-24949500D01*
X59121852Y-24950412D01*
X59115940Y-24950877D01*
X59067432Y-24952401D01*
X59067423Y-24952403D01*
X59047188Y-24958281D01*
X59027839Y-24962288D01*
X59006949Y-24964927D01*
X59006943Y-24964928D01*
X59006942Y-24964929D01*
X59000660Y-24967416D01*
X58961825Y-24982790D01*
X58956211Y-24984712D01*
X58909606Y-24998253D01*
X58909600Y-24998256D01*
X58891460Y-25008983D01*
X58873718Y-25017674D01*
X58854130Y-25025430D01*
X58854129Y-25025431D01*
X58814870Y-25053954D01*
X58809908Y-25057213D01*
X58768135Y-25081917D01*
X58753239Y-25096814D01*
X58738212Y-25109648D01*
X58721166Y-25122033D01*
X58721163Y-25122036D01*
X58690226Y-25159431D01*
X58686230Y-25163821D01*
X57933587Y-25916467D01*
X57933583Y-25916472D01*
X57858137Y-26013737D01*
X57858134Y-26013742D01*
X57792866Y-26164571D01*
X57792864Y-26164578D01*
X57767153Y-26326899D01*
X57767152Y-26326904D01*
X57782620Y-26490528D01*
X57827417Y-26614956D01*
X57838294Y-26645168D01*
X57930675Y-26781102D01*
X58053959Y-26889792D01*
X58200400Y-26964408D01*
X58360796Y-27000260D01*
X58525069Y-26995097D01*
X58682898Y-26949244D01*
X58824365Y-26865581D01*
X59402542Y-26287403D01*
X59464853Y-26253380D01*
X59491636Y-26250500D01*
X66878364Y-26250500D01*
X66946485Y-26270502D01*
X66967459Y-26287405D01*
X67576477Y-26896423D01*
X67610503Y-26958735D01*
X67612483Y-27000540D01*
X67609500Y-27025377D01*
X67609500Y-27384620D01*
X67619882Y-27471077D01*
X67672102Y-27603496D01*
X67674138Y-27608658D01*
X67724798Y-27675463D01*
X67763500Y-27726500D01*
X67780778Y-27739603D01*
X67822971Y-27796702D01*
X67827596Y-27867548D01*
X67793184Y-27929648D01*
X67780778Y-27940397D01*
X67763500Y-27953499D01*
X67674139Y-28071340D01*
X67674137Y-28071343D01*
X67619882Y-28208922D01*
X67609500Y-28295379D01*
X67609500Y-28654620D01*
X67619882Y-28741077D01*
X67672878Y-28875463D01*
X67674138Y-28878658D01*
X67715929Y-28933768D01*
X67763500Y-28996500D01*
X67780778Y-29009603D01*
X67822971Y-29066702D01*
X67827596Y-29137548D01*
X67793184Y-29199648D01*
X67780778Y-29210397D01*
X67763500Y-29223499D01*
X67674139Y-29341340D01*
X67674137Y-29341343D01*
X67619882Y-29478922D01*
X67609500Y-29565379D01*
X67609500Y-29924620D01*
X67619882Y-30011077D01*
X67662741Y-30119757D01*
X67674138Y-30148658D01*
X67763500Y-30266500D01*
X67780777Y-30279601D01*
X67822970Y-30336698D01*
X67827596Y-30407544D01*
X67793186Y-30469644D01*
X67780781Y-30480394D01*
X67763500Y-30493499D01*
X67674139Y-30611340D01*
X67674137Y-30611343D01*
X67619882Y-30748922D01*
X67609500Y-30835379D01*
X67609500Y-31194620D01*
X67619882Y-31281077D01*
X67674137Y-31418656D01*
X67674138Y-31418658D01*
X67675721Y-31420745D01*
X67761856Y-31534333D01*
X67763500Y-31536500D01*
X67780777Y-31549601D01*
X67822970Y-31606698D01*
X67827596Y-31677544D01*
X67793186Y-31739644D01*
X67780781Y-31750394D01*
X67763500Y-31763499D01*
X67674139Y-31881340D01*
X67674137Y-31881343D01*
X67619882Y-32018922D01*
X67609500Y-32105379D01*
X67609500Y-32464620D01*
X67619882Y-32551077D01*
X67672841Y-32685369D01*
X67674138Y-32688658D01*
X67680593Y-32697170D01*
X67763500Y-32806500D01*
X67780778Y-32819603D01*
X67822971Y-32876702D01*
X67827596Y-32947548D01*
X67793184Y-33009648D01*
X67780778Y-33020397D01*
X67763500Y-33033499D01*
X67674139Y-33151340D01*
X67674137Y-33151343D01*
X67619882Y-33288922D01*
X67609500Y-33375379D01*
X67609500Y-33734620D01*
X67619882Y-33821077D01*
X67642075Y-33877353D01*
X67674138Y-33958658D01*
X67726667Y-34027928D01*
X67763500Y-34076500D01*
X67780778Y-34089603D01*
X67822971Y-34146702D01*
X67827596Y-34217548D01*
X67793184Y-34279648D01*
X67780778Y-34290397D01*
X67763500Y-34303499D01*
X67674139Y-34421340D01*
X67674137Y-34421343D01*
X67619882Y-34558922D01*
X67611912Y-34625293D01*
X67583930Y-34690543D01*
X67525113Y-34730306D01*
X67454136Y-34731959D01*
X67445196Y-34729198D01*
X67401784Y-34714007D01*
X67289255Y-34674632D01*
X67123336Y-34655937D01*
X67057884Y-34628434D01*
X67048349Y-34619825D01*
X66970582Y-34542058D01*
X66880907Y-34452382D01*
X66862486Y-34432658D01*
X66835683Y-34403958D01*
X66835682Y-34403957D01*
X66827311Y-34398866D01*
X66797899Y-34380980D01*
X66792575Y-34377356D01*
X66757339Y-34350637D01*
X66740806Y-34344117D01*
X66721568Y-34334562D01*
X66706383Y-34325328D01*
X66706380Y-34325327D01*
X66679494Y-34317794D01*
X66663802Y-34313397D01*
X66657695Y-34311343D01*
X66616566Y-34295124D01*
X66604456Y-34293878D01*
X66598873Y-34293304D01*
X66577784Y-34289296D01*
X66560665Y-34284500D01*
X66560662Y-34284500D01*
X66516453Y-34284500D01*
X66510005Y-34284169D01*
X66466029Y-34279647D01*
X66448511Y-34282668D01*
X66427104Y-34284500D01*
X64652449Y-34284500D01*
X64584328Y-34264498D01*
X64537835Y-34210842D01*
X64527731Y-34140568D01*
X64552051Y-34082367D01*
X64572970Y-34054781D01*
X64645862Y-33958658D01*
X64700117Y-33821077D01*
X64710500Y-33734618D01*
X64710500Y-33375382D01*
X64700117Y-33288923D01*
X64695786Y-33277941D01*
X64671721Y-33216916D01*
X64645862Y-33151342D01*
X64556500Y-33033500D01*
X64556498Y-33033499D01*
X64556498Y-33033498D01*
X64539223Y-33020398D01*
X64497029Y-32963300D01*
X64492403Y-32892454D01*
X64526813Y-32830354D01*
X64539223Y-32819602D01*
X64547696Y-32813176D01*
X64556500Y-32806500D01*
X64645862Y-32688658D01*
X64700117Y-32551077D01*
X64710500Y-32464618D01*
X64710500Y-32105382D01*
X64700117Y-32018923D01*
X64698760Y-32015483D01*
X64654372Y-31902922D01*
X64645862Y-31881342D01*
X64556500Y-31763500D01*
X64556498Y-31763499D01*
X64556498Y-31763498D01*
X64539223Y-31750398D01*
X64497029Y-31693300D01*
X64492403Y-31622454D01*
X64504845Y-31600000D01*
X65194435Y-31600000D01*
X65214632Y-31779255D01*
X65266722Y-31928120D01*
X65274211Y-31949522D01*
X65274212Y-31949525D01*
X65370182Y-32102260D01*
X65370183Y-32102262D01*
X65497737Y-32229816D01*
X65497739Y-32229817D01*
X65650474Y-32325787D01*
X65650475Y-32325787D01*
X65650478Y-32325789D01*
X65820745Y-32385368D01*
X66000000Y-32405565D01*
X66179255Y-32385368D01*
X66349522Y-32325789D01*
X66502262Y-32229816D01*
X66629816Y-32102262D01*
X66725789Y-31949522D01*
X66785368Y-31779255D01*
X66805565Y-31600000D01*
X66785368Y-31420745D01*
X66725789Y-31250478D01*
X66629816Y-31097738D01*
X66611578Y-31079500D01*
X66587404Y-31055325D01*
X66553379Y-30993012D01*
X66550500Y-30966230D01*
X66550500Y-28933768D01*
X66570502Y-28865647D01*
X66587400Y-28844677D01*
X66629816Y-28802262D01*
X66725789Y-28649522D01*
X66785368Y-28479255D01*
X66805565Y-28300000D01*
X66785368Y-28120745D01*
X66725789Y-27950478D01*
X66725787Y-27950475D01*
X66725787Y-27950474D01*
X66629817Y-27797739D01*
X66629816Y-27797737D01*
X66502262Y-27670183D01*
X66502260Y-27670182D01*
X66349525Y-27574212D01*
X66349522Y-27574211D01*
X66211291Y-27525842D01*
X66179255Y-27514632D01*
X66000000Y-27494435D01*
X65820745Y-27514632D01*
X65820742Y-27514632D01*
X65820742Y-27514633D01*
X65650477Y-27574211D01*
X65650474Y-27574212D01*
X65497739Y-27670182D01*
X65497737Y-27670183D01*
X65370183Y-27797737D01*
X65370182Y-27797739D01*
X65274212Y-27950474D01*
X65274211Y-27950477D01*
X65228406Y-28081380D01*
X65214632Y-28120745D01*
X65194435Y-28300000D01*
X65214632Y-28479255D01*
X65262003Y-28614633D01*
X65274211Y-28649522D01*
X65274212Y-28649525D01*
X65370181Y-28802258D01*
X65370184Y-28802262D01*
X65412596Y-28844674D01*
X65446620Y-28906983D01*
X65449500Y-28933768D01*
X65449500Y-30966230D01*
X65429498Y-31034351D01*
X65412596Y-31055325D01*
X65370183Y-31097738D01*
X65274212Y-31250475D01*
X65274211Y-31250477D01*
X65235813Y-31360214D01*
X65214632Y-31420745D01*
X65194435Y-31600000D01*
X64504845Y-31600000D01*
X64526813Y-31560354D01*
X64539223Y-31549602D01*
X64547696Y-31543176D01*
X64556500Y-31536500D01*
X64645862Y-31418658D01*
X64700117Y-31281077D01*
X64710500Y-31194618D01*
X64710500Y-30835382D01*
X64700117Y-30748923D01*
X64645862Y-30611342D01*
X64556500Y-30493500D01*
X64556498Y-30493499D01*
X64556498Y-30493498D01*
X64539220Y-30480395D01*
X64497028Y-30423296D01*
X64492404Y-30352450D01*
X64526816Y-30290351D01*
X64539215Y-30279606D01*
X64556500Y-30266500D01*
X64645862Y-30148658D01*
X64700117Y-30011077D01*
X64710500Y-29924618D01*
X64710500Y-29565382D01*
X64700117Y-29478923D01*
X64698673Y-29475262D01*
X64657360Y-29370499D01*
X64645862Y-29341342D01*
X64556500Y-29223500D01*
X64556498Y-29223499D01*
X64556498Y-29223498D01*
X64539223Y-29210398D01*
X64497029Y-29153300D01*
X64492403Y-29082454D01*
X64526813Y-29020354D01*
X64539223Y-29009602D01*
X64551966Y-28999938D01*
X64556500Y-28996500D01*
X64645862Y-28878658D01*
X64700117Y-28741077D01*
X64710500Y-28654618D01*
X64710500Y-28295382D01*
X64700117Y-28208923D01*
X64696598Y-28200000D01*
X64645862Y-28071343D01*
X64645862Y-28071342D01*
X64556500Y-27953500D01*
X64556498Y-27953499D01*
X64556498Y-27953498D01*
X64539223Y-27940398D01*
X64497029Y-27883300D01*
X64492403Y-27812454D01*
X64526813Y-27750354D01*
X64539223Y-27739602D01*
X64547696Y-27733176D01*
X64556500Y-27726500D01*
X64645862Y-27608658D01*
X64700117Y-27471077D01*
X64710500Y-27384618D01*
X64710500Y-27025382D01*
X64700117Y-26938923D01*
X64689563Y-26912161D01*
X64665237Y-26850474D01*
X64645862Y-26801342D01*
X64583103Y-26718581D01*
X64556500Y-26683499D01*
X64444865Y-26598845D01*
X64438658Y-26594138D01*
X64438656Y-26594137D01*
X64301077Y-26539882D01*
X64301078Y-26539882D01*
X64214620Y-26529500D01*
X64214618Y-26529500D01*
X62805382Y-26529500D01*
X62805379Y-26529500D01*
X62718922Y-26539882D01*
X62581340Y-26594138D01*
X62573888Y-26598329D01*
X62512134Y-26614500D01*
X62325636Y-26614500D01*
X62208239Y-26629955D01*
X62062160Y-26690463D01*
X62062157Y-26690465D01*
X61936718Y-26786718D01*
X61840463Y-26912160D01*
X61840462Y-26912161D01*
X61815509Y-26972403D01*
X61788196Y-27013278D01*
X58897238Y-29904235D01*
X58834926Y-29938261D01*
X58764110Y-29933196D01*
X58707275Y-29890649D01*
X58701456Y-29882176D01*
X58679817Y-29847739D01*
X58679816Y-29847737D01*
X58552262Y-29720183D01*
X58552260Y-29720182D01*
X58399525Y-29624212D01*
X58399522Y-29624211D01*
X58362479Y-29611249D01*
X58229255Y-29564632D01*
X58050000Y-29544435D01*
X58049999Y-29544435D01*
X58023926Y-29547372D01*
X57870745Y-29564632D01*
X57870742Y-29564632D01*
X57870742Y-29564633D01*
X57700477Y-29624211D01*
X57700475Y-29624212D01*
X57611392Y-29680187D01*
X57544356Y-29699500D01*
X55912813Y-29699500D01*
X55844692Y-29679498D01*
X55798199Y-29625842D01*
X55787605Y-29559395D01*
X55805565Y-29400000D01*
X55785368Y-29220745D01*
X55725789Y-29050478D01*
X55725787Y-29050475D01*
X55725787Y-29050474D01*
X55629817Y-28897739D01*
X55629816Y-28897737D01*
X55502262Y-28770183D01*
X55502260Y-28770182D01*
X55349525Y-28674212D01*
X55349522Y-28674211D01*
X55278965Y-28649522D01*
X55179255Y-28614632D01*
X55000000Y-28594435D01*
X54999999Y-28594435D01*
X54973926Y-28597372D01*
X54820745Y-28614632D01*
X54820742Y-28614632D01*
X54820742Y-28614633D01*
X54650477Y-28674211D01*
X54650474Y-28674212D01*
X54497745Y-28770178D01*
X54495450Y-28772009D01*
X54493685Y-28772729D01*
X54491746Y-28773948D01*
X54491532Y-28773608D01*
X54429720Y-28798845D01*
X54416887Y-28799500D01*
X52403494Y-28799500D01*
X52395262Y-28798960D01*
X52360001Y-28794318D01*
X52360000Y-28794318D01*
X52247643Y-28809110D01*
X52203239Y-28814955D01*
X52057160Y-28875463D01*
X52057152Y-28875468D01*
X51931719Y-28971717D01*
X51931716Y-28971720D01*
X51910063Y-28999938D01*
X51904625Y-29006139D01*
X46686139Y-34224625D01*
X46679938Y-34230063D01*
X46651720Y-34251716D01*
X46651719Y-34251717D01*
X46651718Y-34251718D01*
X46625574Y-34285789D01*
X46572823Y-34354535D01*
X46555468Y-34377153D01*
X46555463Y-34377160D01*
X46494955Y-34523239D01*
X46474318Y-34679999D01*
X46474318Y-34680000D01*
X46478960Y-34715262D01*
X46479500Y-34723494D01*
X46479500Y-40536505D01*
X46478960Y-40544737D01*
X46474318Y-40579999D01*
X46474318Y-40580000D01*
X44004396Y-40580000D01*
X44007972Y-30410000D01*
X44744435Y-30410000D01*
X44764632Y-30589255D01*
X44766278Y-30593958D01*
X44824211Y-30759522D01*
X44824212Y-30759525D01*
X44920182Y-30912260D01*
X44920183Y-30912262D01*
X45047737Y-31039816D01*
X45047739Y-31039817D01*
X45200474Y-31135787D01*
X45200475Y-31135787D01*
X45200478Y-31135789D01*
X45370745Y-31195368D01*
X45550000Y-31215565D01*
X45729255Y-31195368D01*
X45899522Y-31135789D01*
X46052262Y-31039816D01*
X46179816Y-30912262D01*
X46275789Y-30759522D01*
X46335368Y-30589255D01*
X46345139Y-30502527D01*
X46346353Y-30491756D01*
X46373856Y-30426302D01*
X46382456Y-30416777D01*
X46816372Y-29982861D01*
X46822554Y-29977440D01*
X46850782Y-29955782D01*
X46947036Y-29830341D01*
X47007544Y-29684262D01*
X47018053Y-29604435D01*
X47028182Y-29527500D01*
X47026266Y-29512944D01*
X47037206Y-29442796D01*
X47084334Y-29389697D01*
X47151188Y-29370499D01*
X47831516Y-29370499D01*
X47831518Y-29370499D01*
X47925304Y-29355646D01*
X48038342Y-29298050D01*
X48128050Y-29208342D01*
X48185646Y-29095304D01*
X48200500Y-29001519D01*
X48200499Y-23858482D01*
X48185646Y-23764696D01*
X48156848Y-23708177D01*
X48128050Y-23651657D01*
X48038342Y-23561949D01*
X47962502Y-23523307D01*
X47925304Y-23504354D01*
X47831519Y-23489500D01*
X47831515Y-23489500D01*
X45668483Y-23489500D01*
X45574697Y-23504353D01*
X45461657Y-23561949D01*
X45371949Y-23651657D01*
X45324715Y-23744361D01*
X45314354Y-23764696D01*
X45300953Y-23849308D01*
X45299500Y-23858484D01*
X45299500Y-29001516D01*
X45314353Y-29095302D01*
X45371949Y-29208342D01*
X45461655Y-29298048D01*
X45461660Y-29298051D01*
X45533071Y-29334437D01*
X45584687Y-29383185D01*
X45601753Y-29452100D01*
X45578853Y-29519301D01*
X45564964Y-29535799D01*
X45520691Y-29580072D01*
X45458379Y-29614098D01*
X45445706Y-29616184D01*
X45370753Y-29624630D01*
X45370739Y-29624633D01*
X45200477Y-29684211D01*
X45200474Y-29684212D01*
X45047739Y-29780182D01*
X45047737Y-29780183D01*
X44920183Y-29907737D01*
X44920182Y-29907739D01*
X44824212Y-30060474D01*
X44824211Y-30060477D01*
X44787911Y-30164217D01*
X44764632Y-30230745D01*
X44744435Y-30410000D01*
X44007972Y-30410000D01*
X44011602Y-20085953D01*
X44031628Y-20017842D01*
X44085300Y-19971368D01*
X44137597Y-19960000D01*
X88108500Y-19960000D01*
X88176621Y-19980002D01*
G37*
%TD.AperFunction*%
%TD*%
D36*
X43410000Y-19400000D02*
X88800000Y-19400000D01*
X88800000Y-48900000D01*
X43410000Y-48900000D01*
X43410000Y-19400000D01*
M02*
