%TF.GenerationSoftware,KiCad,Pcbnew,7.0.6*%
%TF.CreationDate,2024-03-10T16:24:52+08:00*%
%TF.ProjectId,Digital Clock,44696769-7461-46c2-9043-6c6f636b2e6b,_____*%
%TF.SameCoordinates,Original*%
%TF.FileFunction,Drillmap*%
%TF.FilePolarity,Positive*%
%FSLAX45Y45*%
G04 Gerber Fmt 4.5, Leading zero omitted, Abs format (unit mm)*
G04 Created by KiCad (PCBNEW 7.0.6) date 2024-03-10 16:24:52*
%MOMM*%
%LPD*%
G01*
G04 APERTURE LIST*
%ADD10C,0.100000*%
%ADD11C,0.200000*%
G04 APERTURE END LIST*
D10*
X4341000Y-1940000D02*
X8880000Y-1940000D01*
X8880000Y-4890000D01*
X4341000Y-4890000D01*
X4341000Y-1940000D01*
D11*
X4596777Y-5206484D02*
X4596777Y-5006484D01*
X4596777Y-5006484D02*
X4644396Y-5006484D01*
X4644396Y-5006484D02*
X4672967Y-5016008D01*
X4672967Y-5016008D02*
X4692015Y-5035055D01*
X4692015Y-5035055D02*
X4701539Y-5054103D01*
X4701539Y-5054103D02*
X4711063Y-5092198D01*
X4711063Y-5092198D02*
X4711063Y-5120770D01*
X4711063Y-5120770D02*
X4701539Y-5158865D01*
X4701539Y-5158865D02*
X4692015Y-5177912D01*
X4692015Y-5177912D02*
X4672967Y-5196960D01*
X4672967Y-5196960D02*
X4644396Y-5206484D01*
X4644396Y-5206484D02*
X4596777Y-5206484D01*
X4796777Y-5206484D02*
X4796777Y-5073150D01*
X4796777Y-5111246D02*
X4806301Y-5092198D01*
X4806301Y-5092198D02*
X4815824Y-5082674D01*
X4815824Y-5082674D02*
X4834872Y-5073150D01*
X4834872Y-5073150D02*
X4853920Y-5073150D01*
X4920586Y-5206484D02*
X4920586Y-5073150D01*
X4920586Y-5006484D02*
X4911063Y-5016008D01*
X4911063Y-5016008D02*
X4920586Y-5025531D01*
X4920586Y-5025531D02*
X4930110Y-5016008D01*
X4930110Y-5016008D02*
X4920586Y-5006484D01*
X4920586Y-5006484D02*
X4920586Y-5025531D01*
X5044396Y-5206484D02*
X5025348Y-5196960D01*
X5025348Y-5196960D02*
X5015824Y-5177912D01*
X5015824Y-5177912D02*
X5015824Y-5006484D01*
X5149158Y-5206484D02*
X5130110Y-5196960D01*
X5130110Y-5196960D02*
X5120586Y-5177912D01*
X5120586Y-5177912D02*
X5120586Y-5006484D01*
X5377729Y-5206484D02*
X5377729Y-5006484D01*
X5377729Y-5006484D02*
X5444396Y-5149341D01*
X5444396Y-5149341D02*
X5511063Y-5006484D01*
X5511063Y-5006484D02*
X5511063Y-5206484D01*
X5692015Y-5206484D02*
X5692015Y-5101722D01*
X5692015Y-5101722D02*
X5682491Y-5082674D01*
X5682491Y-5082674D02*
X5663443Y-5073150D01*
X5663443Y-5073150D02*
X5625348Y-5073150D01*
X5625348Y-5073150D02*
X5606301Y-5082674D01*
X5692015Y-5196960D02*
X5672967Y-5206484D01*
X5672967Y-5206484D02*
X5625348Y-5206484D01*
X5625348Y-5206484D02*
X5606301Y-5196960D01*
X5606301Y-5196960D02*
X5596777Y-5177912D01*
X5596777Y-5177912D02*
X5596777Y-5158865D01*
X5596777Y-5158865D02*
X5606301Y-5139817D01*
X5606301Y-5139817D02*
X5625348Y-5130293D01*
X5625348Y-5130293D02*
X5672967Y-5130293D01*
X5672967Y-5130293D02*
X5692015Y-5120770D01*
X5787253Y-5073150D02*
X5787253Y-5273150D01*
X5787253Y-5082674D02*
X5806301Y-5073150D01*
X5806301Y-5073150D02*
X5844396Y-5073150D01*
X5844396Y-5073150D02*
X5863443Y-5082674D01*
X5863443Y-5082674D02*
X5872967Y-5092198D01*
X5872967Y-5092198D02*
X5882491Y-5111246D01*
X5882491Y-5111246D02*
X5882491Y-5168389D01*
X5882491Y-5168389D02*
X5872967Y-5187436D01*
X5872967Y-5187436D02*
X5863443Y-5196960D01*
X5863443Y-5196960D02*
X5844396Y-5206484D01*
X5844396Y-5206484D02*
X5806301Y-5206484D01*
X5806301Y-5206484D02*
X5787253Y-5196960D01*
X5968205Y-5187436D02*
X5977729Y-5196960D01*
X5977729Y-5196960D02*
X5968205Y-5206484D01*
X5968205Y-5206484D02*
X5958682Y-5196960D01*
X5958682Y-5196960D02*
X5968205Y-5187436D01*
X5968205Y-5187436D02*
X5968205Y-5206484D01*
X5968205Y-5082674D02*
X5977729Y-5092198D01*
X5977729Y-5092198D02*
X5968205Y-5101722D01*
X5968205Y-5101722D02*
X5958682Y-5092198D01*
X5958682Y-5092198D02*
X5968205Y-5082674D01*
X5968205Y-5082674D02*
X5968205Y-5101722D01*
M02*
